<svg width="16" height="16" viewBox="0 0 16 16" fill="none" xmlns="http://www.w3.org/2000/svg">
<path d="M1.59961 2.76951C1.59961 2.58644 1.66148 2.4317 1.78521 2.3053C1.90894 2.17889 2.06041 2.11569 2.23961 2.11569H13.7596C13.9388 2.11569 14.0903 2.17889 14.214 2.3053C14.3377 2.4317 14.3996 2.58644 14.3996 2.76951V13.2307C14.3996 13.4138 14.3377 13.5685 14.214 13.6949C14.0903 13.8213 13.9388 13.8845 13.7596 13.8845H2.23961C2.06041 13.8845 1.90894 13.8213 1.78521 13.6949C1.66148 13.5685 1.59961 13.4138 1.59961 13.2307V2.76951ZM5.43961 3.42334V12.5769H10.5596V3.42334H5.43961ZM2.87961 3.42334V4.73098H4.15961V3.42334H2.87961ZM11.8396 3.42334V4.73098H13.1196V3.42334H11.8396ZM2.87961 6.03863V7.34628H4.15961V6.03863H2.87961ZM11.8396 6.03863V7.34628H13.1196V6.03863H11.8396ZM2.87961 8.65393V9.96158H4.15961V8.65393H2.87961ZM11.8396 8.65393V9.96158H13.1196V8.65393H11.8396ZM2.87961 11.2692V12.5769H4.15961V11.2692H2.87961ZM11.8396 11.2692V12.5769H13.1196V11.2692H11.8396Z" fill="#8B99FF"/>
</svg>
