<svg width="22" height="20" viewBox="0 0 22 20" fill="none" xmlns="http://www.w3.org/2000/svg">
<g filter="url(#filter0_d_440_19893)">
<path d="M15.7366 18.9878C15.4757 18.9878 15.1788 18.9157 14.9088 18.7716L11.0039 16.8174L7.072 18.7716C6.82007 18.9067 6.54115 18.9788 6.24423 18.9788C5.86633 18.9788 5.49743 18.8617 5.20052 18.6365C4.65167 18.2223 4.37274 17.5108 4.49871 16.8534L5.29949 12.6838L2.21334 9.81099C1.73647 9.32468 1.55652 8.63124 1.73647 7.97383L1.74547 7.95582C1.9704 7.28039 2.52825 6.8121 3.20306 6.72204L7.48589 5.93855L9.40236 2.03009C9.70828 1.4087 10.3381 1.01245 11.0039 1.01245C11.6967 1.01245 12.3446 1.42671 12.6145 2.0391L14.531 5.93855L18.8138 6.68602C19.4886 6.78508 20.0554 7.27139 20.2444 7.93781C20.4603 8.58622 20.2804 9.29766 19.7945 9.78397L19.7855 9.79297L16.7173 12.6928L17.4911 16.8714C17.6171 17.5378 17.3472 18.2133 16.7983 18.6365C16.4834 18.8617 16.1145 18.9878 15.7366 18.9878Z" fill="#F0B90B"/>
</g>
<defs>
<filter id="filter0_d_440_19893" x="0.917969" y="0.262451" width="20.166" height="19.4753" filterUnits="userSpaceOnUse" color-interpolation-filters="sRGB">
<feFlood flood-opacity="0" result="BackgroundImageFix"/>
<feColorMatrix in="SourceAlpha" type="matrix" values="0 0 0 0 0 0 0 0 0 0 0 0 0 0 0 0 0 0 127 0" result="hardAlpha"/>
<feOffset/>
<feGaussianBlur stdDeviation="0.375"/>
<feComposite in2="hardAlpha" operator="out"/>
<feColorMatrix type="matrix" values="0 0 0 0 0 0 0 0 0 0 0 0 0 0 0 0 0 0 0.25 0"/>
<feBlend mode="normal" in2="BackgroundImageFix" result="effect1_dropShadow_440_19893"/>
<feBlend mode="normal" in="SourceGraphic" in2="effect1_dropShadow_440_19893" result="shape"/>
</filter>
</defs>
</svg>
