<svg width="22" height="22" viewBox="0 0 22 22" fill="none" xmlns="http://www.w3.org/2000/svg">
<g filter="url(#filter0_d_440_17800)">
<path d="M15.7366 19.9877C15.4757 19.9877 15.1788 19.9156 14.9088 19.7715L11.0039 17.8173L7.072 19.7715C6.82007 19.9066 6.54115 19.9787 6.24423 19.9787C5.86633 19.9787 5.49743 19.8616 5.20052 19.6364C4.65167 19.2222 4.37274 18.5107 4.49871 17.8533L5.29949 13.6837L2.21334 10.8109C1.73647 10.3246 1.55652 9.63115 1.73647 8.97374L1.74547 8.95573C1.9704 8.2803 2.52825 7.81201 3.20306 7.72195L7.48589 6.93846L9.40236 3.03C9.70828 2.40861 10.3381 2.01236 11.0039 2.01236C11.6967 2.01236 12.3446 2.42662 12.6145 3.03901L14.531 6.93846L18.8138 7.68593C19.4886 7.78499 20.0554 8.2713 20.2444 8.93772C20.4603 9.58612 20.2804 10.2976 19.7945 10.7839L19.7855 10.7929L16.7173 13.6927L17.4911 17.8713C17.6171 18.5378 17.3472 19.2132 16.7983 19.6364C16.4834 19.8616 16.1145 19.9877 15.7366 19.9877Z" stroke="#686E7D" stroke-width="1.25" stroke-linecap="round" stroke-linejoin="round" shape-rendering="crispEdges"/>
</g>
<defs>
<filter id="filter0_d_440_17800" x="0.417969" y="0.76236" width="21.166" height="20.4753" filterUnits="userSpaceOnUse" color-interpolation-filters="sRGB">
<feFlood flood-opacity="0" result="BackgroundImageFix"/>
<feColorMatrix in="SourceAlpha" type="matrix" values="0 0 0 0 0 0 0 0 0 0 0 0 0 0 0 0 0 0 127 0" result="hardAlpha"/>
<feOffset/>
<feGaussianBlur stdDeviation="0.3125"/>
<feComposite in2="hardAlpha" operator="out"/>
<feColorMatrix type="matrix" values="0 0 0 0 0 0 0 0 0 0 0 0 0 0 0 0 0 0 0.25 0"/>
<feBlend mode="normal" in2="BackgroundImageFix" result="effect1_dropShadow_440_17800"/>
<feBlend mode="normal" in="SourceGraphic" in2="effect1_dropShadow_440_17800" result="shape"/>
</filter>
</defs>
</svg>
