<svg width="24" height="24" viewBox="0 0 24 24" fill="none" xmlns="http://www.w3.org/2000/svg">
<path d="M19.8607 19.3827L18.7846 13.1777H19.148C19.4404 13.1777 19.676 12.9421 19.676 12.6497V8.75127C19.676 8.45888 19.4404 8.22335 19.148 8.22335H14.1531V4.52792C14.1531 4.23553 13.9176 4 13.6252 4H10.3765C10.0841 4 9.84855 4.23553 9.84855 4.52792V8.22335H4.85362C4.56124 8.22335 4.32571 8.45888 4.32571 8.75127V12.6497C4.32571 12.9421 4.56124 13.1777 4.85362 13.1777H5.21708L4.14093 19.3827C4.13484 19.4132 4.13281 19.4437 4.13281 19.4721C4.13281 19.7645 4.36835 20 4.66073 20H19.3409C19.3714 20 19.4018 19.998 19.4303 19.9919C19.7186 19.9431 19.9115 19.669 19.8607 19.3827ZM5.74703 9.64467H11.2699V5.42132H12.7318V9.64467H18.2546V11.7563H5.74703V9.64467ZM15.2496 18.5787V15.4112C15.2496 15.3218 15.1765 15.2487 15.0871 15.2487H14.1125C14.0232 15.2487 13.9501 15.3218 13.9501 15.4112V18.5787H10.0516V15.4112C10.0516 15.3218 9.9785 15.2487 9.88916 15.2487H8.91454C8.8252 15.2487 8.7521 15.3218 8.7521 15.4112V18.5787H5.72266L6.6384 13.2995H17.3612L18.277 18.5787H15.2496Z" fill="white"/>
</svg>
