<svg width="24" height="24" viewBox="0 0 24 24" fill="none" xmlns="http://www.w3.org/2000/svg">
<path d="M18.2646 5.64258L18.3213 5.67969C18.3875 5.74601 18.3875 5.85356 18.3213 5.91992L12.2412 12L18.3213 18.0801C18.3874 18.1466 18.3876 18.254 18.3213 18.3203C18.2551 18.3865 18.1474 18.3864 18.0811 18.3203L12.001 12.2402L5.9209 18.3203C5.87119 18.3698 5.79854 18.3821 5.7373 18.3574L5.68066 18.3203C5.63076 18.2704 5.61851 18.1972 5.64355 18.1357L5.68066 18.0801L11.7607 12L5.68066 5.91992C5.61435 5.85353 5.6143 5.74605 5.68066 5.67969C5.74701 5.61334 5.85448 5.61337 5.9209 5.67969L12.001 11.7598L18.0811 5.67969C18.1308 5.63005 18.2034 5.61774 18.2646 5.64258Z" fill="white" stroke="white" stroke-width="1.5"/>
</svg>
