<svg width="32" height="32" viewBox="0 0 32 32" fill="none" xmlns="http://www.w3.org/2000/svg">
<rect width="32" height="32" rx="16" fill="#2A2C32"/>
<path d="M22.7568 8.97754C22.8214 8.91316 22.9209 8.90464 22.9941 8.95312L23.0234 8.97754C23.0971 9.05121 23.097 9.17037 23.0234 9.24414V9.24512L16.2686 16L23.0234 22.7549C23.0973 22.8287 23.0972 22.9486 23.0234 23.0225C22.9498 23.0961 22.8305 23.0959 22.7568 23.0225L16.5898 16.8564L16.001 16.2676L9.24609 23.0225C9.1815 23.087 9.08116 23.0953 9.00781 23.0469L8.97852 23.0225C8.91404 22.9579 8.90586 22.8585 8.9541 22.7852L8.97852 22.7549L15.7334 16L8.97852 9.24512C8.90475 9.17135 8.90475 9.0513 8.97852 8.97754C9.05227 8.90378 9.1723 8.90375 9.24609 8.97754L16.001 15.7324L22.7559 8.97754H22.7568Z" fill="white" stroke="white" stroke-width="1.66667"/>
</svg>
