<svg width="16" height="16" viewBox="0 0 16 16" fill="none" xmlns="http://www.w3.org/2000/svg">
<path d="M3.78662 5.66602H12.2134C12.3008 5.66603 12.3879 5.70207 12.4536 5.76758C12.5163 5.83688 12.5522 5.92995 12.5474 6.0293L12.1343 12.8574C12.0955 13.3964 12.0518 13.8132 11.8276 14.1201C11.6351 14.3836 11.2181 14.6728 10.1401 14.6729H5.85986C4.78278 14.6728 4.3653 14.3827 4.17236 14.1182C4.00385 13.8871 3.93706 13.5944 3.89795 13.2363L3.86572 12.8564L3.45264 6.02246C3.44799 5.93094 3.48284 5.83584 3.54834 5.76465C3.60096 5.70766 3.69075 5.66603 3.78662 5.66602ZM6.88623 10.333C6.33695 10.3332 5.88623 10.7837 5.88623 11.333C5.88623 11.8823 6.33695 12.3328 6.88623 12.333H9.10693C9.65629 12.3329 10.1069 11.8824 10.1069 11.333C10.1069 10.7836 9.65629 10.3332 9.10693 10.333H6.88623ZM6.3335 7.66602C5.78413 7.66602 5.33367 8.11669 5.3335 8.66602C5.3335 9.21549 5.78402 9.66602 6.3335 9.66602H9.6665C10.216 9.66602 10.6665 9.21549 10.6665 8.66602C10.6663 8.11669 10.2159 7.66602 9.6665 7.66602H6.3335ZM11.7251 3.7959C12.4845 3.8468 13.2414 3.90923 13.9976 3.98438H14.0024C14.0027 3.9845 14.0027 3.98561 14.0034 3.98633H13.9722C13.2233 3.9117 12.4741 3.84845 11.7251 3.7959ZM10.3198 3.71191C8.68544 3.63293 7.052 3.61815 5.42139 3.69727L5.60205 3.68652L5.6665 3.29395L5.80713 2.44043L5.80615 2.43945C5.86269 2.09689 5.91452 1.85078 6.06201 1.66895C6.18207 1.52102 6.44055 1.33307 7.11963 1.33301H8.8667C9.54232 1.33303 9.80341 1.52652 9.92627 1.68066C10.0768 1.86976 10.1271 2.12173 10.1802 2.44727V2.4502L10.3198 3.27539V3.71191Z" fill="#9CA1AF" stroke="#9CA1AF"/>
</svg>
