<svg width="24" height="24" viewBox="0 0 24 24" fill="none" xmlns="http://www.w3.org/2000/svg">
<path d="M19.8675 5.42372C18.3783 4.74903 16.8062 4.27039 15.1913 4C14.9703 4.39093 14.7703 4.79315 14.5922 5.20496C12.8721 4.94845 11.1227 4.94845 9.40251 5.20496C9.22433 4.79319 9.02437 4.39097 8.80348 4C7.18752 4.27267 5.61432 4.75245 4.1236 5.42725C1.16413 9.76017 0.361871 13.9855 0.763003 18.1508C2.49613 19.418 4.43601 20.3816 6.49831 21C6.96267 20.382 7.37357 19.7263 7.72667 19.04C7.05603 18.7921 6.40875 18.4863 5.79231 18.1261C5.95455 18.0096 6.11321 17.8897 6.26655 17.7732C8.06023 18.608 10.0179 19.0408 12.0001 19.0408C13.9822 19.0408 15.9399 18.608 17.7335 17.7732C17.8887 17.8985 18.0474 18.0185 18.2078 18.1261C17.5902 18.4869 16.9417 18.7932 16.2699 19.0417C16.6225 19.7277 17.0334 20.3828 17.4982 21C19.5623 20.3841 21.5037 19.4209 23.2371 18.1525C23.7078 13.3221 22.433 9.13564 19.8675 5.42372ZM8.23476 15.5892C7.11695 15.5892 6.19344 14.5853 6.19344 13.3504C6.19344 12.1154 7.08485 11.1027 8.2312 11.1027C9.37755 11.1027 10.2939 12.1154 10.2743 13.3504C10.2547 14.5853 9.37399 15.5892 8.23476 15.5892ZM15.7654 15.5892C14.6458 15.5892 13.7258 14.5853 13.7258 13.3504C13.7258 12.1154 14.6173 11.1027 15.7654 11.1027C16.9135 11.1027 17.8227 12.1154 17.8031 13.3504C17.7835 14.5853 16.9046 15.5892 15.7654 15.5892Z" fill="#9CA1AF"/>
</svg>
