<svg width="16" height="16" viewBox="0 0 16 16" fill="none" xmlns="http://www.w3.org/2000/svg">
<path d="M6.90723 4.91309C6.98986 5.07632 7.07689 5.24122 7.17578 5.4082V5.40918C7.25592 5.5448 7.35434 5.69677 7.44824 5.82031V5.82129C7.56031 5.99309 7.68544 6.14113 7.75195 6.2207V6.22168C7.76635 6.24019 7.79803 6.28171 7.81641 6.30469C7.82757 6.31864 7.84367 6.33828 7.8623 6.3584C7.86823 6.36478 7.87852 6.37522 7.8916 6.3877C8.06451 6.59361 8.24836 6.78402 8.42578 6.94727L8.60938 7.10938C8.63278 7.13196 8.6549 7.1536 8.67578 7.17188C8.69023 7.18452 8.70675 7.19875 8.72363 7.21191C8.72519 7.21313 8.72905 7.21448 8.7334 7.21777C8.85422 7.31929 8.9963 7.43259 9.12891 7.52051V7.52148C9.27718 7.62739 9.43002 7.72858 9.5918 7.82422V7.8252C9.75747 7.92336 9.92623 8.00817 10.0908 8.08887L6.43359 11.748L6.42676 11.7539C6.42015 11.7585 6.40907 11.7652 6.39453 11.7725C6.38016 11.7796 6.36587 11.7858 6.35352 11.79C6.34556 11.7928 6.34003 11.7934 6.33789 11.7939L3.79004 12.1523L3.77734 12.1553C3.72435 12.1641 3.67199 12.168 3.62012 12.168C3.37747 12.168 3.17427 12.0835 3.03711 11.9512C2.88508 11.7904 2.79535 11.5297 2.8418 11.2139V11.2109L3.2002 8.6709C3.20091 8.66861 3.20186 8.66567 3.20312 8.66211C3.20758 8.64954 3.21467 8.63414 3.22266 8.61816C3.23063 8.60226 3.2387 8.5886 3.24512 8.5791C3.25195 8.56904 3.25328 8.56898 3.24707 8.5752L6.90723 4.91309ZM10.7461 1.83887C11.2087 1.84191 11.73 2.07869 12.3262 2.6748L12.3281 2.67676C12.9397 3.28226 13.165 3.80012 13.1602 4.27637V4.28125C13.1602 4.73871 12.9349 5.25184 12.3281 5.85254L12.3252 5.85645L11.625 6.56152C10.1216 6.08677 8.91548 4.88379 8.43945 3.38086L9.14648 2.6748C9.75718 2.06411 10.2851 1.83589 10.7461 1.83887Z" fill="#9CA1AF" stroke="#9CA1AF"/>
</svg>
