<svg width="24" height="24" viewBox="0 0 24 24" fill="none" xmlns="http://www.w3.org/2000/svg">
<mask id="path-1-inside-1_199_825" fill="white">
<path fill-rule="evenodd" clip-rule="evenodd" d="M11.9999 2.87993C6.9631 2.87993 2.87994 6.9631 2.87994 11.9999C2.87994 17.0367 6.9631 21.1199 11.9999 21.1199C17.0368 21.1199 21.12 17.0367 21.12 11.9999C21.12 6.9631 17.0368 2.87993 11.9999 2.87993ZM1.43994 11.9999C1.43994 6.16781 6.16781 1.43994 11.9999 1.43994C17.832 1.43994 22.56 6.16781 22.56 11.9999C22.56 17.8321 17.832 22.5599 11.9999 22.5599C6.16781 22.5599 1.43994 17.8321 1.43994 11.9999Z"/>
<path fill-rule="evenodd" clip-rule="evenodd" d="M21.5999 12.6399H2.39992V11.3599H21.5999V12.6399Z"/>
<path fill-rule="evenodd" clip-rule="evenodd" d="M11.3598 21.5999V2.39992H12.6398V21.5999H11.3598ZM16.6 11.9999C16.6 8.5235 15.3498 5.08436 12.8989 2.81041L13.6607 1.98937C16.3833 4.5154 17.72 8.27628 17.72 11.9999C17.72 15.7235 16.3833 19.4844 13.6607 22.0105L12.8989 21.1894C15.3498 18.9154 16.6 15.4763 16.6 11.9999ZM6.39949 11.9999C6.39949 8.28169 7.69256 4.52276 10.3323 1.99542L11.1068 2.80441C8.73311 5.07708 7.51949 8.51814 7.51949 11.9999C7.51951 15.4817 8.73314 18.9228 11.1069 21.1954L10.3323 22.0044C7.69259 19.477 6.39951 15.7182 6.39949 11.9999Z"/>
<path fill-rule="evenodd" clip-rule="evenodd" d="M11.9999 6.33273C15.4708 6.33273 19.0005 6.97455 21.3929 8.31108C21.663 8.46191 21.7597 8.80306 21.6088 9.07308C21.4581 9.34308 21.1168 9.4397 20.8469 9.28887C18.687 8.08239 15.3728 7.45273 11.9999 7.45273C8.62706 7.45273 5.31282 8.08239 3.15301 9.28887C2.88299 9.4397 2.54184 9.34308 2.39101 9.07308C2.24019 8.80306 2.3368 8.46191 2.60682 8.31108C4.99944 6.97455 8.52899 6.33273 11.9999 6.33273ZM11.9999 17.3599C15.4708 17.3599 19.0005 16.718 21.3929 15.3815C21.663 15.2307 21.7597 14.8895 21.6088 14.6195C21.4581 14.3495 21.1168 14.2529 20.8469 14.4037C18.687 15.6102 15.3728 16.2399 11.9999 16.2399C8.62706 16.2399 5.31282 15.6102 3.15301 14.4037C2.88299 14.2529 2.54184 14.3495 2.39101 14.6195C2.24019 14.8895 2.3368 15.2307 2.60682 15.3815C4.99944 16.718 8.52899 17.3599 11.9999 17.3599Z"/>
</mask>
<path fill-rule="evenodd" clip-rule="evenodd" d="M11.9999 2.87993C6.9631 2.87993 2.87994 6.9631 2.87994 11.9999C2.87994 17.0367 6.9631 21.1199 11.9999 21.1199C17.0368 21.1199 21.12 17.0367 21.12 11.9999C21.12 6.9631 17.0368 2.87993 11.9999 2.87993ZM1.43994 11.9999C1.43994 6.16781 6.16781 1.43994 11.9999 1.43994C17.832 1.43994 22.56 6.16781 22.56 11.9999C22.56 17.8321 17.832 22.5599 11.9999 22.5599C6.16781 22.5599 1.43994 17.8321 1.43994 11.9999Z" fill="white"/>
<path fill-rule="evenodd" clip-rule="evenodd" d="M21.5999 12.6399H2.39992V11.3599H21.5999V12.6399Z" fill="white"/>
<path fill-rule="evenodd" clip-rule="evenodd" d="M11.3598 21.5999V2.39992H12.6398V21.5999H11.3598ZM16.6 11.9999C16.6 8.5235 15.3498 5.08436 12.8989 2.81041L13.6607 1.98937C16.3833 4.5154 17.72 8.27628 17.72 11.9999C17.72 15.7235 16.3833 19.4844 13.6607 22.0105L12.8989 21.1894C15.3498 18.9154 16.6 15.4763 16.6 11.9999ZM6.39949 11.9999C6.39949 8.28169 7.69256 4.52276 10.3323 1.99542L11.1068 2.80441C8.73311 5.07708 7.51949 8.51814 7.51949 11.9999C7.51951 15.4817 8.73314 18.9228 11.1069 21.1954L10.3323 22.0044C7.69259 19.477 6.39951 15.7182 6.39949 11.9999Z" fill="white"/>
<path fill-rule="evenodd" clip-rule="evenodd" d="M11.9999 6.33273C15.4708 6.33273 19.0005 6.97455 21.3929 8.31108C21.663 8.46191 21.7597 8.80306 21.6088 9.07308C21.4581 9.34308 21.1168 9.4397 20.8469 9.28887C18.687 8.08239 15.3728 7.45273 11.9999 7.45273C8.62706 7.45273 5.31282 8.08239 3.15301 9.28887C2.88299 9.4397 2.54184 9.34308 2.39101 9.07308C2.24019 8.80306 2.3368 8.46191 2.60682 8.31108C4.99944 6.97455 8.52899 6.33273 11.9999 6.33273ZM11.9999 17.3599C15.4708 17.3599 19.0005 16.718 21.3929 15.3815C21.663 15.2307 21.7597 14.8895 21.6088 14.6195C21.4581 14.3495 21.1168 14.2529 20.8469 14.4037C18.687 15.6102 15.3728 16.2399 11.9999 16.2399C8.62706 16.2399 5.31282 15.6102 3.15301 14.4037C2.88299 14.2529 2.54184 14.3495 2.39101 14.6195C2.24019 14.8895 2.3368 15.2307 2.60682 15.3815C4.99944 16.718 8.52899 17.3599 11.9999 17.3599Z" fill="white"/>
<path d="M21.5999 12.6399V14.1399H23.0999V12.6399H21.5999ZM2.39992 12.6399H0.899918V14.1399H2.39992V12.6399ZM2.39992 11.3599V9.85989H0.899918V11.3599H2.39992ZM21.5999 11.3599H23.0999V9.85989H21.5999V11.3599ZM11.3598 21.5999H9.85984V23.0999H11.3598V21.5999ZM11.3598 2.39992V0.899916H9.85984V2.39992H11.3598ZM12.6398 2.39992H14.1398V0.899916H12.6398V2.39992ZM12.6398 21.5999V23.0999H14.1398V21.5999H12.6398ZM12.8989 2.81041L11.7993 1.79019L10.7791 2.8898L11.8787 3.91002L12.8989 2.81041ZM13.6607 1.98937L14.6809 0.889746L13.5813 -0.13045L12.5611 0.969153L13.6607 1.98937ZM13.6607 22.0105L12.561 23.0306L13.5812 24.1304L14.6809 23.1101L13.6607 22.0105ZM12.8989 21.1894L11.8787 20.0897L10.7791 21.1099L11.7992 22.2095L12.8989 21.1894ZM6.39949 11.9999H4.89949V11.9999L6.39949 11.9999ZM10.3323 1.99542L11.4158 0.958078L10.3784 -0.125405L9.29493 0.91195L10.3323 1.99542ZM11.1068 2.80441L12.1442 3.88788L13.2276 2.85054L12.1903 1.76707L11.1068 2.80441ZM7.51949 11.9999H6.01949V11.9999L7.51949 11.9999ZM11.1069 21.1954L12.1903 22.2328L13.2277 21.1493L12.1442 20.112L11.1069 21.1954ZM10.3323 22.0044L9.29493 23.0879L10.3784 24.1252L11.4157 23.0418L10.3323 22.0044ZM21.3929 8.31108L20.6614 9.6206L20.6616 9.62069L21.3929 8.31108ZM21.6088 9.07308L20.2993 8.34139L20.299 8.34194L21.6088 9.07308ZM20.8469 9.28887L21.5786 7.97944L21.5784 7.97933L20.8469 9.28887ZM3.15301 9.28887L3.88452 10.5984L3.88452 10.5984L3.15301 9.28887ZM2.39101 9.07308L1.08144 9.80453L1.08149 9.80462L2.39101 9.07308ZM2.60682 8.31108L1.8753 7.00154L1.8753 7.00154L2.60682 8.31108ZM21.3929 15.3815L20.6616 14.0719L20.6614 14.072L21.3929 15.3815ZM21.6088 14.6195L20.299 15.3506L20.2994 15.3512L21.6088 14.6195ZM20.8469 14.4037L21.5784 15.7133L21.5785 15.7132L20.8469 14.4037ZM3.15301 14.4037L2.4215 15.7133L2.4215 15.7133L3.15301 14.4037ZM2.39101 14.6195L1.08147 13.888L1.08146 13.888L2.39101 14.6195ZM2.60682 15.3815L3.33831 14.072L3.33827 14.0719L2.60682 15.3815ZM11.9999 2.87993V1.37993C6.13468 1.37993 1.37994 6.13468 1.37994 11.9999H2.87994H4.37994C4.37994 7.79153 7.79153 4.37993 11.9999 4.37993V2.87993ZM2.87994 11.9999H1.37994C1.37994 17.8651 6.13468 22.6199 11.9999 22.6199V21.1199V19.6199C7.79153 19.6199 4.37994 16.2083 4.37994 11.9999H2.87994ZM11.9999 21.1199V22.6199C17.8652 22.6199 22.62 17.8651 22.62 11.9999H21.12H19.62C19.62 16.2083 16.2084 19.6199 11.9999 19.6199V21.1199ZM21.12 11.9999H22.62C22.62 6.13467 17.8652 1.37993 11.9999 1.37993V2.87993V4.37993C16.2084 4.37993 19.62 7.79154 19.62 11.9999H21.12ZM1.43994 11.9999H2.93994C2.93994 6.99623 6.99623 2.93994 11.9999 2.93994V1.43994V-0.0600586C5.33938 -0.0600586 -0.0600586 5.33938 -0.0600586 11.9999H1.43994ZM11.9999 1.43994V2.93994C17.0036 2.93994 21.06 6.99625 21.06 11.9999H22.56H24.06C24.06 5.33936 18.6604 -0.0600586 11.9999 -0.0600586V1.43994ZM22.56 11.9999H21.06C21.06 17.0036 17.0036 21.0599 11.9999 21.0599V22.5599V24.0599C18.6604 24.0599 24.06 18.6605 24.06 11.9999H22.56ZM11.9999 22.5599V21.0599C6.99623 21.0599 2.93994 17.0036 2.93994 11.9999H1.43994H-0.0600586C-0.0600586 18.6605 5.33939 24.0599 11.9999 24.0599V22.5599ZM21.5999 12.6399V11.1399H2.39992V12.6399V14.1399H21.5999V12.6399ZM2.39992 12.6399H3.89992V11.3599H2.39992H0.899918V12.6399H2.39992ZM2.39992 11.3599V12.8599H21.5999V11.3599V9.85989H2.39992V11.3599ZM21.5999 11.3599H20.0999V12.6399H21.5999H23.0999V11.3599H21.5999ZM11.3598 21.5999H12.8598V2.39992H11.3598H9.85984V21.5999H11.3598ZM11.3598 2.39992V3.89992H12.6398V2.39992V0.899916H11.3598V2.39992ZM12.6398 2.39992H11.1398V21.5999H12.6398H14.1398V2.39992H12.6398ZM12.6398 21.5999V20.0999H11.3598V21.5999V23.0999H12.6398V21.5999ZM16.6 11.9999H18.1C18.1 8.19214 16.7337 4.3222 13.9191 1.7108L12.8989 2.81041L11.8787 3.91002C13.9659 5.84652 15.1 8.85486 15.1 11.9999H16.6ZM12.8989 2.81041L13.9985 3.83063L14.7603 3.00959L13.6607 1.98937L12.5611 0.969153L11.7993 1.79019L12.8989 2.81041ZM13.6607 1.98937L12.6405 3.089C14.9991 5.27728 16.22 8.60714 16.22 11.9999H17.72H19.22C19.22 7.94543 17.7676 3.75352 14.6809 0.889746L13.6607 1.98937ZM17.72 11.9999H16.22C16.22 15.3926 14.9991 18.7225 12.6405 20.9109L13.6607 22.0105L14.6809 23.1101C17.7676 20.2463 19.22 16.0544 19.22 11.9999H17.72ZM13.6607 22.0105L14.7603 20.9903L13.9986 20.1692L12.8989 21.1894L11.7992 22.2095L12.561 23.0306L13.6607 22.0105ZM12.8989 21.1894L13.9191 22.289C16.7337 19.6776 18.1 15.8076 18.1 11.9999H16.6H15.1C15.1 15.1449 13.9659 18.1533 11.8787 20.0897L12.8989 21.1894ZM6.39949 11.9999H7.89949C7.89949 8.59814 9.0863 5.26502 11.3696 3.07889L10.3323 1.99542L9.29493 0.91195C6.29883 3.78051 4.89949 7.96524 4.89949 11.9999H6.39949ZM10.3323 1.99542L9.2488 3.03276L10.0233 3.84175L11.1068 2.80441L12.1903 1.76707L11.4158 0.958078L10.3323 1.99542ZM11.1068 2.80441L10.0695 1.72094C7.33966 4.33455 6.01949 8.2012 6.01949 11.9999H7.51949H9.01949C9.01949 8.83508 10.1266 5.81962 12.1442 3.88788L11.1068 2.80441ZM7.51949 11.9999L6.01949 11.9999C6.01951 15.7986 7.33969 19.6653 10.0695 22.2789L11.1069 21.1954L12.1442 20.112C10.1266 18.1803 9.0195 15.1648 9.01949 11.9999L7.51949 11.9999ZM11.1069 21.1954L10.0234 20.1581L9.24884 20.967L10.3323 22.0044L11.4157 23.0418L12.1903 22.2328L11.1069 21.1954ZM10.3323 22.0044L11.3696 20.9209C9.08632 18.7348 7.89951 15.4017 7.89949 11.9999L6.39949 11.9999L4.89949 11.9999C4.89951 16.0346 6.29886 20.2193 9.29493 23.0879L10.3323 22.0044ZM11.9999 6.33273V7.83273C15.3395 7.83273 18.5808 8.45827 20.6614 9.6206L21.3929 8.31108L22.1245 7.00156C19.4202 5.49083 15.6021 4.83273 11.9999 4.83273V6.33273ZM21.3929 8.31108L20.6616 9.62069C20.2084 9.36763 20.046 8.79486 20.2993 8.34139L21.6088 9.07308L22.9182 9.80476C23.4734 8.81126 23.1176 7.55619 22.1243 7.00147L21.3929 8.31108ZM21.6088 9.07308L20.299 8.34194C20.5523 7.88817 21.1253 7.72614 21.5786 7.97944L20.8469 9.28887L20.1152 10.5983C21.1083 11.1533 22.3638 10.798 22.9185 9.80421L21.6088 9.07308ZM20.8469 9.28887L21.5784 7.97933C19.1067 6.59868 15.5041 5.95273 11.9999 5.95273V7.45273V8.95273C15.2414 8.95273 18.2673 9.5661 20.1154 10.5984L20.8469 9.28887ZM11.9999 7.45273V5.95273C8.49573 5.95273 4.89311 6.59867 2.42149 7.97933L3.15301 9.28887L3.88452 10.5984C5.73252 9.5661 8.75838 8.95273 11.9999 8.95273V7.45273ZM3.15301 9.28887L2.4215 7.97933C2.87474 7.72615 3.44737 7.88836 3.70053 8.34153L2.39101 9.07308L1.08149 9.80462C1.63632 10.7978 2.89124 11.1533 3.88452 10.5984L3.15301 9.28887ZM2.39101 9.07308L3.70058 8.34162C3.95369 8.79479 3.79158 9.36743 3.33833 9.62062L2.60682 8.31108L1.8753 7.00154C0.882025 7.55639 0.526692 8.81133 1.08144 9.80453L2.39101 9.07308ZM2.60682 8.31108L3.33833 9.62062C5.41914 8.45827 8.66031 7.83273 11.9999 7.83273V6.33273V4.83273C8.39767 4.83273 4.57974 5.49083 1.8753 7.00154L2.60682 8.31108ZM11.9999 17.3599V18.8599C15.6022 18.8599 19.4202 18.2017 22.1245 16.691L21.3929 15.3815L20.6614 14.072C18.5807 15.2343 15.3395 15.8599 11.9999 15.8599V17.3599ZM21.3929 15.3815L22.1243 16.6912C23.1176 16.1364 23.4734 14.8813 22.9182 13.8878L21.6088 14.6195L20.2994 15.3512C20.0459 14.8978 20.2084 14.3249 20.6616 14.0719L21.3929 15.3815ZM21.6088 14.6195L22.9186 13.8884C22.3638 12.8946 21.1083 12.5394 20.1152 13.0943L20.8469 14.4037L21.5785 15.7132C21.1253 15.9664 20.5523 15.8045 20.299 15.3506L21.6088 14.6195ZM20.8469 14.4037L20.1154 13.0942C18.2673 14.1265 15.2414 14.7399 11.9999 14.7399V16.2399V17.7399C15.5041 17.7399 19.1067 17.0939 21.5784 15.7133L20.8469 14.4037ZM11.9999 16.2399V14.7399C8.7584 14.7399 5.73253 14.1265 3.88452 13.0942L3.15301 14.4037L2.4215 15.7133C4.8931 17.0939 8.49571 17.7399 11.9999 17.7399V16.2399ZM3.15301 14.4037L3.88452 13.0942C2.89129 12.5394 1.63632 12.8947 1.08147 13.888L2.39101 14.6195L3.70055 15.351C3.44736 15.8043 2.8747 15.9664 2.4215 15.7133L3.15301 14.4037ZM2.39101 14.6195L1.08146 13.888C0.526684 14.8812 0.882007 16.1362 1.87536 16.6911L2.60682 15.3815L3.33827 14.0719C3.79159 14.3251 3.9537 14.8978 3.70056 15.351L2.39101 14.6195ZM2.60682 15.3815L1.87532 16.6911C4.57973 18.2017 8.39763 18.8599 11.9999 18.8599V17.3599V15.8599C8.66035 15.8599 5.41915 15.2343 3.33831 14.072L2.60682 15.3815Z" fill="white" mask="url(#path-1-inside-1_199_825)"/>
</svg>
