<svg width="24" height="24" viewBox="0 0 24 24" fill="none" xmlns="http://www.w3.org/2000/svg">
<g clip-path="url(#clip0_31_1470)">
<mask id="mask0_31_1470" style="mask-type:luminance" maskUnits="userSpaceOnUse" x="0" y="0" width="24" height="24">
<path d="M24 0H0V24H24V0Z" fill="white"/>
</mask>
<g mask="url(#mask0_31_1470)">
<path d="M8.36007 0.789433C5.9621 1.62131 3.89409 3.20025 2.45981 5.29431C1.02551 7.38837 0.300549 9.88721 0.391395 12.4237C0.482239 14.9603 1.38411 17.4008 2.96452 19.387C4.54494 21.373 6.7206 22.7999 9.17195 23.4581C11.1593 23.971 13.2415 23.9935 15.2394 23.5238C17.0494 23.1173 18.7229 22.2476 20.0956 21.0001C21.5246 19.6619 22.5618 17.9597 23.0956 16.0763C23.676 14.0282 23.7794 11.8743 23.3976 9.78006H12.2376V14.4094H18.7006C18.5715 15.1478 18.2948 15.8525 17.8869 16.4813C17.479 17.1103 16.9483 17.6504 16.3269 18.0694C15.5377 18.5915 14.6481 18.9428 13.7151 19.1006C12.7793 19.2746 11.8195 19.2746 10.8838 19.1006C9.93542 18.9046 9.03825 18.5132 8.24944 17.9513C6.98221 17.0543 6.0307 15.7799 5.53069 14.3101C5.02222 12.8127 5.02222 11.1893 5.53069 9.69194C5.88661 8.64234 6.47501 7.68669 7.25195 6.89631C8.14106 5.97521 9.26669 5.3168 10.5054 4.99332C11.744 4.66985 13.0479 4.6938 14.2738 5.06256C15.2314 5.35655 16.1073 5.87019 16.8313 6.56256C17.56 5.83755 18.2875 5.11068 19.0139 4.38194C19.3889 3.99006 19.7976 3.61694 20.1669 3.21569C19.0617 2.1872 17.7645 1.38691 16.3494 0.860683C13.7726 -0.0749617 10.9531 -0.100106 8.36007 0.789433Z" fill="white"/>
<path d="M8.36022 0.789367C10.9531 -0.100776 13.7726 -0.0762935 16.3495 0.858742C17.7648 1.38855 19.0615 2.19269 20.1652 3.22499C19.7902 3.62624 19.3945 4.00124 19.012 4.39123C18.2845 5.11749 17.5576 5.84124 16.8315 6.56248C16.1074 5.87013 15.2316 5.35647 14.274 5.06248C13.0484 4.69245 11.7446 4.6671 10.5056 4.98925C9.26662 5.31141 8.1403 5.96861 7.25021 6.88874C6.47327 7.67912 5.88488 8.63478 5.52896 9.68436L1.64209 6.67498C3.03335 3.91605 5.44224 1.80565 8.36022 0.789367Z" fill="#E33629"/>
<path d="M0.611889 9.6563C0.820805 8.62091 1.16765 7.61823 1.64315 6.67505L5.53002 9.69192C5.02153 11.1893 5.02153 12.8127 5.53002 14.3101C4.23501 15.3101 2.93939 16.3151 1.64315 17.325C0.452796 14.9556 0.0897629 12.256 0.611889 9.6563Z" fill="#F8BD00"/>
<path d="M12.2381 9.77808H23.3982C23.7799 11.8723 23.6766 14.0262 23.0962 16.0743C22.5624 17.9577 21.5251 19.66 20.0962 20.998C18.8419 20.0193 17.5819 19.048 16.3275 18.0693C16.9494 17.6499 17.4802 17.1091 17.8881 16.4796C18.2959 15.85 18.5725 15.1446 18.7012 14.4056H12.2381C12.2363 12.8643 12.2381 11.3212 12.2381 9.77808Z" fill="#587DBD"/>
<path d="M1.64062 17.325C2.93688 16.325 4.2325 15.32 5.5275 14.3101C6.02851 15.7805 6.98139 17.0549 8.25 17.9513C9.04127 18.5105 9.94036 18.8988 10.89 19.0913C11.8257 19.2653 12.7855 19.2653 13.7213 19.0913C14.6542 18.9333 15.5439 18.582 16.3332 18.06C17.5875 19.0388 18.8475 20.01 20.1018 20.9888C18.7292 22.2371 17.0557 23.1074 15.2456 23.5145C13.2476 23.9841 11.1655 23.9616 9.17813 23.4488C7.60632 23.0291 6.13813 22.2893 4.86563 21.2757C3.51875 20.2064 2.41866 18.8588 1.64062 17.325Z" fill="#319F43"/>
</g>
</g>
<defs>
<clipPath id="clip0_31_1470">
<rect width="24" height="24" fill="white"/>
</clipPath>
</defs>
</svg>
