<svg width="16" height="16" viewBox="0 0 16 16" fill="none" xmlns="http://www.w3.org/2000/svg">
<path d="M1.5957 3.10075C1.5957 2.79355 1.8453 2.54395 2.1525 2.54395H13.8466C14.1538 2.54395 14.4034 2.79355 14.4034 3.10075V12.8998C14.4034 13.207 14.1538 13.4566 13.8466 13.4566H2.1525C2.00483 13.4566 1.86321 13.3979 1.75879 13.2935C1.65437 13.1891 1.5957 13.0475 1.5957 12.8998V3.10075ZM2.5557 3.50395V12.4966H13.4434V3.50395H2.5557ZM12.1474 7.08603C12.0201 7.08603 11.898 7.03545 11.808 6.94544C11.718 6.85542 11.6674 6.73333 11.6674 6.60603V5.33243H10.3938C10.2665 5.33243 10.1444 5.28185 10.0544 5.19184C9.96435 5.10182 9.91378 4.97973 9.91378 4.85243C9.91378 4.72512 9.96435 4.60303 10.0544 4.51301C10.1444 4.423 10.2665 4.37243 10.3938 4.37243H12.0834C12.3842 4.37243 12.6274 4.61563 12.6274 4.91643V6.60603C12.6274 6.73333 12.5768 6.85542 12.4868 6.94544C12.3968 7.03545 12.2747 7.08603 12.1474 7.08603ZM4.40722 9.36955C4.40722 9.24224 4.35665 9.12015 4.26663 9.03013C4.17662 8.94012 4.05453 8.88955 3.92722 8.88955C3.79992 8.88955 3.67783 8.94012 3.58781 9.03013C3.49779 9.12015 3.44722 9.24224 3.44722 9.36955V11.0591C3.44722 11.3599 3.69042 11.6031 3.99122 11.6031H5.68082C5.80813 11.6031 5.93022 11.5526 6.02023 11.4626C6.11025 11.3725 6.16082 11.2505 6.16082 11.1231C6.16082 10.9958 6.11025 10.8738 6.02023 10.7837C5.93022 10.6937 5.80813 10.6431 5.68082 10.6431H4.40722V9.36955Z" fill="#686E7D"/>
</svg>
