<svg width="16" height="16" viewBox="0 0 16 16" fill="none" xmlns="http://www.w3.org/2000/svg">
<path d="M1.60225 11.4235C1.60225 13.0651 2.93195 14.3975 4.57623 14.3975C6.22051 14.3975 7.54756 13.0678 7.54756 11.4235V8.45214H4.57359C2.92931 8.45214 1.60225 9.78184 1.60225 11.4235ZM6.46636 11.4235C6.46636 12.4677 5.61778 13.3189 4.57094 13.3189C3.52675 13.3189 2.67553 12.4703 2.67553 11.4235C2.67553 10.3793 3.5241 9.52806 4.57094 9.52806H6.46636V11.4235ZM14.3943 4.57408C14.3943 2.9298 13.062 1.6001 11.423 1.6001C9.784 1.6001 8.45165 2.9298 8.45165 4.57408V7.54805H11.4256C13.0646 7.54541 14.3943 6.21307 14.3943 4.57408ZM9.52757 4.57408C9.52757 3.52988 10.3761 2.67866 11.423 2.67866C12.4672 2.67866 13.3184 3.52724 13.3184 4.57408C13.3184 5.62092 12.4698 6.46949 11.423 6.46949H9.52757V4.57408ZM4.57359 7.54541H7.54756V4.57408C7.54492 2.93244 6.21522 1.6001 4.57359 1.6001C2.93195 1.6001 1.59961 2.9298 1.59961 4.57408C1.60225 6.21307 2.92931 7.54541 4.57359 7.54541ZM4.57359 2.67866C5.61778 2.67866 6.469 3.52724 6.469 4.57408V6.46949H4.57359C3.52939 6.46949 2.67817 5.62092 2.67817 4.57408C2.67817 3.52724 3.52675 2.67866 4.57359 2.67866ZM11.423 8.45214H8.45165V11.4261C8.45165 13.0678 9.78135 14.4001 11.4256 14.4001C13.0673 14.4001 14.3996 13.0704 14.3996 11.4261C14.3996 9.78184 13.0646 8.45214 11.423 8.45214ZM11.423 13.3162C10.3788 13.3162 9.52757 12.4677 9.52757 11.4208V9.5307H11.423C12.4672 9.5307 13.3184 10.3793 13.3184 11.4261C13.3158 12.4677 12.4672 13.3162 11.423 13.3162Z" fill="#8B99FF"/>
</svg>
