<svg width="20" height="20" viewBox="0 0 20 20" fill="none" xmlns="http://www.w3.org/2000/svg">
<rect width="20" height="20" rx="10" fill="white"/>
<path fill-rule="evenodd" clip-rule="evenodd" d="M10.0006 11.1219L12.8038 13.925C12.9526 14.0738 13.1543 14.1573 13.3647 14.1573C13.575 14.1573 13.7768 14.0738 13.9255 13.925C14.0743 13.7763 14.1578 13.5745 14.1578 13.3642C14.1578 13.1538 14.0743 12.9521 13.9255 12.8033L11.1213 10.0002L13.925 7.19699C13.9986 7.12334 14.057 7.03591 14.0968 6.93969C14.1366 6.84347 14.1571 6.74035 14.1571 6.63622C14.1571 6.53209 14.1365 6.42898 14.0967 6.33278C14.0568 6.23658 13.9984 6.14918 13.9247 6.07556C13.8511 6.00194 13.7636 5.94356 13.6674 5.90373C13.5712 5.8639 13.4681 5.84341 13.3639 5.84344C13.2598 5.84346 13.1567 5.864 13.0605 5.90387C12.9643 5.94374 12.8769 6.00217 12.8033 6.07583L10.0006 8.879L7.19747 6.07583C7.12436 6.00006 7.0369 5.93962 6.94018 5.89802C6.84346 5.85642 6.73943 5.83449 6.63415 5.83353C6.52887 5.83257 6.42445 5.85258 6.32699 5.8924C6.22952 5.93222 6.14097 5.99106 6.06648 6.06547C5.992 6.13988 5.93308 6.22838 5.89317 6.32581C5.85326 6.42323 5.83315 6.52763 5.83401 6.63291C5.83488 6.73819 5.8567 6.84225 5.89821 6.939C5.93972 7.03576 6.00008 7.12328 6.07578 7.19646L8.88001 10.0002L6.0763 12.8039C6.00061 12.877 5.94025 12.9646 5.89874 13.0613C5.85723 13.1581 5.8354 13.2621 5.83454 13.3674C5.83367 13.4727 5.85379 13.5771 5.8937 13.6745C5.93361 13.7719 5.99253 13.8604 6.06701 13.9349C6.1415 14.0093 6.23005 14.0681 6.32751 14.1079C6.42498 14.1477 6.5294 14.1678 6.63468 14.1668C6.73996 14.1658 6.84399 14.1439 6.94071 14.1023C7.03743 14.0607 7.12489 14.0003 7.198 13.9245L10.0006 11.1219Z" fill="#121314"/>
</svg>
