<svg width="16" height="16" viewBox="0 0 16 16" fill="none" xmlns="http://www.w3.org/2000/svg">
<path fill-rule="evenodd" clip-rule="evenodd" d="M12.7958 2.92983L12.8413 2.9749L12.8426 2.97362C13.7184 3.85288 13.4672 5.61956 12.1973 7.62236L14.6951 10.121L14.5878 10.3301C14.1678 11.149 13.5993 11.8828 12.9113 12.4939C12.0049 13.3032 10.9108 13.8735 9.72823 14.1528L9.6853 14.1632L9.6239 14.1777L9.57968 14.1876L9.48223 14.2091L9.40151 14.225L9.34098 14.2366C9.27658 14.2494 9.20917 14.2615 9.14349 14.2726L9.08853 14.2808L9.04689 14.2859C8.98764 14.294 8.92868 14.3014 8.87001 14.3083C7.88547 14.419 6.88863 14.3084 5.95233 13.9844C5.01604 13.6605 4.16395 13.1315 3.45835 12.436L3.41713 12.396C2.53959 11.5168 2.78817 9.74882 4.05983 7.74472L1.56201 5.24604L1.66934 5.03696C2.08815 4.21747 2.65731 3.48403 3.34715 2.87487C4.05206 2.24814 4.87051 1.76225 5.75825 1.4435C5.96432 1.36922 6.17985 1.3044 6.3915 1.24944C6.56594 1.20269 6.74226 1.1633 6.92001 1.13138C6.98011 1.11936 7.04794 1.10691 7.11363 1.09574C8.1382 0.936041 9.18593 1.01877 10.1727 1.33729C11.1595 1.65581 12.0579 2.20125 12.7958 2.92983ZM11.9513 3.03716H11.9487L11.9513 3.03844C11.1025 2.7757 9.75571 3.2003 8.33206 4.13838C9.41525 3.83656 10.4628 3.99284 11.1399 4.67031C11.7813 5.31302 11.9569 6.28845 11.7139 7.31325C11.7024 7.36792 11.6881 7.4233 11.6709 7.4794C12.8331 5.72131 13.2049 4.07656 12.469 3.34198C12.457 3.32873 12.4441 3.31626 12.4304 3.30463L12.4248 3.29948L12.4167 3.29218L12.3922 3.27329C12.3816 3.2647 12.3706 3.2564 12.3591 3.24839L12.3411 3.23551C12.2234 3.14765 12.0916 3.08056 11.9513 3.03716ZM11.3687 6.98911C11.2189 7.88296 10.7247 8.78627 9.97552 9.53458C9.22849 10.2833 8.32347 10.7779 7.42833 10.929C6.59071 11.0707 5.86816 10.8861 5.39461 10.4138C4.92235 9.94115 4.73774 9.22117 4.87942 8.37927C5.02925 7.48627 5.52212 6.58253 6.26786 5.83508C6.26786 5.83508 6.26915 5.83508 6.27215 5.83078L6.27473 5.82649C7.02304 5.0829 7.92463 4.5896 8.81763 4.4402C9.65524 4.29852 10.3761 4.48227 10.8513 4.95539C11.3236 5.42765 11.5082 6.14891 11.3665 6.98954L11.3687 6.98911ZM3.77819 3.35701C3.20789 3.86135 2.72775 4.45924 2.35841 5.12497L2.35412 5.12626L4.52136 7.28835C4.69796 7.03962 4.88686 6.79376 5.08807 6.55076C5.15848 6.46662 5.23089 6.38104 5.30531 6.29403L5.33364 6.26183L5.43668 6.14677C5.43969 6.14419 5.44269 6.13861 5.44269 6.13861L5.46158 6.11714L5.47146 6.10555L5.48648 6.08924L5.52512 6.04631C5.55203 6.01539 5.57993 5.98491 5.60884 5.95486C5.60884 5.95185 5.61314 5.94756 5.61314 5.94756L5.6595 5.8969L5.69256 5.86255C5.69399 5.86026 5.69514 5.85998 5.69514 5.85998C5.69771 5.85769 5.69814 5.85568 5.69814 5.85568L5.70415 5.84796L5.71016 5.84066C5.7154 5.83664 5.72015 5.83203 5.72433 5.82692L5.73249 5.81833C5.75009 5.80073 5.77113 5.78012 5.79002 5.75952C5.80004 5.74721 5.81148 5.7349 5.82436 5.72259L5.84197 5.70456C5.84497 5.70027 5.85313 5.69211 5.85313 5.69211L5.88619 5.65948L5.95059 5.59594L5.97205 5.57319L5.9961 5.54786C6.46017 5.08219 6.9561 4.64938 7.48028 4.25258L7.54897 4.20235H7.5494V4.20192L7.55026 4.20149L7.61895 4.15083C7.69565 4.0933 7.77293 4.03706 7.85078 3.9821C7.93379 3.92543 8.01679 3.86962 8.09979 3.81467C9.22549 3.0642 10.328 2.61384 11.2279 2.52454C10.024 1.7982 8.60298 1.51855 7.21366 1.73458C7.15356 1.74403 7.09603 1.7539 7.03421 1.76635C6.99514 1.77322 6.96122 1.78009 6.92687 1.78696L6.90627 1.79125C6.59071 1.85621 6.28011 1.9433 5.97678 2.05185C5.16706 2.34173 4.42032 2.78485 3.77819 3.35701ZM3.89798 12.1187C4.01819 12.2103 4.15514 12.2798 4.30884 12.3274H4.30541C5.15977 12.5884 6.50141 12.1625 7.91991 11.227C6.838 11.5275 5.79259 11.3712 5.11555 10.6938C4.47714 10.0541 4.30154 9.07563 4.54325 8.05083C4.55528 7.99616 4.56944 7.94078 4.58576 7.88468C3.424 9.6432 3.05306 11.2875 3.78807 12.0225C3.80467 12.0388 3.82242 12.0553 3.84131 12.0719C3.85905 12.0879 3.87823 12.1035 3.89798 12.1187ZM13.8974 10.2425V10.2434C13.5275 10.9081 13.0478 11.5055 12.4785 12.0101C11.6265 12.7666 10.5967 13.2948 9.48523 13.5454L9.47149 13.5488L9.43457 13.5574C9.39284 13.5687 9.35057 13.5778 9.30792 13.5848C9.28016 13.5909 9.25182 13.5962 9.22291 13.6007C9.16308 13.6123 9.10296 13.6224 9.04259 13.6308L8.99236 13.6394L8.93526 13.6467C8.88947 13.653 8.84253 13.6587 8.79444 13.6638C7.48363 13.8114 6.16072 13.5228 5.03054 12.8425C5.89692 12.7571 6.95178 12.3342 8.03368 11.6348L8.0955 11.5945L8.15732 11.5537L8.24147 11.497H8.2419L8.40462 11.3863C8.48333 11.3313 8.56061 11.2751 8.63645 11.2175C8.68396 11.1835 8.73062 11.1496 8.77641 11.1158C9.2999 10.7178 9.7959 10.2849 10.261 9.82009C10.2722 9.80864 10.2826 9.79747 10.2924 9.7866L10.3052 9.772C10.3281 9.75053 10.3496 9.7295 10.3696 9.70889L10.4023 9.67626C10.4023 9.67626 10.4109 9.66767 10.4121 9.66338C10.4164 9.65966 10.4206 9.65565 10.4246 9.65136L10.4297 9.64578L10.4671 9.60886L10.4959 9.5788C10.5056 9.56964 10.5152 9.55991 10.5246 9.54961L10.5324 9.54102C10.5366 9.53607 10.5413 9.5316 10.5465 9.52771L10.553 9.51999L10.559 9.51269C10.559 9.51269 10.5633 9.50839 10.5658 9.50711L10.5774 9.49466L10.589 9.48221L10.6002 9.47147C10.5882 9.48407 10.5767 9.49723 10.5658 9.51097L10.5925 9.48306L10.5929 9.48221C10.6115 9.46217 10.63 9.44299 10.6483 9.42468C10.6483 9.42468 10.6483 9.42038 10.6526 9.42038C10.6778 9.39348 10.7022 9.36629 10.726 9.33881L10.7745 9.28471C10.7809 9.28057 10.7861 9.27479 10.7895 9.26797L10.817 9.23491L10.8239 9.22676C10.8574 9.19098 10.8901 9.15477 10.9222 9.11814L10.9557 9.0795C11.0095 9.01682 11.063 8.9537 11.1162 8.89016L11.1806 8.81331L11.2008 8.78841C11.2266 8.75607 11.2521 8.72459 11.2772 8.69396C11.2987 8.6682 11.3197 8.64187 11.3404 8.61497C11.3532 8.59779 11.3665 8.58105 11.3803 8.56473C11.5048 8.40417 11.6246 8.24617 11.7401 8.08389L13.8974 10.2425ZM13.8974 10.2425C13.8974 10.2411 13.8983 10.24 13.9 10.2391V10.246L13.8974 10.2434H13.8983L13.8974 10.2425Z" fill="white"/>
</svg>
