<svg width="120" height="120" viewBox="0 0 120 120" fill="none" xmlns="http://www.w3.org/2000/svg">
<path d="M57.1712 14.4963C58.7512 12.9164 61.3095 12.9172 62.8851 14.4963L80.9896 32.5999C83.5375 35.1478 81.7318 39.5012 78.1321 39.5012H41.9241C38.3247 39.5009 36.5199 35.1477 39.0677 32.5999L57.1712 14.4963Z" fill="#4458FF" stroke="white" stroke-width="0.799994"/>
<path d="M29.2925 48.1571V69.897C29.2925 71.9809 27.6045 73.6689 25.5206 73.6689H3.78072C0.420746 73.6689 -1.26324 69.605 1.11274 67.229L22.8526 45.4891C25.2286 43.1132 29.2925 44.7971 29.2925 48.1571Z" fill="#FB923C"/>
<path d="M91.1086 48.1575C91.1086 45.1538 94.7415 43.6479 96.8654 45.7717L118.605 67.512C120.729 69.6359 119.224 73.2688 116.22 73.2688H94.4807C92.6176 73.2688 91.1086 71.7598 91.1086 69.8967V48.1575Z" fill="#4458FF" stroke="white" stroke-width="0.799994"/>
<path d="M84.4921 78.165C83.1561 75.001 81.2401 72.1651 78.8042 69.7291C76.3682 67.2931 73.5282 65.3811 70.3682 64.0411C67.0882 62.6531 63.6123 61.9531 60.0323 61.9531C56.4523 61.9531 52.9724 62.6571 49.6964 64.0411C46.5324 65.3771 43.6964 67.2931 41.2604 69.7291C38.8245 72.1651 36.9125 75.005 35.5725 78.165C34.1845 81.445 33.4845 84.921 33.4845 88.5009V101.845C33.4845 104.737 35.8285 107.085 38.7245 107.085H43.5444C46.4364 107.085 48.7844 104.741 48.7844 101.845V88.7409C48.7844 82.617 53.5763 77.429 59.7003 77.249C65.8243 77.069 71.3002 82.181 71.3002 88.5009V101.845C71.3002 104.737 73.6442 107.085 76.5402 107.085H81.3601C84.2521 107.085 86.6001 104.741 86.6001 101.845V88.5009C86.6001 84.921 85.8961 81.441 84.5121 78.165H84.4921Z" fill="#4458FF"/>
<path d="M83.3641 44.0291H36.5804C34.8352 44.0291 33.4205 45.4438 33.4205 47.189V54.665C33.4205 56.4102 34.8352 57.825 36.5804 57.825H83.3641C85.1093 57.825 86.5241 56.4102 86.5241 54.665V47.189C86.5241 45.4438 85.1093 44.0291 83.3641 44.0291Z" fill="#FB923C"/>
<path d="M78.6682 49.5049H41.2765C40.49 49.5049 39.8525 50.1415 39.8525 50.9269C39.8525 51.7122 40.49 52.3489 41.2765 52.3489H78.6682C79.4546 52.3489 80.0922 51.7122 80.0922 50.9269C80.0922 50.1415 79.4546 49.5049 78.6682 49.5049Z" fill="#A4E43A"/>
<path d="M6.85626 78.1973H22.4363C26.0017 78.1973 28.8921 81.087 28.8924 84.6523V100.232C28.8924 103.798 26.0019 106.688 22.4363 106.688H6.85626C3.29096 106.688 0.401184 103.798 0.401184 100.232V84.6523C0.401443 81.0872 3.29112 78.1975 6.85626 78.1973Z" fill="#A4E43A" stroke="white" stroke-width="0.799994"/>
<path d="M14.6446 100.449C19.0673 100.449 22.6525 96.8635 22.6525 92.4408C22.6525 88.0181 19.0673 84.4329 14.6446 84.4329C10.2219 84.4329 6.63666 88.0181 6.63666 92.4408C6.63666 96.8635 10.2219 100.449 14.6446 100.449Z" stroke="#121314" stroke-width="0.799994" stroke-linecap="round" stroke-linejoin="round"/>
<path d="M113.144 77.7969H97.5641C93.7777 77.7969 90.7082 80.8664 90.7082 84.6528V100.233C90.7082 104.019 93.7777 107.089 97.5641 107.089H113.144C116.93 107.089 120 104.019 120 100.233V84.6528C120 80.8664 116.93 77.7969 113.144 77.7969Z" fill="#FB923C"/>
<path d="M105.356 84.4368V100.449" stroke="#121314" stroke-width="0.799994" stroke-linecap="round" stroke-linejoin="round"/>
<path d="M113.36 92.4407H97.3483" stroke="#121314" stroke-width="0.799994" stroke-linecap="round" stroke-linejoin="round"/>
<path d="M111.016 86.7808L99.6921 98.1047" stroke="#121314" stroke-width="0.799994" stroke-linecap="round" stroke-linejoin="round"/>
<path d="M111.016 98.1047L99.6921 86.7808" stroke="#121314" stroke-width="0.799994" stroke-linecap="round" stroke-linejoin="round"/>
</svg>
