<svg width="76" height="34" viewBox="0 0 76 34" fill="none" xmlns="http://www.w3.org/2000/svg">
<path d="M62.9692 10.4093C62.6013 10.6174 62.257 10.9303 61.937 11.3466C61.6172 11.7468 61.3614 12.1869 61.1694 12.6671C60.9774 13.1315 60.8813 13.5806 60.8813 14.013V26.9844C60.8814 27.6246 61.0895 28.0647 61.5054 28.3048L63.5933 29.5061C64.0092 29.7463 64.4972 29.7061 65.0571 29.3859L72.3296 25.182V22.7805L70.2417 21.5792L65.0571 24.576V21.6994L72.3296 17.4956V15.0931L70.2417 13.8928L65.0571 16.8886V14.013L72.3296 9.80913V7.40663L70.2417 6.20538L62.9692 10.4093ZM29.0474 6.3256C28.6315 6.08544 28.1433 6.12574 27.5835 6.44583L22.3989 9.44846C22.0309 9.65664 21.6867 9.96946 21.3667 10.3858C21.0469 10.786 20.791 11.2261 20.5991 11.7063C20.4072 12.1705 20.3111 12.619 20.311 13.0512V28.4251L22.3989 29.6263L24.4868 28.4251V23.621L27.5835 21.8275V24.2212L29.6714 25.4224L31.7593 24.2212V8.84832C31.7593 8.20776 31.5428 7.76706 31.1108 7.52685C30.9548 7.43677 30.7898 7.38559 30.6157 7.37437C30.797 7.38438 30.9703 7.43514 31.1353 7.52685L29.0474 6.3256ZM56.0942 6.3256C55.6783 6.08545 55.1902 6.12574 54.6304 6.44583L49.4458 9.44846C49.0778 9.65664 48.7336 9.96946 48.4136 10.3858C48.0938 10.786 47.8379 11.2261 47.646 11.7063C47.4541 12.1705 47.358 12.619 47.3579 13.0512V28.4251L49.4458 29.6263L51.5337 28.4251V23.621L54.6304 21.8275V24.2212L56.7183 25.4224L58.8062 24.2212V8.84832C58.8062 8.20776 58.5897 7.76706 58.1577 7.52685C58.0017 7.43677 57.8367 7.38559 57.6626 7.37437C57.8439 7.38438 58.0172 7.43514 58.1821 7.52685L56.0942 6.3256ZM41.1069 7.40663V23.7413L38.0103 25.5339V11.6105L35.9224 10.4093L33.8345 11.6105V25.5427C33.8345 26.1832 34.0425 26.6239 34.4585 26.8641L38.6343 29.2656C39.0503 29.5059 39.5307 29.4657 40.0747 29.1454L41.1069 28.5453C41.4748 28.3371 41.8183 28.0326 42.1382 27.6324C42.4582 27.216 42.7147 26.7679 42.9067 26.2874C43.0987 25.8072 43.1948 25.3588 43.1948 24.9425C43.5628 24.7344 43.8987 24.4299 44.2026 24.0296C44.5226 23.6132 44.7782 23.1641 44.9702 22.6837C45.1781 22.2034 45.2827 21.7551 45.2827 21.3388V7.40663L43.1948 6.20538L41.1069 7.40663ZM27.5835 17.0156L24.4868 18.8082V13.0512L27.5835 11.2577V17.0156ZM54.6304 17.0156L51.5337 18.8082V13.0512L54.6304 11.2577V17.0156ZM3.67041 28.4251L5.7583 29.6263L7.84619 28.4251V13.0512L8.87842 12.4501V25.4224L10.9429 26.6237L13.0308 25.4224V10.0486L14.062 9.45237V22.4198L16.1509 23.621L18.2388 22.4198V7.04596C18.2387 6.40566 18.0222 5.96562 17.5903 5.72547L15.5269 4.52422C15.1109 4.28401 14.622 4.32416 14.062 4.64444L5.7583 9.44846C5.39032 9.65664 5.04606 9.96946 4.72607 10.3858C4.40629 10.786 4.15042 11.2261 3.9585 11.7063C3.76656 12.1705 3.67048 12.619 3.67041 13.0512V28.4251ZM75.3296 9.80913C75.3295 10.8816 74.7575 11.8727 73.8296 12.4091L73.7554 12.4511L73.8237 12.4902C74.7547 13.0257 75.3294 14.0184 75.3296 15.0931V17.4956C75.3296 18.5681 74.7576 19.5591 73.8296 20.0955L73.7554 20.1375L73.8237 20.1766C74.7548 20.7122 75.3296 21.7056 75.3296 22.7805V25.182C75.3296 26.2546 74.7576 27.2465 73.8296 27.7829L66.5581 31.9858L66.5454 31.9926C65.4192 32.6367 63.7443 33.0598 62.0942 32.107L60.0103 30.9087L60.0063 30.9058C58.8147 30.2177 58.2369 29.1592 58.0073 28.1318C57.1224 28.5539 56.0815 28.5199 55.2231 28.0263L54.5337 27.6294V28.4251C54.5337 29.4999 53.9599 30.4933 53.0288 31.0289L50.9409 32.2292C50.0153 32.7616 48.8763 32.7616 47.9507 32.2292L45.8628 31.0289C45.2354 30.668 44.7705 30.099 44.5337 29.4377C44.5275 29.4458 44.5224 29.4549 44.5161 29.4631C44.5045 29.4782 44.4928 29.4932 44.481 29.508C43.9783 30.1369 43.3629 30.7093 42.6138 31.1394L42.6147 31.1413L41.5825 31.7415L41.5815 31.7405C40.4435 32.406 38.7779 32.8127 37.1392 31.8685L32.9634 29.467L32.9595 29.465C32.2342 29.0463 31.7354 28.4901 31.4048 27.8875L31.1655 28.0263C30.2401 28.5584 29.1017 28.5585 28.1763 28.0263L27.4868 27.6294V28.4251C27.4868 29.4999 26.913 30.4933 25.9819 31.0289L23.894 32.2292C22.9685 32.7616 21.8294 32.7616 20.9038 32.2292L18.8159 31.0289C17.8848 30.4933 17.311 29.4999 17.311 28.4251V26.3881C16.8263 26.5919 16.3016 26.6626 15.7886 26.6002C15.5369 27.1905 15.0993 27.6959 14.5249 28.0263L12.437 29.2266C11.8727 29.5511 11.2299 29.6759 10.604 29.6048C10.3522 30.1943 9.91508 30.6989 9.34131 31.0289L7.25342 32.2292C6.32783 32.7616 5.18877 32.7616 4.26318 32.2292L2.17529 31.0289C1.2442 30.4933 0.67041 29.4999 0.67041 28.4251V13.0512C0.670478 12.1666 0.867841 11.3286 1.18604 10.5588C1.47805 9.83699 1.86693 9.16593 2.34912 8.55412C2.85135 7.90077 3.47779 7.29581 4.25732 6.8495L12.561 2.0445L12.5737 2.03766C13.6296 1.43379 15.1685 1.02374 16.7163 1.76007L17.0259 1.9233L17.0347 1.92819L19.0981 3.12944L19.0972 3.13139C20.574 3.97763 21.1303 5.40001 21.2222 6.65988L26.0806 3.84687L26.0942 3.83905C27.2205 3.19492 28.8963 2.77186 30.5464 3.72469L30.5454 3.72567L32.6304 4.92398C32.7816 5.01103 32.9223 5.1094 33.0522 5.21721C33.9509 5.88601 34.4254 6.79639 34.6304 7.69986C35.5158 7.27668 36.5584 7.31223 37.4175 7.80639L38.1069 8.20225V7.40663C38.107 6.33181 38.6807 5.33933 39.6118 4.80376L41.6997 3.60251L41.8755 3.50868C42.7666 3.07196 43.8213 3.10348 44.689 3.60251L46.7769 4.80376C47.4995 5.21946 48.0057 5.91073 48.1968 6.70191L53.1274 3.84687L53.1411 3.83905C54.2673 3.19492 55.9431 2.77186 57.5933 3.72469L57.5923 3.72567L59.6772 4.92398C59.8285 5.01103 59.9692 5.1094 60.0991 5.21721C60.9945 5.88356 61.4682 6.78987 61.6743 7.69008L68.7407 3.60544L68.9175 3.51161C69.8095 3.07233 70.8664 3.10247 71.7358 3.60251L73.8237 4.80376C74.7548 5.33933 75.3296 6.33181 75.3296 7.40663V9.80913Z" fill="white"/>
</svg>
