<svg width="132" height="50" viewBox="0 0 132 50" fill="none" xmlns="http://www.w3.org/2000/svg">
<path d="M104.795 15.1412C104.26 15.444 103.759 15.899 103.294 16.5047C102.829 17.0868 102.457 17.727 102.177 18.4255C101.898 19.101 101.758 19.7543 101.758 20.3832V39.2514C101.759 40.1828 102.061 40.8229 102.666 41.1722L105.703 42.9196C106.308 43.2689 107.018 43.2105 107.833 42.7447L118.411 36.6297V33.1364L115.374 31.3891L107.833 35.7482V31.564L118.411 25.449V21.9543L115.374 20.2084L107.833 24.566V20.3832L118.411 14.2682V10.7736L115.374 9.02621L104.795 15.1412ZM55.4525 9.20109C54.8475 8.85175 54.1375 8.91037 53.3232 9.37596L45.7817 13.7436C45.2464 14.0464 44.7456 14.5015 44.2802 15.1071C43.815 15.6892 43.4428 16.3294 43.1637 17.0279C42.8845 17.7032 42.7447 18.3555 42.7446 18.9842V41.3471L45.7817 43.0944L48.8187 41.3471V34.3591L53.3232 31.7502V35.2321L56.3602 36.9794L59.3973 35.2321V12.8706C59.3973 11.9389 59.0825 11.2978 58.4541 10.9484C58.2271 10.8174 57.9871 10.7429 57.7339 10.7266C57.9975 10.7412 58.2497 10.815 58.4896 10.9484L55.4525 9.20109ZM94.7951 9.20109C94.1901 8.85175 93.48 8.91037 92.6657 9.37596L85.1242 13.7436C84.5889 14.0464 84.0882 14.5015 83.6227 15.1071C83.1575 15.6892 82.7854 16.3294 82.5062 17.0279C82.227 17.7032 82.0872 18.3555 82.0871 18.9842V41.3471L85.1242 43.0944L88.1613 41.3471V34.3591L92.6657 31.7502V35.2321L95.7028 36.9794L98.7398 35.2321V12.8706C98.7398 11.9389 98.425 11.2978 97.7966 10.9484C97.5696 10.8174 97.3296 10.7429 97.0764 10.7266C97.3401 10.7412 97.5922 10.815 97.8321 10.9484L94.7951 9.20109ZM72.9944 10.7736V34.534L68.49 37.1415V16.8885L65.4529 15.1412L62.4159 16.8885V37.1543C62.4159 38.0861 62.7185 38.7271 63.3236 39.0765L69.3977 42.5698C70.0028 42.9192 70.7017 42.8608 71.493 42.3949L72.9944 41.522C73.5295 41.2192 74.0292 40.7761 74.4945 40.194C74.96 39.5884 75.3332 38.9365 75.6124 38.2377C75.8916 37.5391 76.0314 36.8868 76.0315 36.2814C76.5667 35.9786 77.0553 35.5357 77.4975 34.9534C77.9629 34.3478 78.3347 33.6945 78.614 32.9957C78.9164 32.297 79.0686 31.6449 79.0686 31.0393V10.7736L76.0315 9.02621L72.9944 10.7736ZM53.3232 24.7509L48.8187 27.3584V18.9842L53.3232 16.3753V24.7509ZM92.6657 24.7509L88.1613 27.3584V18.9842L92.6657 16.3753V24.7509ZM18.5391 41.3471L21.5761 43.0944L24.6132 41.3471V18.9842L26.1147 18.1098V36.9794L29.1176 38.7268L32.1547 36.9794V14.6166L33.6548 13.7493V32.6118L36.6932 34.3591L39.7303 32.6118V10.2489C39.7301 9.31754 39.4153 8.67746 38.7871 8.32812L35.7855 6.58078C35.1804 6.23137 34.4693 6.28978 33.6548 6.75566L21.5761 13.7436C21.0409 14.0464 20.5401 14.5015 20.0746 15.1071C19.6095 15.6892 19.2373 16.3294 18.9581 17.0279C18.6789 17.7032 18.5392 18.3555 18.5391 18.9842V41.3471ZM122.775 14.2682C122.775 15.8282 121.943 17.2699 120.593 18.0501L120.485 18.1113L120.584 18.1681C121.939 18.9471 122.775 20.391 122.775 21.9543V25.449C122.775 27.0091 121.943 28.4506 120.593 29.2308L120.485 29.292L120.584 29.3489C121.939 30.1279 122.775 31.5729 122.775 33.1364V36.6297C122.775 38.1899 121.943 39.6327 120.593 40.413L110.016 46.5266L109.997 46.5365C108.359 47.4734 105.923 48.0887 103.523 46.7029L100.491 44.9598L100.486 44.9555C98.7523 43.9546 97.9117 42.415 97.5778 40.9206C96.2906 41.5345 94.7765 41.4851 93.528 40.767L92.5251 40.1898V41.3471C92.5251 42.9106 91.6904 44.3556 90.3361 45.1347L87.299 46.8806C85.9526 47.655 84.2958 47.655 82.9494 46.8806L79.9123 45.1347C78.9997 44.6097 78.3234 43.782 77.979 42.82C77.97 42.8319 77.9626 42.8451 77.9534 42.857C77.9366 42.8789 77.9196 42.9008 77.9023 42.9224C77.1712 43.8371 76.276 44.6697 75.1863 45.2953L75.1877 45.2982L73.6862 46.1711L73.6848 46.1697C72.0295 47.1378 69.6066 47.7294 67.2229 46.3559L61.1488 42.8627L61.1431 42.8598C60.0881 42.2507 59.3626 41.4417 58.8816 40.5651L58.5336 40.767C57.1875 41.541 55.5315 41.5411 54.1854 40.767L53.1825 40.1898V41.3471C53.1825 42.9106 52.3479 44.3556 50.9935 45.1347L47.9565 46.8806C46.6101 47.655 44.9532 47.655 43.6069 46.8806L40.5698 45.1347C39.2154 44.3556 38.3808 42.9106 38.3808 41.3471V38.3841C37.6757 38.6805 36.9125 38.7834 36.1662 38.6927C35.8001 39.5513 35.1636 40.2864 34.3281 40.767L31.291 42.5129C30.4702 42.9851 29.5351 43.1666 28.6247 43.0631C28.2584 43.9207 27.6226 44.6546 26.788 45.1347L23.7509 46.8806C22.4046 47.655 20.7477 47.655 19.4013 46.8806L16.3643 45.1347C15.0099 44.3556 14.1753 42.9106 14.1753 41.3471V18.9842C14.1754 17.6974 14.4624 16.4784 14.9253 15.3587C15.35 14.3088 15.9157 13.3326 16.6171 12.4427C17.3477 11.4923 18.2589 10.6124 19.3928 9.96315L31.4714 2.97378L31.4899 2.96382C33.0257 2.08543 35.2642 1.48896 37.5157 2.56004L37.966 2.79748L37.9788 2.80459L40.9803 4.55193L40.9789 4.55477C43.1271 5.78572 43.9363 7.85472 44.07 9.68733L51.137 5.5955L51.1569 5.58413C52.7951 4.64718 55.2327 4.0318 57.633 5.41778L57.6316 5.4192L60.6644 7.16228C60.8844 7.28889 61.089 7.432 61.278 7.58881C62.5853 8.56165 63.2755 9.8859 63.5736 11.2001C64.8616 10.5845 66.3781 10.6362 67.6277 11.3551L68.6306 11.9309V10.7736C68.6307 9.21011 69.4653 7.76645 70.8196 6.9874L73.8567 5.24006L74.1124 5.10357C75.4085 4.46832 76.9427 4.51417 78.2049 5.24006L81.2419 6.9874C82.2932 7.59208 83.0295 8.59761 83.3074 9.74846L90.4795 5.5955L90.4994 5.58413C92.1376 4.64718 94.5753 4.0318 96.9755 5.41778L96.9741 5.4192L100.007 7.16228C100.227 7.28889 100.432 7.432 100.621 7.58881C101.923 8.55808 102.612 9.87641 102.912 11.1859L113.191 5.24433L113.448 5.10784C114.745 4.46886 116.283 4.51269 117.547 5.24006L120.584 6.9874C121.939 7.76645 122.775 9.21011 122.775 10.7736V14.2682Z" fill="white"/>
</svg>
