<svg width="16" height="16" viewBox="0 0 16 16" fill="none" xmlns="http://www.w3.org/2000/svg">
<g clip-path="url(#clip0_350_32408)">
<path fill-rule="evenodd" clip-rule="evenodd" d="M14.9129 11.7845C13.9883 12.6238 12.7996 13.3698 11.3583 14.0625C11.3876 14.0825 11.4156 14.1005 11.4449 14.1178L11.4569 14.1245L11.4696 14.1325C11.6136 14.2145 11.7496 14.2552 11.8969 14.2552C12.0449 14.2552 12.1809 14.2145 12.3249 14.1325L12.3369 14.1252L12.3496 14.1178C12.4429 14.0618 12.5269 13.9992 12.6776 13.8738L12.7963 13.7752C12.9823 13.6205 13.0803 13.5472 13.2129 13.4712C13.4156 13.3552 13.6209 13.2938 13.8456 13.2938C14.0703 13.2938 14.2756 13.3552 14.4783 13.4712L14.4936 13.4805C14.6189 13.5532 14.7163 13.6265 14.8949 13.7752L15.0136 13.8738C15.1609 13.9965 15.2443 14.0592 15.3356 14.1138L15.3543 14.1252L15.3663 14.1318C15.5063 14.2118 15.6376 14.2525 15.7796 14.2552H15.7943C15.8227 14.2529 15.8513 14.2565 15.8783 14.2658C15.9053 14.2751 15.93 14.2899 15.951 14.3093C15.972 14.3286 15.9887 14.3521 16.0002 14.3782C16.0116 14.4044 16.0175 14.4326 16.0175 14.4612C16.0175 14.4897 16.0116 14.5179 16.0002 14.5441C15.9887 14.5702 15.972 14.5937 15.951 14.613C15.93 14.6324 15.9053 14.6472 15.8783 14.6565C15.8513 14.6658 15.8227 14.6694 15.7943 14.6672C15.5696 14.6672 15.3643 14.6058 15.1609 14.4898C15.1407 14.4782 15.1207 14.4662 15.1009 14.4538L15.0863 14.4445L15.0716 14.4358L15.0583 14.4265C14.9446 14.3491 14.8356 14.2651 14.7316 14.1752L14.6256 14.0872C14.5247 13.9988 14.4171 13.9186 14.3036 13.8472L14.2856 13.8358L14.2729 13.8292C14.1442 13.7503 13.9966 13.7077 13.8456 13.7058C13.6976 13.7058 13.5616 13.7465 13.4183 13.8285L13.4049 13.8358L13.3929 13.8432C13.2996 13.8992 13.2156 13.9618 13.0649 14.0872L12.9596 14.1752C12.8518 14.2688 12.7383 14.3557 12.6196 14.4352L12.6049 14.4445L12.5903 14.4538L12.5303 14.4898C12.3389 14.6046 12.1201 14.6659 11.8969 14.6672C11.6723 14.6672 11.4676 14.6058 11.2643 14.4898C11.2441 14.4782 11.2241 14.4662 11.2043 14.4538L11.1896 14.4445L11.1749 14.4358L11.1576 14.4245C11.0593 14.3575 10.9647 14.2852 10.8743 14.2078C10.8423 14.1928 10.8148 14.1699 10.7943 14.1412L10.7289 14.0872C10.6281 13.9988 10.5204 13.9186 10.4069 13.8472L10.3889 13.8358L10.3763 13.8292C10.2476 13.7503 10.0999 13.7077 9.94894 13.7058C9.80094 13.7058 9.66494 13.7465 9.52094 13.8285L9.50894 13.8358L9.49627 13.8432C9.40294 13.8992 9.31894 13.9618 9.16827 14.0872L9.06294 14.1752C8.95515 14.2688 8.84159 14.3557 8.72294 14.4352L8.70761 14.4445L8.69294 14.4538L8.63294 14.4898C8.44173 14.6045 8.22323 14.6657 8.00027 14.6672C7.77561 14.6672 7.57027 14.6058 7.3676 14.4898C7.34741 14.4782 7.3274 14.4662 7.30761 14.4538L7.29294 14.4445L7.27827 14.4358L7.26427 14.4265C7.15063 14.3491 7.04156 14.2651 6.9376 14.1752L6.83227 14.0872C6.7314 13.9988 6.62373 13.9186 6.51027 13.8472L6.49161 13.8358L6.4796 13.8292C6.35069 13.7502 6.20279 13.7075 6.0516 13.7058C5.90427 13.7058 5.76827 13.7465 5.62427 13.8285L5.6116 13.8358L5.59961 13.8432C5.5056 13.8992 5.42227 13.9618 5.27161 14.0872L5.16627 14.1752C5.05827 14.2689 4.94449 14.3557 4.8256 14.4352L4.81094 14.4445L4.79627 14.4538L4.73627 14.4898C4.53775 14.6084 4.31014 14.6693 4.07894 14.6658C3.5816 14.6058 3.1996 14.4125 2.81894 14.0885L2.7956 14.0685C2.76427 14.0412 2.71694 13.9978 2.6676 13.9525L2.53694 13.8318L2.4656 13.7652L2.45827 13.7585C2.39172 13.6922 2.31634 13.6355 2.23427 13.5898C2.21436 13.5798 2.19298 13.5731 2.17094 13.5698H2.1676C2.08827 13.5845 2.00894 13.6092 1.92694 13.6432C1.91211 13.6594 1.89478 13.6731 1.8756 13.6838L1.87027 13.6872C1.8442 13.7006 1.81557 13.7083 1.78627 13.7098C1.60508 13.8106 1.43249 13.9261 1.27027 14.0552L0.992938 14.2712L0.956271 14.2998C0.885895 14.3545 0.813861 14.4069 0.740271 14.4572C0.536938 14.5952 0.372271 14.6672 0.206938 14.6672C0.155041 14.6639 0.106275 14.6412 0.0703684 14.6036C0.0344614 14.566 0.014052 14.5162 0.0132107 14.4642C0.0123694 14.4122 0.0311581 14.3618 0.0658294 14.3231C0.100501 14.2843 0.148506 14.2601 0.200271 14.2552H0.206938C0.266938 14.2552 0.363604 14.2138 0.498938 14.1232L0.525604 14.1052C0.576938 14.0692 0.634271 14.0272 0.705604 13.9725L0.962271 13.7718L1.00227 13.7405C1.18094 13.6032 1.3396 13.4918 1.48894 13.4038L1.06694 12.5972C1.05112 12.5668 1.04313 12.5329 1.0437 12.4986C1.04427 12.4644 1.05337 12.4308 1.07018 12.401C1.08699 12.3711 1.11099 12.3459 1.13999 12.3277C1.16899 12.3094 1.20208 12.2987 1.23627 12.2965L14.7609 11.4265C14.8036 11.4237 14.846 11.4342 14.8824 11.4566C14.9188 11.479 14.9473 11.5122 14.964 11.5515C14.9807 11.5909 14.9848 11.6344 14.9756 11.6762C14.9665 11.7179 14.9446 11.7557 14.9129 11.7845ZM14.1676 11.8778L1.5796 12.6872L1.8616 13.2265C1.94694 13.1965 2.03227 13.1745 2.12027 13.1598C2.13171 13.1577 2.14331 13.1566 2.15494 13.1565C2.24294 13.1565 2.32827 13.1778 2.41227 13.2185C2.51427 13.2672 2.60827 13.3378 2.73427 13.4518L2.74494 13.4618L2.80627 13.5192L2.90227 13.6085L2.96694 13.6678C3.01027 13.7078 3.05027 13.7438 3.07361 13.7638C3.39694 14.0425 3.70561 14.2025 4.1096 14.2545H4.11694C4.25782 14.2507 4.39545 14.2112 4.51694 14.1398L4.53094 14.1325L4.5436 14.1252L4.5556 14.1178C4.64961 14.0618 4.73294 13.9992 4.88361 13.8738L5.00227 13.7752C5.18827 13.6205 5.28627 13.5472 5.41894 13.4712C5.62227 13.3552 5.82694 13.2938 6.05227 13.2938C6.27627 13.2938 6.48161 13.3552 6.68427 13.4712L6.6996 13.4805C6.82494 13.5532 6.92294 13.6265 7.10161 13.7752L7.21961 13.8738C7.36761 13.9965 7.45027 14.0592 7.54227 14.1138L7.56027 14.1252L7.57294 14.1318C7.71627 14.2145 7.85294 14.2552 8.00027 14.2552C8.14827 14.2552 8.28427 14.2145 8.4276 14.1325L8.44027 14.1252L8.45227 14.1178C8.54627 14.0618 8.63027 13.9992 8.78094 13.8738L8.89894 13.7752C9.0856 13.6205 9.18361 13.5472 9.31627 13.4712C9.51894 13.3552 9.72427 13.2938 9.94894 13.2938C10.1736 13.2938 10.3783 13.3552 10.5816 13.4712L10.5983 13.4812C10.7229 13.5538 10.8209 13.6278 11.0003 13.7765C12.2449 13.1912 13.2989 12.5692 14.1536 11.8885L14.1676 11.8778ZM2.4356 1.35115C4.04894 2.04048 5.7936 3.29448 7.20027 4.83915C8.84027 6.63915 9.93961 8.72448 10.2916 10.9385C10.2971 10.9745 10.293 11.0113 10.2798 11.0452C10.2665 11.0791 10.2445 11.1088 10.216 11.1315C10.1875 11.1542 10.1536 11.1689 10.1175 11.1742C10.0815 11.1796 10.0448 11.1753 10.0109 11.1618C8.44561 10.5318 6.98427 10.3232 5.6176 10.4818C4.45827 10.6152 3.39294 11.0098 2.40694 11.6172C2.21094 11.7385 1.9936 11.4958 2.13694 11.3145C3.37427 9.74448 3.8576 7.98782 3.69894 6.11848C3.56894 4.59048 3.0116 3.04515 2.17627 1.64582C2.15441 1.60836 2.14488 1.56498 2.14904 1.52181C2.1532 1.47865 2.17083 1.43788 2.19944 1.40529C2.22805 1.3727 2.26619 1.34993 2.30845 1.34021C2.35072 1.3305 2.39497 1.33432 2.43494 1.35115H2.4356ZM6.6936 2.96715C7.87894 3.32915 9.28827 4.36848 10.5483 5.79582C11.8709 7.29448 12.9163 9.08515 13.4463 10.8505C13.4571 10.887 13.4576 10.9259 13.4477 10.9627C13.4378 10.9995 13.4179 11.0329 13.3902 11.0591C13.3626 11.0853 13.3282 11.1033 13.2909 11.1112C13.2536 11.1191 13.2149 11.1166 13.1789 11.1038L13.1643 11.0972L12.9069 10.9945C12.8426 10.9686 12.778 10.9438 12.7129 10.9198L12.7023 10.9158C12.2489 10.7512 11.9029 10.7218 11.4063 10.8485C11.3539 10.8618 11.2984 10.854 11.2516 10.8268C11.2049 10.7997 11.1707 10.7553 11.1563 10.7032C10.2523 7.41582 8.7156 4.85115 6.51694 3.33382C6.32294 3.19982 6.46894 2.89848 6.69427 2.96715H6.6936ZM2.84894 1.99782L2.85427 2.00782C3.5396 3.30115 3.99294 4.69515 4.11094 6.08315C4.25294 7.75848 3.90427 9.35382 2.9956 10.8112L2.98227 10.8318L2.98427 10.8312C3.78294 10.4438 4.63094 10.1852 5.53427 10.0765L5.57094 10.0725C6.8916 9.91915 8.29294 10.0918 9.77694 10.6305L9.82094 10.6472L9.81627 10.6212C9.42094 8.65448 8.41094 6.79648 6.94294 5.16848L6.89627 5.11648C5.70627 3.80982 4.26694 2.71648 2.88694 2.01648L2.84894 1.99782ZM8.12894 4.15648L8.16094 4.18848C9.65227 5.71848 10.7509 7.80915 11.4769 10.3158L11.5023 10.4038L11.5169 10.4012C11.9903 10.3125 12.3729 10.3592 12.8256 10.5212L12.8436 10.5278L12.8876 10.5438L12.9183 10.5558L12.9016 10.5072C12.3609 8.96915 11.4296 7.42715 10.2776 6.11115L10.2389 6.06782C9.55894 5.29782 8.83694 4.64648 8.13894 4.16382L8.12894 4.15648Z" fill="white"/>
</g>
<defs>
<clipPath id="clip0_350_32408">
<rect width="16" height="16" fill="white"/>
</clipPath>
</defs>
</svg>
