<svg width="24" height="24" viewBox="0 0 24 24" fill="none" xmlns="http://www.w3.org/2000/svg">
<mask id="path-1-inside-1_12_1335" fill="#9CA1AF">
<path fill-rule="evenodd" clip-rule="evenodd" d="M4.63992 0.799913C4.63992 0.44645 4.35337 0.159912 3.99992 0.159912C3.64645 0.159912 3.35992 0.44645 3.35992 0.799913V1.75992H2.39992C2.04645 1.75992 1.75992 2.04645 1.75992 2.39992C1.75992 2.75338 2.04645 3.03992 2.39992 3.03992H3.35992V3.99992C3.35992 4.35337 3.64645 4.63992 3.99992 4.63992C4.35337 4.63992 4.63992 4.35337 4.63992 3.99992V3.03992H5.59992C5.95337 3.03992 6.23992 2.75338 6.23992 2.39992C6.23992 2.04645 5.95337 1.75992 5.59992 1.75992H4.63992V0.799913ZM9.43992 5.59992C9.43992 5.24645 9.15337 4.95992 8.79992 4.95992C8.44645 4.95992 8.15992 5.24645 8.15992 5.59992V6.55992H7.19992C6.84645 6.55992 6.55992 6.84645 6.55992 7.19992C6.55992 7.55338 6.84645 7.83992 7.19992 7.83992H8.15992V8.79992C8.15992 9.15338 8.44645 9.43992 8.79992 9.43992C9.15337 9.43992 9.43992 9.15338 9.43992 8.79992V7.83992H10.3999C10.7534 7.83992 11.0399 7.55338 11.0399 7.19992C11.0399 6.84645 10.7534 6.55992 10.3999 6.55992H9.43992V5.59992ZM3.03992 10.3999C3.03992 10.0464 2.75338 9.75992 2.39992 9.75992C2.04645 9.75992 1.75992 10.0464 1.75992 10.3999V11.3599H0.799913C0.44645 11.3599 0.159912 11.6464 0.159912 11.9999C0.159912 12.3534 0.44645 12.6399 0.799913 12.6399H1.75992V13.5999C1.75992 13.9534 2.04645 14.2399 2.39992 14.2399C2.75338 14.2399 3.03992 13.9534 3.03992 13.5999V12.6399H3.99992C4.35337 12.6399 4.63992 12.3534 4.63992 11.9999C4.63992 11.6464 4.35337 11.3599 3.99992 11.3599H3.03992V10.3999ZM13.6704 1.5709L13.1938 1.50649C12.8523 1.46823 12.651 1.86475 12.8469 2.14706C13.0722 2.47162 13.2796 2.80942 13.468 3.15907C14.27 4.64771 14.7251 6.35086 14.7251 8.1603C14.7251 13.3952 10.9159 17.7404 5.91814 18.5755C5.53173 18.64 5.13576 18.6835 4.73608 18.7049C4.39296 18.7232 4.20361 19.1256 4.44349 19.3715C4.55277 19.4836 4.66451 19.5932 4.77862 19.7004L4.89408 19.8072L5.31008 20.1672L5.61089 20.4051L5.80469 20.5492L6.10381 20.7587L6.38521 20.9424C6.57875 21.0641 6.77653 21.18 6.97846 21.2894L7.39989 21.5059L7.8168 21.6971L8.30134 21.8924L8.69065 22.0297C8.90497 22.1004 9.12233 22.1646 9.34166 22.2216C9.50814 22.2648 9.67622 22.3041 9.84643 22.3395C10.0478 22.3812 10.2514 22.4174 10.4567 22.4476L10.9638 22.5096L11.3909 22.5427C11.5941 22.5544 11.7989 22.5603 12.0051 22.5603C17.8372 22.5603 22.5651 17.8324 22.5651 12.0003C22.5651 11.6007 22.5428 11.2062 22.4996 10.818L22.4408 10.3745C22.3855 10.0173 22.3124 9.66601 22.2225 9.32222C22.114 8.9073 21.9811 8.50232 21.8254 8.11005L21.6446 7.68206L21.5211 7.41662L21.4025 7.17861C21.1484 6.68432 20.8564 6.21267 20.5299 5.76672L20.2851 5.44558L19.9668 5.06286L19.7051 4.77373L19.5137 4.57517L19.2568 4.32389L18.9014 4.0029L18.388 3.58701L17.9972 3.30392L17.5299 2.99909L17.0153 2.70226L16.4916 2.438L16.31 2.35477L15.9278 2.19291L15.4846 2.02699L15.081 1.89531L14.5612 1.75178L14.1375 1.65573L13.6704 1.5709ZM16.6451 8.48032C16.6451 6.84136 16.3203 5.27722 15.7319 3.84962C18.8196 5.26387 20.9651 8.38174 20.9651 12.0003C20.9651 16.9488 16.9536 20.9603 12.0051 20.9603C10.6183 20.9603 9.3055 20.6457 8.13363 20.0835C10.467 19.3505 12.4972 17.9331 13.9891 16.0665C14.2074 16.3654 14.5604 16.5595 14.9588 16.5595C15.6215 16.5595 16.1588 16.0222 16.1588 15.3595C16.1588 14.788 15.7594 14.3099 15.2245 14.189C15.3238 14.0026 15.4184 13.8133 15.5081 13.6213C15.8137 13.8106 16.174 13.9198 16.5599 13.9198C17.6644 13.9198 18.5599 13.0244 18.5599 11.9198C18.5599 10.8156 17.6649 9.92034 16.5608 9.91984C16.6164 9.44774 16.6451 8.96738 16.6451 8.48032Z"/>
</mask>
<path fill-rule="evenodd" clip-rule="evenodd" d="M4.63992 0.799913C4.63992 0.44645 4.35337 0.159912 3.99992 0.159912C3.64645 0.159912 3.35992 0.44645 3.35992 0.799913V1.75992H2.39992C2.04645 1.75992 1.75992 2.04645 1.75992 2.39992C1.75992 2.75338 2.04645 3.03992 2.39992 3.03992H3.35992V3.99992C3.35992 4.35337 3.64645 4.63992 3.99992 4.63992C4.35337 4.63992 4.63992 4.35337 4.63992 3.99992V3.03992H5.59992C5.95337 3.03992 6.23992 2.75338 6.23992 2.39992C6.23992 2.04645 5.95337 1.75992 5.59992 1.75992H4.63992V0.799913ZM9.43992 5.59992C9.43992 5.24645 9.15337 4.95992 8.79992 4.95992C8.44645 4.95992 8.15992 5.24645 8.15992 5.59992V6.55992H7.19992C6.84645 6.55992 6.55992 6.84645 6.55992 7.19992C6.55992 7.55338 6.84645 7.83992 7.19992 7.83992H8.15992V8.79992C8.15992 9.15338 8.44645 9.43992 8.79992 9.43992C9.15337 9.43992 9.43992 9.15338 9.43992 8.79992V7.83992H10.3999C10.7534 7.83992 11.0399 7.55338 11.0399 7.19992C11.0399 6.84645 10.7534 6.55992 10.3999 6.55992H9.43992V5.59992ZM3.03992 10.3999C3.03992 10.0464 2.75338 9.75992 2.39992 9.75992C2.04645 9.75992 1.75992 10.0464 1.75992 10.3999V11.3599H0.799913C0.44645 11.3599 0.159912 11.6464 0.159912 11.9999C0.159912 12.3534 0.44645 12.6399 0.799913 12.6399H1.75992V13.5999C1.75992 13.9534 2.04645 14.2399 2.39992 14.2399C2.75338 14.2399 3.03992 13.9534 3.03992 13.5999V12.6399H3.99992C4.35337 12.6399 4.63992 12.3534 4.63992 11.9999C4.63992 11.6464 4.35337 11.3599 3.99992 11.3599H3.03992V10.3999ZM13.6704 1.5709L13.1938 1.50649C12.8523 1.46823 12.651 1.86475 12.8469 2.14706C13.0722 2.47162 13.2796 2.80942 13.468 3.15907C14.27 4.64771 14.7251 6.35086 14.7251 8.1603C14.7251 13.3952 10.9159 17.7404 5.91814 18.5755C5.53173 18.64 5.13576 18.6835 4.73608 18.7049C4.39296 18.7232 4.20361 19.1256 4.44349 19.3715C4.55277 19.4836 4.66451 19.5932 4.77862 19.7004L4.89408 19.8072L5.31008 20.1672L5.61089 20.4051L5.80469 20.5492L6.10381 20.7587L6.38521 20.9424C6.57875 21.0641 6.77653 21.18 6.97846 21.2894L7.39989 21.5059L7.8168 21.6971L8.30134 21.8924L8.69065 22.0297C8.90497 22.1004 9.12233 22.1646 9.34166 22.2216C9.50814 22.2648 9.67622 22.3041 9.84643 22.3395C10.0478 22.3812 10.2514 22.4174 10.4567 22.4476L10.9638 22.5096L11.3909 22.5427C11.5941 22.5544 11.7989 22.5603 12.0051 22.5603C17.8372 22.5603 22.5651 17.8324 22.5651 12.0003C22.5651 11.6007 22.5428 11.2062 22.4996 10.818L22.4408 10.3745C22.3855 10.0173 22.3124 9.66601 22.2225 9.32222C22.114 8.9073 21.9811 8.50232 21.8254 8.11005L21.6446 7.68206L21.5211 7.41662L21.4025 7.17861C21.1484 6.68432 20.8564 6.21267 20.5299 5.76672L20.2851 5.44558L19.9668 5.06286L19.7051 4.77373L19.5137 4.57517L19.2568 4.32389L18.9014 4.0029L18.388 3.58701L17.9972 3.30392L17.5299 2.99909L17.0153 2.70226L16.4916 2.438L16.31 2.35477L15.9278 2.19291L15.4846 2.02699L15.081 1.89531L14.5612 1.75178L14.1375 1.65573L13.6704 1.5709ZM16.6451 8.48032C16.6451 6.84136 16.3203 5.27722 15.7319 3.84962C18.8196 5.26387 20.9651 8.38174 20.9651 12.0003C20.9651 16.9488 16.9536 20.9603 12.0051 20.9603C10.6183 20.9603 9.3055 20.6457 8.13363 20.0835C10.467 19.3505 12.4972 17.9331 13.9891 16.0665C14.2074 16.3654 14.5604 16.5595 14.9588 16.5595C15.6215 16.5595 16.1588 16.0222 16.1588 15.3595C16.1588 14.788 15.7594 14.3099 15.2245 14.189C15.3238 14.0026 15.4184 13.8133 15.5081 13.6213C15.8137 13.8106 16.174 13.9198 16.5599 13.9198C17.6644 13.9198 18.5599 13.0244 18.5599 11.9198C18.5599 10.8156 17.6649 9.92034 16.5608 9.91984C16.6164 9.44774 16.6451 8.96738 16.6451 8.48032Z" fill="#9CA1AF" stroke="#9CA1AF" stroke-width="2" mask="url(#path-1-inside-1_12_1335)"/>
</svg>
