<svg width="120" height="120" viewBox="0 0 120 120" fill="none" xmlns="http://www.w3.org/2000/svg">
<path d="M20.8431 21.1206H75.1741C80.0582 21.1206 84.0176 25.0845 84.0176 29.9743C84.0176 34.864 80.0582 38.8279 75.1741 38.8279H20.8431C15.959 38.8279 11.9996 34.864 11.9996 29.9743C11.9996 25.0845 15.959 21.1206 20.8431 21.1206Z" fill="#8B99FF"/>
<path d="M22.2095 28.6045H73.8033C74.5592 28.6045 75.1719 29.2179 75.1719 29.9746C75.1719 30.7313 74.5592 31.3447 73.8033 31.3447H22.2095C21.4537 31.3447 20.841 30.7313 20.841 29.9746C20.841 29.2179 21.4537 28.6045 22.2095 28.6045Z" fill="white"/>
<path d="M107.091 23.2002C107.091 21.6296 105.196 20.847 104.089 21.9551L90.6738 35.3848C89.5666 36.4949 90.3535 38.3916 91.918 38.3916H105.333C106.304 38.3915 107.091 37.604 107.091 36.6309V23.2002Z" fill="#FB923C" stroke="white" stroke-width="0.86947"/>
<path d="M12.0005 59.8537C12.0005 54.9639 15.9599 51 20.844 51C25.7281 51 29.6875 54.9639 29.6875 59.8537C29.6875 64.7434 25.7281 68.7073 20.844 68.7073C15.9599 68.7073 12.0005 64.7434 12.0005 59.8537Z" stroke="white" stroke-width="0.86947" stroke-linecap="round" stroke-linejoin="round"/>
<path d="M98.6816 51.4346H74.6328C69.9893 51.4346 66.2237 55.2035 66.2236 59.8535C66.2236 64.5036 69.9892 68.2725 74.6328 68.2725H98.6816C103.325 68.2725 107.091 64.5036 107.091 59.8535C107.091 55.2035 103.325 51.4346 98.6816 51.4346Z" fill="#A4E43A" stroke="white" stroke-width="0.86947"/>
<path d="M77.9543 59.854C77.9543 59.0973 78.567 58.4839 79.3229 58.4839C80.0787 58.4839 80.6914 59.0973 80.6914 59.854C80.6914 60.6107 80.0787 61.2241 79.3229 61.2241C78.567 61.2241 77.9543 60.6107 77.9543 59.854Z" stroke="white" stroke-width="0.652103" stroke-linecap="round" stroke-linejoin="round"/>
<path d="M92.6223 59.854C92.6223 59.0973 93.235 58.4839 93.9908 58.4839C94.7467 58.4839 95.3594 59.0973 95.3594 59.854C95.3594 60.6107 94.7467 61.2241 93.9908 61.2241C93.235 61.2241 92.6223 60.6107 92.6223 59.854Z" stroke="white" stroke-width="0.652103" stroke-linecap="round" stroke-linejoin="round"/>
<path d="M85.2883 59.854C85.2883 59.0973 85.901 58.4839 86.6568 58.4839C87.4127 58.4839 88.0254 59.0973 88.0254 59.854C88.0254 60.6107 87.4127 61.2241 86.6568 61.2241C85.901 61.2241 85.2883 60.6107 85.2883 59.854Z" stroke="white" stroke-width="0.652103" stroke-linecap="round" stroke-linejoin="round"/>
<path d="M36.5554 58.4157C37.1657 56.9688 38.0409 55.6718 39.1536 54.5578C40.2664 53.4438 41.5637 52.5694 43.0071 51.9566C44.5054 51.3218 46.0932 51.0017 47.7285 51.0017C49.3638 51.0017 50.9535 51.3237 52.4499 51.9566C53.8952 52.5676 55.1907 53.4438 56.3034 54.5578C57.4162 55.6718 58.2896 56.9706 58.9017 58.4157C59.5357 59.9157 59.8555 61.5054 59.8555 63.1426V66.3109C59.8555 67.6334 58.7847 68.7072 57.4619 68.7072H55.2601C53.9391 68.7072 52.8665 67.6353 52.8665 66.3109V63.2523C52.8665 60.4517 50.6776 58.0792 47.8802 57.9968C45.0828 57.9145 42.5814 60.2523 42.5814 63.1426V66.3109C42.5814 67.6334 41.5107 68.7072 40.1878 68.7072H37.9861C36.665 68.7072 35.5925 67.6353 35.5925 66.3109V63.1426C35.5925 61.5054 35.914 59.9139 36.5462 58.4157H36.5554Z" fill="#FB923C"/>
<path d="M44.4588 81H98.6819C103.566 81 107.525 84.9639 107.525 89.8537C107.525 94.7434 103.566 98.7073 98.6819 98.7073H44.4588C39.5746 98.7073 35.6152 94.7434 35.6152 89.8537C35.6152 84.9639 39.5746 81 44.4588 81Z" fill="#8B99FF"/>
<path d="M45.829 88.4832H97.315C98.0709 88.4832 98.6836 89.0966 98.6836 89.8533C98.6836 90.61 98.0709 91.2234 97.315 91.2234H45.829C45.0732 91.2234 44.4605 90.61 44.4605 89.8533C44.4605 89.0966 45.0732 88.4832 45.829 88.4832Z" fill="#FB923C"/>
<path d="M16.1409 81H25.5471C27.8338 81 29.6875 82.8558 29.6875 85.1451V94.5622C29.6875 96.8515 27.8338 98.7073 25.5471 98.7073H16.1409C13.8542 98.7073 12.0005 96.8515 12.0005 94.5622V85.1451C12.0005 82.8558 13.8542 81 16.1409 81Z" fill="#FB923C"/>
<path d="M20.8438 85.0137V94.6942" stroke="white" stroke-width="0.86947" stroke-linecap="round" stroke-linejoin="round"/>
<path d="M16.0103 89.8545H25.6797" stroke="white" stroke-width="0.86947" stroke-linecap="round" stroke-linejoin="round"/>
<path d="M17.4264 86.4316L24.2637 93.2768" stroke="white" stroke-width="0.86947" stroke-linecap="round" stroke-linejoin="round"/>
<path d="M17.4264 93.2768L24.2637 86.4316" stroke="white" stroke-width="0.86947" stroke-linecap="round" stroke-linejoin="round"/>
</svg>
