<svg width="24" height="24" viewBox="0 0 24 24" fill="none" xmlns="http://www.w3.org/2000/svg">
<path fill-rule="evenodd" clip-rule="evenodd" d="M5 4C3.34315 4 2 5.34315 2 7V17C2 18.6569 3.34315 20 5 20H19C20.6569 20 22 18.6569 22 17V7C22 5.34315 20.6569 4 19 4H5ZM19.505 8.66158C19.505 10.021 18.3779 11.1231 16.9875 11.1231C15.5972 11.1231 14.47 10.021 14.47 8.66158C14.47 7.30211 15.5972 6.20004 16.9875 6.20004C18.3779 6.20004 19.505 7.30211 19.505 8.66158ZM4.2 16.1403V14.4435C4.2 13.9191 4.44823 13.4257 4.86928 13.1131L7.47661 11.1776C8.13927 10.6857 9.06292 10.7564 9.64291 11.3436L14.6247 16.3865C15.1416 16.9099 14.7709 17.7972 14.0353 17.7972H5.85686C4.9418 17.7972 4.2 17.0554 4.2 16.1403Z" fill="#121314"/>
</svg>
