<svg width="16" height="16" viewBox="0 0 16 16" fill="none" xmlns="http://www.w3.org/2000/svg">
<path fill-rule="evenodd" clip-rule="evenodd" d="M3.33398 2.66675C2.22942 2.66675 1.33398 3.56218 1.33398 4.66675V11.3334C1.33398 12.438 2.22941 13.3334 3.33398 13.3334H12.6673C13.7719 13.3334 14.6673 12.438 14.6673 11.3334V4.66675C14.6673 3.56218 13.7719 2.66675 12.6673 2.66675H3.33398ZM13.004 5.77447C13.004 6.68078 12.2526 7.41549 11.3257 7.41549C10.3988 7.41549 9.64735 6.68078 9.64735 5.77447C9.64735 4.86815 10.3988 4.13344 11.3257 4.13344C12.2526 4.13344 13.004 4.86815 13.004 5.77447ZM2.80065 10.7603V9.62909C2.80065 9.2795 2.96614 8.95055 3.24683 8.74218L4.98506 7.45181C5.42683 7.12387 6.0426 7.17104 6.42926 7.56245L9.75043 10.9244C10.0951 11.2733 9.84794 11.8649 9.35753 11.8649H3.90523C3.29519 11.8649 2.80065 11.3703 2.80065 10.7603Z" fill="white"/>
</svg>
