<svg width="17" height="16" viewBox="0 0 17 16" fill="none" xmlns="http://www.w3.org/2000/svg">
<path fill-rule="evenodd" clip-rule="evenodd" d="M3.83301 2.66675C2.72844 2.66675 1.83301 3.56218 1.83301 4.66675V11.3334C1.83301 12.438 2.72844 13.3334 3.83301 13.3334H13.1663C14.2709 13.3334 15.1663 12.438 15.1663 11.3334V4.66675C15.1663 3.56218 14.2709 2.66675 13.1663 2.66675H3.83301ZM13.503 5.77447C13.503 6.68078 12.7516 7.41549 11.8247 7.41549C10.8978 7.41549 10.1464 6.68078 10.1464 5.77447C10.1464 4.86815 10.8978 4.13344 11.8247 4.13344C12.7516 4.13344 13.503 4.86815 13.503 5.77447ZM3.29967 10.7603V9.62909C3.29967 9.2795 3.46516 8.95055 3.74586 8.74218L5.48408 7.45181C5.92586 7.12387 6.54162 7.17104 6.92828 7.56245L10.2495 10.9244C10.5941 11.2733 10.347 11.8649 9.85655 11.8649H4.40425C3.79421 11.8649 3.29967 11.3703 3.29967 10.7603Z" fill="#9CA1AF"/>
</svg>
