<svg width="20" height="20" viewBox="0 0 20 20" fill="none" xmlns="http://www.w3.org/2000/svg">
<path d="M13.7441 3.83325C14.6464 3.85069 15.3166 4.52877 15.334 5.44067C15.3166 6.34897 14.6497 7.01392 13.7402 7.02954C13.2765 7.02825 12.8559 6.83224 12.5605 6.50903L12.2891 6.21216L11.9414 6.41333L7.07812 9.22388L6.75098 9.41333L6.84375 9.78052C6.87865 9.91803 6.87867 10.062 6.84375 10.1995L6.75098 10.5657L7.07715 10.7551L11.9404 13.5852L12.2891 13.7874L12.5605 13.4895C12.8458 13.1767 13.258 12.991 13.7275 12.9866L13.7373 12.9875C14.6486 13.0018 15.316 13.6676 15.334 14.5764C15.3164 15.4843 14.652 16.1478 13.7451 16.1653C12.8329 16.1472 12.1553 15.4775 12.1377 14.5764C12.1377 14.4682 12.1502 14.3726 12.1689 14.2395L12.2158 13.9065L11.9248 13.7375L7.09766 10.9446L6.75 10.7434L6.47852 11.0413C6.17928 11.3693 5.73865 11.5791 5.28027 11.5803C4.36521 11.5636 3.68542 10.8928 3.66797 9.99048C3.68609 9.08832 4.36618 8.41638 5.28027 8.39966C5.50534 8.39933 5.72818 8.4463 5.93359 8.53833C6.13977 8.63071 6.32377 8.76673 6.47363 8.93579L6.74414 9.24048L7.09668 9.03735L11.9229 6.26294L12.2168 6.09497L12.1689 5.76001C12.1495 5.62236 12.1371 5.53133 12.1367 5.44556C12.1534 4.53658 12.8368 3.85145 13.7441 3.83325Z" fill="white" stroke="white"/>
</svg>
