<svg width="24" height="24" viewBox="0 0 24 24" fill="none" xmlns="http://www.w3.org/2000/svg">
<path d="M16.493 14.9843C15.761 14.9843 15.0951 15.2723 14.6291 15.7833L8.79347 12.3875C8.86009 12.1253 8.86009 11.8507 8.79347 11.5885L14.6291 8.21574C15.0951 8.7257 15.761 9.03668 16.493 9.03668C17.9129 9.01469 18.9788 7.94975 19.0008 6.52984C18.9798 5.10993 17.9139 4.022 16.493 4C15.0731 4.022 13.9861 5.10993 13.9631 6.52984C13.9631 6.68483 13.9861 6.83982 14.0081 6.99581L8.21651 10.3246C7.98015 10.058 7.68973 9.84472 7.36456 9.69903C7.03939 9.55334 6.68693 9.47856 6.33062 9.47966C4.91071 9.50266 3.82278 10.5696 3.80078 11.9895C3.82278 13.4094 4.91071 14.4743 6.33062 14.4973C7.06258 14.4973 7.75053 14.1644 8.21651 13.6534L14.0081 17.0042C13.9861 17.1602 13.9641 17.3142 13.9641 17.4922C13.9861 18.9121 15.0741 19.978 16.494 20C17.9139 19.978 18.9788 18.9131 19.0008 17.4922C18.9788 16.0722 17.9139 15.0073 16.493 14.9853V14.9843Z" fill="#121314"/>
</svg>
