<svg width="16" height="16" viewBox="0 0 16 16" fill="none" xmlns="http://www.w3.org/2000/svg">
<path d="M13.3346 5.80005H2.66797C2.53536 5.80005 2.40818 5.74737 2.31442 5.6536C2.22065 5.55983 2.16797 5.43266 2.16797 5.30005C2.16797 5.16744 2.22065 5.04026 2.31442 4.9465C2.40818 4.85273 2.53536 4.80005 2.66797 4.80005H13.3346C13.4672 4.80005 13.5944 4.85273 13.6882 4.9465C13.782 5.04026 13.8346 5.16744 13.8346 5.30005C13.8346 5.43266 13.782 5.55983 13.6882 5.6536C13.5944 5.74737 13.4672 5.80005 13.3346 5.80005Z" fill="white"/>
<path d="M10.9587 13.8334H5.0387C4.82743 13.8478 4.61539 13.8202 4.41488 13.7521C4.21436 13.684 4.02937 13.5767 3.87062 13.4366C3.71186 13.2964 3.58251 13.1261 3.49006 12.9356C3.3976 12.7451 3.34389 12.5381 3.33203 12.3267V5.33336C3.33203 5.20076 3.38471 5.07358 3.47848 4.97981C3.57225 4.88604 3.69942 4.83336 3.83203 4.83336C3.96464 4.83336 4.09182 4.88604 4.18558 4.97981C4.27935 5.07358 4.33203 5.20076 4.33203 5.33336V12.3267C4.33203 12.6 4.64536 12.8334 4.9987 12.8334H10.9187C11.292 12.8334 11.5854 12.6 11.5854 12.3267V5.33336C11.5854 5.19015 11.6423 5.0528 11.7435 4.95153C11.8448 4.85026 11.9821 4.79336 12.1254 4.79336C12.2686 4.79336 12.4059 4.85026 12.5072 4.95153C12.6085 5.0528 12.6654 5.19015 12.6654 5.33336V12.3267C12.6535 12.5381 12.5998 12.7451 12.5073 12.9356C12.4149 13.1261 12.2855 13.2964 12.1268 13.4366C11.968 13.5767 11.783 13.684 11.5825 13.7521C11.382 13.8202 11.17 13.8478 10.9587 13.8334ZM11.0387 5.1667C10.9728 5.16759 10.9074 5.15527 10.8463 5.13046C10.7852 5.10565 10.7298 5.06886 10.6831 5.02225C10.6365 4.97564 10.5997 4.92016 10.5749 4.8591C10.5501 4.79803 10.5378 4.73261 10.5387 4.6667V3.67336C10.5387 3.40003 10.2187 3.1667 9.87203 3.1667H6.14536C5.7787 3.1667 5.4787 3.40003 5.4787 3.67336V4.6667C5.4787 4.79931 5.42602 4.92648 5.33225 5.02025C5.23848 5.11402 5.11131 5.1667 4.9787 5.1667C4.84609 5.1667 4.71891 5.11402 4.62514 5.02025C4.53138 4.92648 4.4787 4.79931 4.4787 4.6667V3.67336C4.50451 3.25424 4.69339 2.86187 5.00489 2.58027C5.3164 2.29867 5.72577 2.15022 6.14536 2.1667H9.85203C10.275 2.14482 10.6895 2.29084 11.0054 2.573C11.3212 2.85515 11.5129 3.25062 11.5387 3.67336V4.6667C11.5396 4.73292 11.5273 4.79865 11.5026 4.86009C11.4778 4.92152 11.4411 4.97743 11.3946 5.02457C11.3481 5.07171 11.2927 5.10913 11.2316 5.13468C11.1705 5.16022 11.1049 5.17337 11.0387 5.17336V5.1667Z" fill="white"/>
<path d="M6.8125 11.3332C6.68043 11.3315 6.55425 11.2783 6.46086 11.1849C6.36746 11.0915 6.31423 10.9653 6.3125 10.8332V7.81323C6.3125 7.68062 6.36518 7.55345 6.45895 7.45968C6.55271 7.36591 6.67989 7.31323 6.8125 7.31323C6.94511 7.31323 7.07228 7.36591 7.16605 7.45968C7.25982 7.55345 7.3125 7.68062 7.3125 7.81323V10.8266C7.31338 10.8928 7.3011 10.9585 7.27637 11.02C7.25164 11.0814 7.21495 11.1373 7.16843 11.1844C7.12191 11.2316 7.0665 11.269 7.00539 11.2945C6.94429 11.3201 6.87873 11.3332 6.8125 11.3332ZM9.18583 11.3332C9.05322 11.3332 8.92605 11.2806 8.83228 11.1868C8.73851 11.093 8.68583 10.9658 8.68583 10.8332V7.81323C8.68583 7.68062 8.73851 7.55345 8.83228 7.45968C8.92605 7.36591 9.05322 7.31323 9.18583 7.31323C9.31844 7.31323 9.44562 7.36591 9.53939 7.45968C9.63316 7.55345 9.68583 7.68062 9.68583 7.81323V10.8266C9.68584 10.9598 9.63338 11.0877 9.5398 11.1825C9.44622 11.2773 9.31905 11.3315 9.18583 11.3332Z" fill="white"/>
</svg>
