<svg width="17" height="16" viewBox="0 0 17 16" fill="none" xmlns="http://www.w3.org/2000/svg">
<rect x="1" y="0.5" width="15" height="15" rx="7.5" stroke="#8B99FF"/>
<path d="M4.54736 7.58686C4.65775 7.4765 4.80746 7.4145 4.96356 7.4145C5.11966 7.4145 5.26937 7.4765 5.37976 7.58686L7.46135 9.66845L11.6234 5.50586C11.678 5.45116 11.7429 5.40777 11.8143 5.37815C11.8858 5.34854 11.9623 5.33328 12.0396 5.33325C12.117 5.33322 12.1935 5.34843 12.265 5.37799C12.3364 5.40756 12.4014 5.45091 12.4561 5.50556C12.5107 5.56022 12.5541 5.62511 12.5838 5.69654C12.6134 5.76797 12.6286 5.84453 12.6287 5.92185C12.6287 5.99917 12.6135 6.07574 12.5839 6.14719C12.5544 6.21864 12.511 6.28356 12.4563 6.33826L7.46135 11.3333L4.54736 8.41926C4.437 8.30887 4.375 8.15916 4.375 8.00306C4.375 7.84696 4.437 7.69725 4.54736 7.58686Z" fill="#8B99FF"/>
</svg>
