<svg width="20" height="21" viewBox="0 0 20 21" fill="none" xmlns="http://www.w3.org/2000/svg">
    <g clip-path="url(#clip0_199_734)">
        <path fill-rule="evenodd" clip-rule="evenodd" d="M18.5334 1.12318C18.5334 0.828626 18.2946 0.589844 18.0001 0.589844C17.7056 0.589844 17.4668 0.828626 17.4668 1.12318V1.92318H16.6668C16.3722 1.92318 16.1334 2.16196 16.1334 2.45652C16.1334 2.75106 16.3722 2.98985 16.6668 2.98985H17.4668V3.78985C17.4668 4.0844 17.7056 4.32318 18.0001 4.32318C18.2946 4.32318 18.5334 4.0844 18.5334 3.78985V2.98985H19.3334C19.628 2.98985 19.8668 2.75106 19.8668 2.45652C19.8668 2.16196 19.628 1.92318 19.3334 1.92318H18.5334V1.12318ZM15.8049 4.65177C16.0652 4.91212 16.0652 5.33422 15.8049 5.59458L14.4716 6.92792C14.2112 7.18826 13.789 7.18826 13.5288 6.92792C13.2684 6.66757 13.2684 6.24546 13.5288 5.9851L14.862 4.65178C15.1224 4.39142 15.5445 4.39142 15.8049 4.65177ZM13.1382 7.31844C13.3985 7.57878 13.3985 8.0009 13.1382 8.26125L3.80482 17.5945C3.54447 17.8549 3.12236 17.8549 2.86202 17.5945C2.60166 17.3343 2.60166 16.9121 2.86202 16.6517L12.1954 7.31844C12.4557 7.05809 12.8778 7.05809 13.1382 7.31844ZM18.0001 7.25652C18.2946 7.25652 18.5334 7.49529 18.5334 7.78985V8.58985H19.3334C19.628 8.58985 19.8668 8.82862 19.8668 9.12318C19.8668 9.41773 19.628 9.65652 19.3334 9.65652H18.5334V10.4565C18.5334 10.7511 18.2946 10.9898 18.0001 10.9898C17.7056 10.9898 17.4668 10.7511 17.4668 10.4565V9.65652H16.6668C16.3722 9.65652 16.1334 9.41773 16.1334 9.12318C16.1334 8.82862 16.3722 8.58985 16.6668 8.58985H17.4668V7.78985C17.4668 7.49529 17.7056 7.25652 18.0001 7.25652ZM11.8668 1.12318C11.8668 0.828626 11.628 0.589844 11.3334 0.589844C11.0389 0.589844 10.8001 0.828626 10.8001 1.12318V1.92318H10.0001C9.70555 1.92318 9.46678 2.16196 9.46678 2.45652C9.46678 2.75106 9.70555 2.98985 10.0001 2.98985H10.8001V3.78985C10.8001 4.0844 11.0389 4.32318 11.3334 4.32318C11.628 4.32318 11.8668 4.0844 11.8668 3.78985V2.98985H12.6668C12.9613 2.98985 13.2001 2.75106 13.2001 2.45652C13.2001 2.16196 12.9613 1.92318 12.6668 1.92318H11.8668V1.12318Z" fill="#9CA1AF"/>
    </g>
    <defs>
        <clipPath id="clip0_199_734">
            <rect width="20" height="20" fill="white" transform="translate(0 0.456543)"/>
        </clipPath>
    </defs>
</svg>
