<svg width="20" height="20" viewBox="0 0 20 20" fill="none" xmlns="http://www.w3.org/2000/svg">
<rect width="20" height="20" rx="10" fill="white"/>
<path fill-rule="evenodd" clip-rule="evenodd" d="M10.0026 11.1219L12.8058 13.925C12.9545 14.0738 13.1563 14.1573 13.3666 14.1573C13.577 14.1573 13.7787 14.0738 13.9275 13.925C14.0762 13.7763 14.1598 13.5745 14.1598 13.3642C14.1598 13.1538 14.0762 12.9521 13.9275 12.8033L11.1232 10.0002L13.9269 7.19699C14.0005 7.12334 14.0589 7.03591 14.0988 6.93969C14.1386 6.84347 14.1591 6.74035 14.1591 6.63622C14.159 6.53209 14.1385 6.42898 14.0986 6.33278C14.0587 6.23658 14.0003 6.14918 13.9267 6.07556C13.853 6.00194 13.7656 5.94356 13.6694 5.90373C13.5732 5.8639 13.47 5.84341 13.3659 5.84344C13.2618 5.84346 13.1587 5.864 13.0625 5.90387C12.9663 5.94374 12.8789 6.00217 12.8052 6.07583L10.0026 8.879L7.19942 6.07583C7.12631 6.00006 7.03885 5.93962 6.94213 5.89802C6.84541 5.85642 6.74138 5.83449 6.6361 5.83353C6.53082 5.83257 6.4264 5.85258 6.32894 5.8924C6.23148 5.93222 6.14292 5.99106 6.06844 6.06547C5.99396 6.13988 5.93504 6.22838 5.89512 6.32581C5.85521 6.42323 5.8351 6.52763 5.83596 6.63291C5.83683 6.73819 5.85865 6.84225 5.90016 6.939C5.94167 7.03576 6.00203 7.12328 6.07773 7.19646L8.88196 10.0002L6.07826 12.8039C6.00256 12.877 5.9422 12.9646 5.90069 13.0613C5.85918 13.1581 5.83736 13.2621 5.83649 13.3674C5.83563 13.4727 5.85574 13.5771 5.89565 13.6745C5.93557 13.7719 5.99448 13.8604 6.06897 13.9349C6.14345 14.0093 6.232 14.0681 6.32947 14.1079C6.42693 14.1477 6.53135 14.1678 6.63663 14.1668C6.74191 14.1658 6.84594 14.1439 6.94266 14.1023C7.03938 14.0607 7.12684 14.0003 7.19995 13.9245L10.0026 11.1219Z" fill="#121314"/>
</svg>
