<svg width="16" height="16" viewBox="0 0 16 16" fill="none" xmlns="http://www.w3.org/2000/svg">
<path d="M2.64328 3.38805C4.00016 3.74488 4.24026 3.97279 4.61433 5.2645C4.64922 5.38411 4.76369 5.46716 4.89352 5.46716C5.02404 5.46716 5.13781 5.3841 5.17271 5.2645C5.54753 3.97274 5.78693 3.74417 7.14375 3.38805C7.26939 3.35482 7.35664 3.24585 7.35664 3.12225C7.35664 2.998 7.26939 2.88968 7.14375 2.85646C5.78688 2.49963 5.54748 2.27172 5.17271 0.980009C5.13781 0.860404 5.02334 0.777344 4.89352 0.777344C4.763 0.777344 4.64922 0.860404 4.61433 0.980009C4.2395 2.27177 4.00011 2.50034 2.64328 2.85646C2.51764 2.88968 2.4304 2.99866 2.4304 3.12225C2.4304 3.24651 2.51765 3.35482 2.64328 3.38805Z" fill="#0DA3A3"/>
<path d="M7.45591 12.0196C5.69003 11.5558 5.35086 11.2322 4.86359 9.55171C4.82869 9.4321 4.71422 9.34904 4.5844 9.34904C4.45387 9.34904 4.3401 9.4321 4.30521 9.55171C3.81801 11.2328 3.4788 11.5557 1.71288 12.0196C1.58725 12.0528 1.5 12.1618 1.5 12.2854C1.5 12.4097 1.58725 12.518 1.71288 12.5512C3.47876 13.015 3.81794 13.3386 4.30521 15.0191C4.3401 15.1387 4.45457 15.2218 4.5844 15.2218C4.71492 15.2218 4.82869 15.1387 4.86359 15.0191C5.35078 13.338 5.69069 13.0151 7.45591 12.5512C7.58155 12.518 7.66879 12.409 7.66879 12.2854C7.66879 12.1612 7.58155 12.0528 7.45591 12.0196Z" fill="#0DA3A3"/>
<path d="M9.55252 2.5866C9.68228 2.5866 9.79686 2.66957 9.83182 2.78908C10.6603 5.64702 11.2851 6.2419 14.2869 7.03126C14.4124 7.06446 14.4996 7.17276 14.4998 7.29689C14.4998 7.42048 14.4125 7.52994 14.2869 7.56317L13.7517 7.709C11.2063 8.43477 10.6092 9.12525 9.83182 11.8047L9.81489 11.8477C9.7679 11.9435 9.66662 12.0072 9.55252 12.0072L9.505 12.0033C9.41124 11.9883 9.33054 11.9299 9.29015 11.8477L9.27323 11.8047C8.4958 9.12535 7.89852 8.43517 5.3533 7.709L4.8175 7.56317C4.69186 7.52994 4.60461 7.42115 4.60461 7.29689C4.60475 7.17342 4.69196 7.06446 4.8175 7.03126C7.81956 6.2418 8.44404 5.64703 9.27323 2.78908C9.30815 2.66957 9.4221 2.58666 9.55252 2.5866ZM9.55187 4.97658C9.28906 5.53092 8.9729 6.00746 8.54992 6.41017C8.16249 6.779 7.71062 7.06073 7.18989 7.29689C7.71062 7.53297 8.16248 7.81486 8.54992 8.18361C8.97287 8.58619 9.28972 9.06235 9.55252 9.61655C9.81525 9.06229 10.1322 8.58625 10.5551 8.18361C10.9423 7.81496 11.3935 7.5329 11.9139 7.29689C11.3935 7.06082 10.9423 6.77881 10.5551 6.41017C10.132 6.00732 9.81464 5.53115 9.55187 4.97658Z" fill="#0DA3A3"/>
</svg>
