<svg width="24" height="24" viewBox="0 0 24 24" fill="none" xmlns="http://www.w3.org/2000/svg">
<g clip-path="url(#clip0_12_1338)">
<path d="M12 19.7002C12.1657 19.7002 12.2998 19.8344 12.2998 20V23.2002C12.2997 23.3657 12.1656 23.5 12 23.5C11.8344 23.5 11.7003 23.3657 11.7002 23.2002V20C11.7002 19.8344 11.8343 19.7002 12 19.7002ZM6.13086 17.4443C6.24801 17.3273 6.43855 17.3272 6.55566 17.4443C6.67264 17.5613 6.67275 17.7519 6.55566 17.8691L4.29297 20.1318C4.1758 20.249 3.9853 20.249 3.86816 20.1318C3.751 20.0146 3.75097 19.8242 3.86816 19.707L6.13086 17.4443ZM17.4453 17.4443C17.5623 17.3277 17.752 17.3273 17.8691 17.4443L20.1318 19.707C20.2491 19.8242 20.2491 20.0146 20.1318 20.1318C20.0146 20.2491 19.8242 20.2491 19.707 20.1318L17.4443 17.8691C17.3273 17.752 17.3277 17.5623 17.4443 17.4453L17.4453 17.4443ZM12 7.7002C14.3748 7.7002 16.2998 9.62518 16.2998 12C16.2998 14.3748 14.3748 16.2998 12 16.2998C9.62518 16.2998 7.7002 14.3748 7.7002 12C7.7002 9.62518 9.62518 7.7002 12 7.7002ZM12 8.2998C9.95655 8.2998 8.2998 9.95655 8.2998 12C8.2998 14.0435 9.95655 15.7002 12 15.7002C14.0435 15.7002 15.7002 14.0435 15.7002 12C15.7002 9.95655 14.0435 8.2998 12 8.2998ZM0.799805 11.7002H4C4.16568 11.7002 4.2998 11.8343 4.2998 12C4.2998 12.1657 4.16568 12.2998 4 12.2998H0.799805C0.634211 12.2997 0.5 12.1656 0.5 12C0.5 11.8344 0.634211 11.7003 0.799805 11.7002ZM20 11.7002H23.2002C23.3657 11.7003 23.5 11.8344 23.5 12C23.5 12.1656 23.3657 12.2997 23.2002 12.2998H20C19.8344 12.2998 19.7002 12.1657 19.7002 12C19.7002 11.8343 19.8344 11.7002 20 11.7002ZM3.86816 3.86816C3.98531 3.75102 4.17579 3.75099 4.29297 3.86816L6.55566 6.13086C6.6727 6.24802 6.67278 6.43855 6.55566 6.55566C6.43855 6.67278 6.24802 6.6727 6.13086 6.55566L3.86816 4.29297C3.75099 4.17579 3.75102 3.98531 3.86816 3.86816ZM19.707 3.86816C19.8242 3.75097 20.0146 3.751 20.1318 3.86816C20.249 3.9853 20.249 4.1758 20.1318 4.29297L17.8691 6.55566C17.7519 6.67275 17.5613 6.67264 17.4443 6.55566C17.3272 6.43855 17.3273 6.24801 17.4443 6.13086L19.707 3.86816ZM12 0.5C12.1656 0.5 12.2997 0.634211 12.2998 0.799805V4C12.2998 4.16568 12.1657 4.2998 12 4.2998C11.8343 4.2998 11.7002 4.16568 11.7002 4V0.799805C11.7003 0.634211 11.8344 0.5 12 0.5Z" fill="#FFFFFF" stroke="#FFFFFF"/>
</g>
<defs>
<clipPath id="clip0_12_1338">
<rect width="24" height="24" fill="white"/>
</clipPath>
</defs>
</svg>
