<svg width="32" height="32" viewBox="0 0 32 32" fill="none" xmlns="http://www.w3.org/2000/svg">
<path d="M26.237 18.5834V22.4584H30.0762V25.0417H26.237V28.9167H23.6775V25.0417H19.8383V22.4584H23.6775V18.5834H26.237ZM26.237 3.08341C26.5953 3.08341 26.8982 3.20827 27.1456 3.45799C27.393 3.70772 27.5168 4.01341 27.5168 4.37508V16.0001H24.9573V5.66674H4.48136V23.7501L17.2788 10.8334L21.118 14.7084V18.3509L17.2788 14.4759L8.09024 23.7501H17.2788V26.3334H3.20162C2.84329 26.3334 2.54042 26.2086 2.293 25.9588C2.04558 25.7091 1.92188 25.4034 1.92188 25.0417V4.37508C1.92188 4.01341 2.04558 3.70772 2.293 3.45799C2.54042 3.20827 2.84329 3.08341 3.20162 3.08341H26.237ZM9.60034 8.25008C10.061 8.25008 10.4876 8.36633 10.8801 8.59883C11.2725 8.83133 11.5839 9.14563 11.8143 9.54175C12.0447 9.93786 12.1598 10.3684 12.1598 10.8334C12.1598 11.2984 12.0447 11.729 11.8143 12.1251C11.5839 12.5212 11.2725 12.8355 10.8801 13.068C10.4876 13.3005 10.061 13.4167 9.60034 13.4167C9.13963 13.4167 8.71305 13.3005 8.32059 13.068C7.92814 12.8355 7.61674 12.5212 7.38638 12.1251C7.15603 11.729 7.04085 11.2984 7.04085 10.8334C7.04085 10.3684 7.15603 9.93786 7.38638 9.54175C7.61674 9.14563 7.92814 8.83133 8.32059 8.59883C8.71305 8.36633 9.13963 8.25008 9.60034 8.25008Z" fill="#686E7D"/>
</svg>
