<svg width="21" height="20" viewBox="0 0 21 20" fill="none" xmlns="http://www.w3.org/2000/svg">
<path d="M9.10156 6.35059C9.18259 6.50645 9.26777 6.66463 9.3623 6.82422C9.4667 7.00089 9.59594 7.20623 9.72266 7.37012C9.79401 7.47745 9.86833 7.57683 9.93457 7.66113L10.1074 7.87305C10.1271 7.89858 10.1552 7.9359 10.1729 7.95801C10.1876 7.97647 10.2097 8.00454 10.2363 8.0332C10.2434 8.04087 10.2553 8.05254 10.2705 8.06738C10.5644 8.41698 10.8848 8.72849 11.1729 8.97363C11.2042 9.00396 11.2343 9.03372 11.2627 9.05859C11.2817 9.07526 11.3038 9.0941 11.3271 9.1123C11.33 9.11453 11.3404 9.12188 11.3555 9.13281C11.5022 9.25558 11.6749 9.39292 11.8389 9.50195V9.50293C12.0265 9.63699 12.2204 9.76575 12.4268 9.8877C12.5851 9.98151 12.745 10.066 12.9023 10.1455L8.4541 14.5938C8.44956 14.5964 8.44391 14.6003 8.4375 14.6035C8.42415 14.6102 8.41057 14.6146 8.40039 14.6182L5.2207 15.0664L5.21094 15.0684L5.20215 15.0693C5.14247 15.0793 5.08339 15.084 5.02539 15.084C4.75383 15.084 4.53354 14.9909 4.3877 14.8525C4.22721 14.683 4.12248 14.3976 4.17578 14.0352V14.0303L4.62207 10.8691C4.62583 10.8585 4.63183 10.8438 4.63965 10.8281C4.64659 10.8142 4.65258 10.803 4.65723 10.7959L9.10156 6.35059ZM13.9316 2.42285C14.4646 2.42631 15.0865 2.69883 15.8193 3.43164L15.8223 3.43359C16.573 4.17684 16.8307 4.79438 16.8252 5.34375V5.35059C16.8252 5.87678 16.5675 6.48883 15.8223 7.22656L15.8174 7.23145L14.9961 8.05859C13.2136 7.4698 11.7836 6.0416 11.1934 4.25977L12.0225 3.43164C12.7726 2.6815 13.4013 2.41942 13.9316 2.42285Z" fill="white" stroke="white" stroke-width="1.5"/>
</svg>
