<svg width="20" height="20" viewBox="0 0 20 20" fill="none" xmlns="http://www.w3.org/2000/svg">
<path d="M4.7334 7.20898H15.2666C15.3423 7.20898 15.4198 7.23957 15.4785 7.29785C15.5328 7.35995 15.5636 7.4424 15.5596 7.53027L15.043 16.0713C14.9942 16.748 14.9388 17.2288 14.6846 17.5771C14.4765 17.8618 14.0011 18.2168 12.6748 18.2168H7.3252C6.00034 18.2168 5.52501 17.8612 5.31641 17.5752C5.06128 17.2254 5.00586 16.7437 4.95703 16.0713L4.44043 7.52148C4.4367 7.44236 4.4674 7.35618 4.52734 7.29102C4.56798 7.24711 4.64625 7.209 4.7334 7.20898ZM8.6084 12.792C7.85254 12.792 7.2334 13.4111 7.2334 14.167C7.2334 14.9229 7.85254 15.542 8.6084 15.542H11.3838C12.1395 15.5418 12.7588 14.9228 12.7588 14.167C12.7588 13.4112 12.1395 12.7922 11.3838 12.792H8.6084ZM7.91699 9.45898C7.20845 9.45898 6.61975 10.0026 6.54883 10.6934L6.54199 10.834L6.54883 10.9736C6.61959 11.6645 7.20834 12.209 7.91699 12.209H12.083C12.8388 12.209 13.4578 11.5897 13.458 10.834C13.458 10.0781 12.8389 9.45898 12.083 9.45898H7.91699ZM8.90039 1.79199H11.083C11.9021 1.79199 12.1874 2.02505 12.3105 2.17969C12.4753 2.38663 12.5345 2.6676 12.6016 3.0791L12.6025 3.08398L12.7754 4.1084V4.50781C10.8993 4.42038 9.02366 4.40356 7.15039 4.48145L7.20703 4.13867L7.38184 3.07227C7.45342 2.63828 7.51436 2.36393 7.6748 2.16602C7.79388 2.0193 8.07559 1.79199 8.90039 1.79199Z" fill="white" stroke="white" stroke-width="1.5"/>
</svg>
