<svg width="120" height="120" viewBox="0 0 120 120" fill="none" xmlns="http://www.w3.org/2000/svg">
<path d="M97.5019 109.999C104.404 109.999 110 104.404 110 97.5015C110 90.5993 104.404 85.0039 97.5019 85.0039C90.5997 85.0039 85.0043 90.5993 85.0043 97.5015C85.0043 104.404 90.5997 109.999 97.5019 109.999Z" fill="#8B99FF"/>
<path d="M72.4972 109.999C79.3994 109.999 84.9948 104.404 84.9948 97.5015C84.9948 90.5993 79.3994 85.0039 72.4972 85.0039C65.5949 85.0039 59.9995 90.5993 59.9995 97.5015C59.9995 104.404 65.5949 109.999 72.4972 109.999Z" fill="#FB923C"/>
<path d="M22.498 109.999C29.4003 109.999 34.9957 104.404 34.9957 97.5015C34.9957 90.5993 29.4003 85.0039 22.498 85.0039C15.5958 85.0039 10.0004 90.5993 10.0004 97.5015C10.0004 104.404 15.5958 109.999 22.498 109.999Z" fill="#8B99FF"/>
<path d="M97.5019 84.9953C104.404 84.9953 110 79.3999 110 72.4976C110 65.5954 104.404 60 97.5019 60C90.5997 60 85.0043 65.5954 85.0043 72.4976C85.0043 79.3999 90.5997 84.9953 97.5019 84.9953Z" fill="#8B99FF"/>
<path d="M47.5025 84.9953C54.4048 84.9953 60.0002 79.3999 60.0002 72.4976C60.0002 65.5954 54.4048 60 47.5025 60C40.6003 60 35.0049 65.5954 35.0049 72.4976C35.0049 79.3999 40.6003 84.9953 47.5025 84.9953Z" fill="#FB923C"/>
<path d="M22.498 84.9953C29.4003 84.9953 34.9957 79.3999 34.9957 72.4976C34.9957 65.5954 29.4003 60 22.498 60C15.5958 60 10.0004 65.5954 10.0004 72.4976C10.0004 79.3999 15.5958 84.9953 22.498 84.9953Z" fill="#8B99FF"/>
<path d="M97.5019 59.9999C104.404 59.9999 110 54.4045 110 47.5023C110 40.6 104.404 35.0046 97.5019 35.0046C90.5997 35.0046 85.0043 40.6 85.0043 47.5023C85.0043 54.4045 90.5997 59.9999 97.5019 59.9999Z" fill="#FB923C"/>
<path d="M72.4972 59.9999C79.3994 59.9999 84.9948 54.4045 84.9948 47.5023C84.9948 40.6 79.3994 35.0046 72.4972 35.0046C65.5949 35.0046 59.9995 40.6 59.9995 47.5023C59.9995 54.4045 65.5949 59.9999 72.4972 59.9999Z" stroke="white" stroke-width="0.717692" stroke-linecap="round" stroke-linejoin="round"/>
<path d="M22.498 59.9999C29.4003 59.9999 34.9957 54.4045 34.9957 47.5023C34.9957 40.6 29.4003 35.0046 22.498 35.0046C15.5958 35.0046 10.0004 40.6 10.0004 47.5023C10.0004 54.4045 15.5958 59.9999 22.498 59.9999Z" fill="#FB923C"/>
<path d="M97.5019 34.996C104.404 34.996 110 29.4006 110 22.4984C110 15.5961 104.404 10.0007 97.5019 10.0007C90.5997 10.0007 85.0043 15.5961 85.0043 22.4984C85.0043 29.4006 90.5997 34.996 97.5019 34.996Z" fill="#8B99FF"/>
<path d="M47.5029 10.3591C54.2068 10.3593 59.6416 15.7948 59.6416 22.4988C59.6414 29.2025 54.2067 34.6372 47.5029 34.6375C40.799 34.6375 35.3635 29.2027 35.3633 22.4988C35.3633 15.7947 40.7989 10.3591 47.5029 10.3591Z" fill="#A4E43A" stroke="white" stroke-width="0.717692"/>
<path d="M22.498 34.996C29.4003 34.996 34.9957 29.4006 34.9957 22.4984C34.9957 15.5961 29.4003 10.0007 22.498 10.0007C15.5958 10.0007 10.0004 15.5961 10.0004 22.4984C10.0004 29.4006 15.5958 34.996 22.498 34.996Z" fill="#8B99FF"/>
<path d="M59.9995 22.4983H85.0035" stroke="white" stroke-width="0.717692" stroke-linecap="round" stroke-linejoin="round"/>
<path d="M34.9956 47.5024H59.9996" stroke="white" stroke-width="0.717692" stroke-linecap="round" stroke-linejoin="round"/>
<path d="M59.9995 72.4976H85.0035" stroke="white" stroke-width="0.717692" stroke-linecap="round" stroke-linejoin="round"/>
<path d="M34.9956 97.5017H59.9996" stroke="white" stroke-width="0.717692" stroke-linecap="round" stroke-linejoin="round"/>
</svg>
