<svg width="24" height="24" viewBox="0 0 24 24" fill="none" xmlns="http://www.w3.org/2000/svg">
<path d="M6.87598 14.817C7.20584 15.8977 7.54189 16.6796 8.14648 17.2555C8.72856 17.8098 9.50978 18.1249 10.5859 18.4283C9.51023 18.7318 8.72964 19.0472 8.14746 19.6012C7.54275 20.1767 7.20578 20.9582 6.87598 22.0387C6.5463 20.959 6.21069 20.1777 5.60645 19.6022C5.02412 19.0477 4.24287 18.7319 3.16602 18.4283C4.24264 18.1248 5.02415 17.8108 5.60645 17.2565C6.21126 16.6807 6.54613 15.8981 6.87598 14.817ZM14.3291 4.67249C14.9147 6.63154 15.4826 7.96031 16.4932 8.92249C17.4824 9.86424 18.8384 10.3994 20.833 10.9459C18.8382 11.4921 17.4823 12.0285 16.4932 12.9703C15.4831 13.9322 14.915 15.2601 14.3291 17.2184C13.7431 15.2598 13.1745 13.9321 12.1641 12.9703C11.1746 12.0286 9.81842 11.4925 7.82324 10.9459C9.81838 10.3993 11.1746 9.86348 12.1641 8.92151C13.1746 7.95936 13.7431 6.63142 14.3291 4.67249ZM7.33984 1.95862C7.58522 2.75113 7.84343 3.35088 8.31152 3.79651C8.75647 4.21999 9.34602 4.45943 10.123 4.68323C9.34573 4.90678 8.75659 5.14805 8.31152 5.5719C7.84401 6.0172 7.58501 6.61552 7.33984 7.40686C7.09504 6.61559 6.83691 6.01707 6.36914 5.5719C5.92389 5.14821 5.33424 4.90809 4.55664 4.6842C5.33428 4.4606 5.92394 4.22047 6.36914 3.79651C6.83715 3.35081 7.09447 2.75105 7.33984 1.95862Z" fill="#9CA1AF" stroke="#9CA1AF" stroke-width="1.08333"/>
</svg>
