<svg width="32" height="33" viewBox="0 0 32 33" fill="none" xmlns="http://www.w3.org/2000/svg">
<rect y="0.5" width="32" height="32" rx="6" fill="#10B981" fill-opacity="0.12"/>
<path d="M17.1668 14.0833L18.9168 15.8333M11.9168 13.5V15.8333M20.0835 18.1667V20.5M14.8335 11.1667V12.3333M13.0835 14.6667H10.7501M21.2501 19.3333H18.9168M15.4168 11.75H14.2501M21.6235 12.1233L20.8768 11.3767C20.8112 11.3103 20.733 11.2577 20.6469 11.2218C20.5608 11.1858 20.4684 11.1673 20.3751 11.1673C20.2818 11.1673 20.1894 11.1858 20.1033 11.2218C20.0172 11.2577 19.9391 11.3103 19.8735 11.3767L10.3768 20.8733C10.3105 20.939 10.2578 21.0171 10.2219 21.1032C10.186 21.1893 10.1675 21.2817 10.1675 21.375C10.1675 21.4683 10.186 21.5607 10.2219 21.6468C10.2578 21.7329 10.3105 21.811 10.3768 21.8767L11.1235 22.6233C11.1887 22.6904 11.2667 22.7436 11.3529 22.78C11.439 22.8164 11.5316 22.8351 11.6251 22.8351C11.7187 22.8351 11.8112 22.8164 11.8974 22.78C11.9836 22.7436 12.0616 22.6904 12.1268 22.6233L21.6235 13.1267C21.6905 13.0614 21.7438 12.9834 21.7801 12.8973C21.8165 12.8111 21.8353 12.7185 21.8353 12.625C21.8353 12.5315 21.8165 12.4389 21.7801 12.3527C21.7438 12.2666 21.6905 12.1886 21.6235 12.1233Z" stroke="#F3F4F6" stroke-width="1.3" stroke-linecap="round" stroke-linejoin="round"/>
</svg>

