<svg width="20" height="21" viewBox="0 0 20 21" fill="none" xmlns="http://www.w3.org/2000/svg">
<path d="M10 19.25C8.81 19.25 7.6725 19.0225 6.5875 18.5675C5.54917 18.1242 4.62458 17.4971 3.81375 16.6862C3.00292 15.8754 2.37583 14.9508 1.9325 13.9125C1.4775 12.8275 1.25 11.69 1.25 10.5C1.25 9.31 1.4775 8.1725 1.9325 7.0875C2.37583 6.04917 3.00292 5.12458 3.81375 4.31375C4.62458 3.50292 5.54917 2.87583 6.5875 2.4325C7.6725 1.9775 8.81 1.75 10 1.75C11.19 1.75 12.3275 1.9775 13.4125 2.4325C14.4508 2.87583 15.3754 3.50292 16.1863 4.31375C16.9971 5.12458 17.6242 6.04917 18.0675 7.0875C18.5225 8.1725 18.75 9.31 18.75 10.5C18.75 11.69 18.5225 12.8275 18.0675 13.9125C17.6242 14.9508 16.9971 15.8754 16.1863 16.6862C15.3754 17.4971 14.4508 18.1242 13.4125 18.5675C12.3275 19.0225 11.19 19.25 10 19.25ZM10 17.5C11.2717 17.5 12.45 17.1792 13.535 16.5375C14.585 15.9192 15.4192 15.085 16.0375 14.035C16.6792 12.95 17 11.7717 17 10.5C17 9.22833 16.6792 8.05 16.0375 6.965C15.4192 5.915 14.585 5.08083 13.535 4.4625C12.45 3.82083 11.2717 3.5 10 3.5C8.72833 3.5 7.55 3.82083 6.465 4.4625C5.415 5.08083 4.58083 5.915 3.9625 6.965C3.32083 8.05 3 9.22833 3 10.5C3 11.7717 3.32083 12.95 3.9625 14.035C4.58083 15.085 5.415 15.9192 6.465 16.5375C7.55 17.1792 8.72833 17.5 10 17.5ZM13.0625 7.4375L11.3125 11.8125L6.9375 13.5625L8.6875 9.1875L13.0625 7.4375Z" fill="#60A5FA"/>
</svg>

