<svg width="20" height="20" viewBox="0 0 20 20" fill="none" xmlns="http://www.w3.org/2000/svg">
<path d="M2.0033 14.2792C2.0033 16.3313 3.66543 17.9967 5.72078 17.9967C7.77613 17.9967 9.43494 16.3346 9.43494 14.2792V10.5651H5.71747C3.66212 10.5651 2.0033 12.2272 2.0033 14.2792ZM8.08344 14.2792C8.08344 15.5845 7.02272 16.6485 5.71417 16.6485C4.40892 16.6485 3.3449 15.5878 3.3449 14.2792C3.3449 12.974 4.40562 11.91 5.71417 11.91H8.08344V14.2792ZM17.9934 5.71747C17.9934 3.66212 16.328 2 14.2792 2C12.2305 2 10.5651 3.66212 10.5651 5.71747V9.43494H14.2825C16.3313 9.43164 17.9934 7.76621 17.9934 5.71747ZM11.91 5.71747C11.91 4.41223 12.9707 3.3482 14.2792 3.3482C15.5845 3.3482 16.6485 4.40892 16.6485 5.71747C16.6485 7.02602 15.5878 8.08674 14.2792 8.08674H11.91V5.71747ZM5.71747 9.43164H9.43494V5.71747C9.43164 3.66543 7.76952 2 5.71747 2C3.66543 2 2 3.66212 2 5.71747C2.0033 7.76621 3.66212 9.43164 5.71747 9.43164ZM5.71747 3.3482C7.02272 3.3482 8.08674 4.40892 8.08674 5.71747V8.08674H5.71747C4.41223 8.08674 3.3482 7.02602 3.3482 5.71747C3.3482 4.40892 4.40892 3.3482 5.71747 3.3482ZM14.2792 10.5651H10.5651V14.2825C10.5651 16.3346 12.2272 18 14.2825 18C16.3346 18 18 16.3379 18 14.2825C18 12.2272 16.3313 10.5651 14.2792 10.5651ZM14.2792 16.6452C12.974 16.6452 11.91 15.5845 11.91 14.2759V11.9133H14.2792C15.5845 11.9133 16.6485 12.974 16.6485 14.2825C16.6452 15.5845 15.5845 16.6452 14.2792 16.6452Z" fill="#F9FAFB"/>
</svg>

