<svg width="72" height="32" viewBox="0 0 72 32" fill="none" xmlns="http://www.w3.org/2000/svg">
<path d="M16 0.480469H56C64.5715 0.480469 71.5195 7.42854 71.5195 16C71.5195 24.5715 64.5715 31.5195 56 31.5195H16C7.42854 31.5195 0.480469 24.5715 0.480469 16C0.480469 7.42854 7.42854 0.480469 16 0.480469Z" fill="#484848"/>
<path d="M16 0.480469H56C64.5715 0.480469 71.5195 7.42854 71.5195 16C71.5195 24.5715 64.5715 31.5195 56 31.5195H16C7.42854 31.5195 0.480469 24.5715 0.480469 16C0.480469 7.42854 7.42854 0.480469 16 0.480469Z" stroke="#C5C5C5" stroke-width="0.96"/>
<path d="M12.1328 23.304V8.34399H22.8688V11.138H15.6528V14.79H22.0108V17.584H15.6528V23.304H12.1328Z" fill="#C5C5C5"/>
<path d="M25.2758 23.304V11.468H28.6418V13.118C29.3898 11.71 30.5337 11.094 31.7437 11.094C32.2277 11.094 32.6677 11.226 32.9097 11.468V14.306C32.5137 14.218 32.0958 14.174 31.5678 14.174C29.5438 14.174 28.6418 15.318 28.6418 17.188V23.304H25.2758Z" fill="#C5C5C5"/>
<path d="M46.0754 19.41C45.4594 22.138 43.2594 23.656 40.3554 23.656C36.6814 23.656 34.4154 21.28 34.4154 17.386C34.4154 13.36 36.7034 11.094 40.2234 11.094C43.7654 11.094 45.9874 13.448 45.9874 17.32V18.068H37.8474C38.0234 19.96 38.9034 20.972 40.3554 20.972C41.4554 20.972 42.2034 20.488 42.5554 19.41H46.0754ZM40.2234 13.778C38.9694 13.778 38.1774 14.592 37.9134 16.132H42.5114C42.2474 14.592 41.4554 13.778 40.2234 13.778Z" fill="#C5C5C5"/>
<path d="M59.8675 19.41C59.2515 22.138 57.0515 23.656 54.1475 23.656C50.4735 23.656 48.2075 21.28 48.2075 17.386C48.2075 13.36 50.4955 11.094 54.0155 11.094C57.5575 11.094 59.7795 13.448 59.7795 17.32V18.068H51.6395C51.8155 19.96 52.6955 20.972 54.1475 20.972C55.2475 20.972 55.9955 20.488 56.3475 19.41H59.8675ZM54.0155 13.778C52.7615 13.778 51.9695 14.592 51.7055 16.132H56.3035C56.0395 14.592 55.2475 13.778 54.0155 13.778Z" fill="#C5C5C5"/>
</svg>
