<svg width="72" height="32" viewBox="0 0 72 32" fill="none" xmlns="http://www.w3.org/2000/svg">
<path d="M16 0.5H56C64.5604 0.5 71.5 7.43959 71.5 16C71.5 24.5604 64.5604 31.5 56 31.5H16C7.43959 31.5 0.5 24.5604 0.5 16C0.5 7.43959 7.43959 0.5 16 0.5Z" fill="#42434A"/>
<path d="M16 0.5H56C64.5604 0.5 71.5 7.43959 71.5 16C71.5 24.5604 64.5604 31.5 56 31.5H16C7.43959 31.5 0.5 24.5604 0.5 16C0.5 7.43959 7.43959 0.5 16 0.5Z" stroke="#C8CDE3"/>
<path d="M13.4766 23.744V8.78399H19.3066C23.0026 8.78399 25.2906 10.654 25.2906 13.8C25.2906 17.012 22.9806 18.86 19.3506 18.86H16.9966V23.744H13.4766ZM19.2406 11.578H16.9966V16.066H19.1526C20.8686 16.066 21.6606 15.164 21.6606 13.822C21.6606 12.458 20.8246 11.578 19.2406 11.578Z" fill="#C8CDE3"/>
<path d="M27.973 23.744V7.90399H31.339V23.744H27.973Z" fill="#C8CDE3"/>
<path d="M41.7419 18.706V11.908H45.1079V23.744H41.7419V22.16C40.9719 23.48 39.8059 24.096 38.3759 24.096C36.1319 24.096 34.4819 22.732 34.4819 19.784V11.908H37.8479V19.102C37.8479 20.62 38.4199 21.368 39.6079 21.368C40.9059 21.368 41.7419 20.224 41.7419 18.706Z" fill="#C8CDE3"/>
<path d="M51.2 15.186C51.2 17.518 58.526 15.472 58.526 20.158C58.526 22.49 56.37 24.096 53.29 24.096C50.298 24.096 48.142 22.776 47.702 19.85H51.068C51.222 20.95 52.124 21.544 53.378 21.544C54.566 21.544 55.16 21.082 55.16 20.356C55.16 18.068 47.988 20.114 47.988 15.362C47.988 13.382 49.594 11.534 52.762 11.534C55.6 11.534 57.756 12.832 58.086 15.824H54.742C54.544 14.614 53.84 14.108 52.652 14.108C51.772 14.108 51.2 14.548 51.2 15.186Z" fill="#C8CDE3"/>
</svg>
