<svg width="32" height="32" viewBox="0 0 32 32" fill="none" xmlns="http://www.w3.org/2000/svg">
<rect width="32" height="32" rx="4" fill="#000000"/>
<g transform="translate(5.5, 0)">
<path d="M7.176 9.27429L15.48 4.47429C16.024 4.15429 16.504 4.11429 16.92 4.35429C17.352 4.59429 17.568 5.03429 17.568 5.67429V21.0343L15.48 22.2343V6.87429L12.36 8.67429V24.0343L10.272 25.2343V9.87429L7.176 11.6743V27.0343L5.088 28.2343V12.8743C5.088 12.4423 5.184 11.9943 5.376 11.5303C5.568 11.0503 5.824 10.6103 6.144 10.2103C6.464 9.79429 6.808 9.48229 7.176 9.27429ZM15.48 6.87429V22.2343L13.392 21.0343V5.67429L15.48 6.87429ZM10.272 9.87429V25.2343L8.208 24.0343V8.67429L10.272 9.87429ZM16.92 4.35429C16.504 4.11429 16.024 4.15429 15.48 4.47429L7.176 9.27429C6.808 9.48229 6.464 9.79429 6.144 10.2103C5.824 10.6103 5.568 11.0503 5.376 11.5303C5.184 11.9943 5.088 12.4423 5.088 12.8743V28.2343L3 27.0343V11.6743C3 11.2423 3.096 10.7943 3.288 10.3303C3.48 9.85029 3.736 9.41029 4.056 9.01029C4.376 8.59429 4.72 8.28229 5.088 8.07429L13.392 3.27428C13.952 2.95429 14.44 2.91429 14.856 3.15428L16.92 4.35429Z" fill="white"/>
<path d="M11.9033 0.670128C12.9592 0.0667894 14.4981 -0.342908 16.0459 0.392784L16.3555 0.55587L16.3643 0.560753L18.4277 1.76095L18.4268 1.7629C20.0569 2.69618 20.5682 4.33108 20.5684 5.67403V21.0344C20.5684 22.1083 19.9936 23.1008 19.0625 23.6359L16.9746 24.8352C16.4034 25.1634 15.7515 25.2881 15.1182 25.2111C14.8665 25.8009 14.4289 26.3058 13.8545 26.6359L11.7666 27.8352C11.2023 28.1595 10.5595 28.2841 9.93359 28.2131C9.68177 28.8021 9.24467 29.3062 8.6709 29.6359L6.58301 30.8352C5.65742 31.3671 4.51836 31.3671 3.59277 30.8352L1.50488 29.6359C0.573792 29.1008 0 28.1083 0 27.0344V11.674C6.80333e-05 10.7902 0.197431 9.9529 0.515625 9.1838C0.807635 8.46262 1.19652 7.79214 1.67871 7.18087C2.18094 6.52809 2.80738 5.92366 3.58691 5.47775L11.8906 0.676964L11.9033 0.670128ZM3 27.0343L5.088 28.2343L7.176 27.0343V11.6743L8.20801 11.0734L8.208 24.0343L10.272 25.2343L12.36 24.0343V8.67429L13.3916 8.07833L13.392 21.0343L15.48 22.2343L17.568 21.0343V5.67429C17.5679 5.11478 17.4026 4.70801 17.0723 4.45431L16.92 4.35429L14.856 3.15428C14.44 2.91429 13.952 2.95429 13.392 3.27428L5.088 8.07429C4.72 8.28229 4.376 8.59429 4.056 9.01029C3.736 9.41029 3.48 9.85029 3.288 10.3303C3.096 10.7943 3 11.2423 3 11.6743V27.0343Z" fill="white"/>
</g>
</svg> 