<svg width="16" height="16" viewBox="0 0 16 16" fill="none" xmlns="http://www.w3.org/2000/svg">
<path d="M1.60274 11.4234C1.60274 13.065 2.93244 14.3973 4.57672 14.3973C6.221 14.3973 7.54805 13.0676 7.54805 11.4234V8.45202H4.57408C2.9298 8.45202 1.60274 9.78172 1.60274 11.4234ZM6.46685 11.4234C6.46685 12.4676 5.61827 13.3188 4.57143 13.3188C3.52724 13.3188 2.67602 12.4702 2.67602 11.4234C2.67602 10.3792 3.52459 9.52794 4.57143 9.52794H6.46685V11.4234ZM14.3948 4.57395C14.3948 2.92967 13.0625 1.59998 11.4235 1.59998C9.78448 1.59998 8.45214 2.92967 8.45214 4.57395V7.54793H11.4261C13.0651 7.54529 14.3948 6.21295 14.3948 4.57395ZM9.52806 4.57395C9.52806 3.52976 10.3766 2.67854 11.4235 2.67854C12.4677 2.67854 13.3189 3.52711 13.3189 4.57395C13.3189 5.62079 12.4703 6.46937 11.4235 6.46937H9.52806V4.57395ZM4.57408 7.54529H7.54805V4.57395C7.54541 2.93232 6.21571 1.59998 4.57408 1.59998C2.93244 1.59998 1.6001 2.92967 1.6001 4.57395C1.60274 6.21295 2.9298 7.54529 4.57408 7.54529ZM4.57408 2.67854C5.61827 2.67854 6.46949 3.52711 6.46949 4.57395V6.46937H4.57408C3.52988 6.46937 2.67866 5.62079 2.67866 4.57395C2.67866 3.52711 3.52724 2.67854 4.57408 2.67854ZM11.4235 8.45202H8.45214V11.426C8.45214 13.0676 9.78184 14.4 11.4261 14.4C13.0678 14.4 14.4001 13.0703 14.4001 11.426C14.4001 9.78172 13.0651 8.45202 11.4235 8.45202ZM11.4235 13.3161C10.3793 13.3161 9.52806 12.4676 9.52806 11.4207V9.53058H11.4235C12.4677 9.53058 13.3189 10.3792 13.3189 11.426C13.3162 12.4676 12.4677 13.3161 11.4235 13.3161Z" fill="#0900FF"/>
</svg>
