<svg width="24" height="24" viewBox="0 0 24 24" fill="none" xmlns="http://www.w3.org/2000/svg">
<path d="M16.7246 4.48938C19.3617 4.48938 21.5 6.62768 21.5 9.26477C21.4998 11.768 20.005 14.2841 17.918 16.3917C15.9683 18.3607 13.6504 19.8201 12 20.4484C10.3496 19.8201 8.03173 18.3607 6.08203 16.3917C3.99504 14.2841 2.50015 11.768 2.5 9.26477C2.5 6.71008 4.50638 4.62312 7.0293 4.49524L7.27539 4.48938C8.04152 4.48895 8.79665 4.67339 9.47656 5.02649C10.1564 5.37956 10.7414 5.89083 11.1816 6.5177C11.3687 6.78403 11.6736 6.94316 11.999 6.94348C12.3246 6.94366 12.63 6.78488 12.8174 6.51868C13.6827 5.2894 15.1107 4.48951 16.7246 4.48938Z" stroke="#1F2937" stroke-width="2" stroke-linecap="round" stroke-linejoin="round"/>
</svg>
