<svg width="16" height="17" viewBox="0 0 16 17" fill="none" xmlns="http://www.w3.org/2000/svg">
<path d="M1.59961 3.56941C1.59961 3.38634 1.66148 3.2316 1.78521 3.10519C1.90894 2.97879 2.06041 2.91559 2.23961 2.91559H13.7596C13.9388 2.91559 14.0903 2.97879 14.214 3.10519C14.3377 3.2316 14.3996 3.38634 14.3996 3.56941V14.0306C14.3996 14.2137 14.3377 14.3684 14.214 14.4948C14.0903 14.6212 13.9388 14.6844 13.7596 14.6844H2.23961C2.06041 14.6844 1.90894 14.6212 1.78521 14.4948C1.66148 14.3684 1.59961 14.2137 1.59961 14.0306V3.56941ZM5.43961 4.22323V13.3768H10.5596V4.22323H5.43961ZM2.87961 4.22323V5.53088H4.15961V4.22323H2.87961ZM11.8396 4.22323V5.53088H13.1196V4.22323H11.8396ZM2.87961 6.83853V8.14618H4.15961V6.83853H2.87961ZM11.8396 6.83853V8.14618H13.1196V6.83853H11.8396ZM2.87961 9.45383V10.7615H4.15961V9.45383H2.87961ZM11.8396 9.45383V10.7615H13.1196V9.45383H11.8396ZM2.87961 12.0691V13.3768H4.15961V12.0691H2.87961ZM11.8396 12.0691V13.3768H13.1196V12.0691H11.8396Z" fill="#4B5563"/>
</svg>
