<svg width="54" height="54" viewBox="0 0 54 54" fill="none" xmlns="http://www.w3.org/2000/svg">
<rect width="54" height="54" rx="10" fill="url(#paint0_linear_395_6652)"/>
<g clip-path="url(#clip0_395_6652)">
<path fill-rule="evenodd" clip-rule="evenodd" d="M35.3475 15.6C35.285 15.4253 35.1701 15.2741 35.0184 15.1672C34.8666 15.0603 34.6856 15.0029 34.5 15.0029C34.3144 15.0029 34.1334 15.0603 33.9816 15.1672C33.8299 15.2741 33.715 15.4253 33.6525 15.6L32.997 17.4495C32.9522 17.5758 32.8799 17.6905 32.7851 17.7852C32.6904 17.8799 32.5758 17.9523 32.4495 17.997L30.5985 18.6525C30.4237 18.715 30.2726 18.83 30.1657 18.9817C30.0588 19.1334 30.0014 19.3144 30.0014 19.5C30.0014 19.6856 30.0588 19.8667 30.1657 20.0184C30.2726 20.1701 30.4237 20.2851 30.5985 20.3475L32.4495 21.003C32.5758 21.0478 32.6904 21.1202 32.7851 21.2149C32.8799 21.3096 32.9522 21.4243 32.997 21.5505L33.6525 23.4C33.715 23.5748 33.8299 23.726 33.9816 23.8329C34.1334 23.9398 34.3144 23.9971 34.5 23.9971C34.6856 23.9971 34.8666 23.9398 35.0184 23.8329C35.1701 23.726 35.285 23.5748 35.3475 23.4L36.003 21.549C36.0478 21.4228 36.1201 21.3081 36.2149 21.2134C36.3096 21.1187 36.4242 21.0463 36.5505 21.0015L38.4 20.3475C38.5748 20.2851 38.7259 20.1701 38.8328 20.0184C38.9397 19.8667 38.9971 19.6856 38.9971 19.5C38.9971 19.3144 38.9397 19.1334 38.8328 18.9817C38.7259 18.83 38.5748 18.715 38.4 18.6525L36.549 17.997C36.4227 17.9523 36.3081 17.8799 36.2134 17.7852C36.1186 17.6905 36.0463 17.5758 36.0015 17.4495L35.3475 15.6ZM28.5 17.625C28.5 17.3267 28.3815 17.0405 28.1705 16.8295C27.9595 16.6186 27.6734 16.5 27.375 16.5H19.5C18.3065 16.5 17.1619 16.9741 16.318 17.8181C15.4741 18.662 15 19.8066 15 21V30C15 31.1935 15.4741 32.3381 16.318 33.182C17.1619 34.0259 18.3065 34.5 19.5 34.5H32.9055L37.08 38.67C37.2373 38.8272 37.4377 38.9342 37.6558 38.9775C37.8739 39.0208 38.0999 38.9985 38.3054 38.9135C38.5108 38.8284 38.6865 38.6844 38.8101 38.4995C38.9337 38.3147 38.9998 38.0974 39 37.875V25.125C39 24.8267 38.8815 24.5405 38.6705 24.3295C38.4595 24.1186 38.1734 24 37.875 24C37.5766 24 37.2905 24.1186 37.0795 24.3295C36.8685 24.5405 36.75 24.8267 36.75 25.125V35.16L34.1655 32.58L33.8355 32.25H19.5C18.9033 32.25 18.331 32.013 17.909 31.591C17.4871 31.1691 17.25 30.5968 17.25 30V21C17.25 20.4033 17.4871 19.831 17.909 19.409C18.331 18.9871 18.9033 18.75 19.5 18.75H27.375C27.6734 18.75 27.9595 18.6315 28.1705 18.4205C28.3815 18.2096 28.5 17.9234 28.5 17.625ZM26.295 22.272C26.3476 22.1272 26.4434 22.0022 26.5695 21.9137C26.6957 21.8253 26.846 21.7779 27 21.7779C27.154 21.7779 27.3043 21.8253 27.4305 21.9137C27.5566 22.0022 27.6524 22.1272 27.705 22.272L28.2525 23.8155C28.2898 23.9207 28.3501 24.0162 28.429 24.095C28.5079 24.1739 28.6034 24.2342 28.7085 24.2715L30.2505 24.8175C30.3958 24.8698 30.5214 24.9656 30.6102 25.0919C30.699 25.2182 30.7467 25.3689 30.7467 25.5233C30.7467 25.6777 30.699 25.8283 30.6102 25.9546C30.5214 26.081 30.3958 26.1768 30.2505 26.229L28.7085 26.7765C28.6034 26.8138 28.5079 26.8741 28.429 26.953C28.3501 27.0319 28.2898 27.1274 28.2525 27.2325L27.7065 28.7745C27.6546 28.9203 27.5588 29.0465 27.4323 29.1357C27.3058 29.2249 27.1548 29.2728 27 29.2728C26.8452 29.2728 26.6942 29.2249 26.5677 29.1357C26.4412 29.0465 26.3454 28.9203 26.2935 28.7745L25.7475 27.2325C25.7102 27.1274 25.6499 27.0319 25.571 26.953C25.4921 26.8741 25.3966 26.8138 25.2915 26.7765L23.7495 26.229C23.6042 26.1768 23.4786 26.081 23.3898 25.9546C23.301 25.8283 23.2533 25.6777 23.2533 25.5233C23.2533 25.3689 23.301 25.2182 23.3898 25.0919C23.4786 24.9656 23.6042 24.8698 23.7495 24.8175L25.29 24.27C25.3951 24.2327 25.4906 24.1724 25.5695 24.0935C25.6484 24.0147 25.7087 23.9192 25.746 23.814L26.292 22.2705L26.295 22.272Z" fill="black"/>
</g>
<defs>
<linearGradient id="paint0_linear_395_6652" x1="27" y1="0" x2="27" y2="54" gradientUnits="userSpaceOnUse">
<stop stop-color="#00FF48"/>
<stop offset="1" stop-color="#ADFFE2"/>
</linearGradient>
<clipPath id="clip0_395_6652">
<rect width="24" height="24" fill="white" transform="matrix(-1 0 0 1 39 15)"/>
</clipPath>
</defs>
</svg>
