<svg width="17" height="16" viewBox="0 0 17 16" fill="none" xmlns="http://www.w3.org/2000/svg">
<rect x="1" y="0.5" width="15" height="15" rx="7.5" stroke="#0900FF"/>
<path d="M4.54541 7.5871C4.6558 7.47674 4.80551 7.41474 4.96161 7.41474C5.1177 7.41474 5.26741 7.47674 5.37781 7.5871L7.4594 9.66869L11.6214 5.5061C11.6761 5.45141 11.741 5.40801 11.8124 5.3784C11.8838 5.34878 11.9604 5.33352 12.0377 5.3335C12.115 5.33347 12.1916 5.34867 12.263 5.37824C12.3345 5.4078 12.3994 5.45115 12.4541 5.50581C12.5088 5.56046 12.5522 5.62536 12.5818 5.69678C12.6114 5.76821 12.6267 5.84477 12.6267 5.92209C12.6267 5.99942 12.6115 6.07599 12.582 6.14743C12.5524 6.21888 12.5091 6.28381 12.4544 6.3385L7.4594 11.3335L4.54541 8.4195C4.43504 8.30911 4.37305 8.1594 4.37305 8.0033C4.37305 7.8472 4.43504 7.6975 4.54541 7.5871Z" fill="#0900FF"/>
</svg>
