<svg width="24" height="24" viewBox="0 0 24 24" fill="none" xmlns="http://www.w3.org/2000/svg">
<path d="M19.8598 19.3827L18.7836 13.1777H19.1471C19.4395 13.1777 19.675 12.9421 19.675 12.6497V8.75127C19.675 8.45888 19.4395 8.22335 19.1471 8.22335H14.1521V4.52792C14.1521 4.23553 13.9166 4 13.6242 4H10.3755C10.0831 4 9.84757 4.23553 9.84757 4.52792V8.22335H4.85265C4.56026 8.22335 4.32473 8.45888 4.32473 8.75127V12.6497C4.32473 12.9421 4.56026 13.1777 4.85265 13.1777H5.2161L4.13996 19.3827C4.13387 19.4132 4.13184 19.4437 4.13184 19.4721C4.13184 19.7645 4.36737 20 4.65975 20H19.34C19.3704 20 19.4009 19.998 19.4293 19.9919C19.7176 19.9431 19.9105 19.669 19.8598 19.3827ZM5.74605 9.64467H11.2689V5.42132H12.7308V9.64467H18.2537V11.7563H5.74605V9.64467ZM15.2486 18.5787V15.4112C15.2486 15.3218 15.1755 15.2487 15.0862 15.2487H14.1115C14.0222 15.2487 13.9491 15.3218 13.9491 15.4112V18.5787H10.0506V15.4112C10.0506 15.3218 9.97752 15.2487 9.88818 15.2487H8.91356C8.82422 15.2487 8.75113 15.3218 8.75113 15.4112V18.5787H5.72168L6.63742 13.2995H17.3603L18.276 18.5787H15.2486Z" fill="#1F2937"/>
</svg>
