<svg width="24" height="24" viewBox="0 0 24 24" fill="none" xmlns="http://www.w3.org/2000/svg">
<path fill-rule="evenodd" clip-rule="evenodd" d="M12 13.6152L16.0366 17.6518C16.2508 17.866 16.5413 17.9863 16.8442 17.9863C17.1471 17.9863 17.4376 17.866 17.6518 17.6518C17.866 17.4376 17.9863 17.1471 17.9863 16.8442C17.9863 16.5413 17.866 16.2508 17.6518 16.0366L13.6137 12L17.651 7.96343C17.757 7.85737 17.8411 7.73147 17.8985 7.59292C17.9558 7.45437 17.9853 7.30588 17.9853 7.15592C17.9853 7.00597 17.9557 6.85749 17.8983 6.71897C17.8409 6.58044 17.7567 6.45458 17.6507 6.34857C17.5446 6.24257 17.4187 6.15849 17.2801 6.10113C17.1416 6.04378 16.9931 6.01428 16.8431 6.01432C16.6932 6.01435 16.5447 6.04392 16.4062 6.10134C16.2677 6.15876 16.1418 6.2429 16.0358 6.34895L12 10.3855L7.96342 6.34895C7.85814 6.23985 7.73219 6.15281 7.59292 6.09291C7.45365 6.033 7.30384 6.00144 7.15224 6.00005C7.00063 5.99866 6.85027 6.02748 6.70992 6.08482C6.56958 6.14216 6.44205 6.22689 6.3348 6.33404C6.22755 6.44119 6.1427 6.56863 6.08523 6.70893C6.02775 6.84922 5.99879 6.99955 6.00004 7.15116C6.00128 7.30276 6.03271 7.4526 6.09248 7.59193C6.15226 7.73126 6.23918 7.85729 6.34818 7.96267L10.3863 12L6.34894 16.0373C6.23994 16.1427 6.15302 16.2687 6.09324 16.4081C6.03347 16.5474 6.00205 16.6972 6.0008 16.8488C5.99955 17.0004 6.02851 17.1508 6.08599 17.2911C6.14347 17.4314 6.22831 17.5588 6.33556 17.666C6.44282 17.7731 6.57034 17.8578 6.71068 17.9152C6.85103 17.9725 7.00139 18.0013 7.153 18C7.3046 17.9986 7.45441 17.967 7.59368 17.9071C7.73295 17.8472 7.8589 17.7601 7.96418 17.651L12 13.6152Z" fill="#1F2937"/>
</svg>
