<svg width="16" height="16" viewBox="0 0 16 16" fill="none" xmlns="http://www.w3.org/2000/svg">
<path d="M5.22266 6.70389C5.22266 6.31093 5.37876 5.93406 5.65661 5.65619C5.93447 5.37833 6.31133 5.22222 6.70428 5.22222H11.5186C11.7132 5.22222 11.9058 5.26055 12.0856 5.33501C12.2653 5.40947 12.4287 5.51861 12.5663 5.65619C12.7038 5.79378 12.813 5.95711 12.8874 6.13688C12.9619 6.31664 13.0002 6.50931 13.0002 6.70389V11.5183C13.0002 11.7129 12.9619 11.9056 12.8874 12.0853C12.813 12.2651 12.7038 12.4284 12.5663 12.566C12.4287 12.7036 12.2653 12.8128 12.0856 12.8872C11.9058 12.9617 11.7132 13 11.5186 13H6.70428C6.50971 13 6.31705 12.9617 6.13729 12.8872C5.95753 12.8128 5.7942 12.7036 5.65661 12.566C5.51903 12.4284 5.4099 12.2651 5.33544 12.0853C5.26098 11.9056 5.22266 11.7129 5.22266 11.5183V6.70389Z" stroke="#4B5563" stroke-linecap="round" stroke-linejoin="round"/>
<path d="M3.56221 10.6317C3.39166 10.5348 3.2498 10.3944 3.15105 10.2249C3.0523 10.0554 3.00019 9.86283 3 9.66667V4.11111C3 3.5 3.49999 3 4.11108 3H9.66649C10.0831 3 10.3098 3.21389 10.4998 3.55556" stroke="#4B5563" stroke-linecap="round" stroke-linejoin="round"/>
</svg>
