<svg width="32" height="31" viewBox="0 0 32 31" fill="none" xmlns="http://www.w3.org/2000/svg">
<path d="M26.238 18.0834V21.9584H30.0772V24.5417H26.238V28.4167H23.6785V24.5417H19.8393V21.9584H23.6785V18.0834H26.238ZM26.238 2.58341C26.5963 2.58341 26.8992 2.70827 27.1466 2.95799C27.394 3.20772 27.5177 3.51341 27.5177 3.87508V15.5001H24.9582V5.16674H4.48234V23.2501L17.2798 10.3334L21.119 14.2084V17.8509L17.2798 13.9759L8.09122 23.2501H17.2798V25.8334H3.2026C2.84427 25.8334 2.54139 25.7086 2.29398 25.4588C2.04656 25.2091 1.92285 24.9034 1.92285 24.5417V3.87508C1.92285 3.51341 2.04656 3.20772 2.29398 2.95799C2.54139 2.70827 2.84427 2.58341 3.2026 2.58341H26.238ZM9.60132 7.75008C10.062 7.75008 10.4886 7.86633 10.8811 8.09883C11.2735 8.33133 11.5849 8.64563 11.8153 9.04175C12.0456 9.43786 12.1608 9.86841 12.1608 10.3334C12.1608 10.7984 12.0456 11.229 11.8153 11.6251C11.5849 12.0212 11.2735 12.3355 10.8811 12.568C10.4886 12.8005 10.062 12.9167 9.60132 12.9167C9.14061 12.9167 8.71403 12.8005 8.32157 12.568C7.92912 12.3355 7.61771 12.0212 7.38736 11.6251C7.157 11.229 7.04183 10.7984 7.04183 10.3334C7.04183 9.86841 7.157 9.43786 7.38736 9.04175C7.61771 8.64563 7.92912 8.33133 8.32157 8.09883C8.71403 7.86633 9.14061 7.75008 9.60132 7.75008Z" fill="#9CA3AF"/>
</svg>
