<svg width="20" height="21" viewBox="0 0 20 21" fill="none" xmlns="http://www.w3.org/2000/svg">
    <path d="M9.02288 10.9506C8.98994 10.9579 8.95663 10.9631 8.92223 10.9656C6.23826 11.1808 3.99167 13.3498 3.64213 16.0459H6.9238C7.01994 16.0459 7.11514 16.0648 7.20397 16.1016C7.29279 16.1384 7.37351 16.1923 7.44149 16.2602C7.50948 16.3282 7.56341 16.4089 7.6002 16.4977C7.637 16.5866 7.65594 16.6818 7.65594 16.7779C7.65594 16.874 7.637 16.9692 7.6002 17.0581C7.56341 17.1469 7.50948 17.2276 7.44149 17.2956C7.37351 17.3635 7.29279 17.4175 7.20397 17.4542C7.11514 17.491 7.01994 17.5099 6.9238 17.5099H2.86289C2.66874 17.5099 2.48255 17.4328 2.34526 17.2955C2.20798 17.1582 2.13086 16.9721 2.13086 16.7779C2.13086 13.822 3.94775 11.2394 6.48861 10.1018C5.93164 9.69421 5.47873 9.16089 5.16671 8.54525C4.85469 7.92961 4.69237 7.24902 4.69295 6.55882C4.69295 4.13326 6.65954 2.16667 9.08511 2.16667C11.5107 2.16667 13.4773 4.13326 13.4773 6.55882C13.4773 8.98439 11.5107 10.951 9.08511 10.951L9.02288 10.9506ZM9.08511 9.48693C9.86169 9.48693 10.6065 9.17843 11.1556 8.62931C11.7047 8.08018 12.0132 7.33541 12.0132 6.55882C12.0132 5.78224 11.7047 5.03747 11.1556 4.48834C10.6065 3.93922 9.86169 3.63072 9.08511 3.63072C8.30852 3.63072 7.56375 3.93922 7.01462 4.48834C6.4655 5.03747 6.157 5.78224 6.157 6.55882C6.157 7.33541 6.4655 8.08018 7.01462 8.62931C7.56375 9.17843 8.30852 9.48693 9.08511 9.48693ZM14.5332 8.40353C14.6003 8.33454 14.6804 8.27947 14.7688 8.24146C14.8573 8.20346 14.9523 8.18326 15.0486 8.18204C15.1448 8.18082 15.2404 8.19859 15.3297 8.23433C15.4191 8.27008 15.5005 8.32309 15.5694 8.39035L17.6491 10.4225C17.7182 10.49 17.7733 10.5706 17.8111 10.6596C17.849 10.7486 17.8688 10.8442 17.8695 10.9409C17.8701 11.0375 17.8517 11.1334 17.8151 11.2229C17.7785 11.3124 17.7246 11.3938 17.6564 11.4623L11.7936 17.3551C11.7256 17.4235 11.6447 17.4778 11.5557 17.5149C11.4666 17.5519 11.3711 17.571 11.2746 17.5711H9.45112C9.25697 17.5711 9.07078 17.4939 8.9335 17.3567C8.79622 17.2194 8.71909 17.0332 8.71909 16.839V14.677C8.71901 14.4863 8.79334 14.3031 8.92626 14.1664L14.5336 8.40316L14.5332 8.40353ZM10.1831 14.9746V16.107H10.9701L16.0975 10.9535L15.0709 9.9503L10.1831 14.9746ZM14.2276 17.7222C14.0334 17.7222 13.8472 17.6451 13.71 17.5078C13.5727 17.3705 13.4956 17.1843 13.4956 16.9902C13.4956 16.7961 13.5727 16.6099 13.71 16.4726C13.8472 16.3353 14.0334 16.2582 14.2276 16.2582H16.7483C16.9425 16.2582 17.1287 16.3353 17.2659 16.4726C17.4032 16.6099 17.4803 16.7961 17.4803 16.9902C17.4803 17.1843 17.4032 17.3705 17.2659 17.5078C17.1287 17.6451 16.9425 17.7222 16.7483 17.7222H14.2276Z" fill="#0900FF"/>
</svg>
