<svg width="14" height="16" viewBox="0 0 14 16" fill="none" xmlns="http://www.w3.org/2000/svg">
<path d="M9.00901 0C8.71018 2.35 14.0002 5.87011 14.0002 9.83008C14.0002 13.2399 10.865 15.9998 7.0012 16C3.13724 16 0.00222154 13.2367 0.00217473 9.83008C0.00217473 8.97952 -0.358126 3.29731 8.19651 0.271484C8.42742 0.165644 8.69676 0.0740892 9.00901 0ZM7.30979 5.33301C2.61656 6.80347 2.80686 9.81241 2.80686 10.249C2.80698 11.9532 4.37302 13.333 6.30686 13.333C8.24052 13.3328 9.80577 11.953 9.80589 10.249C9.80589 8.26874 7.85633 8.16921 7.47288 6.51074C7.36816 6.0578 7.30979 5.33301 7.30979 5.33301Z" fill="url(#paint0_linear_931_3702)"/>
<defs>
<linearGradient id="paint0_linear_931_3702" x1="7.00011" y1="0" x2="7.00011" y2="16" gradientUnits="userSpaceOnUse">
<stop stop-color="#FF6D92"/>
<stop offset="1" stop-color="#6366F1"/>
</linearGradient>
</defs>
</svg>
