<svg width="16" height="17" viewBox="0 0 16 17" fill="none" xmlns="http://www.w3.org/2000/svg">
<path d="M3.8145 3.85708C4.38623 3.35145 5.02623 2.95916 5.7345 2.68019C6.45983 2.40123 7.21503 2.26175 8.0001 2.26175C8.8705 2.26175 9.7025 2.43174 10.4961 2.77173C11.2556 3.103 11.9318 3.57157 12.5249 4.17745C13.118 4.78333 13.5766 5.4742 13.9009 6.25007C14.2337 7.06081 14.4001 7.91079 14.4001 8.79999C14.4001 9.48868 14.2977 10.1556 14.0929 10.8007C13.8966 11.4284 13.6108 12.0124 13.2353 12.5529L11.2001 8.79999H13.1201C13.1201 7.84976 12.8854 6.96928 12.4161 6.15854C11.9638 5.37395 11.3537 4.75064 10.5857 4.2886C9.7921 3.80913 8.93023 3.5694 8.0001 3.5694C7.32596 3.5694 6.67743 3.70016 6.0545 3.96169C5.45716 4.2145 4.92383 4.56757 4.4545 5.02088L3.8145 3.85708ZM12.1857 13.7429C11.614 14.2485 10.974 14.6408 10.2657 14.9198C9.54036 15.1987 8.78516 15.3382 8.0001 15.3382C7.1297 15.3382 6.2977 15.1682 5.5041 14.8282C4.74463 14.497 4.06836 14.0284 3.4753 13.4225C2.88223 12.8166 2.42356 12.1258 2.0993 11.3499C1.7665 10.5392 1.6001 9.68919 1.6001 8.79999C1.6001 8.11129 1.7025 7.44439 1.9073 6.79928C2.10356 6.17161 2.38943 5.58753 2.7649 5.04704L4.8001 8.79999H2.8801C2.8801 9.75021 3.11476 10.6307 3.5841 11.4414C4.03636 12.226 4.6465 12.8493 5.4145 13.3114C6.2081 13.7908 7.06996 14.0306 8.0001 14.0306C8.67423 14.0306 9.32276 13.8998 9.9457 13.6383C10.543 13.3855 11.0764 13.0324 11.5457 12.5791L12.1857 13.7429Z" fill="#4B5563"/>
</svg>
