<svg width="16" height="16" viewBox="0 0 16 16" fill="none" xmlns="http://www.w3.org/2000/svg">
<g clip-path="url(#clip0_524_7002)">
<path d="M11.7285 10.9009C10.8645 12.0061 9.51647 12.7163 8.00047 12.7163C6.48447 12.7163 5.13647 12.0061 4.27247 10.9009L0.980469 11.8306C2.34047 14.3044 4.97247 15.9802 8.00047 15.9802C11.0285 15.9802 13.6605 14.3044 15.0205 11.8306L11.7285 10.9009Z" fill="#FE5300"/>
<path d="M3.272 8.00007C3.272 5.39458 5.388 3.28386 8 3.28386C10.612 3.28386 12.728 5.39458 12.728 8.00007H16C16 3.59109 12.42 0.0200195 8 0.0200195C3.58 0.0200195 0 3.59109 0 8.00007H3.272Z" fill="#FE5300"/>
</g>
<defs>
<clipPath id="clip0_524_7002">
<rect width="16" height="16" fill="white"/>
</clipPath>
</defs>
</svg>
