<svg width="32" height="32" viewBox="0 0 32 32" fill="none" xmlns="http://www.w3.org/2000/svg">
<rect x="0.5" y="0.5" width="31" height="31" rx="9.5" stroke="white"/>
<path fill-rule="evenodd" clip-rule="evenodd" d="M16 17.6152L20.0366 21.6518C20.2508 21.866 20.5413 21.9863 20.8442 21.9863C21.1471 21.9863 21.4376 21.866 21.6518 21.6518C21.866 21.4376 21.9863 21.1471 21.9863 20.8442C21.9863 20.5413 21.866 20.2508 21.6518 20.0366L17.6137 16L21.651 11.9634C21.757 11.8574 21.8411 11.7315 21.8985 11.5929C21.9558 11.4544 21.9853 11.3059 21.9853 11.1559C21.9853 11.006 21.9557 10.8575 21.8983 10.719C21.8409 10.5804 21.7567 10.4546 21.6507 10.3486C21.5446 10.2426 21.4187 10.1585 21.2801 10.1011C21.1416 10.0438 20.9931 10.0143 20.8431 10.0143C20.6932 10.0144 20.5447 10.0439 20.4062 10.1013C20.2677 10.1588 20.1418 10.2429 20.0358 10.349L16 14.3855L11.9634 10.349C11.8581 10.2399 11.7322 10.1528 11.5929 10.0929C11.4536 10.033 11.3038 10.0014 11.1522 10C11.0006 9.99866 10.8503 10.0275 10.7099 10.0848C10.5696 10.1422 10.4421 10.2269 10.3348 10.334C10.2275 10.4412 10.1427 10.5686 10.0852 10.7089C10.0278 10.8492 9.99879 10.9996 10 11.1512C10.0013 11.3028 10.0327 11.4526 10.0925 11.5919C10.1523 11.7313 10.2392 11.8573 10.3482 11.9627L14.3863 16L10.3489 20.0373C10.2399 20.1427 10.153 20.2687 10.0932 20.4081C10.0335 20.5474 10.002 20.6972 10.0008 20.8488C9.99955 21.0004 10.0285 21.1508 10.086 21.2911C10.1435 21.4314 10.2283 21.5588 10.3356 21.666C10.4428 21.7731 10.5703 21.8578 10.7107 21.9152C10.851 21.9725 11.0014 22.0013 11.153 22C11.3046 21.9986 11.4544 21.967 11.5937 21.9071C11.733 21.8472 11.8589 21.7601 11.9642 21.651L16 17.6152Z" fill="white"/>
</svg>
