<svg width="20" height="20" viewBox="0 0 20 20" fill="none" xmlns="http://www.w3.org/2000/svg">
<rect width="20" height="20" rx="10" fill="#1F2937"/>
<path fill-rule="evenodd" clip-rule="evenodd" d="M10.0006 11.1217L12.8038 13.9248C12.9526 14.0736 13.1543 14.1572 13.3647 14.1572C13.575 14.1572 13.7768 14.0736 13.9255 13.9248C14.0743 13.7761 14.1578 13.5744 14.1578 13.364C14.1578 13.1536 14.0743 12.9519 13.9255 12.8032L11.1213 9.99998L13.925 7.19681C13.9986 7.12315 14.057 7.03572 14.0968 6.93951C14.1366 6.84329 14.1571 6.74017 14.1571 6.63604C14.1571 6.5319 14.1365 6.42879 14.0967 6.33259C14.0568 6.2364 13.9984 6.14899 13.9247 6.07538C13.8511 6.00176 13.7636 5.94337 13.6674 5.90354C13.5712 5.86372 13.4681 5.84323 13.3639 5.84325C13.2598 5.84328 13.1567 5.86381 13.0605 5.90369C12.9643 5.94356 12.8769 6.00199 12.8033 6.07564L10.0006 8.87882L7.19747 6.07564C7.12436 5.99988 7.0369 5.93943 6.94018 5.89783C6.84346 5.85623 6.73943 5.83431 6.63415 5.83335C6.52887 5.83238 6.42445 5.85239 6.32699 5.89222C6.22952 5.93204 6.14097 5.99087 6.06648 6.06528C5.992 6.1397 5.93308 6.2282 5.89317 6.32562C5.85326 6.42305 5.83315 6.52745 5.83401 6.63273C5.83488 6.73801 5.8567 6.84206 5.89821 6.93882C5.93972 7.03558 6.00008 7.1231 6.07578 7.19628L8.88001 9.99998L6.0763 12.8037C6.00061 12.8769 5.94025 12.9644 5.89874 13.0611C5.85723 13.1579 5.8354 13.2619 5.83454 13.3672C5.83367 13.4725 5.85379 13.5769 5.8937 13.6743C5.93361 13.7718 5.99253 13.8603 6.06701 13.9347C6.1415 14.0091 6.23005 14.0679 6.32751 14.1077C6.42498 14.1476 6.5294 14.1676 6.63468 14.1666C6.73996 14.1656 6.84399 14.1437 6.94071 14.1021C7.03743 14.0605 7.12489 14.0001 7.198 13.9243L10.0006 11.1217Z" fill="white"/>
</svg>
