<svg width="16" height="16" viewBox="0 0 16 16" fill="none" xmlns="http://www.w3.org/2000/svg">
<g clip-path="url(#clip0_932_2881)">
<path d="M0.320312 0.320007H15.6803V15.68H0.320312V0.320007Z" fill="white"/>
<path d="M1.5957 3.10081C1.5957 2.79361 1.8453 2.54401 2.1525 2.54401H13.8466C14.1538 2.54401 14.4034 2.79361 14.4034 3.10081V12.8998C14.4034 13.207 14.1538 13.4566 13.8466 13.4566H2.1525C2.00483 13.4566 1.86321 13.398 1.75879 13.2936C1.65437 13.1891 1.5957 13.0475 1.5957 12.8998V3.10081ZM2.5557 3.50401V12.4966H13.4434V3.50401H2.5557ZM12.1474 7.08609C12.0201 7.08609 11.898 7.03551 11.808 6.9455C11.718 6.85548 11.6674 6.73339 11.6674 6.60609V5.33249H10.3938C10.2665 5.33249 10.1444 5.28192 10.0544 5.1919C9.96435 5.10188 9.91378 4.97979 9.91378 4.85249C9.91378 4.72518 9.96435 4.60309 10.0544 4.51308C10.1444 4.42306 10.2665 4.37249 10.3938 4.37249H12.0834C12.3842 4.37249 12.6274 4.61569 12.6274 4.91649V6.60609C12.6274 6.73339 12.5768 6.85548 12.4868 6.9455C12.3968 7.03551 12.2747 7.08609 12.1474 7.08609ZM4.40722 9.36961C4.40722 9.2423 4.35665 9.12021 4.26663 9.0302C4.17662 8.94018 4.05453 8.88961 3.92722 8.88961C3.79992 8.88961 3.67783 8.94018 3.58781 9.0302C3.49779 9.12021 3.44722 9.2423 3.44722 9.36961V11.0592C3.44722 11.36 3.69042 11.6032 3.99122 11.6032H5.68082C5.80813 11.6032 5.93022 11.5526 6.02023 11.4626C6.11025 11.3726 6.16082 11.2505 6.16082 11.1232C6.16082 10.9959 6.11025 10.8738 6.02023 10.7838C5.93022 10.6938 5.80813 10.6432 5.68082 10.6432H4.40722V9.36961Z" fill="#4B5563"/>
</g>
<defs>
<clipPath id="clip0_932_2881">
<rect width="16" height="16" fill="white"/>
</clipPath>
</defs>
</svg>
