<svg width="16" height="17" viewBox="0 0 16 17" fill="none" xmlns="http://www.w3.org/2000/svg">
<path d="M4.84961 3.5H4.85059C5.38801 3.49975 5.91762 3.62865 6.39453 3.87598C6.8716 4.12344 7.28196 4.48258 7.59082 4.92188C7.6844 5.05488 7.83736 5.1337 8 5.13379C8.16259 5.13379 8.31551 5.05478 8.40918 4.92188C9.01592 4.06117 10.0177 3.5 11.1504 3.5C13.0009 3.50021 14.5 4.99877 14.5 6.8457C14.4999 8.57609 13.468 10.2913 12.0635 11.708C10.7274 13.0557 9.13091 14.0527 8 14.4688C6.86909 14.0527 5.27262 13.0557 3.93652 11.708C2.53204 10.2913 1.50009 8.57609 1.5 6.8457C1.5 4.99877 2.99913 3.50021 4.84961 3.5Z" stroke="white" stroke-linecap="round" stroke-linejoin="round"/>
</svg>
