<svg width="24" height="24" viewBox="0 0 24 24" fill="none" xmlns="http://www.w3.org/2000/svg">
<rect x="0.5" y="0.5" width="23" height="23" rx="5.5" stroke="white"/>
<path fill-rule="evenodd" clip-rule="evenodd" d="M12 13.2114L15.0274 16.2389C15.1881 16.3995 15.4059 16.4898 15.6331 16.4898C15.8603 16.4898 16.0782 16.3995 16.2388 16.2389C16.3995 16.0782 16.4897 15.8603 16.4897 15.6331C16.4897 15.406 16.3995 15.1881 16.2388 15.0274L13.2103 12L16.2383 8.97257C16.3178 8.89303 16.3808 8.7986 16.4239 8.69469C16.4669 8.59078 16.489 8.47941 16.489 8.36694C16.4889 8.25448 16.4668 8.14312 16.4237 8.03922C16.3806 7.93533 16.3175 7.84094 16.238 7.76143C16.1584 7.68192 16.064 7.61886 15.9601 7.57585C15.8562 7.53284 15.7448 7.51071 15.6324 7.51074C15.5199 7.51076 15.4085 7.53294 15.3046 7.576C15.2007 7.61907 15.1064 7.68217 15.0268 7.76172L12 10.7891L8.97256 7.76172C8.89361 7.67989 8.79915 7.61461 8.69469 7.56968C8.59024 7.52475 8.47788 7.50108 8.36418 7.50004C8.25047 7.49899 8.1377 7.52061 8.03244 7.56362C7.92718 7.60662 7.83154 7.67016 7.7511 7.75053C7.67066 7.83089 7.60703 7.92648 7.56392 8.0317C7.52081 8.13691 7.49909 8.24967 7.50003 8.36337C7.50096 8.47707 7.52453 8.58945 7.56936 8.69395C7.61419 8.79845 7.67938 8.89297 7.76113 8.972L10.7897 12L7.76171 15.028C7.67995 15.107 7.61476 15.2016 7.56993 15.3061C7.5251 15.4105 7.50153 15.5229 7.5006 15.6366C7.49967 15.7503 7.52139 15.8631 7.56449 15.9683C7.6076 16.0735 7.67123 16.1691 7.75167 16.2495C7.83211 16.3298 7.92775 16.3934 8.03301 16.4364C8.13827 16.4794 8.25104 16.501 8.36475 16.5C8.47845 16.4989 8.59081 16.4752 8.69526 16.4303C8.79972 16.3854 8.89418 16.3201 8.97313 16.2383L12 13.2114Z" fill="white"/>
</svg>
