<svg width="16" height="16" viewBox="0 0 16 16" fill="none" xmlns="http://www.w3.org/2000/svg">
<path d="M12.0003 9.33332C12.3539 9.33332 12.6931 9.19285 12.9431 8.9428C13.1932 8.69275 13.3337 8.35361 13.3337 7.99999C13.3337 7.64637 13.1932 7.30723 12.9431 7.05718C12.6931 6.80713 12.3539 6.66666 12.0003 6.66666C11.6467 6.66666 11.3076 6.80713 11.0575 7.05718C10.8075 7.30723 10.667 7.64637 10.667 7.99999C10.667 8.35361 10.8075 8.69275 11.0575 8.9428C11.3076 9.19285 11.6467 9.33332 12.0003 9.33332ZM8.00033 9.33332C8.35395 9.33332 8.69309 9.19285 8.94313 8.9428C9.19318 8.69275 9.33366 8.35361 9.33366 7.99999C9.33366 7.64637 9.19318 7.30723 8.94313 7.05718C8.69309 6.80713 8.35395 6.66666 8.00033 6.66666C7.6467 6.66666 7.30757 6.80713 7.05752 7.05718C6.80747 7.30723 6.66699 7.64637 6.66699 7.99999C6.66699 8.35361 6.80747 8.69275 7.05752 8.9428C7.30757 9.19285 7.6467 9.33332 8.00033 9.33332ZM5.33366 7.99999C5.33366 8.35361 5.19318 8.69275 4.94313 8.9428C4.69309 9.19285 4.35395 9.33332 4.00033 9.33332C3.6467 9.33332 3.30756 9.19285 3.05752 8.9428C2.80747 8.69275 2.66699 8.35361 2.66699 7.99999C2.66699 7.64637 2.80747 7.30723 3.05752 7.05718C3.30756 6.80713 3.6467 6.66666 4.00033 6.66666C4.35395 6.66666 4.69309 6.80713 4.94313 7.05718C5.19318 7.30723 5.33366 7.64637 5.33366 7.99999Z" fill="#4B5563"/>
</svg>
