<svg width="16" height="17" viewBox="0 0 16 17" fill="none" xmlns="http://www.w3.org/2000/svg">
<path d="M6.34683 2.5C6.52637 2.49999 6.70407 2.53624 6.86926 2.60658C7.03445 2.67692 7.18374 2.77989 7.30816 2.90933L7.38816 3.00067L8.32016 4.16667H13.3335C13.6699 4.16656 13.9939 4.2936 14.2405 4.52233C14.4872 4.75106 14.6383 5.06456 14.6635 5.4L14.6668 5.5V13.1667C14.6669 13.5031 14.5399 13.827 14.3112 14.0737C14.0824 14.3204 13.7689 14.4714 13.4335 14.4967L13.3335 14.5H2.66683C2.33045 14.5001 2.00645 14.3731 1.7598 14.1443C1.51314 13.9156 1.36206 13.6021 1.33683 13.2667L1.3335 13.1667V3.83333C1.33339 3.49695 1.46043 3.17296 1.68916 2.9263C1.91789 2.67965 2.23139 2.52856 2.56683 2.50333L2.66683 2.5H6.34683ZM13.3335 7.83333H2.66683V13.1667H13.3335V7.83333ZM6.34683 3.83333H2.66683V6.5H13.3335V5.5H8.32016C8.14062 5.50001 7.96292 5.46376 7.79773 5.39342C7.63254 5.32308 7.48325 5.22011 7.35883 5.09067L7.27883 4.99933L6.34683 3.83333Z" fill="#0900FF"/>
</svg>
