<svg width="16" height="16" viewBox="0 0 16 16" fill="none" xmlns="http://www.w3.org/2000/svg">
<path d="M4.84961 2.99295H4.85059C5.38801 2.9927 5.91759 3.12221 6.39453 3.3699C6.87141 3.61759 7.28195 3.97608 7.59082 4.4158C7.68438 4.54902 7.83721 4.6286 8 4.62869C8.16269 4.62869 8.31553 4.54982 8.40918 4.41678C9.01601 3.55477 10.0179 2.99295 11.1504 2.99295C13.0002 2.99316 14.4998 4.49276 14.5 6.34256C14.5 8.0755 13.468 9.79331 12.0635 11.2117C10.7274 12.5609 9.13088 13.5588 8 13.9754C6.86912 13.5588 5.27257 12.5609 3.93652 11.2117C2.53201 9.79331 1.5 8.0755 1.5 6.34256C1.50021 4.49276 2.99981 2.99316 4.84961 2.99295Z" stroke="#1F2937" stroke-linecap="round" stroke-linejoin="round"/>
</svg>
