<svg width="32" height="32" viewBox="0 0 32 32" fill="none" xmlns="http://www.w3.org/2000/svg">
<rect width="32" height="32" rx="16" fill="#FEF9C3"/>
<path d="M14.6243 18.3334C14.5648 18.1027 14.4445 17.8922 14.276 17.7237C14.1076 17.5552 13.897 17.4349 13.6663 17.3754L9.5763 16.3208C9.50652 16.3009 9.44511 16.2589 9.40138 16.201C9.35765 16.1432 9.33398 16.0726 9.33398 16.0001C9.33398 15.9275 9.35765 15.857 9.40138 15.7991C9.44511 15.7413 9.50652 15.6992 9.5763 15.6794L13.6663 14.6241C13.8969 14.5646 14.1074 14.4445 14.2759 14.2761C14.4444 14.1078 14.5647 13.8973 14.6243 13.6668L15.679 9.57675C15.6986 9.5067 15.7406 9.44498 15.7985 9.40101C15.8565 9.35705 15.9272 9.33325 16 9.33325C16.0727 9.33325 16.1435 9.35705 16.2014 9.40101C16.2594 9.44498 16.3014 9.5067 16.321 9.57675L17.375 13.6668C17.4345 13.8975 17.5547 14.108 17.7232 14.2765C17.8917 14.445 18.1023 14.5652 18.333 14.6248L22.423 15.6788C22.4933 15.6982 22.5553 15.7401 22.5995 15.7981C22.6437 15.8562 22.6677 15.9271 22.6677 16.0001C22.6677 16.073 22.6437 16.144 22.5995 16.202C22.5553 16.2601 22.4933 16.302 22.423 16.3214L18.333 17.3754C18.1023 17.4349 17.8917 17.5552 17.7232 17.7237C17.5547 17.8922 17.4345 18.1027 17.375 18.3334L16.3203 22.4234C16.3007 22.4935 16.2587 22.5552 16.2008 22.5992C16.1428 22.6431 16.072 22.6669 15.9993 22.6669C15.9266 22.6669 15.8558 22.6431 15.7978 22.5992C15.7399 22.5552 15.6979 22.4935 15.6783 22.4234L14.6243 18.3334Z" stroke="#CA8A04" stroke-width="1.33333" stroke-linecap="round" stroke-linejoin="round"/>
<path d="M21.333 10V12.6667" stroke="#CA8A04" stroke-width="1.33333" stroke-linecap="round" stroke-linejoin="round"/>
<path d="M22.6667 11.3333H20" stroke="#CA8A04" stroke-width="1.33333" stroke-linecap="round" stroke-linejoin="round"/>
<path d="M10.667 19.3333V20.6666" stroke="#CA8A04" stroke-width="1.33333" stroke-linecap="round" stroke-linejoin="round"/>
<path d="M11.3333 20H10" stroke="#CA8A04" stroke-width="1.33333" stroke-linecap="round" stroke-linejoin="round"/>
</svg>
