<svg width="21" height="20" viewBox="0 0 21 20" fill="none" xmlns="http://www.w3.org/2000/svg">
<path d="M9.74214 6.67619C9.99918 6.74997 10.261 6.78805 10.5204 6.78805C10.9797 6.78805 11.4343 6.67143 11.8484 6.44533C13.186 5.70991 13.6763 4.02486 12.9433 2.68729C12.5886 2.03993 12.0008 1.56868 11.2915 1.36162C10.5823 1.15456 9.83496 1.23786 9.18522 1.59248C7.84765 2.32791 7.35737 4.01296 8.09041 5.35052C8.44503 5.99789 9.03051 6.46913 9.74214 6.67619ZM10.0991 3.26325C10.2277 3.19185 10.3705 3.15615 10.5133 3.15615C10.5942 3.15615 10.6751 3.16805 10.756 3.19185C10.9774 3.25611 11.1606 3.40367 11.2725 3.60598C11.501 4.02248 11.3486 4.54846 10.9321 4.77932C10.5156 5.0078 9.98966 4.85548 9.7588 4.43898C9.52794 4.02248 9.68264 3.49173 10.0991 3.26325ZM16.6228 9.32039C17.1916 9.35371 17.7604 9.51555 18.2864 9.82019C18.4078 9.89159 18.5244 9.96775 18.6362 10.0487C18.5791 9.12999 18.3697 8.23748 18.0103 7.3902C17.5986 6.41677 17.0083 5.54331 16.2586 4.79122C15.6565 4.18908 14.9758 3.69166 14.2261 3.30609C14.2689 3.53695 14.2927 3.77496 14.2927 4.01772C14.2927 4.508 14.1999 4.97686 14.0285 5.40765C15.3399 6.31443 16.2919 7.70436 16.6228 9.32039ZM18.3935 11.1768C17.8818 10.6437 17.194 10.339 16.4538 10.3248C14.9306 10.2914 13.662 11.5076 13.6287 13.0332C13.5954 14.5588 14.8092 15.8273 16.3348 15.8607H16.3943C17.8937 15.8607 19.1265 14.6588 19.1599 13.1522C19.1789 12.412 18.9052 11.7123 18.3935 11.1768ZM16.3967 13.9543H16.3776C16.1468 13.9495 15.9326 13.8543 15.7731 13.6877C15.6136 13.5211 15.5279 13.3021 15.5327 13.0713C15.5375 12.8404 15.6327 12.6262 15.7993 12.4668C15.9611 12.3121 16.1729 12.2264 16.3967 12.2264H16.4157C16.8917 12.2359 17.2701 12.631 17.2606 13.107C17.2487 13.5806 16.8631 13.9543 16.3967 13.9543ZM13.8334 15.8678C12.8623 16.4866 11.7104 16.8436 10.4752 16.8436C9.21616 16.8436 8.04281 16.4699 7.05986 15.8297C6.8647 16.0058 6.6505 16.1629 6.4125 16.301C6.00314 16.5366 5.5676 16.6889 5.12729 16.7603C5.77466 17.3196 6.50056 17.7718 7.29072 18.1074C8.29985 18.5334 9.37086 18.75 10.4728 18.75C11.5771 18.75 12.6458 18.5334 13.6549 18.1074C14.4189 17.7837 15.121 17.3506 15.7517 16.8174C15.3233 16.7436 14.902 16.5937 14.5022 16.3652C14.2594 16.22 14.0357 16.0534 13.8334 15.8678ZM4.34427 9.25613C4.68937 7.64248 5.65804 6.25969 6.9837 5.36719C6.82424 4.9483 6.73618 4.49372 6.73618 4.0201C6.73618 3.76068 6.76236 3.50839 6.81234 3.26563C6.02932 3.65834 5.32007 4.17004 4.69413 4.7936C3.94443 5.54331 3.35418 6.41915 2.94244 7.39258C2.59496 8.21368 2.3879 9.07525 2.32126 9.96299C2.42122 9.89159 2.52594 9.82257 2.63542 9.76069C3.17806 9.44653 3.76354 9.28469 4.34427 9.25613ZM6.89326 14.466C7.68343 13.1617 7.26692 11.4553 5.96268 10.6651C4.65843 9.87493 2.95196 10.2914 2.1618 11.5957C1.77861 12.2288 1.66437 12.9713 1.84049 13.6901C2.01662 14.4089 2.46168 15.0134 3.09238 15.3989C3.53982 15.6703 4.03487 15.7988 4.52277 15.7988C5.45811 15.7964 6.37204 15.3228 6.89326 14.466ZM5.26533 13.4783C5.01781 13.8853 4.48707 14.0162 4.08009 13.7686C3.88255 13.6496 3.7445 13.4592 3.68976 13.2355C3.63502 13.0118 3.67072 12.7785 3.78972 12.5834C3.95157 12.3168 4.23717 12.1669 4.52991 12.1669C4.68223 12.1669 4.83693 12.2073 4.97497 12.2906C5.38195 12.5382 5.51285 13.0713 5.26533 13.4783Z" fill="white"/>
</svg>
