<svg width="20" height="21" viewBox="0 0 20 21" fill="none" xmlns="http://www.w3.org/2000/svg">
<path d="M2.0033 14.7792C2.0033 16.8313 3.66543 18.4967 5.72078 18.4967C7.77613 18.4967 9.43494 16.8346 9.43494 14.7792V11.0651H5.71747C3.66212 11.0651 2.0033 12.7272 2.0033 14.7792ZM8.08344 14.7792C8.08344 16.0845 7.02272 17.1485 5.71417 17.1485C4.40892 17.1485 3.3449 16.0878 3.3449 14.7792C3.3449 13.474 4.40562 12.41 5.71417 12.41H8.08344V14.7792ZM17.9934 6.21747C17.9934 4.16212 16.328 2.5 14.2792 2.5C12.2305 2.5 10.5651 4.16212 10.5651 6.21747V9.93494H14.2825C16.3313 9.93164 17.9934 8.26621 17.9934 6.21747ZM11.91 6.21747C11.91 4.91223 12.9707 3.8482 14.2792 3.8482C15.5845 3.8482 16.6485 4.90892 16.6485 6.21747C16.6485 7.52602 15.5878 8.58674 14.2792 8.58674H11.91V6.21747ZM5.71747 9.93164H9.43494V6.21747C9.43164 4.16543 7.76952 2.5 5.71747 2.5C3.66543 2.5 2 4.16212 2 6.21747C2.0033 8.26621 3.66212 9.93164 5.71747 9.93164ZM5.71747 3.8482C7.02272 3.8482 8.08674 4.90892 8.08674 6.21747V8.58674H5.71747C4.41223 8.58674 3.3482 7.52602 3.3482 6.21747C3.3482 4.90892 4.40892 3.8482 5.71747 3.8482ZM14.2792 11.0651H10.5651V14.7825C10.5651 16.8346 12.2272 18.5 14.2825 18.5C16.3346 18.5 18 16.8379 18 14.7825C18 12.7272 16.3313 11.0651 14.2792 11.0651ZM14.2792 17.1452C12.974 17.1452 11.91 16.0845 11.91 14.7759V12.4133H14.2792C15.5845 12.4133 16.6485 13.474 16.6485 14.7825C16.6452 16.0845 15.5845 17.1452 14.2792 17.1452Z" fill="black"/>
</svg>
