<svg width="16" height="17" viewBox="0 0 16 17" fill="none" xmlns="http://www.w3.org/2000/svg">
<path d="M3.8145 3.55706C4.38623 3.05144 5.02623 2.65914 5.7345 2.38018C6.45983 2.10121 7.21503 1.96173 8.0001 1.96173C8.8705 1.96173 9.7025 2.13172 10.4961 2.47171C11.2556 2.80298 11.9318 3.27156 12.5249 3.87743C13.118 4.48331 13.5766 5.17418 13.9009 5.95006C14.2337 6.7608 14.4001 7.61077 14.4001 8.49997C14.4001 9.18866 14.2977 9.85556 14.0929 10.5007C13.8966 11.1283 13.6108 11.7124 13.2353 12.2529L11.2001 8.49997H13.1201C13.1201 7.54974 12.8854 6.66926 12.4161 5.85852C11.9638 5.07393 11.3537 4.45062 10.5857 3.98858C9.7921 3.50911 8.93023 3.26938 8.0001 3.26938C7.32596 3.26938 6.67743 3.40014 6.0545 3.66167C5.45716 3.91448 4.92383 4.26755 4.4545 4.72087L3.8145 3.55706ZM12.1857 13.4429C11.614 13.9485 10.974 14.3408 10.2657 14.6198C9.54036 14.8987 8.78516 15.0382 8.0001 15.0382C7.1297 15.0382 6.2977 14.8682 5.5041 14.5282C4.74463 14.197 4.06836 13.7284 3.4753 13.1225C2.88223 12.5166 2.42356 11.8258 2.0993 11.0499C1.7665 10.2391 1.6001 9.38917 1.6001 8.49997C1.6001 7.81127 1.7025 7.14437 1.9073 6.49927C2.10356 5.8716 2.38943 5.28751 2.7649 4.74702L4.8001 8.49997H2.8801C2.8801 9.45019 3.11476 10.3307 3.5841 11.1414C4.03636 11.926 4.6465 12.5493 5.4145 13.0114C6.2081 13.4908 7.06996 13.7306 8.0001 13.7306C8.67423 13.7306 9.32276 13.5998 9.9457 13.3383C10.543 13.0855 11.0764 12.7324 11.5457 12.2791L12.1857 13.4429Z" fill="#1F2937"/>
</svg>
