<svg width="16" height="16" viewBox="0 0 16 16" fill="none" xmlns="http://www.w3.org/2000/svg">
<path d="M3.81401 3.05709C4.38574 2.55147 5.02574 2.15917 5.73401 1.88021C6.45934 1.60124 7.21454 1.46176 7.99961 1.46176C8.87001 1.46176 9.70201 1.63175 10.4956 1.97174C11.2551 2.30301 11.9313 2.77159 12.5244 3.37746C13.1175 3.98334 13.5761 4.67421 13.9004 5.45009C14.2332 6.26083 14.3996 7.1108 14.3996 8C14.3996 8.68869 14.2972 9.35559 14.0924 10.0007C13.8961 10.6284 13.6103 11.2125 13.2348 11.7529L11.1996 8H13.1196C13.1196 7.04977 12.8849 6.16929 12.4156 5.35855C11.9633 4.57396 11.3532 3.95065 10.5852 3.48861C9.79161 3.00914 8.92974 2.76941 7.99961 2.76941C7.32548 2.76941 6.67694 2.90017 6.05401 3.1617C5.45668 3.41451 4.92334 3.76758 4.45401 4.2209L3.81401 3.05709ZM12.1852 12.9429C11.6135 13.4485 10.9735 13.8408 10.2652 14.1198C9.53988 14.3988 8.78468 14.5382 7.99961 14.5382C7.12921 14.5382 6.29721 14.3682 5.50361 14.0283C4.74414 13.697 4.06788 13.2284 3.47481 12.6225C2.88174 12.0167 2.42308 11.3258 2.09881 10.5499C1.76601 9.73917 1.59961 8.8892 1.59961 8C1.59961 7.3113 1.70201 6.6444 1.90681 5.9993C2.10308 5.37163 2.38894 4.78754 2.76441 4.24705L4.79961 8H2.87961C2.87961 8.95022 3.11428 9.83071 3.58361 10.6414C4.03588 11.426 4.64601 12.0493 5.41401 12.5114C6.20761 12.9909 7.06948 13.2306 7.99961 13.2306C8.67374 13.2306 9.32228 13.0998 9.94521 12.8383C10.5425 12.5855 11.0759 12.2324 11.5452 11.7791L12.1852 12.9429Z" fill="white"/>
</svg>
