<svg width="24" height="24" viewBox="0 0 24 24" fill="none" xmlns="http://www.w3.org/2000/svg">
<path d="M20 8.7002H4C3.80109 8.7002 3.61032 8.62118 3.46967 8.48053C3.32902 8.33987 3.25 8.14911 3.25 7.9502C3.25 7.75128 3.32902 7.56052 3.46967 7.41987C3.61032 7.27921 3.80109 7.2002 4 7.2002H20C20.1989 7.2002 20.3897 7.27921 20.5303 7.41987C20.671 7.56052 20.75 7.75128 20.75 7.9502C20.75 8.14911 20.671 8.33987 20.5303 8.48053C20.3897 8.62118 20.1989 8.7002 20 8.7002Z" fill="white"/>
<path d="M16.44 20.7498H7.56C7.24309 20.7715 6.92503 20.73 6.62427 20.6279C6.3235 20.5257 6.04601 20.3648 5.80788 20.1546C5.56975 19.9444 5.37572 19.689 5.23704 19.4032C5.09836 19.1174 5.01779 18.807 5 18.4898V7.9998C5 7.80089 5.07902 7.61012 5.21967 7.46947C5.36032 7.32882 5.55109 7.2498 5.75 7.2498C5.94891 7.2498 6.13968 7.32882 6.28033 7.46947C6.42098 7.61012 6.5 7.80089 6.5 7.9998V18.4898C6.5 18.8998 6.97 19.2498 7.5 19.2498H16.38C16.94 19.2498 17.38 18.8998 17.38 18.4898V7.9998C17.38 7.78498 17.4653 7.57895 17.6172 7.42705C17.7691 7.27514 17.9752 7.1898 18.19 7.1898C18.4048 7.1898 18.6109 7.27514 18.7628 7.42705C18.9147 7.57895 19 7.78498 19 7.9998V18.4898C18.9822 18.807 18.9016 19.1174 18.763 19.4032C18.6243 19.689 18.4303 19.9444 18.1921 20.1546C17.954 20.3648 17.6765 20.5257 17.3757 20.6279C17.075 20.73 16.7569 20.7715 16.44 20.7498ZM16.56 7.7498C16.4611 7.75115 16.363 7.73267 16.2714 7.69545C16.1798 7.65824 16.0966 7.60304 16.0267 7.53313C15.9568 7.46322 15.9016 7.38 15.8644 7.2884C15.8271 7.1968 15.8087 7.09867 15.81 6.9998V5.5098C15.81 5.0998 15.33 4.7498 14.81 4.7498H9.22C8.67 4.7498 8.22 5.0998 8.22 5.5098V6.9998C8.22 7.19871 8.14098 7.38948 8.00033 7.53013C7.85968 7.67078 7.66891 7.7498 7.47 7.7498C7.27109 7.7498 7.08032 7.67078 6.93967 7.53013C6.79902 7.38948 6.72 7.19871 6.72 6.9998V5.5098C6.75872 4.88111 7.04203 4.29257 7.50929 3.87017C7.97655 3.44777 8.59061 3.22509 9.22 3.2498H14.78C15.4145 3.21699 16.0362 3.43602 16.51 3.85925C16.9838 4.28249 17.2713 4.87568 17.31 5.5098V6.9998C17.3113 7.09913 17.2929 7.19773 17.2558 7.28989C17.2187 7.38204 17.1637 7.4659 17.0939 7.53661C17.0241 7.60731 16.941 7.66346 16.8493 7.70177C16.7577 7.74008 16.6593 7.75981 16.56 7.7598V7.7498Z" fill="white"/>
<path d="M10.2197 17.0002C10.0216 16.9976 9.83235 16.9178 9.69226 16.7777C9.55217 16.6376 9.47232 16.4483 9.46973 16.2502V11.7202C9.46973 11.5213 9.54874 11.3305 9.6894 11.1899C9.83005 11.0492 10.0208 10.9702 10.2197 10.9702C10.4186 10.9702 10.6094 11.0492 10.7501 11.1899C10.8907 11.3305 10.9697 11.5213 10.9697 11.7202V16.2402C10.9711 16.3395 10.9526 16.4381 10.9155 16.5303C10.8784 16.6225 10.8234 16.7063 10.7536 16.777C10.6838 16.8477 10.6007 16.9039 10.5091 16.9422C10.4174 16.9805 10.3191 17.0002 10.2197 17.0002ZM13.7797 17.0002C13.5808 17.0002 13.39 16.9212 13.2494 16.7805C13.1087 16.6399 13.0297 16.4491 13.0297 16.2502V11.7202C13.0297 11.5213 13.1087 11.3305 13.2494 11.1899C13.39 11.0492 13.5808 10.9702 13.7797 10.9702C13.9786 10.9702 14.1694 11.0492 14.3101 11.1899C14.4507 11.3305 14.5297 11.5213 14.5297 11.7202V16.2402C14.5297 16.4401 14.451 16.6319 14.3107 16.7741C14.1703 16.9164 13.9796 16.9976 13.7797 17.0002Z" fill="white"/>
</svg>
