<svg width="16" height="16" viewBox="0 0 16 16" fill="none" xmlns="http://www.w3.org/2000/svg">
<path d="M13.3337 5.7998H2.66699C2.53438 5.7998 2.40721 5.74713 2.31344 5.65336C2.21967 5.55959 2.16699 5.43241 2.16699 5.2998C2.16699 5.1672 2.21967 5.04002 2.31344 4.94625C2.40721 4.85248 2.53438 4.7998 2.66699 4.7998H13.3337C13.4663 4.7998 13.5934 4.85248 13.6872 4.94625C13.781 5.04002 13.8337 5.1672 13.8337 5.2998C13.8337 5.43241 13.781 5.55959 13.6872 5.65336C13.5934 5.74713 13.4663 5.7998 13.3337 5.7998Z" fill="#4B5563"/>
<path d="M10.9597 13.8334H5.03967C4.8284 13.8478 4.61636 13.8202 4.41585 13.7521C4.21534 13.684 4.03035 13.5767 3.87159 13.4366C3.71284 13.2964 3.58349 13.1261 3.49103 12.9356C3.39858 12.7451 3.34487 12.5381 3.33301 12.3267V5.33336C3.33301 5.20076 3.38569 5.07358 3.47945 4.97981C3.57322 4.88604 3.7004 4.83336 3.83301 4.83336C3.96562 4.83336 4.09279 4.88604 4.18656 4.97981C4.28033 5.07358 4.33301 5.20076 4.33301 5.33336V12.3267C4.33301 12.6 4.64634 12.8334 4.99967 12.8334H10.9197C11.293 12.8334 11.5863 12.6 11.5863 12.3267V5.33336C11.5863 5.19015 11.6432 5.0528 11.7445 4.95153C11.8458 4.85026 11.9831 4.79336 12.1263 4.79336C12.2696 4.79336 12.4069 4.85026 12.5082 4.95153C12.6094 5.0528 12.6663 5.19015 12.6663 5.33336V12.3267C12.6545 12.5381 12.6008 12.7451 12.5083 12.9356C12.4159 13.1261 12.2865 13.2964 12.1278 13.4366C11.969 13.5767 11.784 13.684 11.5835 13.7521C11.383 13.8202 11.1709 13.8478 10.9597 13.8334ZM11.0397 5.1667C10.9738 5.16759 10.9083 5.15527 10.8473 5.13046C10.7862 5.10565 10.7307 5.06886 10.6841 5.02225C10.6375 4.97564 10.6007 4.92016 10.5759 4.8591C10.5511 4.79803 10.5388 4.73261 10.5397 4.6667V3.67336C10.5397 3.40003 10.2197 3.1667 9.87301 3.1667H6.14634C5.77967 3.1667 5.47967 3.40003 5.47967 3.67336V4.6667C5.47967 4.79931 5.427 4.92648 5.33323 5.02025C5.23946 5.11402 5.11228 5.1667 4.97967 5.1667C4.84707 5.1667 4.71989 5.11402 4.62612 5.02025C4.53235 4.92648 4.47967 4.79931 4.47967 4.6667V3.67336C4.50549 3.25424 4.69436 2.86187 5.00587 2.58027C5.31737 2.29867 5.72674 2.15022 6.14634 2.1667H9.85301C10.276 2.14482 10.6905 2.29084 11.0063 2.573C11.3222 2.85515 11.5139 3.25062 11.5397 3.67336V4.6667C11.5406 4.73292 11.5283 4.79865 11.5035 4.86009C11.4788 4.92152 11.4421 4.97743 11.3956 5.02457C11.3491 5.07171 11.2937 5.10913 11.2326 5.13468C11.1715 5.16022 11.1059 5.17337 11.0397 5.17336V5.1667Z" fill="#4B5563"/>
<path d="M6.81348 11.3335C6.68141 11.3317 6.55523 11.2785 6.46183 11.1851C6.36844 11.0917 6.3152 10.9655 6.31348 10.8335V7.81348C6.31348 7.68087 6.36615 7.55369 6.45992 7.45992C6.55369 7.36615 6.68087 7.31348 6.81348 7.31348C6.94608 7.31348 7.07326 7.36615 7.16703 7.45992C7.2608 7.55369 7.31348 7.68087 7.31348 7.81348V10.8268C7.31436 10.893 7.30208 10.9588 7.27735 11.0202C7.25262 11.0816 7.21593 11.1375 7.16941 11.1847C7.12289 11.2318 7.06747 11.2692 7.00637 11.2948C6.94527 11.3203 6.8797 11.3335 6.81348 11.3335ZM9.18681 11.3335C9.0542 11.3335 8.92702 11.2808 8.83326 11.187C8.73949 11.0933 8.68681 10.9661 8.68681 10.8335V7.81348C8.68681 7.68087 8.73949 7.55369 8.83326 7.45992C8.92702 7.36615 9.0542 7.31348 9.18681 7.31348C9.31942 7.31348 9.4466 7.36615 9.54036 7.45992C9.63413 7.55369 9.68681 7.68087 9.68681 7.81348V10.8268C9.68682 10.96 9.63436 11.0879 9.54078 11.1827C9.44719 11.2776 9.32003 11.3317 9.18681 11.3335Z" fill="#4B5563"/>
</svg>
