<svg width="16" height="16" viewBox="0 0 16 16" fill="none" xmlns="http://www.w3.org/2000/svg">
<path d="M11.2618 11.3533L14 14.0915L13.0915 15L10.3533 12.2618C9.85007 12.6627 9.29987 12.9698 8.70276 13.1831C8.07152 13.4049 7.42323 13.5157 6.75787 13.5157C5.71719 13.5157 4.74902 13.2556 3.85335 12.7352C2.98327 12.2234 2.29659 11.5325 1.79331 10.6624C1.26444 9.76673 1 8.79856 1 7.75787C1 6.71719 1.26444 5.74902 1.79331 4.85335C2.29659 3.98327 2.98327 3.29659 3.85335 2.79331C4.74902 2.26444 5.71719 2 6.75787 2C7.79856 2 8.76673 2.26444 9.6624 2.79331C10.5325 3.29659 11.2234 3.98327 11.7352 4.85335C12.2556 5.74902 12.5157 6.71719 12.5157 7.75787C12.5157 8.42323 12.4049 9.07152 12.1831 9.70276C11.9698 10.2999 11.6627 10.8501 11.2618 11.3533ZM9.96949 10.8799C10.3704 10.4705 10.6818 10.0013 10.9035 9.47244C11.1253 8.92651 11.2362 8.35499 11.2362 7.75787C11.2362 6.94751 11.0315 6.19258 10.622 5.49311C10.2297 4.81923 9.69652 4.28609 9.02264 3.8937C8.32316 3.48425 7.56824 3.27953 6.75787 3.27953C5.94751 3.27953 5.19259 3.48425 4.49311 3.8937C3.81923 4.28609 3.28609 4.81923 2.8937 5.49311C2.48425 6.19258 2.27953 6.94751 2.27953 7.75787C2.27953 8.56824 2.48425 9.32316 2.8937 10.0226C3.28609 10.6965 3.81923 11.2297 4.49311 11.622C5.19259 12.0315 5.94751 12.2362 6.75787 12.2362C7.35499 12.2362 7.92651 12.1253 8.47244 11.9035C9.00131 11.6818 9.47047 11.3704 9.87992 10.9695L9.96949 10.8799Z" fill="#9CA3AF"/>
</svg>
