<svg width="24" height="24" viewBox="0 0 24 24" fill="none" xmlns="http://www.w3.org/2000/svg">
<path d="M18.6219 15.8776C17.9216 15.8768 17.2423 16.1173 16.6984 16.5585L11.4128 12.7349C11.5014 12.249 11.5014 11.751 11.4128 11.2651L16.6984 7.44148C17.2425 7.88293 17.9221 8.12341 18.6228 8.12243C19.4345 8.12174 20.2128 7.79892 20.7867 7.22488C21.3605 6.65083 21.6831 5.87249 21.6836 5.06078C21.6829 4.24892 21.36 3.47054 20.7857 2.89663C20.2115 2.32272 19.4329 2.00023 18.6211 2C18.1467 2.00041 17.6789 2.11098 17.2546 2.32298C16.8303 2.53499 16.4609 2.84264 16.1758 3.22169C15.8906 3.60075 15.6973 4.04086 15.6112 4.50733C15.5251 4.9738 15.5485 5.4539 15.6796 5.90979L10.6604 9.54702C10.2802 9.04111 9.78738 8.63062 9.22109 8.348C8.6548 8.06538 8.03053 7.9184 7.39763 7.91867C6.86156 7.91844 6.33069 8.02384 5.83537 8.22886C5.34005 8.43387 4.88998 8.73448 4.51088 9.1135C4.13178 9.49252 3.83107 9.94253 3.62595 10.4378C3.42083 10.9331 3.31532 11.4639 3.31543 12C3.3152 12.5361 3.42063 13.0671 3.6257 13.5625C3.83077 14.0578 4.13146 14.5079 4.51057 14.8871C4.88968 15.2662 5.33979 15.5669 5.83517 15.7719C6.33055 15.977 6.86148 16.0824 7.39763 16.0822C8.03053 16.0825 8.6548 15.9355 9.22109 15.6529C9.78738 15.3703 10.2802 14.9598 10.6604 14.4538L15.6805 18.0893C15.5492 18.5453 15.5257 19.0255 15.6117 19.4921C15.6978 19.9587 15.891 20.3989 16.1762 20.778C16.4614 21.1572 16.8308 21.4649 17.2552 21.677C17.6796 21.8891 18.1475 21.9996 18.6219 22C19.4337 21.9995 20.212 21.6769 20.786 21.1031C21.3601 20.5292 21.6829 19.7509 21.6836 18.9392C21.6831 18.1274 21.3604 17.3489 20.7863 16.7748C20.2123 16.2007 19.4338 15.878 18.6219 15.8776ZM18.6219 3.73459C18.9739 3.7347 19.3114 3.87463 19.5602 4.12358C19.809 4.37254 19.9487 4.71013 19.9486 5.06209C19.9485 5.41405 19.8085 5.75154 19.5596 6.00033C19.3106 6.24913 18.973 6.38883 18.6211 6.38871C18.4468 6.38866 18.2742 6.35428 18.1133 6.28753C17.9523 6.22079 17.806 6.12299 17.6828 5.99972C17.434 5.75076 17.2943 5.41317 17.2944 5.06122C17.2946 4.70926 17.4345 4.37176 17.6834 4.12297C17.9324 3.87418 18.27 3.73447 18.6219 3.73459ZM7.39763 14.2449C6.80239 14.2442 6.23171 14.0075 5.81073 13.5866C5.38975 13.1658 5.15282 12.5952 5.1519 12C5.15282 11.4048 5.38975 10.8342 5.81073 10.4134C6.23171 9.99253 6.80239 9.75583 7.39763 9.75514C7.99272 9.75606 8.56318 9.99287 8.98397 10.4137C9.40476 10.8345 9.64157 11.4049 9.64249 12C9.64157 12.5951 9.40476 13.1655 8.98397 13.5863C8.56318 14.0071 7.99272 14.2439 7.39763 14.2449ZM18.6219 20.2654C18.4477 20.2653 18.2751 20.2309 18.1142 20.1641C17.9532 20.0973 17.807 19.9994 17.6838 19.8761C17.5607 19.7528 17.463 19.6064 17.3964 19.4454C17.3298 19.2843 17.2956 19.1118 17.2958 18.9375C17.2959 18.7632 17.3303 18.5907 17.3971 18.4297C17.4639 18.2687 17.5617 18.1225 17.6851 17.9994C17.8084 17.8762 17.9547 17.7786 18.1158 17.712C18.2768 17.6454 18.4494 17.6112 18.6237 17.6113C18.9756 17.6115 19.3131 17.7516 19.5618 18.0006C19.8105 18.2496 19.9501 18.5873 19.9499 18.9392C19.9496 19.2912 19.8096 19.6286 19.5606 19.8773C19.3115 20.126 18.9739 20.2656 18.6219 20.2654Z" fill="black"/>
</svg>
