<svg width="16" height="16" viewBox="0 0 16 16" fill="none" xmlns="http://www.w3.org/2000/svg">
<g clip-path="url(#clip0_524_6818)">
<path d="M12.4087 0H3.59127C1.60787 0 0 1.60787 0 3.59127V12.4087C0 14.3921 1.60787 16 3.59127 16H12.4087C14.3921 16 16 14.3921 16 12.4087V3.59127C16 1.60787 14.3921 0 12.4087 0Z" fill="#6772E5"/>
<path fill-rule="evenodd" clip-rule="evenodd" d="M7.37084 6.20725C7.37084 5.82485 7.68674 5.65305 8.19661 5.65305C9.04153 5.67132 9.87064 5.88571 10.6185 6.2793V4.01259C9.84904 3.71085 9.02862 3.56031 8.20216 3.56922C6.22917 3.56922 4.91016 4.60005 4.91016 6.34026C4.91016 9.03372 8.61227 8.59589 8.61227 9.75973C8.61227 10.2086 8.21878 10.3527 7.6812 10.3527C6.73416 10.3005 5.81215 10.0292 4.98775 9.56022V11.8823C5.82779 12.2454 6.73283 12.4339 7.64795 12.4366C9.67081 12.4366 11.0674 11.439 11.0674 9.66552C11.084 6.77809 7.37084 7.29904 7.37084 6.20725Z" fill="white"/>
</g>
<defs>
<clipPath id="clip0_524_6818">
<rect width="16" height="16" fill="white"/>
</clipPath>
</defs>
</svg>
