<svg width="20" height="21" viewBox="0 0 20 21" fill="none" xmlns="http://www.w3.org/2000/svg">
<path d="M10 18.625C8.85093 18.625 7.71312 18.4148 6.65152 18.0065C5.58992 17.5982 4.62533 16.9997 3.81282 16.2452C2.17187 14.7215 1.25 12.6549 1.25 10.5C1.25 8.34512 2.17187 6.27849 3.81282 4.75476C5.45376 3.23102 7.67936 2.375 10 2.375C14.8125 2.375 18.75 5.625 18.75 9.6875C18.75 10.9804 18.1969 12.2204 17.2123 13.1346C16.2277 14.0489 14.8924 14.5625 13.5 14.5625H11.925C11.6625 14.5625 11.4875 14.725 11.4875 14.9688C11.4875 15.05 11.575 15.1312 11.575 15.2125C11.925 15.6187 12.1 16.1062 12.1 16.5938C12.1875 17.7312 11.225 18.625 10 18.625ZM10 4C8.14348 4 6.36301 4.68482 5.05025 5.90381C3.7375 7.12279 3 8.77609 3 10.5C3 12.2239 3.7375 13.8772 5.05025 15.0962C6.36301 16.3152 8.14348 17 10 17C10.2625 17 10.4375 16.8375 10.4375 16.5938C10.4375 16.4312 10.35 16.35 10.35 16.2688C10 15.8625 9.825 15.4563 9.825 14.9688C9.825 13.8313 10.7875 12.9375 12.0125 12.9375H13.5C14.4283 12.9375 15.3185 12.5951 15.9749 11.9856C16.6313 11.3761 17 10.5495 17 9.6875C17 6.51875 13.85 4 10 4ZM5.1875 8.875C5.8875 8.875 6.5 9.44375 6.5 10.0938C6.5 10.7437 5.8875 11.3125 5.1875 11.3125C4.4875 11.3125 3.875 10.7437 3.875 10.0938C3.875 9.44375 4.4875 8.875 5.1875 8.875ZM7.8125 5.625C8.5125 5.625 9.125 6.19375 9.125 6.84375C9.125 7.49375 8.5125 8.0625 7.8125 8.0625C7.1125 8.0625 6.5 7.49375 6.5 6.84375C6.5 6.19375 7.1125 5.625 7.8125 5.625ZM12.1875 5.625C12.8875 5.625 13.5 6.19375 13.5 6.84375C13.5 7.49375 12.8875 8.0625 12.1875 8.0625C11.4875 8.0625 10.875 7.49375 10.875 6.84375C10.875 6.19375 11.4875 5.625 12.1875 5.625ZM14.8125 8.875C15.5125 8.875 16.125 9.44375 16.125 10.0938C16.125 10.7437 15.5125 11.3125 14.8125 11.3125C14.1125 11.3125 13.5 10.7437 13.5 10.0938C13.5 9.44375 14.1125 8.875 14.8125 8.875Z" fill="#0900FF"/>
</svg>
