<svg width="32" height="33" viewBox="0 0 32 33" fill="none" xmlns="http://www.w3.org/2000/svg">
<rect y="0.5" width="32" height="32" rx="6" fill="#FF6A00" fill-opacity="0.11"/>
<path d="M16 23C15.0807 23 14.1705 22.8319 13.3212 22.5052C12.4719 22.1786 11.7003 21.6998 11.0503 21.0962C9.7375 19.8772 9 18.2239 9 16.5C9 14.7761 9.7375 13.1228 11.0503 11.9038C12.363 10.6848 14.1435 10 16 10C19.85 10 23 12.6 23 15.85C23 16.8843 22.5575 17.8763 21.7698 18.6077C20.9822 19.3391 19.9139 19.75 18.8 19.75H17.54C17.33 19.75 17.19 19.88 17.19 20.075C17.19 20.14 17.26 20.205 17.26 20.27C17.54 20.595 17.68 20.985 17.68 21.375C17.75 22.285 16.98 23 16 23ZM16 11.3C14.5148 11.3 13.0904 11.8479 12.0402 12.823C10.99 13.7982 10.4 15.1209 10.4 16.5C10.4 17.8791 10.99 19.2018 12.0402 20.177C13.0904 21.1521 14.5148 21.7 16 21.7C16.21 21.7 16.35 21.57 16.35 21.375C16.35 21.245 16.28 21.18 16.28 21.115C16 20.79 15.86 20.465 15.86 20.075C15.86 19.165 16.63 18.45 17.61 18.45H18.8C19.5426 18.45 20.2548 18.1761 20.7799 17.6885C21.305 17.2009 21.6 16.5396 21.6 15.85C21.6 13.315 19.08 11.3 16 11.3ZM12.15 15.2C12.71 15.2 13.2 15.655 13.2 16.175C13.2 16.695 12.71 17.15 12.15 17.15C11.59 17.15 11.1 16.695 11.1 16.175C11.1 15.655 11.59 15.2 12.15 15.2ZM14.25 12.6C14.81 12.6 15.3 13.055 15.3 13.575C15.3 14.095 14.81 14.55 14.25 14.55C13.69 14.55 13.2 14.095 13.2 13.575C13.2 13.055 13.69 12.6 14.25 12.6ZM17.75 12.6C18.31 12.6 18.8 13.055 18.8 13.575C18.8 14.095 18.31 14.55 17.75 14.55C17.19 14.55 16.7 14.095 16.7 13.575C16.7 13.055 17.19 12.6 17.75 12.6ZM19.85 15.2C20.41 15.2 20.9 15.655 20.9 16.175C20.9 16.695 20.41 17.15 19.85 17.15C19.29 17.15 18.8 16.695 18.8 16.175C18.8 15.655 19.29 15.2 19.85 15.2Z" fill="black"/>
</svg>
