<svg width="16" height="16" viewBox="0 0 16 16" fill="none" xmlns="http://www.w3.org/2000/svg">
<path d="M4.08353 8.1C4.37242 7.36666 4.71975 6.66111 5.12553 5.98333C5.53131 5.30555 5.98953 4.66666 6.5002 4.06666L5.63353 3.88333C5.41131 3.83889 5.19464 3.85 4.98353 3.91666C4.77242 3.98333 4.58908 4.09444 4.43353 4.25L2.33353 6.35C2.16686 6.51666 2.10286 6.71666 2.14153 6.95C2.1802 7.18333 2.31086 7.34444 2.53353 7.43333L4.08353 8.1ZM13.8835 1.6C12.7058 1.54444 11.5864 1.77222 10.5255 2.28333C9.46464 2.79444 8.51731 3.46666 7.68353 4.3C7.1502 4.83333 6.68064 5.41111 6.27486 6.03333C5.86908 6.65555 5.51664 7.31111 5.21753 8C5.16197 8.14444 5.1342 8.29178 5.1342 8.442C5.1342 8.59222 5.18975 8.72266 5.30086 8.83333L7.3842 10.9167C7.49531 11.0278 7.62597 11.0833 7.7762 11.0833C7.92642 11.0833 8.07353 11.0556 8.21753 11C8.90642 10.7 9.56197 10.3471 10.1842 9.94133C10.8064 9.53555 11.3842 9.06622 11.9175 8.53333C12.7509 7.7 13.4231 6.75289 13.9342 5.692C14.4453 4.63111 14.6729 3.51155 14.6169 2.33333C14.6169 2.24444 14.5946 2.15555 14.5502 2.06666C14.5058 1.97777 14.4502 1.9 14.3835 1.83333C14.3169 1.76666 14.2391 1.71111 14.1502 1.66666C14.0613 1.62222 13.9724 1.6 13.8835 1.6ZM9.6502 6.56666C9.39464 6.31111 9.26686 5.99733 9.26686 5.62533C9.26686 5.25333 9.39464 4.93933 9.6502 4.68333C9.90575 4.42733 10.2198 4.29955 10.5922 4.3C10.9646 4.30044 11.2784 4.42822 11.5335 4.68333C11.7886 4.93844 11.9164 5.25244 11.9169 5.62533C11.9173 5.99822 11.7895 6.312 11.5335 6.56666C11.2775 6.82133 10.9638 6.94911 10.5922 6.95C10.2206 6.95089 9.90664 6.82311 9.6502 6.56666ZM8.11686 12.1333L8.78353 13.6833C8.87242 13.9056 9.03353 14.0389 9.26686 14.0833C9.5002 14.1278 9.7002 14.0667 9.86686 13.9L11.9669 11.8C12.1224 11.6444 12.2335 11.4584 12.3002 11.242C12.3669 11.0256 12.378 10.806 12.3335 10.5833L12.1669 9.71666C11.5558 10.2278 10.9142 10.6862 10.2422 11.092C9.5702 11.4978 8.86175 11.8449 8.11686 12.1333ZM2.7002 10.7C3.08908 10.3111 3.56131 10.1138 4.11686 10.108C4.67242 10.1022 5.14464 10.294 5.53353 10.6833C5.92242 11.0727 6.11686 11.5449 6.11686 12.1C6.11686 12.6551 5.92242 13.1273 5.53353 13.5167C5.0002 14.05 4.36953 14.3667 3.64153 14.4667C2.91353 14.5667 2.18308 14.6667 1.4502 14.7667C1.5502 14.0333 1.65308 13.3029 1.75886 12.5753C1.86464 11.8478 2.17842 11.2227 2.7002 10.7Z" fill="#1F2937"/>
</svg>
