<svg width="25" height="23" viewBox="0 0 25 23" fill="none" xmlns="http://www.w3.org/2000/svg">
<path d="M20.1782 13.4168V16.2918H23.0577V18.2085H20.1782V21.0835H18.2586V18.2085H15.3792V16.2918H18.2586V13.4168H20.1782ZM20.1782 1.91683C20.447 1.91683 20.6741 2.00947 20.8597 2.19475C21.0453 2.38002 21.1381 2.60683 21.1381 2.87516V11.5002H19.2184V3.8335H3.86151V17.2502L13.4596 7.66683L16.339 10.5418V13.2443L13.4596 10.3693L6.56817 17.2502H13.4596V19.1668H2.9017C2.63296 19.1668 2.4058 19.0742 2.22024 18.8889C2.03468 18.7036 1.94189 18.4768 1.94189 18.2085V2.87516C1.94189 2.60683 2.03468 2.38002 2.22024 2.19475C2.4058 2.00947 2.63296 1.91683 2.9017 1.91683H20.1782ZM7.70074 5.75016C8.04627 5.75016 8.36621 5.83641 8.66055 6.00891C8.95489 6.18141 9.18845 6.41461 9.36121 6.7085C9.53398 7.00239 9.62036 7.32183 9.62036 7.66683C9.62036 8.01183 9.53398 8.33127 9.36121 8.62516C9.18845 8.91905 8.95489 9.15225 8.66055 9.32475C8.36621 9.49725 8.04627 9.5835 7.70074 9.5835C7.35521 9.5835 7.03528 9.49725 6.74093 9.32475C6.44659 9.15225 6.21304 8.91905 6.04027 8.62516C5.86751 8.33127 5.78113 8.01183 5.78113 7.66683C5.78113 7.32183 5.86751 7.00239 6.04027 6.7085C6.21304 6.41461 6.44659 6.18141 6.74093 6.00891C7.03528 5.83641 7.35521 5.75016 7.70074 5.75016Z" fill="black"/>
</svg>
