<svg width="24" height="24" viewBox="0 0 24 24" fill="none" xmlns="http://www.w3.org/2000/svg">
<path d="M19.6787 13.9166V16.7916H22.5582V18.7083H19.6787V21.5833H17.7591V18.7083H14.8797V16.7916H17.7591V13.9166H19.6787ZM19.6787 2.41665C19.9475 2.41665 20.1746 2.50928 20.3602 2.69456C20.5458 2.87984 20.6385 3.10665 20.6385 3.37498V12H18.7189V4.33331H3.362V17.75L12.9601 8.16665L15.8395 11.0416V13.7441L12.9601 10.8691L6.06866 17.75H12.9601V19.6666H2.40219C2.13344 19.6666 1.90629 19.574 1.72073 19.3887C1.53516 19.2035 1.44238 18.9766 1.44238 18.7083V3.37498C1.44238 3.10665 1.53516 2.87984 1.72073 2.69456C1.90629 2.50928 2.13344 2.41665 2.40219 2.41665H19.6787ZM7.20123 6.24998C7.54676 6.24998 7.8667 6.33623 8.16104 6.50873C8.45538 6.68123 8.68893 6.91442 8.8617 7.20831C9.03446 7.5022 9.12085 7.82165 9.12085 8.16665C9.12085 8.51165 9.03446 8.83109 8.8617 9.12498C8.68893 9.41887 8.45538 9.65206 8.16104 9.82456C7.8667 9.99706 7.54676 10.0833 7.20123 10.0833C6.8557 10.0833 6.53576 9.99706 6.24142 9.82456C5.94708 9.65206 5.71353 9.41887 5.54076 9.12498C5.368 8.83109 5.28161 8.51165 5.28161 8.16665C5.28161 7.82165 5.368 7.5022 5.54076 7.20831C5.71353 6.91442 5.94708 6.68123 6.24142 6.50873C6.53576 6.33623 6.8557 6.24998 7.20123 6.24998Z" fill="#9CA3AF"/>
</svg>
