<svg width="16" height="16" viewBox="0 0 16 16" fill="none" xmlns="http://www.w3.org/2000/svg">
<path d="M1.6001 2.76939C1.6001 2.58632 1.66196 2.43158 1.7857 2.30518C1.90943 2.17877 2.0609 2.11557 2.2401 2.11557H13.7601C13.9393 2.11557 14.0908 2.17877 14.2145 2.30518C14.3382 2.43158 14.4001 2.58632 14.4001 2.76939V13.2306C14.4001 13.4136 14.3382 13.5684 14.2145 13.6948C14.0908 13.8212 13.9393 13.8844 13.7601 13.8844H2.2401C2.0609 13.8844 1.90943 13.8212 1.7857 13.6948C1.66196 13.5684 1.6001 13.4136 1.6001 13.2306V2.76939ZM5.4401 3.42321V12.5768H10.5601V3.42321H5.4401ZM2.8801 3.42321V4.73086H4.1601V3.42321H2.8801ZM11.8401 3.42321V4.73086H13.1201V3.42321H11.8401ZM2.8801 6.03851V7.34616H4.1601V6.03851H2.8801ZM11.8401 6.03851V7.34616H13.1201V6.03851H11.8401ZM2.8801 8.65381V9.96146H4.1601V8.65381H2.8801ZM11.8401 8.65381V9.96146H13.1201V8.65381H11.8401ZM2.8801 11.2691V12.5768H4.1601V11.2691H2.8801ZM11.8401 11.2691V12.5768H13.1201V11.2691H11.8401Z" fill="white"/>
</svg>
