<svg width="20" height="21" viewBox="0 0 20 21" fill="none" xmlns="http://www.w3.org/2000/svg">
<path d="M9.24214 7.17619C9.49918 7.24997 9.76098 7.28805 10.0204 7.28805C10.4797 7.28805 10.9343 7.17143 11.3484 6.94533C12.686 6.20991 13.1763 4.52486 12.4433 3.18729C12.0886 2.53993 11.5008 2.06868 10.7915 1.86162C10.0823 1.65456 9.33496 1.73786 8.68522 2.09248C7.34765 2.82791 6.85737 4.51296 7.59041 5.85052C7.94503 6.49789 8.53051 6.96913 9.24214 7.17619ZM9.59914 3.76325C9.72766 3.69185 9.87046 3.65615 10.0133 3.65615C10.0942 3.65615 10.1751 3.66805 10.256 3.69185C10.4774 3.75611 10.6606 3.90367 10.7725 4.10598C11.001 4.52248 10.8486 5.04846 10.4321 5.27932C10.0156 5.5078 9.48966 5.35548 9.2588 4.93898C9.02794 4.52248 9.18264 3.99173 9.59914 3.76325ZM16.1228 9.82039C16.6916 9.85371 17.2604 10.0155 17.7864 10.3202C17.9078 10.3916 18.0244 10.4678 18.1362 10.5487C18.0791 9.62999 17.8697 8.73748 17.5103 7.8902C17.0986 6.91677 16.5083 6.04331 15.7586 5.29122C15.1565 4.68908 14.4758 4.19166 13.7261 3.80609C13.7689 4.03695 13.7927 4.27496 13.7927 4.51772C13.7927 5.008 13.6999 5.47686 13.5285 5.90765C14.8399 6.81443 15.7919 8.20436 16.1228 9.82039ZM17.8935 11.6768C17.3818 11.1437 16.694 10.839 15.9538 10.8248C14.4306 10.7914 13.162 12.0076 13.1287 13.5332C13.0954 15.0588 14.3092 16.3273 15.8348 16.3607H15.8943C17.3937 16.3607 18.6265 15.1588 18.6599 13.6522C18.6789 12.912 18.4052 12.2123 17.8935 11.6768ZM15.8967 14.4543H15.8776C15.6468 14.4495 15.4326 14.3543 15.2731 14.1877C15.1136 14.0211 15.0279 13.8021 15.0327 13.5713C15.0375 13.3404 15.1327 13.1262 15.2993 12.9668C15.4611 12.8121 15.6729 12.7264 15.8967 12.7264H15.9157C16.3917 12.7359 16.7701 13.131 16.7606 13.607C16.7487 14.0806 16.3631 14.4543 15.8967 14.4543ZM13.3334 16.3678C12.3623 16.9866 11.2104 17.3436 9.97518 17.3436C8.71616 17.3436 7.54281 16.9699 6.55986 16.3297C6.3647 16.5058 6.1505 16.6629 5.9125 16.801C5.50314 17.0366 5.0676 17.1889 4.62729 17.2603C5.27466 17.8196 6.00056 18.2718 6.79072 18.6074C7.79985 19.0334 8.87086 19.25 9.9728 19.25C11.0771 19.25 12.1458 19.0334 13.1549 18.6074C13.9189 18.2837 14.621 17.8506 15.2517 17.3174C14.8233 17.2436 14.402 17.0937 14.0022 16.8652C13.7594 16.72 13.5357 16.5534 13.3334 16.3678ZM3.84427 9.75613C4.18937 8.14248 5.15804 6.75969 6.4837 5.86719C6.32424 5.4483 6.23618 4.99372 6.23618 4.5201C6.23618 4.26068 6.26236 4.00839 6.31234 3.76563C5.52932 4.15834 4.82007 4.67004 4.19413 5.2936C3.44443 6.04331 2.85418 6.91915 2.44244 7.89258C2.09496 8.71368 1.8879 9.57525 1.82126 10.463C1.92122 10.3916 2.02594 10.3226 2.13542 10.2607C2.67806 9.94653 3.26354 9.78469 3.84427 9.75613ZM6.39326 14.966C7.18343 13.6617 6.76692 11.9553 5.46268 11.1651C4.15843 10.3749 2.45196 10.7914 1.6618 12.0957C1.27861 12.7288 1.16437 13.4713 1.34049 14.1901C1.51662 14.9089 1.96168 15.5134 2.59238 15.8989C3.03982 16.1703 3.53487 16.2988 4.02277 16.2988C4.95811 16.2964 5.87204 15.8228 6.39326 14.966ZM4.76533 13.9783C4.51781 14.3853 3.98707 14.5162 3.58009 14.2686C3.38255 14.1496 3.2445 13.9592 3.18976 13.7355C3.13502 13.5118 3.17072 13.2785 3.28972 13.0834C3.45157 12.8168 3.73717 12.6669 4.02991 12.6669C4.18223 12.6669 4.33693 12.7073 4.47497 12.7906C4.88195 13.0382 5.01285 13.5713 4.76533 13.9783Z" fill="black"/>
</svg>
