<svg width="210" height="294" viewBox="0 0 210 294" fill="none" xmlns="http://www.w3.org/2000/svg">
<path d="M210 59.7L-1.52588e-05 0V64.8L94.8 89.4C101 91 107 92.3 112.8 93.3C118.4 94.5 123.6 95.4 128.4 96C133.2 96.6 137.6 97 141.6 97.2C145.6 97.6 149 97.8 151.8 97.8V93C146.8 93 141.5 93.1 135.9 93.3C130.1 93.7 123.9 94.5 117.3 95.7C110.5 96.9 103 98.9 94.8 101.7L20.7 127.8L20.7 177.3L94.8 203.4C102.8 206.2 110.2 208.4 117 210C123.6 211.6 129.8 212.7 135.6 213.3C141.2 214.1 146.6 214.5 151.8 214.5V210C149.4 210 146.7 210 143.7 210C140.7 210 137.4 210 133.8 210C130.2 210.2 126.4 210.5 122.4 210.9C118.2 211.3 113.8 211.9 109.2 212.7C104.6 213.5 99.8 214.5 94.8 215.7L-1.52588e-05 240.3L0 303L210 242.7L210 191.7L96.9 146.1V154.2L210 113.7L210 59.7Z" fill="#1F2937" fill-opacity="0.05"/>
</svg>
