<svg width="32" height="33" viewBox="0 0 32 33" fill="none" xmlns="http://www.w3.org/2000/svg">
<rect y="0.5" width="32" height="32" rx="6" fill="#0900FF" fill-opacity="0.11"/>
<path d="M15.3859 13.841C15.5915 13.9 15.801 13.9304 16.0085 13.9304C16.376 13.9304 16.7397 13.8371 17.0709 13.6563C18.141 13.0679 18.5332 11.7199 17.9468 10.6498C17.6631 10.1319 17.1928 9.75495 16.6254 9.5893C16.058 9.42365 15.4602 9.49029 14.9404 9.77399C13.8703 10.3623 13.4781 11.7104 14.0645 12.7804C14.3482 13.2983 14.8166 13.6753 15.3859 13.841ZM15.6715 11.1106C15.7743 11.0535 15.8886 11.0249 16.0028 11.0249C16.0675 11.0249 16.1323 11.0344 16.197 11.0535C16.3741 11.1049 16.5207 11.2229 16.6102 11.3848C16.793 11.718 16.6711 12.1388 16.3379 12.3235C16.0047 12.5062 15.5839 12.3844 15.3992 12.0512C15.2145 11.718 15.3383 11.2934 15.6715 11.1106ZM20.8904 15.9563C21.3455 15.983 21.8005 16.1124 22.2213 16.3562C22.3184 16.4133 22.4117 16.4742 22.5012 16.5389C22.4555 15.804 22.2879 15.09 22.0004 14.4122C21.671 13.6334 21.1988 12.9346 20.5991 12.333C20.1174 11.8513 19.5728 11.4533 18.9731 11.1449C19.0073 11.3296 19.0264 11.52 19.0264 11.7142C19.0264 12.1064 18.9521 12.4815 18.815 12.8261C19.8641 13.5515 20.6257 14.6635 20.8904 15.9563ZM22.307 17.4414C21.8976 17.0149 21.3474 16.7712 20.7552 16.7598C19.5366 16.7331 18.5218 17.7061 18.4951 18.9266C18.4685 20.147 19.4395 21.1619 20.66 21.1885H20.7076C21.9071 21.1885 22.8934 20.227 22.9201 19.0218C22.9353 18.4296 22.7163 17.8698 22.307 17.4414ZM20.7095 19.6634H20.6943C20.5096 19.6596 20.3382 19.5835 20.2107 19.4502C20.0831 19.3169 20.0145 19.1417 20.0184 18.957C20.0222 18.7723 20.0983 18.601 20.2316 18.4734C20.3611 18.3497 20.5305 18.2811 20.7095 18.2811H20.7247C21.1055 18.2887 21.4083 18.6048 21.4007 18.9856C21.3911 19.3645 21.0827 19.6634 20.7095 19.6634ZM18.6589 21.1942C17.8821 21.6893 16.9605 21.9749 15.9723 21.9749C14.9651 21.9749 14.0264 21.676 13.2401 21.1638C13.0839 21.3047 12.9126 21.4303 12.7222 21.5408C12.3947 21.7293 12.0463 21.8511 11.694 21.9082C12.2119 22.3557 12.7926 22.7175 13.4248 22.9859C14.2321 23.3267 15.0889 23.5 15.9704 23.5C16.8539 23.5 17.7088 23.3267 18.5161 22.9859C19.1273 22.727 19.689 22.3804 20.1935 21.9539C19.8508 21.8949 19.5138 21.775 19.1939 21.5922C18.9997 21.476 18.8207 21.3428 18.6589 21.1942ZM11.0676 15.9049C11.3437 14.614 12.1186 13.5078 13.1792 12.7937C13.0516 12.4586 12.9811 12.095 12.9811 11.7161C12.9811 11.5085 13.0021 11.3067 13.0421 11.1125C12.4156 11.4267 11.8482 11.836 11.3475 12.3349C10.7477 12.9346 10.2755 13.6353 9.94614 14.4141C9.66815 15.0709 9.50251 15.7602 9.44919 16.4704C9.52916 16.4133 9.61294 16.3581 9.70052 16.3086C10.1346 16.0572 10.603 15.9277 11.0676 15.9049ZM13.1068 20.0728C13.7389 19.0294 13.4057 17.6642 12.3623 17.0321C11.3189 16.3999 9.95376 16.7331 9.32162 17.7765C9.01508 18.283 8.92369 18.8771 9.06458 19.4521C9.20548 20.0271 9.56153 20.5107 10.0661 20.8192C10.424 21.0362 10.8201 21.139 11.2104 21.139C11.9587 21.1371 12.6898 20.7582 13.1068 20.0728ZM11.8045 19.2826C11.6064 19.6082 11.1818 19.7129 10.8563 19.5149C10.6982 19.4197 10.5878 19.2674 10.544 19.0884C10.5002 18.9094 10.5288 18.7228 10.624 18.5667C10.7534 18.3535 10.9819 18.2335 11.2161 18.2335C11.338 18.2335 11.4617 18.2659 11.5722 18.3325C11.8978 18.5305 12.0025 18.957 11.8045 19.2826Z" fill="black"/>
</svg>
