<svg width="40" height="33" viewBox="0 0 40 33" fill="none" xmlns="http://www.w3.org/2000/svg">
<rect width="40" height="33" rx="4" fill="#374151" fill-opacity="0.5"/>
<path d="M18.8848 22.5C18.7212 22.5 18.5799 22.4476 18.461 22.3427C18.3569 22.2228 18.3048 22.0805 18.3048 21.9157V18.0506H14.5799C14.4164 18.0506 14.2751 17.9981 14.1561 17.8933C14.052 17.7734 14 17.6311 14 17.4663V15.4213C14 15.2566 14.052 15.1217 14.1561 15.0169C14.2751 14.897 14.4164 14.8371 14.5799 14.8371H18.3048V11.0843C18.3048 10.9195 18.3569 10.7846 18.461 10.6798C18.5799 10.5599 18.7212 10.5 18.8848 10.5H21.1599C21.3234 10.5 21.4572 10.5599 21.5613 10.6798C21.6803 10.7846 21.7398 10.9195 21.7398 11.0843V14.8371H25.4201C25.5836 14.8371 25.7175 14.897 25.8216 15.0169C25.9405 15.1217 26 15.2566 26 15.4213V17.4663C26 17.6311 25.9405 17.7734 25.8216 17.8933C25.7175 17.9981 25.5836 18.0506 25.4201 18.0506H21.7398V21.9157C21.7398 22.0805 21.6803 22.2228 21.5613 22.3427C21.4572 22.4476 21.3234 22.5 21.1599 22.5H18.8848Z" fill="white"/>
</svg>
