<svg width="16" height="17" viewBox="0 0 16 17" fill="none" xmlns="http://www.w3.org/2000/svg">
<g clip-path="url(#clip0_323_7200)">
<rect y="0.5" width="16" height="16" rx="8" fill="#374151" fill-opacity="0.5"/>
<path d="M4.33496 13.1665C4.33496 12.5206 4.49792 11.9221 4.82385 11.3709C5.13792 10.8376 5.56163 10.4139 6.09496 10.0998C6.64607 9.77391 7.24459 9.61095 7.89052 9.61095C8.53644 9.61095 9.13496 9.77391 9.68607 10.0998C10.2194 10.4139 10.6431 10.8376 10.9572 11.3709C11.2831 11.9221 11.4461 12.5206 11.4461 13.1665H10.5572C10.5572 12.6865 10.4357 12.2391 10.1927 11.8243C9.9557 11.4213 9.6357 11.1013 9.23274 10.8643C8.81792 10.6213 8.37052 10.4998 7.89052 10.4998C7.41052 10.4998 6.96311 10.6213 6.54829 10.8643C6.14533 11.1013 5.82533 11.4213 5.58829 11.8243C5.34533 12.2391 5.22385 12.6865 5.22385 13.1665H4.33496ZM7.89052 9.1665C7.40459 9.1665 6.95718 9.04502 6.54829 8.80206C6.14533 8.56502 5.82533 8.24502 5.58829 7.84206C5.34533 7.43317 5.22385 6.98576 5.22385 6.49984C5.22385 6.01391 5.34533 5.5665 5.58829 5.15761C5.82533 4.75465 6.14533 4.43465 6.54829 4.19761C6.95718 3.95465 7.40459 3.83317 7.89052 3.83317C8.37644 3.83317 8.82385 3.95465 9.23274 4.19761C9.6357 4.43465 9.9557 4.75465 10.1927 5.15761C10.4357 5.5665 10.5572 6.01391 10.5572 6.49984C10.5572 6.98576 10.4357 7.43317 10.1927 7.84206C9.9557 8.24502 9.6357 8.56502 9.23274 8.80206C8.82385 9.04502 8.37644 9.1665 7.89052 9.1665ZM7.89052 8.27762C8.21052 8.27762 8.50681 8.19761 8.77941 8.03761C9.052 7.87761 9.26829 7.66132 9.42829 7.38873C9.58829 7.11613 9.66829 6.81984 9.66829 6.49984C9.66829 6.17984 9.58829 5.88354 9.42829 5.61095C9.26829 5.33836 9.052 5.12206 8.77941 4.96206C8.50681 4.80206 8.21052 4.72206 7.89052 4.72206C7.57052 4.72206 7.27422 4.80206 7.00163 4.96206C6.72904 5.12206 6.51274 5.33836 6.35274 5.61095C6.19274 5.88354 6.11274 6.17984 6.11274 6.49984C6.11274 6.81984 6.19274 7.11613 6.35274 7.38873C6.51274 7.66132 6.72904 7.87761 7.00163 8.03761C7.27422 8.19761 7.57052 8.27762 7.89052 8.27762Z" fill="#FFFFFF"/>
</g>
<defs>
<clipPath id="clip0_323_7200">
<rect y="0.5" width="16" height="16" rx="8" fill="white"/>
</clipPath>
</defs>
</svg>
