<svg width="16" height="16" viewBox="0 0 16 16" fill="none" xmlns="http://www.w3.org/2000/svg">
<g clip-path="url(#clip0_323_7200)">
<rect y="0" width="16" height="16" rx="8" fill="#374151" fill-opacity="0.5"/>
<path d="M4.33496 12.6665C4.33496 12.0206 4.49792 11.4221 4.82385 10.8709C5.13792 10.3376 5.56163 9.9139 6.09496 9.5998C6.64607 9.27391 7.24459 9.11095 7.89052 9.11095C8.53644 9.11095 9.13496 9.27391 9.68607 9.5998C10.2194 9.9139 10.6431 10.3376 10.9572 10.8709C11.2831 11.4221 11.4461 12.0206 11.4461 12.6665H10.5572C10.5572 12.1865 10.4357 11.7391 10.1927 11.3243C9.9557 10.9213 9.6357 10.6013 9.23274 10.3643C8.81792 10.1213 8.37052 9.9998 7.89052 9.9998C7.41052 9.9998 6.96311 10.1213 6.54829 10.3643C6.14533 10.6013 5.82533 10.9213 5.58829 11.3243C5.34533 11.7391 5.22385 12.1865 5.22385 12.6665H4.33496ZM7.89052 8.6665C7.40459 8.6665 6.95718 8.54502 6.54829 8.30206C6.14533 8.06502 5.82533 7.74502 5.58829 7.34206C5.34533 6.93317 5.22385 6.48576 5.22385 5.99984C5.22385 5.51391 5.34533 5.0665 5.58829 4.65761C5.82533 4.25465 6.14533 3.93465 6.54829 3.69761C6.95718 3.45465 7.40459 3.33317 7.89052 3.33317C8.37644 3.33317 8.82385 3.45465 9.23274 3.69761C9.6357 3.93465 9.9557 4.25465 10.1927 4.65761C10.4357 5.0665 10.5572 5.51391 10.5572 5.99984C10.5572 6.48576 10.4357 6.93317 10.1927 7.34206C9.9557 7.74502 9.6357 8.06502 9.23274 8.30206C8.82385 8.54502 8.37644 8.6665 7.89052 8.6665ZM7.89052 7.77762C8.21052 7.77762 8.50681 7.69761 8.77941 7.53761C9.052 7.37761 9.26829 7.16132 9.42829 6.88873C9.58829 6.61613 9.66829 6.31984 9.66829 5.99984C9.66829 5.67984 9.58829 5.38354 9.42829 5.11095C9.26829 4.83836 9.052 4.62206 8.77941 4.46206C8.50681 4.30206 8.21052 4.22206 7.89052 4.22206C7.57052 4.22206 7.27422 4.30206 7.00163 4.46206C6.72904 4.62206 6.51274 4.83836 6.35274 5.11095C6.19274 5.38354 6.11274 5.67984 6.11274 5.99984C6.11274 6.31984 6.19274 6.61613 6.35274 6.88873C6.51274 7.16132 6.72904 7.37761 7.00163 7.53761C7.27422 7.69761 7.57052 7.77762 7.89052 7.77762Z" fill="#FFFFFF"/>
</g>
<defs>
<clipPath id="clip0_323_7200">
<rect y="0" width="16" height="16" rx="8" fill="white"/>
</clipPath>
</defs>
</svg>
