<svg width="20" height="20" viewBox="0 0 20 20" fill="none" xmlns="http://www.w3.org/2000/svg">
<g clip-path="url(#clip0_1111_2332)">
<path d="M20 10C20 4.47715 15.5228 0 10 0C4.47715 0 0 4.47715 0 10C0 15.5228 4.47715 20 10 20C15.5228 20 20 15.5228 20 10Z" fill="#2151F5"/>
<path d="M9.98739 17.2478C13.9974 17.2478 17.2478 14.0032 17.2478 10.0002C17.2478 5.9971 13.9974 2.75244 9.98739 2.75244C6.18321 2.75244 3.06264 5.67357 2.75244 9.39077H12.349V10.6095H2.75244C3.06264 14.3267 6.18321 17.2478 9.98739 17.2478Z" fill="white"/>
</g>
<rect x="0.315" y="0.315" width="19.37" height="19.37" rx="9.685" stroke="#2B2E30" stroke-width="0.63"/>
<defs>
<clipPath id="clip0_1111_2332">
<rect width="20" height="20" rx="10" fill="white"/>
</clipPath>
</defs>
</svg>
