<svg width="16" height="16" viewBox="0 0 16 16" fill="none" xmlns="http://www.w3.org/2000/svg">
<path d="M10.4622 10.2211C10.4622 10.2211 12.2167 8.47888 12.8118 7.86542C14.6951 6.02505 13.7565 2.23388 13.7565 2.23388C13.7565 2.23388 9.98374 1.29529 8.14337 3.17861C6.70787 4.57729 5.77542 5.54655 5.77542 5.54655C5.77542 5.54655 3.41974 5.05579 2.00879 6.46674L9.52364 14C10.9346 12.5706 10.4622 10.2211 10.4622 10.2211ZM9.54205 4.69998C9.656 4.58591 9.79131 4.49541 9.94026 4.43367C10.0892 4.37192 10.2489 4.34014 10.4101 4.34014C10.5713 4.34014 10.731 4.37192 10.8799 4.43367C11.0289 4.49541 11.1642 4.58591 11.2781 4.69998C11.4496 4.87162 11.5663 5.09024 11.6135 5.3282C11.6608 5.56616 11.6364 5.81278 11.5435 6.03689C11.4506 6.261 11.2933 6.45254 11.0916 6.5873C10.8899 6.72205 10.6527 6.79397 10.4101 6.79397C10.1675 6.79397 9.93033 6.72205 9.7286 6.5873C9.52686 6.45254 9.3696 6.261 9.2767 6.03689C9.1838 5.81278 9.15942 5.56616 9.20665 5.3282C9.25388 5.09024 9.3706 4.87162 9.54205 4.69998ZM2.62225 13.3865C3.75791 13.3547 4.84518 12.9198 5.68953 12.1596L3.84916 10.3193C2.62225 10.9327 2.62225 13.3865 2.62225 13.3865Z" fill="#374151"/>
<path d="M10.4622 10.2211C10.4622 10.2211 12.2167 8.47888 12.8118 7.86542C14.6951 6.02505 13.7565 2.23388 13.7565 2.23388C13.7565 2.23388 9.98374 1.29529 8.14337 3.17861C6.70787 4.57729 5.77542 5.54655 5.77542 5.54655C5.77542 5.54655 3.41974 5.05579 2.00879 6.46674L9.52364 14C10.9346 12.5706 10.4622 10.2211 10.4622 10.2211ZM9.54205 4.69998C9.656 4.58591 9.79131 4.49541 9.94026 4.43367C10.0892 4.37192 10.2489 4.34014 10.4101 4.34014C10.5713 4.34014 10.731 4.37192 10.8799 4.43367C11.0289 4.49541 11.1642 4.58591 11.2781 4.69998C11.4496 4.87162 11.5663 5.09024 11.6135 5.3282C11.6608 5.56616 11.6364 5.81278 11.5435 6.03689C11.4506 6.261 11.2933 6.45254 11.0916 6.5873C10.8899 6.72205 10.6527 6.79397 10.4101 6.79397C10.1675 6.79397 9.93033 6.72205 9.7286 6.5873C9.52686 6.45254 9.3696 6.261 9.2767 6.03689C9.1838 5.81278 9.15942 5.56616 9.20665 5.3282C9.25388 5.09024 9.3706 4.87162 9.54205 4.69998ZM2.62225 13.3865C3.75791 13.3547 4.84518 12.9198 5.68953 12.1596L3.84916 10.3193C2.62225 10.9327 2.62225 13.3865 2.62225 13.3865Z" fill="#FACC15"/>
</svg>
