<svg width="20" height="20" viewBox="0 0 20 20" fill="none" xmlns="http://www.w3.org/2000/svg">
<path d="M10.0006 1.25C12.3214 1.25 14.5472 2.17194 16.1882 3.813C17.8293 5.45406 18.7512 7.67981 18.7512 10.0006C18.7512 12.3214 17.8293 14.5472 16.1882 16.1883C14.5472 17.8293 12.3214 18.7513 10.0006 18.7513C7.67981 18.7513 5.45406 17.8293 3.813 16.1883C2.17194 14.5472 1.25 12.3214 1.25 10.0006C1.25 7.67981 2.17194 5.45406 3.813 3.813C5.45406 2.17194 7.67981 1.25 10.0006 1.25ZM11.3131 6.6225C11.9631 6.6225 12.4906 6.17125 12.4906 5.5025C12.4906 4.83375 11.9619 4.3825 11.3131 4.3825C10.6631 4.3825 10.1381 4.83375 10.1381 5.5025C10.1381 6.17125 10.6631 6.6225 11.3131 6.6225ZM11.5419 13.6562C11.5419 13.5225 11.5881 13.175 11.5619 12.9775L10.5344 14.16C10.3219 14.3837 10.0556 14.5387 9.93062 14.4975C9.87392 14.4766 9.82652 14.4362 9.79696 14.3835C9.7674 14.3308 9.75762 14.2693 9.76937 14.21L11.4819 8.8C11.6219 8.11375 11.2369 7.4875 10.4206 7.4075C9.55937 7.4075 8.29187 8.28125 7.52062 9.39C7.52062 9.5225 7.49563 9.8525 7.52187 10.05L8.54812 8.86625C8.76062 8.645 9.00812 8.48875 9.13312 8.53125C9.19471 8.55335 9.24517 8.59872 9.27369 8.65762C9.3022 8.71651 9.30648 8.78423 9.28562 8.84625L7.58812 14.23C7.39187 14.86 7.76312 15.4775 8.66312 15.6175C9.98812 15.6175 10.7706 14.765 11.5431 13.6562H11.5419Z" fill="white"/>
</svg>
