<svg width="24" height="24" viewBox="0 0 24 24" fill="none" xmlns="http://www.w3.org/2000/svg">
<path d="M18.8772 18.4599L17.9355 13.0305H18.2536C18.5094 13.0305 18.7155 12.8244 18.7155 12.5685V9.15736C18.7155 8.90152 18.5094 8.69543 18.2536 8.69543H13.883V5.46193C13.883 5.20609 13.6769 5 13.4211 5H10.5784C10.3226 5 10.1165 5.20609 10.1165 5.46193V8.69543H5.74595C5.49011 8.69543 5.28402 8.90152 5.28402 9.15736V12.5685C5.28402 12.8244 5.49011 13.0305 5.74595 13.0305H6.06397L5.12234 18.4599C5.11701 18.4865 5.11523 18.5132 5.11523 18.5381C5.11523 18.7939 5.32133 19 5.57716 19H18.4223C18.449 19 18.4756 18.9982 18.5005 18.9929C18.7528 18.9503 18.9216 18.7104 18.8772 18.4599ZM6.52767 9.93909H11.3602V6.24365H12.6393V9.93909H17.4718V11.7868H6.52767V9.93909ZM14.8424 17.7563V14.9848C14.8424 14.9066 14.7784 14.8426 14.7003 14.8426H13.8475C13.7693 14.8426 13.7053 14.9066 13.7053 14.9848V17.7563H10.2942V14.9848C10.2942 14.9066 10.2302 14.8426 10.152 14.8426H9.29924C9.22107 14.8426 9.15711 14.9066 9.15711 14.9848V17.7563H6.50635L7.30762 13.1371H16.6901L17.4914 17.7563H14.8424Z" fill="#6E788A"/>
<path d="M18.8772 18.4599L17.9355 13.0305H18.2536C18.5094 13.0305 18.7155 12.8244 18.7155 12.5685V9.15736C18.7155 8.90152 18.5094 8.69543 18.2536 8.69543H13.883V5.46193C13.883 5.20609 13.6769 5 13.4211 5H10.5784C10.3226 5 10.1165 5.20609 10.1165 5.46193V8.69543H5.74595C5.49011 8.69543 5.28402 8.90152 5.28402 9.15736V12.5685C5.28402 12.8244 5.49011 13.0305 5.74595 13.0305H6.06397L5.12234 18.4599C5.11701 18.4865 5.11523 18.5132 5.11523 18.5381C5.11523 18.7939 5.32133 19 5.57716 19H18.4223C18.449 19 18.4756 18.9982 18.5005 18.9929C18.7528 18.9503 18.9216 18.7104 18.8772 18.4599ZM6.52767 9.93909H11.3602V6.24365H12.6393V9.93909H17.4718V11.7868H6.52767V9.93909ZM14.8424 17.7563V14.9848C14.8424 14.9066 14.7784 14.8426 14.7003 14.8426H13.8475C13.7693 14.8426 13.7053 14.9066 13.7053 14.9848V17.7563H10.2942V14.9848C10.2942 14.9066 10.2302 14.8426 10.152 14.8426H9.29924C9.22107 14.8426 9.15711 14.9066 9.15711 14.9848V17.7563H6.50635L7.30762 13.1371H16.6901L17.4914 17.7563H14.8424Z" fill="#9CA3AF"/>
<path d="M18.8772 18.4599L17.9355 13.0305H18.2536C18.5094 13.0305 18.7155 12.8244 18.7155 12.5685V9.15736C18.7155 8.90152 18.5094 8.69543 18.2536 8.69543H13.883V5.46193C13.883 5.20609 13.6769 5 13.4211 5H10.5784C10.3226 5 10.1165 5.20609 10.1165 5.46193V8.69543H5.74595C5.49011 8.69543 5.28402 8.90152 5.28402 9.15736V12.5685C5.28402 12.8244 5.49011 13.0305 5.74595 13.0305H6.06397L5.12234 18.4599C5.11701 18.4865 5.11523 18.5132 5.11523 18.5381C5.11523 18.7939 5.32133 19 5.57716 19H18.4223C18.449 19 18.4756 18.9982 18.5005 18.9929C18.7528 18.9503 18.9216 18.7104 18.8772 18.4599ZM6.52767 9.93909H11.3602V6.24365H12.6393V9.93909H17.4718V11.7868H6.52767V9.93909ZM14.8424 17.7563V14.9848C14.8424 14.9066 14.7784 14.8426 14.7003 14.8426H13.8475C13.7693 14.8426 13.7053 14.9066 13.7053 14.9848V17.7563H10.2942V14.9848C10.2942 14.9066 10.2302 14.8426 10.152 14.8426H9.29924C9.22107 14.8426 9.15711 14.9066 9.15711 14.9848V17.7563H6.50635L7.30762 13.1371H16.6901L17.4914 17.7563H14.8424Z" fill="#88A4C2"/>
</svg>
