<svg width="14" height="15" viewBox="0 0 14 15" fill="none" xmlns="http://www.w3.org/2000/svg">
<path fill-rule="evenodd" clip-rule="evenodd" d="M6.99993 8.73826L10.0933 11.8317C10.2575 11.9958 10.4801 12.088 10.7123 12.088C10.9444 12.088 11.167 11.9958 11.3312 11.8317C11.4953 11.6675 11.5875 11.4449 11.5875 11.2128C11.5875 10.9806 11.4953 10.758 11.3312 10.5938L8.2366 7.50043L11.3306 4.40701C11.4118 4.32574 11.4763 4.22925 11.5202 4.12307C11.5642 4.0169 11.5868 3.9031 11.5868 3.78818C11.5867 3.67327 11.5641 3.55948 11.5201 3.45332C11.4761 3.34716 11.4116 3.25071 11.3303 3.16947C11.249 3.08823 11.1525 3.0238 11.0464 2.97985C10.9402 2.9359 10.8264 2.91329 10.7115 2.91331C10.5966 2.91334 10.4828 2.936 10.3766 2.98C10.2705 3.02401 10.174 3.08849 10.0928 3.16976L6.99993 6.26318L3.90652 3.16976C3.82584 3.08616 3.72932 3.01945 3.62259 2.97354C3.51585 2.92764 3.40105 2.90344 3.28487 2.90238C3.16869 2.90132 3.05346 2.9234 2.9459 2.96735C2.83835 3.01129 2.74062 3.07622 2.65843 3.15833C2.57623 3.24045 2.51122 3.33812 2.46717 3.44563C2.42312 3.55314 2.40093 3.66835 2.40188 3.78453C2.40284 3.90071 2.42692 4.01554 2.47273 4.12232C2.51854 4.22909 2.58515 4.32568 2.66868 4.40643L5.76327 7.50043L2.66927 10.5944C2.58573 10.6752 2.51912 10.7718 2.47331 10.8785C2.42751 10.9853 2.40342 11.1001 2.40247 11.2163C2.40151 11.3325 2.42371 11.4477 2.46775 11.5552C2.5118 11.6627 2.57682 11.7604 2.65901 11.8425C2.74121 11.9246 2.83893 11.9896 2.94649 12.0335C3.05404 12.0775 3.16927 12.0995 3.28545 12.0985C3.40163 12.0974 3.51644 12.0732 3.62317 12.0273C3.7299 11.9814 3.82642 11.9147 3.9071 11.8311L6.99993 8.73826Z" fill="#9CA3AF"/>
<path fill-rule="evenodd" clip-rule="evenodd" d="M6.99993 8.73826L10.0933 11.8317C10.2575 11.9958 10.4801 12.088 10.7123 12.088C10.9444 12.088 11.167 11.9958 11.3312 11.8317C11.4953 11.6675 11.5875 11.4449 11.5875 11.2128C11.5875 10.9806 11.4953 10.758 11.3312 10.5938L8.2366 7.50043L11.3306 4.40701C11.4118 4.32574 11.4763 4.22925 11.5202 4.12307C11.5642 4.0169 11.5868 3.9031 11.5868 3.78818C11.5867 3.67327 11.5641 3.55948 11.5201 3.45332C11.4761 3.34716 11.4116 3.25071 11.3303 3.16947C11.249 3.08823 11.1525 3.0238 11.0464 2.97985C10.9402 2.9359 10.8264 2.91329 10.7115 2.91331C10.5966 2.91334 10.4828 2.936 10.3766 2.98C10.2705 3.02401 10.174 3.08849 10.0928 3.16976L6.99993 6.26318L3.90652 3.16976C3.82584 3.08616 3.72932 3.01945 3.62259 2.97354C3.51585 2.92764 3.40105 2.90344 3.28487 2.90238C3.16869 2.90132 3.05346 2.9234 2.9459 2.96735C2.83835 3.01129 2.74062 3.07622 2.65843 3.15833C2.57623 3.24045 2.51122 3.33812 2.46717 3.44563C2.42312 3.55314 2.40093 3.66835 2.40188 3.78453C2.40284 3.90071 2.42692 4.01554 2.47273 4.12232C2.51854 4.22909 2.58515 4.32568 2.66868 4.40643L5.76327 7.50043L2.66927 10.5944C2.58573 10.6752 2.51912 10.7718 2.47331 10.8785C2.42751 10.9853 2.40342 11.1001 2.40247 11.2163C2.40151 11.3325 2.42371 11.4477 2.46775 11.5552C2.5118 11.6627 2.57682 11.7604 2.65901 11.8425C2.74121 11.9246 2.83893 11.9896 2.94649 12.0335C3.05404 12.0775 3.16927 12.0995 3.28545 12.0985C3.40163 12.0974 3.51644 12.0732 3.62317 12.0273C3.7299 11.9814 3.82642 11.9147 3.9071 11.8311L6.99993 8.73826Z" fill="#88A4C2"/>
</svg>
