<svg width="38" height="38" viewBox="0 0 38 38" fill="none" xmlns="http://www.w3.org/2000/svg">
<rect width="38" height="38" rx="4" fill="#374151" fill-opacity="0.3"/>
<path fill-rule="evenodd" clip-rule="evenodd" d="M19 20.6152L23.0366 24.6518C23.2508 24.866 23.5413 24.9863 23.8442 24.9863C24.1471 24.9863 24.4376 24.866 24.6518 24.6518C24.866 24.4376 24.9863 24.1471 24.9863 23.8442C24.9863 23.5413 24.866 23.2508 24.6518 23.0366L20.6137 19L24.651 14.9634C24.757 14.8574 24.8411 14.7315 24.8985 14.5929C24.9558 14.4544 24.9853 14.3059 24.9853 14.1559C24.9853 14.006 24.9557 13.8575 24.8983 13.719C24.8409 13.5804 24.7567 13.4546 24.6507 13.3486C24.5446 13.2426 24.4187 13.1585 24.2801 13.1011C24.1416 13.0438 23.9931 13.0143 23.8431 13.0143C23.6932 13.0144 23.5447 13.0439 23.4062 13.1013C23.2677 13.1588 23.1418 13.2429 23.0358 13.349L19 17.3855L14.9634 13.349C14.8581 13.2399 14.7322 13.1528 14.5929 13.0929C14.4536 13.033 14.3038 13.0014 14.1522 13C14.0006 12.9987 13.8503 13.0275 13.7099 13.0848C13.5696 13.1422 13.4421 13.2269 13.3348 13.334C13.2275 13.4412 13.1427 13.5686 13.0852 13.7089C13.0278 13.8492 12.9988 13.9996 13 14.1512C13.0013 14.3028 13.0327 14.4526 13.0925 14.5919C13.1523 14.7313 13.2392 14.8573 13.3482 14.9627L17.3863 19L13.3489 23.0373C13.2399 23.1427 13.153 23.2687 13.0932 23.4081C13.0335 23.5474 13.002 23.6972 13.0008 23.8488C12.9996 24.0004 13.0285 24.1508 13.086 24.2911C13.1435 24.4314 13.2283 24.5588 13.3356 24.666C13.4428 24.7731 13.5703 24.8578 13.7107 24.9152C13.851 24.9725 14.0014 25.0013 14.153 25C14.3046 24.9986 14.4544 24.967 14.5937 24.9071C14.733 24.8472 14.8589 24.7601 14.9642 24.651L19 20.6152Z" fill="#9CA3AF"/>
<path fill-rule="evenodd" clip-rule="evenodd" d="M19 20.6152L23.0366 24.6518C23.2508 24.866 23.5413 24.9863 23.8442 24.9863C24.1471 24.9863 24.4376 24.866 24.6518 24.6518C24.866 24.4376 24.9863 24.1471 24.9863 23.8442C24.9863 23.5413 24.866 23.2508 24.6518 23.0366L20.6137 19L24.651 14.9634C24.757 14.8574 24.8411 14.7315 24.8985 14.5929C24.9558 14.4544 24.9853 14.3059 24.9853 14.1559C24.9853 14.006 24.9557 13.8575 24.8983 13.719C24.8409 13.5804 24.7567 13.4546 24.6507 13.3486C24.5446 13.2426 24.4187 13.1585 24.2801 13.1011C24.1416 13.0438 23.9931 13.0143 23.8431 13.0143C23.6932 13.0144 23.5447 13.0439 23.4062 13.1013C23.2677 13.1588 23.1418 13.2429 23.0358 13.349L19 17.3855L14.9634 13.349C14.8581 13.2399 14.7322 13.1528 14.5929 13.0929C14.4536 13.033 14.3038 13.0014 14.1522 13C14.0006 12.9987 13.8503 13.0275 13.7099 13.0848C13.5696 13.1422 13.4421 13.2269 13.3348 13.334C13.2275 13.4412 13.1427 13.5686 13.0852 13.7089C13.0278 13.8492 12.9988 13.9996 13 14.1512C13.0013 14.3028 13.0327 14.4526 13.0925 14.5919C13.1523 14.7313 13.2392 14.8573 13.3482 14.9627L17.3863 19L13.3489 23.0373C13.2399 23.1427 13.153 23.2687 13.0932 23.4081C13.0335 23.5474 13.002 23.6972 13.0008 23.8488C12.9996 24.0004 13.0285 24.1508 13.086 24.2911C13.1435 24.4314 13.2283 24.5588 13.3356 24.666C13.4428 24.7731 13.5703 24.8578 13.7107 24.9152C13.851 24.9725 14.0014 25.0013 14.153 25C14.3046 24.9986 14.4544 24.967 14.5937 24.9071C14.733 24.8472 14.8589 24.7601 14.9642 24.651L19 20.6152Z" fill="#88A4C2"/>
</svg>
