<svg width="21" height="20" viewBox="0 0 21 20" fill="none" xmlns="http://www.w3.org/2000/svg">
<path d="M16.633 3.3335H4.36634C4.07134 3.3335 3.83301 3.57183 3.83301 3.86683V16.1335C3.83301 16.4285 4.07134 16.6668 4.36634 16.6668H16.633C16.928 16.6668 17.1663 16.4285 17.1663 16.1335V3.86683C17.1663 3.57183 16.928 3.3335 16.633 3.3335ZM10.518 10.1018L7.31801 12.7852C7.23134 12.8585 7.09967 12.7968 7.09967 12.6835V11.6385C7.09967 11.6002 7.11801 11.5618 7.14801 11.5368L8.97801 10.0002L7.14801 8.4635C7.13269 8.4514 7.12036 8.43593 7.11198 8.4183C7.1036 8.40067 7.09939 8.38135 7.09967 8.36183V7.31683C7.09967 7.2035 7.23134 7.14183 7.31801 7.21516L10.518 9.89683C10.583 9.95016 10.583 10.0485 10.518 10.1018ZM13.8997 12.6835C13.8997 12.7568 13.843 12.8168 13.7747 12.8168H10.6913C10.623 12.8168 10.5663 12.7568 10.5663 12.6835V11.8835C10.5663 11.8102 10.623 11.7502 10.6913 11.7502H13.7747C13.843 11.7502 13.8997 11.8102 13.8997 11.8835V12.6835Z" fill="white"/>
</svg>
