<svg width="20" height="20" viewBox="0 0 20 20" fill="none" xmlns="http://www.w3.org/2000/svg">
<path d="M11.6704 1.66895C13.1954 1.66822 14.6745 2.19033 15.8611 3.14822C17.0477 4.1061 17.87 5.44184 18.1909 6.93267C18.5119 8.4235 18.312 9.97929 17.6246 11.3406C16.9372 12.7018 15.8039 13.7863 14.4137 14.4131C13.9693 15.3955 13.2933 16.2555 12.4436 16.9193C11.5939 17.5831 10.5958 18.0309 9.53508 18.2242C8.47431 18.4176 7.38246 18.3508 6.35318 18.0295C5.32391 17.7083 4.38791 17.1421 3.62547 16.3797C2.86304 15.6172 2.29691 14.6813 1.97564 13.652C1.65438 12.6227 1.58756 11.5309 1.78093 10.4701C1.9743 9.40932 2.42207 8.41128 3.08586 7.56156C3.74964 6.71185 4.60962 6.03582 5.59205 5.59145C6.12024 4.422 6.97472 3.42983 8.05291 2.73405C9.1311 2.03827 10.3872 1.66844 11.6704 1.66895ZM8.33705 6.66895C7.01096 6.66895 5.73919 7.19573 4.80151 8.13341C3.86383 9.07109 3.33705 10.3429 3.33705 11.6689C3.33705 12.995 3.86383 14.2668 4.80151 15.2045C5.73919 16.1422 7.01096 16.6689 8.33705 16.6689C9.66313 16.6689 10.9349 16.1422 11.8726 15.2045C12.8103 14.2668 13.337 12.995 13.337 11.6689C13.337 10.3429 12.8103 9.07109 11.8726 8.13341C10.9349 7.19573 9.66313 6.66895 8.33705 6.66895ZM9.17038 7.50228V8.33561H10.837V10.0023H7.50371C7.39959 10.0021 7.29917 10.0409 7.22223 10.111C7.14528 10.1812 7.09739 10.2776 7.08798 10.3813C7.07858 10.485 7.10833 10.5885 7.1714 10.6713C7.23446 10.7542 7.32626 10.8104 7.42871 10.8289L7.50371 10.8356H9.17038C9.72291 10.8356 10.2528 11.0551 10.6435 11.4458C11.0342 11.8365 11.2537 12.3664 11.2537 12.9189C11.2537 13.4715 11.0342 14.0014 10.6435 14.3921C10.2528 14.7828 9.72291 15.0023 9.17038 15.0023V15.8356H7.50371V15.0023H5.83705V13.3356H9.17038C9.2745 13.3358 9.37492 13.297 9.45187 13.2269C9.52881 13.1567 9.5767 13.0603 9.58611 12.9566C9.59552 12.8529 9.56576 12.7494 9.5027 12.6666C9.43963 12.5837 9.34784 12.5275 9.24538 12.5089L9.17038 12.5023H7.50371C6.95118 12.5023 6.42128 12.2828 6.03057 11.8921C5.63987 11.5014 5.42038 10.9715 5.42038 10.4189C5.42038 9.86641 5.63987 9.33651 6.03057 8.94581C6.42128 8.55511 6.95118 8.33561 7.50371 8.33561V7.50228H9.17038ZM11.6704 3.33561C10.9643 3.33546 10.2661 3.48487 9.62194 3.77401C8.97774 4.06314 8.40209 4.48545 7.93288 5.01311C8.87477 4.95593 9.81806 5.09936 10.7004 5.4339C11.5827 5.76844 12.384 6.28648 13.0512 6.95376C13.7184 7.62104 14.2363 8.42236 14.5708 9.30472C14.9052 10.1871 15.0485 11.1304 14.9912 12.0723C15.7489 11.3986 16.2839 10.5106 16.5252 9.52587C16.7666 8.54118 16.7029 7.50637 16.3426 6.55871C15.9823 5.61105 15.3424 4.79531 14.5078 4.21968C13.6732 3.64405 12.6834 3.33573 11.6695 3.33561" fill="black"/>
</svg>
