<svg width="32" height="32" viewBox="0 0 32 32" fill="none" xmlns="http://www.w3.org/2000/svg">
<rect width="32" height="32" rx="4" fill="#B9F8CF"/>
<g clip-path="url(#clip0_1459_3629)">
<path fill-rule="evenodd" clip-rule="evenodd" d="M22.0002 8.44686V9.55241C22.0002 9.79866 21.7996 9.99926 21.5526 9.99926H20.4472C20.201 9.99926 20.0003 9.79941 20.0003 9.55241V8.44686C20.0003 8.19985 20.2002 8 20.4472 8H21.5526C21.7996 8 22.0002 8.19985 22.0002 8.44686ZM24 12.4476V13.5532C24 13.7994 23.7994 14.0001 23.5524 14.0001H22.447C22.2 14.0001 22.0002 13.8002 22.0002 13.5532V12.4476C22.0002 12.2006 22.2 12.0008 22.447 12.0008H23.5524C23.7994 12.0008 24 12.2006 24 12.4476ZM20.4306 12.6026V11.4971C20.4306 11.2501 20.2301 11.0502 19.9838 11.0502H18.8784C18.6314 11.0502 18.4316 11.2501 18.4316 11.4971V12.6026C18.4316 12.8496 18.6314 13.0495 18.8784 13.0495H19.9838C20.2308 13.0495 20.4306 12.8496 20.4306 12.6026ZM18.4474 16.0014H20.0003L19.9974 15.9999H21.5511C21.7989 15.9999 21.9987 16.1998 21.9987 16.4468V19.5531C21.9987 19.8009 21.7981 20.0007 21.5511 20.0007H20.4457C20.1979 20.0007 19.9981 20.2006 19.9981 20.4475V21.5531C19.9981 21.8001 19.7983 21.9999 19.5513 21.9999H18.4459C18.1981 21.9999 17.9983 22.1998 17.9983 22.4468V23.5524C17.9983 23.8001 17.7985 24 17.5515 24H12.4449C12.198 24 11.9981 23.7994 11.9981 23.5524V22.4468C11.9981 22.1998 11.7983 21.9999 11.5513 21.9999H10.4459C10.1989 21.9999 9.99906 21.8001 9.99906 21.5531V20.4475C9.99906 20.2006 9.79923 20.0007 9.55225 20.0007H8.44681C8.19983 20.0007 8 19.8001 8 19.5531V14.4461C8 14.199 8.19983 13.9992 8.44681 13.9992H9.55524C9.80222 13.9992 10.0021 13.7993 10.0021 13.5523V12.4475C10.0021 12.2005 10.2019 12.0007 10.4489 12.0007H11.5543C11.8013 12.0007 12.0011 11.8008 12.0011 11.5538V10.449C12.0011 10.202 12.201 10.0021 12.4479 10.0021H15.5539C15.8009 10.0021 16.0007 10.202 16.0007 10.449V13.5553C16.0007 13.8023 16.2006 14.0022 16.4475 14.0022H17.553C17.8007 14.0022 18.0006 14.202 18.0006 14.449V15.5546C18.0006 15.8016 18.2004 16.0014 18.4474 16.0014ZM18.4474 20.003H20.0003L19.9981 20.0022V18.4475C19.9981 18.2006 19.7975 18.0007 19.5506 18.0007H18.4451C18.1981 18.0007 17.9983 17.8009 17.9983 17.5538V16.4483C17.9983 16.2013 17.7977 16.0014 17.5507 16.0014H16.4453C16.1983 16.0014 15.9985 15.8016 15.9985 15.5546V14.449C15.9985 14.202 15.7987 14.0022 15.5517 14.0022H14.4462C14.1993 14.0022 13.9994 13.8023 13.9994 13.5553V12.4498C13.9994 12.2028 13.7996 12.0029 13.5526 12.0029H12.4472C12.2002 12.0029 12.0004 12.2028 12.0004 12.4498V13.5553C12.0004 13.8023 11.8005 14.0022 11.5536 14.0022H10.4481C10.2011 14.0022 10.0013 14.202 10.0013 14.449V19.5561C10.0013 19.8031 10.2011 20.003 10.4481 20.003H11.5536C11.8005 20.003 12.0004 20.2028 12.0004 20.4498V21.5554C12.0004 21.8023 12.2002 22.0022 12.4472 22.0022H17.553C17.8007 22.0022 18.0006 21.8023 18.0006 21.5554V20.4506C18.0006 20.2028 18.2004 20.003 18.4474 20.003Z" fill="black"/>
</g>
<defs>
<clipPath id="clip0_1459_3629">
<rect width="16" height="16" fill="white" transform="translate(8 8)"/>
</clipPath>
</defs>
</svg>
