<svg width="24" height="24" viewBox="0 0 24 24" fill="none" xmlns="http://www.w3.org/2000/svg">
<path d="M4 5.6C4 5.17565 4.16857 4.76869 4.46863 4.46863C4.76869 4.16857 5.17565 4 5.6 4H13.6C14.0243 4 14.4313 4.16857 14.7314 4.46863C15.0314 4.76869 15.2 5.17565 15.2 5.6V8.8H18.4C18.8243 8.8 19.2313 8.96857 19.5314 9.26863C19.8314 9.56869 20 9.97565 20 10.4V18.4C20 18.8243 19.8314 19.2313 19.5314 19.5314C19.2313 19.8314 18.8243 20 18.4 20H10.4C9.97565 20 9.56869 19.8314 9.26863 19.5314C8.96857 19.2313 8.8 18.8243 8.8 18.4V15.2H5.6C5.17565 15.2 4.76869 15.0314 4.46863 14.7314C4.16857 14.4313 4 14.0243 4 13.6V5.6ZM10.4 15.2V18.4H18.4V10.4H15.2V13.6C15.2 14.0243 15.0314 14.4313 14.7314 14.7314C14.4313 15.0314 14.0243 15.2 13.6 15.2H10.4ZM13.6 13.6V5.6H5.6V13.6H13.6Z" fill="white"/>
</svg>
