<svg width="20" height="20" viewBox="0 0 20 20" fill="none" xmlns="http://www.w3.org/2000/svg">
<g clip-path="url(#clip0_105_1718)">
<path d="M5.5 12.1904C4.88125 12.1904 4.375 11.6842 4.375 11.0654V5.44043C4.375 4.82168 4.88125 4.31543 5.5 4.31543H11.125C11.7438 4.31543 12.25 4.82168 12.25 5.44043M8.875 7.69043H14.5C15.1213 7.69043 15.625 8.19411 15.625 8.81543V14.4404C15.625 15.0617 15.1213 15.5654 14.5 15.5654H8.875C8.25368 15.5654 7.75 15.0617 7.75 14.4404V8.81543C7.75 8.19411 8.25368 7.69043 8.875 7.69043Z" stroke="#9CA3AF" stroke-width="0.75" stroke-linecap="round" stroke-linejoin="round"/>
<path d="M5.5 12.1904C4.88125 12.1904 4.375 11.6842 4.375 11.0654V5.44043C4.375 4.82168 4.88125 4.31543 5.5 4.31543H11.125C11.7438 4.31543 12.25 4.82168 12.25 5.44043M8.875 7.69043H14.5C15.1213 7.69043 15.625 8.19411 15.625 8.81543V14.4404C15.625 15.0617 15.1213 15.5654 14.5 15.5654H8.875C8.25368 15.5654 7.75 15.0617 7.75 14.4404V8.81543C7.75 8.19411 8.25368 7.69043 8.875 7.69043Z" stroke="#88A4C2" stroke-width="0.75" stroke-linecap="round" stroke-linejoin="round"/>
</g>
<defs>
<clipPath id="clip0_105_1718">
<rect width="12" height="12" fill="white" transform="translate(4 4)"/>
</clipPath>
</defs>
</svg>
