<svg width="14" height="17" viewBox="0 0 14 17" fill="none" xmlns="http://www.w3.org/2000/svg">
<path d="M9.00902 0.5C8.98796 0.5324 6.17561 4.87465 9.593 6.90039C9.593 6.90039 8.01462 3.99352 9.33421 2.85352C9.0355 5.20343 14.0002 6.37015 14.0002 10.3301C14.0002 13.7399 10.865 16.4998 7.0012 16.5C3.13725 16.5 0.00222583 13.7367 0.00217881 10.3301C0.00217881 9.45342 -0.380819 3.44337 9.00902 0.5ZM7.3098 5.83301C2.61656 7.30347 2.80687 10.3124 2.80687 10.749C2.80699 12.4532 4.37303 13.833 6.30687 13.833C8.24053 13.8328 9.80577 12.453 9.80589 10.749C9.80589 8.76874 7.85634 8.66921 7.47288 7.01074C7.36817 6.5578 7.3098 5.83301 7.3098 5.83301Z" fill="url(#paint0_linear_2062_7958)"/>
<defs>
<linearGradient id="paint0_linear_2062_7958" x1="7.00011" y1="0.5" x2="7.00011" y2="16.5" gradientUnits="userSpaceOnUse">
<stop stop-color="#FF3C3C"/>
<stop offset="1" stop-color="#FACC15"/>
</linearGradient>
</defs>
</svg>
