<svg width="29" height="28" viewBox="0 0 29 28" fill="none" xmlns="http://www.w3.org/2000/svg">
<rect x="0.5" width="28" height="28" rx="6" fill="white" fill-opacity="0.8"/>
<rect x="11" y="6.5" width="11" height="11" rx="1.5" stroke="black" stroke-miterlimit="11.4737" stroke-dasharray="2 2"/>
<g clip-path="url(#clip0_1401_14401)">
<rect x="6.5" y="9" width="13" height="13" rx="2" fill="black"/>
<path d="M7.94444 22C7.54722 22 7.2073 21.8587 6.92467 21.5761C6.64204 21.2934 6.50048 20.9533 6.5 20.5556V10.4444C6.5 10.0472 6.64156 9.7073 6.92467 9.42467C7.20778 9.14204 7.5477 9.00048 7.94444 9H18.0556C18.4528 9 18.7929 9.14156 19.0761 9.42467C19.3592 9.70778 19.5005 10.0477 19.5 10.4444V20.5556C19.5 20.9528 19.3587 21.2929 19.0761 21.5761C18.7934 21.8592 18.4533 22.0005 18.0556 22H7.94444ZM8.66667 19.1111H17.3333L14.625 15.5L12.4583 18.3889L10.8333 16.2222L8.66667 19.1111Z" fill="black"/>
<path d="M13.4785 11.5652C13.3516 11.4384 13.1795 11.3672 13 11.3672C12.8206 11.3672 12.6485 11.4384 12.5216 11.5652L9.96761 14.1183C9.90472 14.1812 9.85483 14.2558 9.8208 14.338C9.78676 14.4202 9.76924 14.5082 9.76924 14.5972C9.76924 14.6861 9.78676 14.7742 9.8208 14.8564C9.85483 14.9385 9.90472 15.0132 9.96761 15.0761C10.0305 15.139 10.1052 15.1889 10.1873 15.2229C10.2695 15.257 10.3576 15.2745 10.4465 15.2745C10.5355 15.2745 10.6236 15.257 10.7057 15.2229C10.7879 15.1889 10.8626 15.139 10.9255 15.0761L12.323 13.6786V18.8854C12.323 19.0649 12.3943 19.2372 12.5213 19.3641C12.6483 19.4911 12.8205 19.5625 13 19.5625C13.1796 19.5625 13.3518 19.4911 13.4788 19.3641C13.6058 19.2372 13.6771 19.0649 13.6771 18.8854V13.6786L15.0746 15.0761C15.2016 15.2031 15.3739 15.2744 15.5535 15.2743C15.7331 15.2743 15.9053 15.2029 16.0323 15.0759C16.1592 14.9489 16.2305 14.7766 16.2305 14.597C16.2304 14.4174 16.159 14.2452 16.032 14.1183L13.4785 11.5652Z" fill="white"/>
</g>
<defs>
<clipPath id="clip0_1401_14401">
<rect x="6.5" y="9" width="13" height="13" rx="2" fill="white"/>
</clipPath>
</defs>
</svg>
