<svg width="21" height="20" viewBox="0 0 21 20" fill="none" xmlns="http://www.w3.org/2000/svg">
<path d="M5.28223 17.9378C5.28223 17.9378 17.0727 19.0196 14.7079 12.1458C14.3578 11.3102 13.8076 10.8404 12.5001 10.4815C11.6285 10.2423 10.6372 10.3237 9.52617 10.7259C9.32969 10.804 6.13066 12.125 7.5971 14.5642C9.10999 17.078 5.28223 17.9378 5.28223 17.9378Z" fill="black"/>
<path d="M10.4558 9.72828C11.1257 9.34267 11.9207 9.28349 12.8391 9.55431C13.7593 9.82334 14.3758 10.2968 14.6923 10.9712L16.6578 4.6849L12.9661 3.53884C12.1398 5.60498 11.3024 7.66932 10.4558 9.72828ZM2.97481 17.2109H6.67575C6.75489 17.2037 6.8285 17.1875 6.8966 17.1642C6.99597 17.1301 7.1064 17.1409 7.19657 17.1947C7.28675 17.2485 7.34564 17.34 7.35852 17.4422C7.37509 17.5839 7.32908 17.7256 7.23338 17.8332C7.13584 17.939 6.99597 18 6.85059 18H2.97481C2.75213 18 2.56993 17.8242 2.56993 17.6054C2.56993 17.3866 2.75213 17.2109 2.97481 17.2109ZM17.059 15.8783L17.5633 14.9707L18.5 14.4632L17.5633 13.961L17.059 13.0499L16.5437 13.961L15.6235 14.4632L16.5437 14.9707L17.059 15.8783ZM9.19335 4.97545L9.71969 4.01412L10.7116 3.48862L9.71969 2.95415L9.19335 2L8.64493 2.95415L7.6585 3.48862L8.64493 4.01412L9.19335 4.97545ZM5.37279 7.04876L4.3698 8.86022L2.5 9.85024L4.36795 10.8439L5.37279 12.6553L6.39234 10.8439L8.25109 9.85024L6.39234 8.86022L5.37279 7.04876Z" fill="black"/>
</svg>
