<svg width="32" height="32" viewBox="0 0 32 32" fill="none" xmlns="http://www.w3.org/2000/svg">
<rect width="32" height="32" rx="4" fill="white"/>
<g clip-path="url(#clip0_1459_3619)">
<path fill-rule="evenodd" clip-rule="evenodd" d="M17.6392 13.6995C18.2219 13.4555 18.9633 13.0962 19.7056 12.604C19.8621 12.877 19.8792 13.1153 19.7986 13.3076C19.7414 13.4432 19.6338 13.5611 19.4922 13.6549C19.3388 13.7563 19.1473 13.8301 18.9357 13.87C18.534 13.946 18.0651 13.9017 17.6392 13.6995ZM17.7402 16.2001L18.5115 16.5743C16.9367 17.3158 16.5085 18.6925 16 20.0335C15.4915 18.6925 15.0633 17.3158 13.4885 16.5743L14.2598 16.2001C14.3344 16.1764 14.3982 16.1335 14.442 16.0775C14.4858 16.0215 14.5073 15.9553 14.5036 15.8884C14.4329 14.6325 14.8366 14.0772 15.3811 13.7285C15.5764 13.6036 15.7896 13.5409 16 13.5409C16.2103 13.5409 16.4235 13.6036 16.6189 13.7285C17.1634 14.0772 17.5671 14.6325 17.4964 15.8884C17.4927 15.9553 17.5143 16.0215 17.558 16.0775C17.6018 16.1335 17.6656 16.1764 17.7402 16.2001ZM16 8C16.8915 8.02011 17.7853 8.16549 18.561 8.44832C19.0981 8.64443 19.5993 8.90347 20.0532 9.21323C20.2581 9.35307 20.4269 9.48816 20.6128 9.64368C21.1142 9.65824 21.847 9.19035 22.1872 8.75253C21.6017 10.3648 18.9301 12.2687 17.0805 12.9973C17.0797 12.997 17.0792 12.9966 17.0786 12.9963C16.7467 12.7834 16.3734 12.677 16 12.677C15.6266 12.677 15.2533 12.7834 14.9214 12.9963C14.9208 12.9966 14.9203 12.9971 14.9195 12.9973C13.0699 12.2687 10.3983 10.3648 9.81287 8.75253C10.153 9.19035 10.8858 9.65824 11.3872 9.64368C11.5731 9.48821 11.7419 9.35307 11.9468 9.21323C12.4006 8.90347 12.9018 8.64443 13.439 8.44832C14.2147 8.16549 15.1085 8.02011 16 8ZM14.3607 13.6995C13.7781 13.4555 13.0367 13.0962 12.2945 12.604C12.1379 12.877 12.1208 13.1153 12.2014 13.3076C12.2586 13.4432 12.3663 13.5611 12.5078 13.6549C12.6612 13.7563 12.8527 13.8301 13.0644 13.87C13.466 13.946 13.9349 13.9017 14.3607 13.6995Z" fill="#9CA3AF"/>
<path fill-rule="evenodd" clip-rule="evenodd" d="M17.6392 13.6995C18.2219 13.4555 18.9633 13.0962 19.7056 12.604C19.8621 12.877 19.8792 13.1153 19.7986 13.3076C19.7414 13.4432 19.6338 13.5611 19.4922 13.6549C19.3388 13.7563 19.1473 13.8301 18.9357 13.87C18.534 13.946 18.0651 13.9017 17.6392 13.6995ZM17.7402 16.2001L18.5115 16.5743C16.9367 17.3158 16.5085 18.6925 16 20.0335C15.4915 18.6925 15.0633 17.3158 13.4885 16.5743L14.2598 16.2001C14.3344 16.1764 14.3982 16.1335 14.442 16.0775C14.4858 16.0215 14.5073 15.9553 14.5036 15.8884C14.4329 14.6325 14.8366 14.0772 15.3811 13.7285C15.5764 13.6036 15.7896 13.5409 16 13.5409C16.2103 13.5409 16.4235 13.6036 16.6189 13.7285C17.1634 14.0772 17.5671 14.6325 17.4964 15.8884C17.4927 15.9553 17.5143 16.0215 17.558 16.0775C17.6018 16.1335 17.6656 16.1764 17.7402 16.2001ZM16 8C16.8915 8.02011 17.7853 8.16549 18.561 8.44832C19.0981 8.64443 19.5993 8.90347 20.0532 9.21323C20.2581 9.35307 20.4269 9.48816 20.6128 9.64368C21.1142 9.65824 21.847 9.19035 22.1872 8.75253C21.6017 10.3648 18.9301 12.2687 17.0805 12.9973C17.0797 12.997 17.0792 12.9966 17.0786 12.9963C16.7467 12.7834 16.3734 12.677 16 12.677C15.6266 12.677 15.2533 12.7834 14.9214 12.9963C14.9208 12.9966 14.9203 12.9971 14.9195 12.9973C13.0699 12.2687 10.3983 10.3648 9.81287 8.75253C10.153 9.19035 10.8858 9.65824 11.3872 9.64368C11.5731 9.48821 11.7419 9.35307 11.9468 9.21323C12.4006 8.90347 12.9018 8.64443 13.439 8.44832C14.2147 8.16549 15.1085 8.02011 16 8ZM14.3607 13.6995C13.7781 13.4555 13.0367 13.0962 12.2945 12.604C12.1379 12.877 12.1208 13.1153 12.2014 13.3076C12.2586 13.4432 12.3663 13.5611 12.5078 13.6549C12.6612 13.7563 12.8527 13.8301 13.0644 13.87C13.466 13.946 13.9349 13.9017 14.3607 13.6995Z" fill="black"/>
<path fill-rule="evenodd" clip-rule="evenodd" d="M20.5185 12.0007C20.9272 11.6543 21.2872 11.2708 21.5768 10.9287L21.7238 11.1612C22.1972 11.9568 22.4432 12.7491 22.4432 13.6409L22.4422 15.0559L22.451 15.7895C22.4853 17.5903 22.9492 19.4123 24 21.0798L21.8015 19.5906L20.2458 21.7111L18.6116 20.4187L16 23.9787L13.3884 20.4188L11.7542 21.7111L10.1986 19.5906L8 21.0798C9.05079 19.4124 9.51467 17.5904 9.54902 15.7895L9.5579 15.056L9.55689 13.6409C9.55689 12.7491 9.80279 11.9568 10.2763 11.1612L10.4233 10.9288C10.7128 11.2709 11.0728 11.6543 11.4815 12.0007L11.3539 12.2234C11.106 12.6559 11.0239 13.1394 11.217 13.5993C11.3415 13.8955 11.5688 14.1496 11.8617 14.3435C12.1462 14.5318 12.4828 14.6587 12.8352 14.7254C13.0648 14.7688 13.2987 14.7867 13.5311 14.7806C13.4769 15.0388 13.4532 15.3066 13.4517 15.5794L11.3778 16.5856L12.9782 17.3392C13.1061 17.3994 13.2278 17.4684 13.3422 17.5455C14.6617 18.5406 15.4549 21.4844 16.0001 22.9224C16.5453 21.4844 17.3385 18.5406 18.658 17.5455C18.7723 17.4684 18.8941 17.3994 19.022 17.3392L20.6224 16.5856L18.5484 15.5794C18.5469 15.3066 18.5232 15.0388 18.469 14.7806C18.7014 14.7867 18.9353 14.7688 19.1649 14.7254C19.5173 14.6587 19.854 14.5318 20.1384 14.3435C20.4313 14.1496 20.6586 13.8955 20.783 13.5993C20.9763 13.1394 20.8941 12.6559 20.6462 12.2234L20.5186 12.0007L20.5185 12.0007Z" fill="#9CA3AF"/>
<path fill-rule="evenodd" clip-rule="evenodd" d="M20.5185 12.0007C20.9272 11.6543 21.2872 11.2708 21.5768 10.9287L21.7238 11.1612C22.1972 11.9568 22.4432 12.7491 22.4432 13.6409L22.4422 15.0559L22.451 15.7895C22.4853 17.5903 22.9492 19.4123 24 21.0798L21.8015 19.5906L20.2458 21.7111L18.6116 20.4187L16 23.9787L13.3884 20.4188L11.7542 21.7111L10.1986 19.5906L8 21.0798C9.05079 19.4124 9.51467 17.5904 9.54902 15.7895L9.5579 15.056L9.55689 13.6409C9.55689 12.7491 9.80279 11.9568 10.2763 11.1612L10.4233 10.9288C10.7128 11.2709 11.0728 11.6543 11.4815 12.0007L11.3539 12.2234C11.106 12.6559 11.0239 13.1394 11.217 13.5993C11.3415 13.8955 11.5688 14.1496 11.8617 14.3435C12.1462 14.5318 12.4828 14.6587 12.8352 14.7254C13.0648 14.7688 13.2987 14.7867 13.5311 14.7806C13.4769 15.0388 13.4532 15.3066 13.4517 15.5794L11.3778 16.5856L12.9782 17.3392C13.1061 17.3994 13.2278 17.4684 13.3422 17.5455C14.6617 18.5406 15.4549 21.4844 16.0001 22.9224C16.5453 21.4844 17.3385 18.5406 18.658 17.5455C18.7723 17.4684 18.8941 17.3994 19.022 17.3392L20.6224 16.5856L18.5484 15.5794C18.5469 15.3066 18.5232 15.0388 18.469 14.7806C18.7014 14.7867 18.9353 14.7688 19.1649 14.7254C19.5173 14.6587 19.854 14.5318 20.1384 14.3435C20.4313 14.1496 20.6586 13.8955 20.783 13.5993C20.9763 13.1394 20.8941 12.6559 20.6462 12.2234L20.5186 12.0007L20.5185 12.0007Z" fill="black"/>
</g>
<defs>
<clipPath id="clip0_1459_3619">
<rect width="16" height="16" fill="white" transform="translate(8 8)"/>
</clipPath>
</defs>
</svg>
