<svg width="17" height="17" viewBox="0 0 17 17" fill="none" xmlns="http://www.w3.org/2000/svg">
<path d="M14.665 5.83317V14.4998C14.665 14.6865 14.6006 14.8443 14.4717 14.9732C14.3428 15.1021 14.185 15.1665 13.9984 15.1665H3.33171C3.14504 15.1665 2.98726 15.1021 2.85837 14.9732C2.72948 14.8443 2.66504 14.6865 2.66504 14.4998V2.49984C2.66504 2.31317 2.72948 2.15539 2.85837 2.0265C2.98726 1.89761 3.14504 1.83317 3.33171 1.83317H10.665L14.665 5.83317ZM13.3317 6.49984H9.99837V3.1665H3.99837V13.8332H13.3317V6.49984ZM5.99837 5.1665H7.99837V6.49984H5.99837V5.1665ZM5.99837 7.83317H11.3317V9.1665H5.99837V7.83317ZM5.99837 10.4998H11.3317V11.8332H5.99837V10.4998Z" fill="#9CA3AF"/>
<path d="M14.665 5.83317V14.4998C14.665 14.6865 14.6006 14.8443 14.4717 14.9732C14.3428 15.1021 14.185 15.1665 13.9984 15.1665H3.33171C3.14504 15.1665 2.98726 15.1021 2.85837 14.9732C2.72948 14.8443 2.66504 14.6865 2.66504 14.4998V2.49984C2.66504 2.31317 2.72948 2.15539 2.85837 2.0265C2.98726 1.89761 3.14504 1.83317 3.33171 1.83317H10.665L14.665 5.83317ZM13.3317 6.49984H9.99837V3.1665H3.99837V13.8332H13.3317V6.49984ZM5.99837 5.1665H7.99837V6.49984H5.99837V5.1665ZM5.99837 7.83317H11.3317V9.1665H5.99837V7.83317ZM5.99837 10.4998H11.3317V11.8332H5.99837V10.4998Z" fill="#88A4C2"/>
</svg>
