<svg width="42" height="37" viewBox="0 0 42 37" fill="none" xmlns="http://www.w3.org/2000/svg">
<g opacity="0.8">
<rect x="7.96387" y="7.08301" width="26.1818" height="22.5" rx="10" fill="black"/>
<path fill-rule="evenodd" clip-rule="evenodd" d="M3.60059 18.333C3.60059 11.262 3.60059 7.72651 6.15593 5.52901C8.71477 3.33301 12.8271 3.33301 21.0551 3.33301C29.2832 3.33301 33.3972 3.33301 35.9526 5.52901C38.5097 7.72801 38.5097 11.262 38.5097 18.333C38.5097 25.404 38.5097 28.9395 35.9526 31.1355C33.399 33.333 29.2832 33.333 21.0551 33.333C12.8271 33.333 8.71302 33.333 6.15593 31.1355C3.60059 28.941 3.60059 25.404 3.60059 18.333ZM21.0551 9.70801C21.4023 9.70801 21.7353 9.82653 21.9808 10.0375C22.2263 10.2485 22.3642 10.5346 22.3642 10.833V18.618L25.3664 16.038C25.4862 15.9275 25.6308 15.8388 25.7914 15.7773C25.9519 15.7158 26.1253 15.6828 26.3011 15.6801C26.4768 15.6775 26.6514 15.7052 26.8144 15.7618C26.9774 15.8184 27.1255 15.9026 27.2498 16.0094C27.3741 16.1163 27.4721 16.2435 27.538 16.3836C27.6038 16.5237 27.6361 16.6737 27.633 16.8248C27.6299 16.9758 27.5915 17.1248 27.5199 17.2628C27.4484 17.4008 27.3452 17.525 27.2166 17.628L21.9802 22.128C21.7348 22.3387 21.402 22.457 21.0551 22.457C20.7082 22.457 20.3755 22.3387 20.13 22.128L14.8937 17.628C14.7651 17.525 14.6619 17.4008 14.5903 17.2628C14.5188 17.1248 14.4803 16.9758 14.4772 16.8248C14.4741 16.6737 14.5065 16.5237 14.5723 16.3836C14.6381 16.2435 14.7361 16.1163 14.8604 16.0094C14.9848 15.9026 15.1328 15.8184 15.2958 15.7618C15.4588 15.7052 15.6334 15.6775 15.8092 15.6801C15.985 15.6828 16.1583 15.7158 16.3189 15.7773C16.4795 15.8388 16.624 15.9275 16.7439 16.038L19.746 18.618V10.833C19.746 10.5346 19.884 10.2485 20.1295 10.0375C20.375 9.82653 20.7079 9.70801 21.0551 9.70801ZM14.0733 24.708C13.7261 24.708 13.3931 24.8265 13.1476 25.0375C12.9021 25.2485 12.7642 25.5346 12.7642 25.833C12.7642 26.1314 12.9021 26.4175 13.1476 26.6285C13.3931 26.8395 13.7261 26.958 14.0733 26.958H28.0369C28.3841 26.958 28.7171 26.8395 28.9626 26.6285C29.2081 26.4175 29.346 26.1314 29.346 25.833C29.346 25.5346 29.2081 25.2485 28.9626 25.0375C28.7171 24.8265 28.3841 24.708 28.0369 24.708H14.0733Z" fill="white"/>
</g>
</svg>
