<svg width="80" height="80" viewBox="0 0 80 80" fill="none" xmlns="http://www.w3.org/2000/svg">
<g clip-path="url(#clip0_203_6247)">
<path d="M39.9517 75.3091H6.71338C5.79619 75.3237 4.88287 75.1869 4.01022 74.9042C3.02013 74.6103 2.13099 74.0474 1.44167 73.2783C0.752363 72.5092 0.289905 71.564 0.105735 70.5478C0.0185954 70.1143 -0.0151347 69.6719 0.00529781 69.2303V53.3221C0.134581 51.2103 0.678782 49.1446 1.60679 47.2433C2.80811 44.9128 4.10987 42.6836 5.41084 40.4552C6.71259 38.0227 8.01357 35.693 9.41262 33.3626C10.2336 31.8008 11.5813 30.5804 13.2167 29.9179C14.1509 29.5941 15.1312 29.4229 16.1199 29.411H61.7716C63.3577 29.3712 64.926 29.7536 66.3157 30.5191C67.7055 31.2846 68.8669 32.4056 69.681 33.7675C71.6835 36.8073 73.5855 39.9483 75.4875 43.0885L77.8901 47.04C79.2783 49.2561 80.0074 51.8214 79.9922 54.4363C80.0927 59.3012 79.9922 64.2642 79.9922 69.1275C80.0483 70.5673 79.5671 71.9765 78.642 73.0813C77.7169 74.186 76.4142 74.9074 74.9869 75.1051C74.3254 75.2226 73.656 75.2903 72.9844 75.3075L39.9517 75.3091ZM38.9505 32.2484H16.0242C15.0088 32.1915 14.009 32.5168 13.2214 33.1602C12.6156 33.6725 12.1069 34.2897 11.7195 34.9821C10.3181 37.515 8.81628 40.1491 7.41487 42.682C6.41364 44.4083 5.41241 46.2279 4.41118 47.9503C4.29555 48.137 4.22434 48.3479 4.20304 48.5665C4.18174 48.7851 4.21091 49.0057 4.2883 49.2113C4.3657 49.4169 4.48926 49.602 4.64946 49.7523C4.80966 49.9026 5.00222 50.0141 5.21232 50.0783C5.53911 50.162 5.87662 50.1961 6.21355 50.1795H28.9389C30.0375 50.1795 30.5404 50.6864 30.6409 51.9057C30.6473 53.287 30.9765 54.6477 31.6022 55.8792C32.228 57.1106 33.1329 58.1788 34.2448 58.9983C35.2698 59.7899 36.4521 60.3534 37.7125 60.6511C38.9729 60.9488 40.2823 60.9738 41.5532 60.7246C43.7826 60.373 45.7906 59.1755 47.1596 57.3811C48.4069 55.754 49.0762 53.7574 49.0616 51.7072C49.0517 51.5195 49.0823 51.3319 49.1513 51.1571C49.2204 50.9823 49.3263 50.8244 49.4618 50.6942C49.6535 50.5315 49.8775 50.4113 50.1191 50.3415C50.3607 50.2717 50.6143 50.2539 50.8632 50.2893H74.0892C74.3291 50.2723 74.5607 50.1939 74.7615 50.0616C74.9624 49.9293 75.1258 49.7476 75.2361 49.5338C75.3465 49.3201 75.4 49.0816 75.3915 48.8413C75.383 48.6009 75.3129 48.3667 75.1878 48.1613C74.7853 47.5761 74.4184 46.9672 74.0892 46.3378C71.8867 42.7919 69.6841 39.144 67.3819 35.5981C66.8234 34.6126 66.0055 33.799 65.0171 33.2457C64.0287 32.6924 62.9076 32.4204 61.7755 32.4594C54.1674 32.2484 46.5593 32.2484 38.9505 32.2484ZM39.9517 72.4721C39.9517 72.4724 39.9519 72.4725 39.9521 72.4725H73.1892C73.6953 72.455 74.1984 72.3872 74.6911 72.2701C76.2926 71.8644 77.1941 70.8514 77.1941 69.3315V54.944C77.2299 54.6848 77.2055 54.4209 77.123 54.1726C77.0404 53.9244 76.9018 53.6985 76.7179 53.5124C76.534 53.3263 76.3098 53.1851 76.0625 53.0995C75.8153 53.014 75.5517 52.9865 75.2921 53.0192H53.3631C52.93 52.9948 52.5021 53.1235 52.1544 53.3829C51.8066 53.6423 51.5612 54.0157 51.4611 54.4378C50.7815 57.306 49.0675 59.8224 46.6474 61.5051C44.2274 63.1877 41.2715 63.9181 38.3463 63.5564C35.9053 63.262 33.6117 62.2321 31.7698 60.6034C29.928 58.9748 28.6252 56.8244 28.0342 54.4378C27.9484 53.9813 27.6959 53.5729 27.3259 53.292C26.9558 53.0112 26.4946 52.8778 26.0318 52.918H4.31074C3.98552 52.9066 3.66505 52.9985 3.39526 53.1805C3.12547 53.3625 2.92021 53.6252 2.8089 53.931C2.72619 54.2274 2.69226 54.5354 2.70846 54.8427V67.6092C2.69194 68.32 2.72551 69.0311 2.8089 69.7372C2.87109 70.2258 3.06125 70.6892 3.36011 71.0807C3.65897 71.4721 4.05593 71.7777 4.51083 71.9664C5.22373 72.1988 5.96445 72.335 6.71338 72.3713C17.9261 72.4717 28.9387 72.4717 39.9513 72.4717C39.9515 72.4717 39.9517 72.4719 39.9517 72.4721ZM41.1522 14.1125V22.0148C41.1828 22.3322 41.1128 22.6511 40.9521 22.9266C40.8103 23.1856 40.5833 23.3875 40.3096 23.4984C40.0359 23.6092 39.7324 23.622 39.4503 23.5347C39.1623 23.4739 38.901 23.3236 38.7037 23.1053C38.5064 22.887 38.3832 22.6118 38.3518 22.3193V6.10812C38.3736 5.74232 38.5274 5.39686 38.7848 5.13594C39.0421 4.87502 39.3853 4.71636 39.7508 4.68945C40.1223 4.69953 40.4755 4.85276 40.7366 5.11713C40.9978 5.3815 41.1467 5.73656 41.1522 6.10812V14.1117V14.1125ZM56.971 22.0148C57.0177 21.6798 57.1562 21.3642 57.3712 21.103C58.873 19.2795 60.3749 17.3539 61.876 15.5319C62.477 14.8257 63.0773 14.012 63.6807 13.3027C63.8136 13.1326 63.9853 12.9968 64.1814 12.9066C64.3776 12.8165 64.5925 12.7746 64.8081 12.7845C65.0237 12.7944 65.2339 12.8558 65.4209 12.9636C65.608 13.0714 65.7665 13.2223 65.8832 13.4039C66.086 13.6702 66.1873 14 66.1689 14.3342C66.1505 14.6684 66.0136 14.9851 65.7828 15.2275C63.9781 17.4567 62.2785 19.6851 60.4769 21.8131C60.1764 22.2188 59.7762 22.6237 59.4757 23.0286C59.3004 23.2754 59.043 23.4517 58.7495 23.5259C58.456 23.6001 58.1457 23.5673 57.8742 23.4335C57.5856 23.3336 57.3393 23.1391 57.1754 22.8815C57.0114 22.624 56.9394 22.3185 56.971 22.0148ZM22.5369 21.0148C22.9335 21.4529 22.919 22.1638 22.6023 22.6627C22.4414 22.916 22.2074 23.1145 21.9311 23.2318C21.6563 23.3471 21.3514 23.3699 21.0625 23.2968C20.7736 23.2236 20.5164 23.0584 20.3296 22.8261L18.8278 21.0026C17.2263 18.9758 15.7244 17.051 14.1198 15.025C13.9762 14.8821 13.8728 14.7038 13.8201 14.5082C13.8111 14.4751 13.8037 14.4417 13.7978 14.4081C13.7398 14.0793 13.8081 13.7306 13.9537 13.4301C14.002 13.3303 14.0623 13.2361 14.1335 13.1496C14.312 12.9329 14.5513 12.7747 14.8205 12.6954C15.0913 12.598 15.3871 12.5951 15.6598 12.6871C15.9324 12.7791 16.166 12.9607 16.3224 13.2023C17.0231 14.0128 17.7238 14.9285 18.3248 15.7351C19.6266 17.4614 21.028 19.1798 22.4294 20.9022C22.4669 20.9397 22.5029 20.9773 22.5369 21.0148Z" fill="#6E788A" fill-opacity="0.3"/>
</g>
<defs>
<clipPath id="clip0_203_6247">
<rect width="80" height="80" fill="white"/>
</clipPath>
</defs>
</svg>
