<svg width="1436" height="794" viewBox="0 0 1436 794" fill="none" xmlns="http://www.w3.org/2000/svg">
<line y1="32.583" x2="1436" y2="32.583" stroke="white" stroke-opacity="0.02" stroke-dasharray="2 2"/>
<line y1="65.667" x2="1436" y2="65.667" stroke="white" stroke-opacity="0.02" stroke-dasharray="2 2"/>
<line y1="98.75" x2="1436" y2="98.75" stroke="white" stroke-opacity="0.02" stroke-dasharray="2 2"/>
<line y1="131.833" x2="1436" y2="131.833" stroke="white" stroke-opacity="0.02" stroke-dasharray="2 2"/>
<line y1="164.917" x2="1436" y2="164.917" stroke="white" stroke-opacity="0.02" stroke-dasharray="2 2"/>
<line y1="198" x2="1436" y2="198" stroke="white" stroke-opacity="0.02" stroke-dasharray="2 2"/>
<line y1="231.083" x2="1436" y2="231.083" stroke="white" stroke-opacity="0.02" stroke-dasharray="2 2"/>
<line y1="264.167" x2="1436" y2="264.167" stroke="white" stroke-opacity="0.02" stroke-dasharray="2 2"/>
<line y1="297.25" x2="1436" y2="297.25" stroke="white" stroke-opacity="0.02" stroke-dasharray="2 2"/>
<line y1="330.333" x2="1436" y2="330.333" stroke="white" stroke-opacity="0.02" stroke-dasharray="2 2"/>
<line y1="363.417" x2="1436" y2="363.417" stroke="white" stroke-opacity="0.02" stroke-dasharray="2 2"/>
<line y1="396.5" x2="1436" y2="396.5" stroke="white" stroke-opacity="0.02" stroke-dasharray="2 2"/>
<line y1="429.583" x2="1436" y2="429.583" stroke="white" stroke-opacity="0.02" stroke-dasharray="2 2"/>
<line y1="462.667" x2="1436" y2="462.667" stroke="white" stroke-opacity="0.02" stroke-dasharray="2 2"/>
<line y1="495.75" x2="1436" y2="495.75" stroke="white" stroke-opacity="0.02" stroke-dasharray="2 2"/>
<line y1="528.833" x2="1436" y2="528.833" stroke="white" stroke-opacity="0.02" stroke-dasharray="2 2"/>
<line y1="561.917" x2="1436" y2="561.917" stroke="white" stroke-opacity="0.02" stroke-dasharray="2 2"/>
<line y1="595" x2="1436" y2="595" stroke="white" stroke-opacity="0.02" stroke-dasharray="2 2"/>
<line y1="628.083" x2="1436" y2="628.083" stroke="white" stroke-opacity="0.02" stroke-dasharray="2 2"/>
<line y1="661.167" x2="1436" y2="661.167" stroke="white" stroke-opacity="0.02" stroke-dasharray="2 2"/>
<line y1="694.25" x2="1436" y2="694.25" stroke="white" stroke-opacity="0.02" stroke-dasharray="2 2"/>
<line y1="727.333" x2="1436" y2="727.333" stroke="white" stroke-opacity="0.02" stroke-dasharray="2 2"/>
<line y1="760.417" x2="1436" y2="760.417" stroke="white" stroke-opacity="0.02" stroke-dasharray="2 2"/>
<line y1="793.5" x2="1436" y2="793.5" stroke="white" stroke-opacity="0.02" stroke-dasharray="2 2"/>
<line x1="21.9375" y1="794" x2="21.9375" stroke="white" stroke-opacity="0.02" stroke-dasharray="2 2"/>
<line x1="66.8125" y1="794" x2="66.8125" stroke="white" stroke-opacity="0.02" stroke-dasharray="2 2"/>
<line x1="111.688" y1="794" x2="111.688" stroke="white" stroke-opacity="0.02" stroke-dasharray="2 2"/>
<line x1="156.562" y1="794" x2="156.562" stroke="white" stroke-opacity="0.02" stroke-dasharray="2 2"/>
<line x1="201.438" y1="794" x2="201.438" stroke="white" stroke-opacity="0.02" stroke-dasharray="2 2"/>
<line x1="246.312" y1="794" x2="246.312" stroke="white" stroke-opacity="0.02" stroke-dasharray="2 2"/>
<line x1="291.188" y1="794" x2="291.188" stroke="white" stroke-opacity="0.02" stroke-dasharray="2 2"/>
<line x1="336.062" y1="794" x2="336.062" stroke="white" stroke-opacity="0.02" stroke-dasharray="2 2"/>
<line x1="380.938" y1="794" x2="380.938" stroke="white" stroke-opacity="0.02" stroke-dasharray="2 2"/>
<line x1="425.812" y1="794" x2="425.812" stroke="white" stroke-opacity="0.02" stroke-dasharray="2 2"/>
<line x1="470.688" y1="794" x2="470.688" stroke="white" stroke-opacity="0.02" stroke-dasharray="2 2"/>
<line x1="515.562" y1="794" x2="515.562" stroke="white" stroke-opacity="0.02" stroke-dasharray="2 2"/>
<line x1="560.438" y1="794" x2="560.438" stroke="white" stroke-opacity="0.02" stroke-dasharray="2 2"/>
<line x1="605.312" y1="794" x2="605.312" stroke="white" stroke-opacity="0.02" stroke-dasharray="2 2"/>
<line x1="650.188" y1="794" x2="650.188" stroke="white" stroke-opacity="0.02" stroke-dasharray="2 2"/>
<line x1="695.062" y1="794" x2="695.062" stroke="white" stroke-opacity="0.02" stroke-dasharray="2 2"/>
<line x1="739.938" y1="794" x2="739.938" stroke="white" stroke-opacity="0.02" stroke-dasharray="2 2"/>
<line x1="784.812" y1="794" x2="784.812" stroke="white" stroke-opacity="0.02" stroke-dasharray="2 2"/>
<line x1="829.688" y1="794" x2="829.688" stroke="white" stroke-opacity="0.02" stroke-dasharray="2 2"/>
<line x1="874.562" y1="794" x2="874.562" stroke="white" stroke-opacity="0.02" stroke-dasharray="2 2"/>
<line x1="919.438" y1="794" x2="919.438" stroke="white" stroke-opacity="0.02" stroke-dasharray="2 2"/>
<line x1="964.312" y1="794" x2="964.312" stroke="white" stroke-opacity="0.02" stroke-dasharray="2 2"/>
<line x1="1009.19" y1="794" x2="1009.19" stroke="white" stroke-opacity="0.02" stroke-dasharray="2 2"/>
<line x1="1054.06" y1="794" x2="1054.06" stroke="white" stroke-opacity="0.02" stroke-dasharray="2 2"/>
<line x1="1098.94" y1="794" x2="1098.94" stroke="white" stroke-opacity="0.02" stroke-dasharray="2 2"/>
<line x1="1143.81" y1="794" x2="1143.81" stroke="white" stroke-opacity="0.02" stroke-dasharray="2 2"/>
<line x1="1188.69" y1="794" x2="1188.69" stroke="white" stroke-opacity="0.02" stroke-dasharray="2 2"/>
<line x1="1233.56" y1="794" x2="1233.56" stroke="white" stroke-opacity="0.02" stroke-dasharray="2 2"/>
<line x1="1278.44" y1="794" x2="1278.44" stroke="white" stroke-opacity="0.02" stroke-dasharray="2 2"/>
<line x1="1323.31" y1="794" x2="1323.31" stroke="white" stroke-opacity="0.02" stroke-dasharray="2 2"/>
<line x1="1368.19" y1="794" x2="1368.19" stroke="white" stroke-opacity="0.02" stroke-dasharray="2 2"/>
<line x1="1413.06" y1="794" x2="1413.06" stroke="white" stroke-opacity="0.02" stroke-dasharray="2 2"/>
</svg>
