<svg width="16" height="16" viewBox="0 0 16 16" fill="none" xmlns="http://www.w3.org/2000/svg">
<g clip-path="url(#clip0_1998_35246)">
<circle cx="8" cy="8" r="8" fill="white" fill-opacity="0.8"/>
<path d="M12.9679 6.86976C13.0168 6.81799 13.0168 6.76623 12.9189 6.76623L9.68858 6.24853C9.59069 6.24853 9.54175 6.14499 9.4928 6.09322L8.07342 3.03883C8.02447 2.98706 7.97553 2.98706 7.92658 3.03883L6.5072 6.09322C6.45825 6.14499 6.36036 6.24853 6.31142 6.24853L3.08109 6.76623C2.9832 6.76623 2.9832 6.81799 3.03215 6.86976L5.33253 9.25116C5.38148 9.30293 5.43042 9.40647 5.43042 9.51L4.89203 12.875C4.94098 12.9786 4.94098 12.9786 5.03887 12.9786L7.92658 11.3737C7.97553 11.3219 8.12236 11.3219 8.1713 11.3737L11.059 12.9786C11.108 13.0303 11.1569 12.9786 11.1569 12.9268L10.6185 9.56177C10.6185 9.45824 10.6185 9.3547 10.7164 9.30293L12.9679 6.86976Z" fill="#FF3C3D"/>
</g>
<defs>
<clipPath id="clip0_1998_35246">
<rect width="16" height="16" fill="white"/>
</clipPath>
</defs>
</svg>
