<svg width="1200" height="566" viewBox="0 0 1200 566" fill="none" xmlns="http://www.w3.org/2000/svg">
<rect y="1.33301" width="1200" height="564" rx="4" fill="url(#paint0_linear_398_11291)" fill-opacity="0.2"/>
<rect x="1" y="2.33301" width="1198" height="562" rx="3" stroke="#374151" stroke-opacity="0.3" stroke-width="2"/>
<line y1="0.833008" x2="1200" y2="0.833008" stroke="white" stroke-opacity="0.03" stroke-dasharray="2 2"/>
<line y1="38.4326" x2="1200" y2="38.4326" stroke="white" stroke-opacity="0.03" stroke-dasharray="2 2"/>
<line y1="76.0332" x2="1200" y2="76.0332" stroke="white" stroke-opacity="0.03" stroke-dasharray="2 2"/>
<line y1="113.633" x2="1200" y2="113.633" stroke="white" stroke-opacity="0.03" stroke-dasharray="2 2"/>
<line y1="151.233" x2="1200" y2="151.233" stroke="white" stroke-opacity="0.03" stroke-dasharray="2 2"/>
<line y1="188.833" x2="1200" y2="188.833" stroke="white" stroke-opacity="0.03" stroke-dasharray="2 2"/>
<line y1="226.433" x2="1200" y2="226.433" stroke="white" stroke-opacity="0.03" stroke-dasharray="2 2"/>
<line y1="264.033" x2="1200" y2="264.033" stroke="white" stroke-opacity="0.03" stroke-dasharray="2 2"/>
<line y1="301.633" x2="1200" y2="301.633" stroke="white" stroke-opacity="0.03" stroke-dasharray="2 2"/>
<line y1="339.233" x2="1200" y2="339.233" stroke="white" stroke-opacity="0.03" stroke-dasharray="2 2"/>
<line y1="376.833" x2="1200" y2="376.833" stroke="white" stroke-opacity="0.03" stroke-dasharray="2 2"/>
<line y1="414.433" x2="1200" y2="414.433" stroke="white" stroke-opacity="0.03" stroke-dasharray="2 2"/>
<line y1="452.033" x2="1200" y2="452.033" stroke="white" stroke-opacity="0.03" stroke-dasharray="2 2"/>
<line y1="489.633" x2="1200" y2="489.633" stroke="white" stroke-opacity="0.03" stroke-dasharray="2 2"/>
<line y1="527.233" x2="1200" y2="527.233" stroke="white" stroke-opacity="0.03" stroke-dasharray="2 2"/>
<line y1="564.833" x2="1200" y2="564.833" stroke="white" stroke-opacity="0.03" stroke-dasharray="2 2"/>
<line x1="18.25" y1="565.333" x2="18.25" y2="1.33301" stroke="white" stroke-opacity="0.03" stroke-dasharray="2 2"/>
<line x1="55.75" y1="565.333" x2="55.75" y2="1.33301" stroke="white" stroke-opacity="0.03" stroke-dasharray="2 2"/>
<line x1="93.25" y1="565.333" x2="93.25" y2="1.33301" stroke="white" stroke-opacity="0.03" stroke-dasharray="2 2"/>
<line x1="130.75" y1="565.333" x2="130.75" y2="1.33301" stroke="white" stroke-opacity="0.03" stroke-dasharray="2 2"/>
<line x1="168.25" y1="565.333" x2="168.25" y2="1.33301" stroke="white" stroke-opacity="0.03" stroke-dasharray="2 2"/>
<line x1="205.75" y1="565.333" x2="205.75" y2="1.33301" stroke="white" stroke-opacity="0.03" stroke-dasharray="2 2"/>
<line x1="243.25" y1="565.333" x2="243.25" y2="1.33301" stroke="white" stroke-opacity="0.03" stroke-dasharray="2 2"/>
<line x1="280.75" y1="565.333" x2="280.75" y2="1.33301" stroke="white" stroke-opacity="0.03" stroke-dasharray="2 2"/>
<line x1="318.25" y1="565.333" x2="318.25" y2="1.33301" stroke="white" stroke-opacity="0.03" stroke-dasharray="2 2"/>
<line x1="355.75" y1="565.333" x2="355.75" y2="1.33301" stroke="white" stroke-opacity="0.03" stroke-dasharray="2 2"/>
<line x1="393.25" y1="565.333" x2="393.25" y2="1.33301" stroke="white" stroke-opacity="0.03" stroke-dasharray="2 2"/>
<line x1="430.75" y1="565.333" x2="430.75" y2="1.33301" stroke="white" stroke-opacity="0.03" stroke-dasharray="2 2"/>
<line x1="468.25" y1="565.333" x2="468.25" y2="1.33301" stroke="white" stroke-opacity="0.03" stroke-dasharray="2 2"/>
<line x1="505.75" y1="565.333" x2="505.75" y2="1.33301" stroke="white" stroke-opacity="0.03" stroke-dasharray="2 2"/>
<line x1="543.25" y1="565.333" x2="543.25" y2="1.33301" stroke="white" stroke-opacity="0.03" stroke-dasharray="2 2"/>
<line x1="580.75" y1="565.333" x2="580.75" y2="1.33301" stroke="white" stroke-opacity="0.03" stroke-dasharray="2 2"/>
<line x1="618.25" y1="565.333" x2="618.25" y2="1.33301" stroke="white" stroke-opacity="0.03" stroke-dasharray="2 2"/>
<line x1="655.75" y1="565.333" x2="655.75" y2="1.33301" stroke="white" stroke-opacity="0.03" stroke-dasharray="2 2"/>
<line x1="693.25" y1="565.333" x2="693.25" y2="1.33301" stroke="white" stroke-opacity="0.03" stroke-dasharray="2 2"/>
<line x1="730.75" y1="565.333" x2="730.75" y2="1.33301" stroke="white" stroke-opacity="0.03" stroke-dasharray="2 2"/>
<line x1="768.25" y1="565.333" x2="768.25" y2="1.33301" stroke="white" stroke-opacity="0.03" stroke-dasharray="2 2"/>
<line x1="805.75" y1="565.333" x2="805.75" y2="1.33301" stroke="white" stroke-opacity="0.03" stroke-dasharray="2 2"/>
<line x1="843.25" y1="565.333" x2="843.25" y2="1.33301" stroke="white" stroke-opacity="0.03" stroke-dasharray="2 2"/>
<line x1="880.75" y1="565.333" x2="880.75" y2="1.33301" stroke="white" stroke-opacity="0.03" stroke-dasharray="2 2"/>
<line x1="918.25" y1="565.333" x2="918.25" y2="1.33301" stroke="white" stroke-opacity="0.03" stroke-dasharray="2 2"/>
<line x1="955.75" y1="565.333" x2="955.75" y2="1.33301" stroke="white" stroke-opacity="0.03" stroke-dasharray="2 2"/>
<line x1="993.25" y1="565.333" x2="993.25" y2="1.33301" stroke="white" stroke-opacity="0.03" stroke-dasharray="2 2"/>
<line x1="1030.75" y1="565.333" x2="1030.75" y2="1.33301" stroke="white" stroke-opacity="0.03" stroke-dasharray="2 2"/>
<line x1="1068.25" y1="565.333" x2="1068.25" y2="1.33301" stroke="white" stroke-opacity="0.03" stroke-dasharray="2 2"/>
<line x1="1105.75" y1="565.333" x2="1105.75" y2="1.33301" stroke="white" stroke-opacity="0.03" stroke-dasharray="2 2"/>
<line x1="1143.25" y1="565.333" x2="1143.25" y2="1.33301" stroke="white" stroke-opacity="0.03" stroke-dasharray="2 2"/>
<line x1="1180.75" y1="565.333" x2="1180.75" y2="1.33301" stroke="white" stroke-opacity="0.03" stroke-dasharray="2 2"/>
<defs>
<linearGradient id="paint0_linear_398_11291" x1="0" y1="283.333" x2="1200" y2="283.333" gradientUnits="userSpaceOnUse">
<stop stop-color="#1F2937"/>
<stop offset="1" stop-color="#3F4F67"/>
</linearGradient>
</defs>
</svg>
