<svg width="28" height="28" viewBox="0 0 28 28" fill="none" xmlns="http://www.w3.org/2000/svg">
<rect width="28" height="28" rx="6" fill="white" fill-opacity="0.8"/>
<path d="M14.0511 12.1248L16.2084 14.2754V14.1665C16.2084 13.625 15.9933 13.1057 15.6105 12.7228C15.2276 12.3399 14.7083 12.1248 14.1668 12.1248H14.0511ZM11.1247 12.6693L12.1796 13.7241C12.1455 13.8671 12.1251 14.01 12.1251 14.1665C12.1251 14.708 12.3402 15.2273 12.7231 15.6102C13.106 15.9931 13.6253 16.2082 14.1668 16.2082C14.3165 16.2082 14.4662 16.1878 14.6091 16.1537L15.664 17.2086C15.208 17.4332 14.7044 17.5693 14.1668 17.5693C13.2643 17.5693 12.3988 17.2108 11.7606 16.5726C11.1225 15.9345 10.764 15.069 10.764 14.1665C10.764 13.6289 10.9001 13.1253 11.1247 12.6693ZM7.36122 8.90581L8.91289 10.4575L9.21914 10.7637C8.09622 11.6484 7.2115 12.8054 6.68066 14.1665C7.85803 17.1541 10.764 19.2707 14.1668 19.2707C15.2216 19.2707 16.2289 19.0665 17.1476 18.699L17.4402 18.9848L19.4275 20.9721L20.2918 20.1078L8.22553 8.0415M14.1668 10.7637C15.0692 10.7637 15.9348 11.1222 16.5729 11.7604C17.211 12.3985 17.5696 13.264 17.5696 14.1665C17.5696 14.6021 17.4811 15.024 17.3246 15.4051L19.3186 17.3991C20.3394 16.5484 21.1561 15.4323 21.6529 14.1665C20.4755 11.1789 17.5696 9.06234 14.1668 9.06234C13.214 9.06234 12.3021 9.23248 11.4446 9.53873L12.9214 11.0019C13.3093 10.8522 13.7244 10.7637 14.1668 10.7637Z" fill="black"/>
</svg>
