<svg width="16" height="16" viewBox="0 0 16 16" fill="none" xmlns="http://www.w3.org/2000/svg">
<path d="M8.66703 7.33335H1.33369C1.15688 7.33335 0.987312 7.40359 0.862288 7.52862C0.737263 7.65364 0.667026 7.82321 0.667026 8.00002V14C0.667026 14.1768 0.737263 14.3464 0.862288 14.4714C0.987312 14.5964 1.15688 14.6667 1.33369 14.6667H8.66703C8.84384 14.6667 9.01341 14.5964 9.13843 14.4714C9.26345 14.3464 9.33369 14.1768 9.33369 14V8.00002C9.33369 7.82321 9.26345 7.65364 9.13843 7.52862C9.01341 7.40359 8.84384 7.33335 8.66703 7.33335ZM4.96036 13.3334L6.24703 12.0467C6.26527 12.0192 6.29004 11.9966 6.31912 11.981C6.3482 11.9654 6.38069 11.9572 6.41369 11.9572C6.4467 11.9572 6.47919 11.9654 6.50827 11.981C6.53735 11.9966 6.56212 12.0192 6.58036 12.0467L7.86036 13.3334H4.96036ZM8.00036 11.5867L7.52036 11.1134C7.22142 10.8277 6.82385 10.6683 6.41036 10.6683C5.99687 10.6683 5.5993 10.8277 5.30036 11.1134L3.07369 13.3334H2.00036V8.66669H8.00036V11.5867ZM1.33369 2.74002C1.44939 2.74 1.56309 2.70987 1.66361 2.6526C1.76413 2.59532 1.84802 2.51287 1.90703 2.41335C1.9918 2.29239 2.03614 2.14771 2.03369 2.00002C2.03381 1.9096 2.01552 1.82009 1.97995 1.73696C1.94439 1.65382 1.89228 1.57879 1.8268 1.51643C1.76132 1.45407 1.68383 1.40568 1.59906 1.3742C1.51429 1.34273 1.424 1.32883 1.33369 1.33335C1.15688 1.33335 0.987312 1.40359 0.862288 1.52862C0.737263 1.65364 0.667026 1.82321 0.667026 2.00002V2.06669C0.666144 2.15479 0.682738 2.2422 0.715846 2.32386C0.748955 2.40551 0.797921 2.47979 0.859915 2.54241C0.921909 2.60502 0.995699 2.65472 1.07702 2.68864C1.15834 2.72256 1.24558 2.74002 1.33369 2.74002ZM6.60703 2.66669H6.73369C6.9105 2.66669 7.08007 2.59645 7.2051 2.47142C7.33012 2.3464 7.40036 2.17683 7.40036 2.00002C7.40036 1.82321 7.33012 1.65364 7.2051 1.52862C7.08007 1.40359 6.9105 1.33335 6.73369 1.33335H6.60703C6.43021 1.33335 6.26065 1.40359 6.13562 1.52862C6.0106 1.65364 5.94036 1.82321 5.94036 2.00002C5.94036 2.17683 6.0106 2.3464 6.13562 2.47142C6.26065 2.59645 6.43021 2.66669 6.60703 2.66669ZM1.33369 5.85335C1.5105 5.85335 1.68007 5.78312 1.8051 5.65809C1.93012 5.53307 2.00036 5.3635 2.00036 5.18669V5.04002C2.00036 4.86321 1.93012 4.69364 1.8051 4.56862C1.68007 4.44359 1.5105 4.37335 1.33369 4.37335C1.15688 4.37335 0.987312 4.44359 0.862288 4.56862C0.737263 4.69364 0.667026 4.86321 0.667026 5.04002V5.18669C0.667026 5.3635 0.737263 5.53307 0.862288 5.65809C0.987312 5.78312 1.15688 5.85335 1.33369 5.85335ZM9.39369 1.33335H9.26702C9.09021 1.33335 8.92064 1.40359 8.79562 1.52862C8.6706 1.65364 8.60036 1.82321 8.60036 2.00002C8.60036 2.17683 8.6706 2.3464 8.79562 2.47142C8.92064 2.59645 9.09021 2.66669 9.26702 2.66669H9.39369C9.5705 2.66669 9.74007 2.59645 9.8651 2.47142C9.99012 2.3464 10.0604 2.17683 10.0604 2.00002C10.0604 1.82321 9.99012 1.65364 9.8651 1.52862C9.74007 1.40359 9.5705 1.33335 9.39369 1.33335ZM3.94036 2.66669H4.06703C4.24384 2.66669 4.41341 2.59645 4.53843 2.47142C4.66345 2.3464 4.73369 2.17683 4.73369 2.00002C4.73369 1.82321 4.66345 1.65364 4.53843 1.52862C4.41341 1.40359 4.24384 1.33335 4.06703 1.33335H3.94036C3.76355 1.33335 3.59398 1.40359 3.46895 1.52862C3.34393 1.65364 3.27369 1.82321 3.27369 2.00002C3.27369 2.17683 3.34393 2.3464 3.46895 2.47142C3.59398 2.59645 3.76355 2.66669 3.94036 2.66669ZM14.667 4.26669C14.4902 4.26669 14.3206 4.33692 14.1956 4.46195C14.0706 4.58697 14.0004 4.75654 14.0004 4.93335V5.07335C14.0004 5.25016 14.0706 5.41973 14.1956 5.54476C14.3206 5.66978 14.4902 5.74002 14.667 5.74002C14.8438 5.74002 15.0134 5.66978 15.1384 5.54476C15.2635 5.41973 15.3337 5.25016 15.3337 5.07335V4.93335C15.3337 4.75654 15.2635 4.58697 15.1384 4.46195C15.0134 4.33692 14.8438 4.26669 14.667 4.26669ZM11.4137 13.3334H11.2537C11.0769 13.3334 10.9073 13.4036 10.7823 13.5286C10.6573 13.6536 10.587 13.8232 10.587 14C10.587 14.1768 10.6573 14.3464 10.7823 14.4714C10.9073 14.5964 11.0769 14.6667 11.2537 14.6667H11.4137C11.5905 14.6667 11.7601 14.5964 11.8851 14.4714C12.0101 14.3464 12.0804 14.1768 12.0804 14C12.0804 13.8232 12.0101 13.6536 11.8851 13.5286C11.7601 13.4036 11.5905 13.3334 11.4137 13.3334ZM14.6004 1.33335C14.4353 1.34994 14.2824 1.42743 14.1715 1.5507C14.0605 1.67398 13.9995 1.83418 14.0004 2.00002C14.0019 2.09709 14.0247 2.19265 14.067 2.28002C14.1284 2.41172 14.2312 2.51975 14.3596 2.58768C14.4881 2.6556 14.6352 2.6797 14.7786 2.6563C14.922 2.6329 15.0539 2.56329 15.1541 2.45806C15.2543 2.35283 15.3173 2.21774 15.3337 2.07335V2.00002C15.3185 1.81672 15.2344 1.64599 15.0983 1.52227C14.9622 1.39855 14.7843 1.33104 14.6004 1.33335ZM14.667 7.26669C14.4902 7.26669 14.3206 7.33693 14.1956 7.46195C14.0706 7.58697 14.0004 7.75654 14.0004 7.93335V8.08002C14.0004 8.25683 14.0706 8.4264 14.1956 8.55142C14.3206 8.67645 14.4902 8.74669 14.667 8.74669C14.8438 8.74669 15.0134 8.67645 15.1384 8.55142C15.2635 8.4264 15.3337 8.25683 15.3337 8.08002V7.93335C15.3337 7.75654 15.2635 7.58697 15.1384 7.46195C15.0134 7.33693 14.8438 7.26669 14.667 7.26669ZM12.0604 1.33335H11.9337C11.7569 1.33335 11.5873 1.40359 11.4623 1.52862C11.3373 1.65364 11.267 1.82321 11.267 2.00002C11.267 2.17683 11.3373 2.3464 11.4623 2.47142C11.5873 2.59645 11.7569 2.66669 11.9337 2.66669H12.0604C12.2372 2.66669 12.4067 2.59645 12.5318 2.47142C12.6568 2.3464 12.727 2.17683 12.727 2.00002C12.727 1.82321 12.6568 1.65364 12.5318 1.52862C12.4067 1.40359 12.2372 1.33335 12.0604 1.33335ZM14.667 13.3334C14.5646 13.3324 14.4636 13.3576 14.3737 13.4067C14.2625 13.4612 14.1687 13.5455 14.1027 13.6503C14.0368 13.7551 14.0014 13.8762 14.0004 14C14.0004 14.1768 14.0706 14.3464 14.1956 14.4714C14.3206 14.5964 14.4902 14.6667 14.667 14.6667C14.8503 14.6515 15.0211 14.5674 15.1448 14.4313C15.2685 14.2952 15.336 14.1173 15.3337 13.9334C15.3171 13.7683 15.2396 13.6154 15.1163 13.5045C14.9931 13.3935 14.8329 13.3325 14.667 13.3334ZM14.667 10.2934C14.4902 10.2934 14.3206 10.3636 14.1956 10.4886C14.0706 10.6136 14.0004 10.7832 14.0004 10.96V11.1067C14.0004 11.2835 14.0706 11.4531 14.1956 11.5781C14.3206 11.7031 14.4902 11.7734 14.667 11.7734C14.8438 11.7734 15.0134 11.7031 15.1384 11.5781C15.2635 11.4531 15.3337 11.2835 15.3337 11.1067V10.9334C15.3337 10.7565 15.2635 10.587 15.1384 10.4619C15.0134 10.3369 14.8438 10.2667 14.667 10.2667V10.2934Z" fill="#9CA3AF"/>
<path d="M8.66703 7.33335H1.33369C1.15688 7.33335 0.987312 7.40359 0.862288 7.52862C0.737263 7.65364 0.667026 7.82321 0.667026 8.00002V14C0.667026 14.1768 0.737263 14.3464 0.862288 14.4714C0.987312 14.5964 1.15688 14.6667 1.33369 14.6667H8.66703C8.84384 14.6667 9.01341 14.5964 9.13843 14.4714C9.26345 14.3464 9.33369 14.1768 9.33369 14V8.00002C9.33369 7.82321 9.26345 7.65364 9.13843 7.52862C9.01341 7.40359 8.84384 7.33335 8.66703 7.33335ZM4.96036 13.3334L6.24703 12.0467C6.26527 12.0192 6.29004 11.9966 6.31912 11.981C6.3482 11.9654 6.38069 11.9572 6.41369 11.9572C6.4467 11.9572 6.47919 11.9654 6.50827 11.981C6.53735 11.9966 6.56212 12.0192 6.58036 12.0467L7.86036 13.3334H4.96036ZM8.00036 11.5867L7.52036 11.1134C7.22142 10.8277 6.82385 10.6683 6.41036 10.6683C5.99687 10.6683 5.5993 10.8277 5.30036 11.1134L3.07369 13.3334H2.00036V8.66669H8.00036V11.5867ZM1.33369 2.74002C1.44939 2.74 1.56309 2.70987 1.66361 2.6526C1.76413 2.59532 1.84802 2.51287 1.90703 2.41335C1.9918 2.29239 2.03614 2.14771 2.03369 2.00002C2.03381 1.9096 2.01552 1.82009 1.97995 1.73696C1.94439 1.65382 1.89228 1.57879 1.8268 1.51643C1.76132 1.45407 1.68383 1.40568 1.59906 1.3742C1.51429 1.34273 1.424 1.32883 1.33369 1.33335C1.15688 1.33335 0.987312 1.40359 0.862288 1.52862C0.737263 1.65364 0.667026 1.82321 0.667026 2.00002V2.06669C0.666144 2.15479 0.682738 2.2422 0.715846 2.32386C0.748955 2.40551 0.797921 2.47979 0.859915 2.54241C0.921909 2.60502 0.995699 2.65472 1.07702 2.68864C1.15834 2.72256 1.24558 2.74002 1.33369 2.74002ZM6.60703 2.66669H6.73369C6.9105 2.66669 7.08007 2.59645 7.2051 2.47142C7.33012 2.3464 7.40036 2.17683 7.40036 2.00002C7.40036 1.82321 7.33012 1.65364 7.2051 1.52862C7.08007 1.40359 6.9105 1.33335 6.73369 1.33335H6.60703C6.43021 1.33335 6.26065 1.40359 6.13562 1.52862C6.0106 1.65364 5.94036 1.82321 5.94036 2.00002C5.94036 2.17683 6.0106 2.3464 6.13562 2.47142C6.26065 2.59645 6.43021 2.66669 6.60703 2.66669ZM1.33369 5.85335C1.5105 5.85335 1.68007 5.78312 1.8051 5.65809C1.93012 5.53307 2.00036 5.3635 2.00036 5.18669V5.04002C2.00036 4.86321 1.93012 4.69364 1.8051 4.56862C1.68007 4.44359 1.5105 4.37335 1.33369 4.37335C1.15688 4.37335 0.987312 4.44359 0.862288 4.56862C0.737263 4.69364 0.667026 4.86321 0.667026 5.04002V5.18669C0.667026 5.3635 0.737263 5.53307 0.862288 5.65809C0.987312 5.78312 1.15688 5.85335 1.33369 5.85335ZM9.39369 1.33335H9.26702C9.09021 1.33335 8.92064 1.40359 8.79562 1.52862C8.6706 1.65364 8.60036 1.82321 8.60036 2.00002C8.60036 2.17683 8.6706 2.3464 8.79562 2.47142C8.92064 2.59645 9.09021 2.66669 9.26702 2.66669H9.39369C9.5705 2.66669 9.74007 2.59645 9.8651 2.47142C9.99012 2.3464 10.0604 2.17683 10.0604 2.00002C10.0604 1.82321 9.99012 1.65364 9.8651 1.52862C9.74007 1.40359 9.5705 1.33335 9.39369 1.33335ZM3.94036 2.66669H4.06703C4.24384 2.66669 4.41341 2.59645 4.53843 2.47142C4.66345 2.3464 4.73369 2.17683 4.73369 2.00002C4.73369 1.82321 4.66345 1.65364 4.53843 1.52862C4.41341 1.40359 4.24384 1.33335 4.06703 1.33335H3.94036C3.76355 1.33335 3.59398 1.40359 3.46895 1.52862C3.34393 1.65364 3.27369 1.82321 3.27369 2.00002C3.27369 2.17683 3.34393 2.3464 3.46895 2.47142C3.59398 2.59645 3.76355 2.66669 3.94036 2.66669ZM14.667 4.26669C14.4902 4.26669 14.3206 4.33692 14.1956 4.46195C14.0706 4.58697 14.0004 4.75654 14.0004 4.93335V5.07335C14.0004 5.25016 14.0706 5.41973 14.1956 5.54476C14.3206 5.66978 14.4902 5.74002 14.667 5.74002C14.8438 5.74002 15.0134 5.66978 15.1384 5.54476C15.2635 5.41973 15.3337 5.25016 15.3337 5.07335V4.93335C15.3337 4.75654 15.2635 4.58697 15.1384 4.46195C15.0134 4.33692 14.8438 4.26669 14.667 4.26669ZM11.4137 13.3334H11.2537C11.0769 13.3334 10.9073 13.4036 10.7823 13.5286C10.6573 13.6536 10.587 13.8232 10.587 14C10.587 14.1768 10.6573 14.3464 10.7823 14.4714C10.9073 14.5964 11.0769 14.6667 11.2537 14.6667H11.4137C11.5905 14.6667 11.7601 14.5964 11.8851 14.4714C12.0101 14.3464 12.0804 14.1768 12.0804 14C12.0804 13.8232 12.0101 13.6536 11.8851 13.5286C11.7601 13.4036 11.5905 13.3334 11.4137 13.3334ZM14.6004 1.33335C14.4353 1.34994 14.2824 1.42743 14.1715 1.5507C14.0605 1.67398 13.9995 1.83418 14.0004 2.00002C14.0019 2.09709 14.0247 2.19265 14.067 2.28002C14.1284 2.41172 14.2312 2.51975 14.3596 2.58768C14.4881 2.6556 14.6352 2.6797 14.7786 2.6563C14.922 2.6329 15.0539 2.56329 15.1541 2.45806C15.2543 2.35283 15.3173 2.21774 15.3337 2.07335V2.00002C15.3185 1.81672 15.2344 1.64599 15.0983 1.52227C14.9622 1.39855 14.7843 1.33104 14.6004 1.33335ZM14.667 7.26669C14.4902 7.26669 14.3206 7.33693 14.1956 7.46195C14.0706 7.58697 14.0004 7.75654 14.0004 7.93335V8.08002C14.0004 8.25683 14.0706 8.4264 14.1956 8.55142C14.3206 8.67645 14.4902 8.74669 14.667 8.74669C14.8438 8.74669 15.0134 8.67645 15.1384 8.55142C15.2635 8.4264 15.3337 8.25683 15.3337 8.08002V7.93335C15.3337 7.75654 15.2635 7.58697 15.1384 7.46195C15.0134 7.33693 14.8438 7.26669 14.667 7.26669ZM12.0604 1.33335H11.9337C11.7569 1.33335 11.5873 1.40359 11.4623 1.52862C11.3373 1.65364 11.267 1.82321 11.267 2.00002C11.267 2.17683 11.3373 2.3464 11.4623 2.47142C11.5873 2.59645 11.7569 2.66669 11.9337 2.66669H12.0604C12.2372 2.66669 12.4067 2.59645 12.5318 2.47142C12.6568 2.3464 12.727 2.17683 12.727 2.00002C12.727 1.82321 12.6568 1.65364 12.5318 1.52862C12.4067 1.40359 12.2372 1.33335 12.0604 1.33335ZM14.667 13.3334C14.5646 13.3324 14.4636 13.3576 14.3737 13.4067C14.2625 13.4612 14.1687 13.5455 14.1027 13.6503C14.0368 13.7551 14.0014 13.8762 14.0004 14C14.0004 14.1768 14.0706 14.3464 14.1956 14.4714C14.3206 14.5964 14.4902 14.6667 14.667 14.6667C14.8503 14.6515 15.0211 14.5674 15.1448 14.4313C15.2685 14.2952 15.336 14.1173 15.3337 13.9334C15.3171 13.7683 15.2396 13.6154 15.1163 13.5045C14.9931 13.3935 14.8329 13.3325 14.667 13.3334ZM14.667 10.2934C14.4902 10.2934 14.3206 10.3636 14.1956 10.4886C14.0706 10.6136 14.0004 10.7832 14.0004 10.96V11.1067C14.0004 11.2835 14.0706 11.4531 14.1956 11.5781C14.3206 11.7031 14.4902 11.7734 14.667 11.7734C14.8438 11.7734 15.0134 11.7031 15.1384 11.5781C15.2635 11.4531 15.3337 11.2835 15.3337 11.1067V10.9334C15.3337 10.7565 15.2635 10.587 15.1384 10.4619C15.0134 10.3369 14.8438 10.2667 14.667 10.2667V10.2934Z" fill="#88A4C2"/>
</svg>
