<svg width="970" height="851" viewBox="0 0 970 851" fill="none" xmlns="http://www.w3.org/2000/svg">
<line y1="0.5" x2="970" y2="0.5" stroke="white" stroke-opacity="0.02" stroke-dasharray="2 2"/>
<line y1="35.917" x2="970" y2="35.917" stroke="white" stroke-opacity="0.02" stroke-dasharray="2 2"/>
<line y1="71.333" x2="970" y2="71.333" stroke="white" stroke-opacity="0.02" stroke-dasharray="2 2"/>
<line y1="106.75" x2="970" y2="106.75" stroke="white" stroke-opacity="0.02" stroke-dasharray="2 2"/>
<line y1="142.167" x2="970" y2="142.167" stroke="white" stroke-opacity="0.02" stroke-dasharray="2 2"/>
<line y1="177.583" x2="970" y2="177.583" stroke="white" stroke-opacity="0.02" stroke-dasharray="2 2"/>
<line y1="213" x2="970" y2="213" stroke="white" stroke-opacity="0.02" stroke-dasharray="2 2"/>
<line y1="248.417" x2="970" y2="248.417" stroke="white" stroke-opacity="0.02" stroke-dasharray="2 2"/>
<line y1="283.833" x2="970" y2="283.833" stroke="white" stroke-opacity="0.02" stroke-dasharray="2 2"/>
<line y1="319.25" x2="970" y2="319.25" stroke="white" stroke-opacity="0.02" stroke-dasharray="2 2"/>
<line y1="354.667" x2="970" y2="354.667" stroke="white" stroke-opacity="0.02" stroke-dasharray="2 2"/>
<line y1="390.083" x2="970" y2="390.083" stroke="white" stroke-opacity="0.02" stroke-dasharray="2 2"/>
<line y1="425.5" x2="970" y2="425.5" stroke="white" stroke-opacity="0.02" stroke-dasharray="2 2"/>
<line y1="460.917" x2="970" y2="460.917" stroke="white" stroke-opacity="0.02" stroke-dasharray="2 2"/>
<line y1="496.333" x2="970" y2="496.333" stroke="white" stroke-opacity="0.02" stroke-dasharray="2 2"/>
<line y1="531.75" x2="970" y2="531.75" stroke="white" stroke-opacity="0.02" stroke-dasharray="2 2"/>
<line y1="567.167" x2="970" y2="567.167" stroke="white" stroke-opacity="0.02" stroke-dasharray="2 2"/>
<line y1="602.583" x2="970" y2="602.583" stroke="white" stroke-opacity="0.02" stroke-dasharray="2 2"/>
<line y1="638" x2="970" y2="638" stroke="white" stroke-opacity="0.02" stroke-dasharray="2 2"/>
<line y1="673.417" x2="970" y2="673.417" stroke="white" stroke-opacity="0.02" stroke-dasharray="2 2"/>
<line y1="708.833" x2="970" y2="708.833" stroke="white" stroke-opacity="0.02" stroke-dasharray="2 2"/>
<line y1="744.25" x2="970" y2="744.25" stroke="white" stroke-opacity="0.02" stroke-dasharray="2 2"/>
<line y1="779.667" x2="970" y2="779.667" stroke="white" stroke-opacity="0.02" stroke-dasharray="2 2"/>
<line y1="815.083" x2="970" y2="815.083" stroke="white" stroke-opacity="0.02" stroke-dasharray="2 2"/>
<line y1="850.5" x2="970" y2="850.5" stroke="white" stroke-opacity="0.02" stroke-dasharray="2 2"/>
<line x1="14.6562" y1="851" x2="14.6562" y2="1" stroke="white" stroke-opacity="0.02" stroke-dasharray="2 2"/>
<line x1="44.9688" y1="851" x2="44.9688" y2="1" stroke="white" stroke-opacity="0.02" stroke-dasharray="2 2"/>
<line x1="75.2812" y1="851" x2="75.2812" y2="1" stroke="white" stroke-opacity="0.02" stroke-dasharray="2 2"/>
<line x1="105.594" y1="851" x2="105.594" y2="1" stroke="white" stroke-opacity="0.02" stroke-dasharray="2 2"/>
<line x1="135.906" y1="851" x2="135.906" y2="1" stroke="white" stroke-opacity="0.02" stroke-dasharray="2 2"/>
<line x1="166.219" y1="851" x2="166.219" y2="1" stroke="white" stroke-opacity="0.02" stroke-dasharray="2 2"/>
<line x1="196.531" y1="851" x2="196.531" y2="1" stroke="white" stroke-opacity="0.02" stroke-dasharray="2 2"/>
<line x1="226.844" y1="851" x2="226.844" y2="1" stroke="white" stroke-opacity="0.02" stroke-dasharray="2 2"/>
<line x1="257.156" y1="851" x2="257.156" y2="1" stroke="white" stroke-opacity="0.02" stroke-dasharray="2 2"/>
<line x1="287.469" y1="851" x2="287.469" y2="1" stroke="white" stroke-opacity="0.02" stroke-dasharray="2 2"/>
<line x1="317.781" y1="851" x2="317.781" y2="1" stroke="white" stroke-opacity="0.02" stroke-dasharray="2 2"/>
<line x1="348.094" y1="851" x2="348.094" y2="1" stroke="white" stroke-opacity="0.02" stroke-dasharray="2 2"/>
<line x1="378.406" y1="851" x2="378.406" y2="1" stroke="white" stroke-opacity="0.02" stroke-dasharray="2 2"/>
<line x1="408.719" y1="851" x2="408.719" y2="1" stroke="white" stroke-opacity="0.02" stroke-dasharray="2 2"/>
<line x1="439.031" y1="851" x2="439.031" y2="1" stroke="white" stroke-opacity="0.02" stroke-dasharray="2 2"/>
<line x1="469.344" y1="851" x2="469.344" y2="1" stroke="white" stroke-opacity="0.02" stroke-dasharray="2 2"/>
<line x1="499.656" y1="851" x2="499.656" y2="1" stroke="white" stroke-opacity="0.02" stroke-dasharray="2 2"/>
<line x1="529.969" y1="851" x2="529.969" y2="1" stroke="white" stroke-opacity="0.02" stroke-dasharray="2 2"/>
<line x1="560.281" y1="851" x2="560.281" y2="1" stroke="white" stroke-opacity="0.02" stroke-dasharray="2 2"/>
<line x1="590.594" y1="851" x2="590.594" y2="1" stroke="white" stroke-opacity="0.02" stroke-dasharray="2 2"/>
<line x1="620.906" y1="851" x2="620.906" y2="1" stroke="white" stroke-opacity="0.02" stroke-dasharray="2 2"/>
<line x1="651.219" y1="851" x2="651.219" y2="1" stroke="white" stroke-opacity="0.02" stroke-dasharray="2 2"/>
<line x1="681.531" y1="851" x2="681.531" y2="1" stroke="white" stroke-opacity="0.02" stroke-dasharray="2 2"/>
<line x1="711.844" y1="851" x2="711.844" y2="1" stroke="white" stroke-opacity="0.02" stroke-dasharray="2 2"/>
<line x1="742.156" y1="851" x2="742.156" y2="1" stroke="white" stroke-opacity="0.02" stroke-dasharray="2 2"/>
<line x1="772.469" y1="851" x2="772.469" y2="1" stroke="white" stroke-opacity="0.02" stroke-dasharray="2 2"/>
<line x1="802.781" y1="851" x2="802.781" y2="1" stroke="white" stroke-opacity="0.02" stroke-dasharray="2 2"/>
<line x1="833.094" y1="851" x2="833.094" y2="1" stroke="white" stroke-opacity="0.02" stroke-dasharray="2 2"/>
<line x1="863.406" y1="851" x2="863.406" y2="1" stroke="white" stroke-opacity="0.02" stroke-dasharray="2 2"/>
<line x1="893.719" y1="851" x2="893.719" y2="1" stroke="white" stroke-opacity="0.02" stroke-dasharray="2 2"/>
<line x1="924.031" y1="851" x2="924.031" y2="1" stroke="white" stroke-opacity="0.02" stroke-dasharray="2 2"/>
<line x1="954.344" y1="851" x2="954.344" y2="1" stroke="white" stroke-opacity="0.02" stroke-dasharray="2 2"/>
</svg>
