<svg width="970" height="849" viewBox="0 0 970 849" fill="none" xmlns="http://www.w3.org/2000/svg">
<line y1="0.5" x2="970" y2="0.5" stroke="white" stroke-opacity="0.02" stroke-dasharray="2 2"/>
<line y1="35.833" x2="970" y2="35.833" stroke="white" stroke-opacity="0.02" stroke-dasharray="2 2"/>
<line y1="71.167" x2="970" y2="71.167" stroke="white" stroke-opacity="0.02" stroke-dasharray="2 2"/>
<line y1="106.5" x2="970" y2="106.5" stroke="white" stroke-opacity="0.02" stroke-dasharray="2 2"/>
<line y1="141.833" x2="970" y2="141.833" stroke="white" stroke-opacity="0.02" stroke-dasharray="2 2"/>
<line y1="177.167" x2="970" y2="177.167" stroke="white" stroke-opacity="0.02" stroke-dasharray="2 2"/>
<line y1="212.5" x2="970" y2="212.5" stroke="white" stroke-opacity="0.02" stroke-dasharray="2 2"/>
<line y1="247.833" x2="970" y2="247.833" stroke="white" stroke-opacity="0.02" stroke-dasharray="2 2"/>
<line y1="283.167" x2="970" y2="283.167" stroke="white" stroke-opacity="0.02" stroke-dasharray="2 2"/>
<line y1="318.5" x2="970" y2="318.5" stroke="white" stroke-opacity="0.02" stroke-dasharray="2 2"/>
<line y1="353.833" x2="970" y2="353.833" stroke="white" stroke-opacity="0.02" stroke-dasharray="2 2"/>
<line y1="389.167" x2="970" y2="389.167" stroke="white" stroke-opacity="0.02" stroke-dasharray="2 2"/>
<line y1="424.5" x2="970" y2="424.5" stroke="white" stroke-opacity="0.02" stroke-dasharray="2 2"/>
<line y1="459.833" x2="970" y2="459.833" stroke="white" stroke-opacity="0.02" stroke-dasharray="2 2"/>
<line y1="495.167" x2="970" y2="495.167" stroke="white" stroke-opacity="0.02" stroke-dasharray="2 2"/>
<line y1="530.5" x2="970" y2="530.5" stroke="white" stroke-opacity="0.02" stroke-dasharray="2 2"/>
<line y1="565.833" x2="970" y2="565.833" stroke="white" stroke-opacity="0.02" stroke-dasharray="2 2"/>
<line y1="601.167" x2="970" y2="601.167" stroke="white" stroke-opacity="0.02" stroke-dasharray="2 2"/>
<line y1="636.5" x2="970" y2="636.5" stroke="white" stroke-opacity="0.02" stroke-dasharray="2 2"/>
<line y1="671.833" x2="970" y2="671.833" stroke="white" stroke-opacity="0.02" stroke-dasharray="2 2"/>
<line y1="707.167" x2="970" y2="707.167" stroke="white" stroke-opacity="0.02" stroke-dasharray="2 2"/>
<line y1="742.5" x2="970" y2="742.5" stroke="white" stroke-opacity="0.02" stroke-dasharray="2 2"/>
<line y1="777.833" x2="970" y2="777.833" stroke="white" stroke-opacity="0.02" stroke-dasharray="2 2"/>
<line y1="813.167" x2="970" y2="813.167" stroke="white" stroke-opacity="0.02" stroke-dasharray="2 2"/>
<line y1="848.5" x2="970" y2="848.5" stroke="white" stroke-opacity="0.02" stroke-dasharray="2 2"/>
<line x1="14.6562" y1="849" x2="14.6562" y2="1" stroke="white" stroke-opacity="0.02" stroke-dasharray="2 2"/>
<line x1="44.9688" y1="849" x2="44.9688" y2="1" stroke="white" stroke-opacity="0.02" stroke-dasharray="2 2"/>
<line x1="75.2812" y1="849" x2="75.2812" y2="1" stroke="white" stroke-opacity="0.02" stroke-dasharray="2 2"/>
<line x1="105.594" y1="849" x2="105.594" y2="1" stroke="white" stroke-opacity="0.02" stroke-dasharray="2 2"/>
<line x1="135.906" y1="849" x2="135.906" y2="1" stroke="white" stroke-opacity="0.02" stroke-dasharray="2 2"/>
<line x1="166.219" y1="849" x2="166.219" y2="1" stroke="white" stroke-opacity="0.02" stroke-dasharray="2 2"/>
<line x1="196.531" y1="849" x2="196.531" y2="1" stroke="white" stroke-opacity="0.02" stroke-dasharray="2 2"/>
<line x1="226.844" y1="849" x2="226.844" y2="1" stroke="white" stroke-opacity="0.02" stroke-dasharray="2 2"/>
<line x1="257.156" y1="849" x2="257.156" y2="1" stroke="white" stroke-opacity="0.02" stroke-dasharray="2 2"/>
<line x1="287.469" y1="849" x2="287.469" y2="1" stroke="white" stroke-opacity="0.02" stroke-dasharray="2 2"/>
<line x1="317.781" y1="849" x2="317.781" y2="1" stroke="white" stroke-opacity="0.02" stroke-dasharray="2 2"/>
<line x1="348.094" y1="849" x2="348.094" y2="1" stroke="white" stroke-opacity="0.02" stroke-dasharray="2 2"/>
<line x1="378.406" y1="849" x2="378.406" y2="1" stroke="white" stroke-opacity="0.02" stroke-dasharray="2 2"/>
<line x1="408.719" y1="849" x2="408.719" y2="1" stroke="white" stroke-opacity="0.02" stroke-dasharray="2 2"/>
<line x1="439.031" y1="849" x2="439.031" y2="1" stroke="white" stroke-opacity="0.02" stroke-dasharray="2 2"/>
<line x1="469.344" y1="849" x2="469.344" y2="1" stroke="white" stroke-opacity="0.02" stroke-dasharray="2 2"/>
<line x1="499.656" y1="849" x2="499.656" y2="1" stroke="white" stroke-opacity="0.02" stroke-dasharray="2 2"/>
<line x1="529.969" y1="849" x2="529.969" y2="1" stroke="white" stroke-opacity="0.02" stroke-dasharray="2 2"/>
<line x1="560.281" y1="849" x2="560.281" y2="1" stroke="white" stroke-opacity="0.02" stroke-dasharray="2 2"/>
<line x1="590.594" y1="849" x2="590.594" y2="1" stroke="white" stroke-opacity="0.02" stroke-dasharray="2 2"/>
<line x1="620.906" y1="849" x2="620.906" y2="1" stroke="white" stroke-opacity="0.02" stroke-dasharray="2 2"/>
<line x1="651.219" y1="849" x2="651.219" y2="1" stroke="white" stroke-opacity="0.02" stroke-dasharray="2 2"/>
<line x1="681.531" y1="849" x2="681.531" y2="1" stroke="white" stroke-opacity="0.02" stroke-dasharray="2 2"/>
<line x1="711.844" y1="849" x2="711.844" y2="1" stroke="white" stroke-opacity="0.02" stroke-dasharray="2 2"/>
<line x1="742.156" y1="849" x2="742.156" y2="1" stroke="white" stroke-opacity="0.02" stroke-dasharray="2 2"/>
<line x1="772.469" y1="849" x2="772.469" y2="1" stroke="white" stroke-opacity="0.02" stroke-dasharray="2 2"/>
<line x1="802.781" y1="849" x2="802.781" y2="1" stroke="white" stroke-opacity="0.02" stroke-dasharray="2 2"/>
<line x1="833.094" y1="849" x2="833.094" y2="1" stroke="white" stroke-opacity="0.02" stroke-dasharray="2 2"/>
<line x1="863.406" y1="849" x2="863.406" y2="1" stroke="white" stroke-opacity="0.02" stroke-dasharray="2 2"/>
<line x1="893.719" y1="849" x2="893.719" y2="1" stroke="white" stroke-opacity="0.02" stroke-dasharray="2 2"/>
<line x1="924.031" y1="849" x2="924.031" y2="1" stroke="white" stroke-opacity="0.02" stroke-dasharray="2 2"/>
<line x1="954.344" y1="849" x2="954.344" y2="1" stroke="white" stroke-opacity="0.02" stroke-dasharray="2 2"/>
</svg>
