<svg width="16" height="17" viewBox="0 0 16 17" fill="none" xmlns="http://www.w3.org/2000/svg">
<path d="M12.6667 2.5H3.33333C2.59695 2.5 2 3.09695 2 3.83333V13.1667C2 13.903 2.59695 14.5 3.33333 14.5H12.6667C13.403 14.5 14 13.903 14 13.1667V3.83333C14 3.09695 13.403 2.5 12.6667 2.5Z" stroke="#6366F1" stroke-linecap="round" stroke-linejoin="round"/>
<path d="M5.99984 7.83366C6.73622 7.83366 7.33317 7.23671 7.33317 6.50033C7.33317 5.76395 6.73622 5.16699 5.99984 5.16699C5.26346 5.16699 4.6665 5.76395 4.6665 6.50033C4.6665 7.23671 5.26346 7.83366 5.99984 7.83366Z" stroke="#6366F1" stroke-linecap="round" stroke-linejoin="round"/>
<path d="M14 10.5004L11.9427 8.44312C11.6926 8.19315 11.3536 8.05273 11 8.05273C10.6464 8.05273 10.3074 8.19315 10.0573 8.44312L4 14.5004" stroke="#6366F1" stroke-linecap="round" stroke-linejoin="round"/>
</svg>
