<svg width="24" height="24" viewBox="0 0 24 24" fill="none" xmlns="http://www.w3.org/2000/svg">
<path d="M7.44531 18H18.5564V16H7.44531V18ZM18.5564 14H7.44531V12H18.5564V14ZM7.44531 10H11.8898V8H7.44531V10Z" fill="white"/>
<path fill-rule="evenodd" clip-rule="evenodd" d="M6.33333 2C5.44928 2 4.60143 2.31607 3.97631 2.87868C3.35119 3.44129 3 4.20435 3 5V19C3 19.7956 3.35119 20.5587 3.97631 21.1213C4.60143 21.6839 5.44928 22 6.33333 22H19.6667C20.5507 22 21.3986 21.6839 22.0237 21.1213C22.6488 20.5587 23 19.7956 23 19V9C23 7.14348 22.1806 5.36301 20.7219 4.05025C19.2633 2.7375 17.285 2 15.2222 2H6.33333ZM6.33333 4H14.1111V9H20.7778V19C20.7778 19.2652 20.6607 19.5196 20.4523 19.7071C20.244 19.8946 19.9614 20 19.6667 20H6.33333C6.03865 20 5.75603 19.8946 5.54766 19.7071C5.33929 19.5196 5.22222 19.2652 5.22222 19V5C5.22222 4.73478 5.33929 4.48043 5.54766 4.29289C5.75603 4.10536 6.03865 4 6.33333 4ZM16.3333 4.1C17.2066 4.2611 18.0241 4.60859 18.7171 5.11325C19.4101 5.61791 19.9583 6.26497 20.3156 7H16.3333V4.1Z" fill="white"/>
</svg>
