<svg width="16" height="17" viewBox="0 0 16 17" fill="none" xmlns="http://www.w3.org/2000/svg">
<path fill-rule="evenodd" clip-rule="evenodd" d="M4.87782 2.84831C6.9528 2.61827 9.04684 2.61827 11.1218 2.84831C12.3398 2.98431 13.3232 3.94298 13.4658 5.16831C13.7125 7.27231 13.7125 9.39898 13.4658 11.5036C13.3225 12.7276 12.3392 13.687 11.1218 13.8236C9.04684 14.0537 6.9528 14.0537 4.87782 13.8236C3.65982 13.687 2.67649 12.7276 2.53382 11.5036C2.28821 9.39879 2.28821 7.2725 2.53382 5.16764C2.67649 3.94298 3.66049 2.98431 4.87782 2.84764M8.66649 5.66831C8.66653 5.75586 8.64933 5.84256 8.61587 5.92346C8.5824 6.00436 8.53333 6.07788 8.47146 6.13981C8.40958 6.20175 8.33612 6.25089 8.25525 6.28444C8.17438 6.31798 8.0877 6.33527 8.00015 6.33531C7.82334 6.3354 7.65374 6.26525 7.52865 6.14028C7.40356 6.01532 7.33324 5.84579 7.33315 5.66898C7.33315 5.49217 7.40339 5.3226 7.52842 5.19757C7.65344 5.07255 7.82301 5.00231 7.99982 5.00231C8.17663 5.00231 8.3462 5.07255 8.47122 5.19757C8.59625 5.3226 8.66649 5.4915 8.66649 5.66831ZM7.99982 7.50231C8.13243 7.50231 8.2596 7.55499 8.35337 7.64876C8.44714 7.74253 8.49982 7.8697 8.49982 8.00231V11.3356C8.49982 11.4683 8.44714 11.5954 8.35337 11.6892C8.2596 11.783 8.13243 11.8356 7.99982 11.8356C7.86721 11.8356 7.74003 11.783 7.64627 11.6892C7.5525 11.5954 7.49982 11.4683 7.49982 11.3356V8.00231C7.49982 7.8697 7.5525 7.74253 7.64627 7.64876C7.74003 7.55499 7.86721 7.50231 7.99982 7.50231Z" fill="white"/>
</svg>
