<svg width="32" height="32" viewBox="0 0 32 32" fill="none" xmlns="http://www.w3.org/2000/svg">
<rect width="32" height="32" rx="4" fill="#32FFDC"/>
<g clip-path="url(#clip0_1459_3638)">
<path d="M23.5556 9.35465C23.5556 8.85189 23.148 8.44434 22.6453 8.44434H20.6881C20.1853 8.44434 19.7778 8.8519 19.7778 9.35465V10.9803C19.7778 11.2217 19.6819 11.4532 19.5112 11.624L18.2693 12.8658C18.0986 13.0365 17.8671 13.1324 17.6256 13.1324H15.0442C14.5414 13.1324 14.1339 12.7249 14.1339 12.2221V9.35465C14.1339 8.8519 13.7263 8.44434 13.2236 8.44434H9.35477C8.85202 8.44434 8.44446 8.8519 8.44446 9.35465V13.2235C8.44446 13.7262 8.85202 14.1338 9.35477 14.1338H12.2222C12.725 14.1338 13.1325 14.5413 13.1325 15.0441V16.9557C13.1325 17.4585 12.725 17.866 12.2222 17.866H9.35477C8.85202 17.866 8.44446 18.2736 8.44446 18.7763V22.6451C8.44446 23.1479 8.85202 23.5554 9.35477 23.5554H13.2236C13.7263 23.5554 14.1339 23.1479 14.1339 22.6451V19.7322C14.1339 19.2294 14.5414 18.8218 15.0442 18.8218H17.5579C17.7993 18.8218 18.0309 18.9178 18.2015 19.0884L19.5112 20.3981C19.6819 20.5688 19.7778 20.8003 19.7778 21.0418V22.6451C19.7778 23.1479 20.1853 23.5554 20.6881 23.5554H22.6453C23.148 23.5554 23.5556 23.1479 23.5556 22.6451V20.688C23.5556 20.1852 23.148 19.7777 22.6453 19.7777H21.0701C20.8287 19.7777 20.5972 19.6818 20.4264 19.511L19.0885 18.1731C18.9179 18.0025 18.822 17.7709 18.822 17.5295V14.4925C18.822 14.2511 18.9179 14.0196 19.0885 13.8489L20.4487 12.4887C20.6194 12.318 20.8509 12.2221 21.0924 12.2221H22.6453C23.148 12.2221 23.5556 11.8146 23.5556 11.3118V9.35465Z" fill="black"/>
</g>
<defs>
<clipPath id="clip0_1459_3638">
<rect width="16" height="16" fill="white" transform="translate(8 8)"/>
</clipPath>
</defs>
</svg>
