<svg width="16" height="17" viewBox="0 0 16 17" fill="none" xmlns="http://www.w3.org/2000/svg">
<path d="M7.5 12V12.5C7.5 12.6326 7.44732 12.7598 7.35355 12.8536C7.25979 12.9473 7.13261 13 7 13H6V13.5C6 13.7652 5.89464 14.0196 5.70711 14.2071C5.51957 14.3946 5.26522 14.5 5 14.5H3C2.73478 14.5 2.48043 14.3946 2.29289 14.2071C2.10536 14.0196 2 13.7652 2 13.5V12.207C2.00006 11.9418 2.10545 11.6875 2.293 11.5L6.163 7.63C5.92571 6.82424 5.94809 5.96422 6.22699 5.17189C6.50588 4.37957 7.02713 3.69515 7.71682 3.21568C8.40651 2.73621 9.22964 2.48602 10.0695 2.5006C10.9093 2.51518 11.7233 2.79378 12.3959 3.2969C13.0686 3.80001 13.5657 4.50211 13.817 5.30364C14.0682 6.10517 14.0607 6.96545 13.7956 7.76249C13.5305 8.55953 13.0212 9.25289 12.3399 9.74424C11.6586 10.2356 10.84 10.5 10 10.5H8.999V11.5C8.999 11.6326 8.94632 11.7598 8.85255 11.8536C8.75879 11.9473 8.63161 12 8.499 12H7.5ZM11 6.5C11.2652 6.5 11.5196 6.39464 11.7071 6.20711C11.8946 6.01957 12 5.76522 12 5.5C12 5.23478 11.8946 4.98043 11.7071 4.79289C11.5196 4.60536 11.2652 4.5 11 4.5C10.7348 4.5 10.4804 4.60536 10.2929 4.79289C10.1054 4.98043 10 5.23478 10 5.5C10 5.76522 10.1054 6.01957 10.2929 6.20711C10.4804 6.39464 10.7348 6.5 11 6.5Z" fill="#6366F1"/>
</svg>
