<svg width="14" height="15" viewBox="0 0 14 15" fill="none" xmlns="http://www.w3.org/2000/svg">
<path d="M8.16667 2.08545V3.25212H10.2608L4.52667 8.98628L5.34917 9.80878L11.0833 4.07462V6.16878H12.25V2.08545M11.0833 11.4188H2.91667V3.25212H7V2.08545H2.91667C2.60725 2.08545 2.3105 2.20837 2.09171 2.42716C1.87292 2.64595 1.75 2.9427 1.75 3.25212V11.4188C1.75 11.7282 1.87292 12.0249 2.09171 12.2437C2.3105 12.4625 2.60725 12.5854 2.91667 12.5854H11.0833C11.3928 12.5854 11.6895 12.4625 11.9083 12.2437C12.1271 12.0249 12.25 11.7282 12.25 11.4188V7.33545H11.0833V11.4188Z" fill="#6366F1"/>
</svg>
