<svg width="16" height="17" viewBox="0 0 16 17" fill="none" xmlns="http://www.w3.org/2000/svg">
<path d="M8.5 13.1668C8.5 13.0342 8.44732 12.907 8.35355 12.8133C8.25978 12.7195 8.13261 12.6668 8 12.6668H4C3.9558 12.6668 3.9134 12.6493 3.88215 12.618C3.85089 12.5868 3.83333 12.5444 3.83333 12.5002V4.50016C3.83333 4.45596 3.85089 4.41357 3.88215 4.38231C3.9134 4.35106 3.9558 4.3335 4 4.3335H8C8.13261 4.3335 8.25978 4.28082 8.35355 4.18705C8.44732 4.09328 8.5 3.9661 8.5 3.8335C8.5 3.70089 8.44732 3.57371 8.35355 3.47994C8.25978 3.38617 8.13261 3.3335 8 3.3335H4C3.356 3.3335 2.83333 3.85616 2.83333 4.50016V12.5002C2.83333 12.8096 2.95625 13.1063 3.17504 13.3251C3.39383 13.5439 3.69058 13.6668 4 13.6668H8C8.13261 13.6668 8.25978 13.6142 8.35355 13.5204C8.44732 13.4266 8.5 13.2994 8.5 13.1668Z" fill="#FF3C3D"/>
<path d="M5.59168 9.24318C5.59168 9.41999 5.66192 9.58956 5.78694 9.71459C5.91197 9.83961 6.08154 9.90985 6.25835 9.90985H9.49568C9.51124 10.1467 9.53035 10.3836 9.55302 10.6205L9.57302 10.8238C9.58046 10.9005 9.60629 10.9742 9.6483 11.0387C9.6903 11.1032 9.74726 11.1567 9.81432 11.1945C9.88139 11.2323 9.95659 11.2534 10.0335 11.2559C10.1105 11.2585 10.1869 11.2425 10.2563 11.2092C11.4754 10.6257 12.5787 9.82634 13.513 8.84985L13.533 8.82918C13.619 8.73977 13.667 8.62055 13.667 8.49651C13.667 8.37248 13.619 8.25326 13.533 8.16385L13.513 8.14318C12.5787 7.16669 11.4754 6.36736 10.2563 5.78385C10.1869 5.75057 10.1105 5.73452 10.0335 5.73708C9.95659 5.73964 9.88139 5.76072 9.81432 5.79854C9.74726 5.83636 9.6903 5.8898 9.6483 5.95432C9.60629 6.01884 9.58046 6.09255 9.57302 6.16918L9.55302 6.37251C9.53035 6.60896 9.51124 6.84585 9.49568 7.08318H6.25835C6.08154 7.08318 5.91197 7.15342 5.78694 7.27844C5.66192 7.40347 5.59168 7.57304 5.59168 7.74985V9.24318Z" fill="#FF3C3D"/>
</svg>
