<svg width="24" height="24" viewBox="0 0 24 24" fill="none" xmlns="http://www.w3.org/2000/svg">
<rect width="24" height="24" rx="2" fill="#E42575"/>
<path d="M15.7536 9.54596L16.8079 10.6918C16.9286 10.8205 17.0356 10.9264 17.0789 10.9866C17.3942 11.2764 17.5709 11.6681 17.5707 12.0764C17.5411 12.5579 17.2018 12.8859 16.8876 13.2367L16.1498 14.038L15.765 14.4531C15.7512 14.4675 15.7423 14.4851 15.7394 14.504C15.7365 14.5229 15.7397 14.5421 15.7487 14.5594C15.7577 14.5766 15.7719 14.591 15.7898 14.6009C15.8077 14.6108 15.8284 14.6157 15.8492 14.615H19.6952C20.2826 14.615 21.0226 15.0717 20.9794 15.765C20.9782 16.0802 20.8403 16.382 20.5959 16.6048C20.3515 16.8277 20.0203 16.9534 19.6746 16.9544H13.6519C13.2557 16.9544 12.19 16.9939 11.8918 16.1532C11.8283 15.9775 11.8197 15.7893 11.8668 15.6094C11.9535 15.3433 12.0906 15.0932 12.272 14.8703C12.5749 14.4552 12.9028 14.0401 13.2261 13.6374C13.6428 13.1101 14.0709 12.5995 14.4921 12.0618C14.5071 12.0443 14.5152 12.0227 14.5152 12.0005C14.5152 11.9784 14.5071 11.9568 14.4921 11.9393L12.962 10.2787C12.952 10.2667 12.9391 10.2569 12.9243 10.2502C12.9095 10.2435 12.8932 10.24 12.8766 10.24C12.86 10.24 12.8437 10.2435 12.8289 10.2502C12.8141 10.2569 12.8012 10.2667 12.7912 10.2787C12.3813 10.7831 10.5871 13.0167 10.2045 13.4692C9.82196 13.9217 8.87928 13.9466 8.35784 13.4692L5.96469 11.2792C5.9494 11.2653 5.9299 11.2557 5.90866 11.2519C5.88743 11.248 5.86541 11.25 5.84541 11.2575C5.8254 11.2651 5.80831 11.2779 5.7963 11.2943C5.7843 11.3108 5.77792 11.3301 5.77797 11.3498V15.5616C5.7836 15.8604 5.68652 16.1535 5.50032 16.3995C5.31412 16.6455 5.04814 16.8323 4.73964 16.9337C4.54253 16.9962 4.33187 17.0149 4.12523 16.9881C3.91858 16.9614 3.72195 16.89 3.55172 16.7799C3.38149 16.6698 3.2426 16.5242 3.14663 16.3553C3.05065 16.1863 3.00038 15.9989 3 15.8086V8.23614C3.01372 7.96325 3.12143 7.70123 3.30783 7.48734C3.49423 7.27344 3.74983 7.11854 4.03833 7.04464C4.28578 6.98454 4.54628 6.98514 4.7934 7.04638C5.04052 7.10762 5.2655 7.22733 5.44553 7.39337L9.12522 10.752C9.13619 10.7622 9.14954 10.7701 9.16425 10.775C9.179 10.78 9.19473 10.782 9.21035 10.7808C9.22603 10.7796 9.24116 10.7753 9.25478 10.7682C9.2684 10.761 9.28013 10.7513 9.28916 10.7395L11.9032 7.44111C12.0239 7.30721 12.1754 7.199 12.3469 7.12406C12.5184 7.04912 12.7058 7.00926 12.896 7.00727H19.6952C19.8812 7.00755 20.0651 7.04405 20.2345 7.11432C20.4038 7.18459 20.5548 7.28702 20.6772 7.41475C20.7996 7.54248 20.8907 7.69257 20.9444 7.85499C20.9981 8.01741 21.0131 8.1884 20.9885 8.35653C20.9406 8.6482 20.7783 8.91412 20.5316 9.10498C20.285 9.29585 19.9708 9.39868 19.6473 9.39442H15.8402C15.821 9.39485 15.8024 9.39995 15.7861 9.40917C15.7699 9.4184 15.7566 9.43143 15.7478 9.44691C15.739 9.46238 15.7349 9.47973 15.7359 9.49715C15.7369 9.51458 15.743 9.53143 15.7536 9.54596Z" fill="black"/>
</svg>
