<svg width="16" height="17" viewBox="0 0 16 17" fill="none" xmlns="http://www.w3.org/2000/svg">
<path d="M4.23762 4.73762C4.38981 4.58547 4.5962 4.5 4.8114 4.5C5.0266 4.5 5.23299 4.58547 5.38518 4.73762L8.2549 7.60734L11.1246 4.73762C11.2777 4.58978 11.4827 4.50798 11.6955 4.50983C11.9083 4.51168 12.1118 4.59703 12.2623 4.7475C12.4128 4.89798 12.4981 5.10153 12.5 5.31432C12.5018 5.52711 12.42 5.73212 12.2722 5.88518L9.40246 8.7549L12.2722 11.6246C12.42 11.7777 12.5018 11.9827 12.5 12.1955C12.4981 12.4083 12.4128 12.6118 12.2623 12.7623C12.1118 12.9128 11.9083 12.9981 11.6955 13C11.4827 13.0018 11.2777 12.92 11.1246 12.7722L8.2549 9.90246L5.38518 12.7722C5.23212 12.92 5.02711 13.0018 4.81432 13C4.60153 12.9981 4.39798 12.9128 4.2475 12.7623C4.09703 12.6118 4.01168 12.4083 4.00983 12.1955C4.00798 11.9827 4.08978 11.7777 4.23762 11.6246L7.10734 8.7549L4.23762 5.88518C4.08547 5.73299 4 5.5266 4 5.3114C4 5.0962 4.08547 4.88981 4.23762 4.73762Z" fill="#FF3C3D"/>
</svg>
