<svg width="16" height="16" viewBox="0 0 16 16" fill="none" xmlns="http://www.w3.org/2000/svg">
<path d="M13.0198 4.27302C13.2125 4.45517 13.3249 4.70637 13.3324 4.9714C13.3399 5.23644 13.2419 5.4936 13.0598 5.68635L7.39313 11.6864C7.30129 11.7834 7.19092 11.8611 7.06856 11.9148C6.94619 11.9685 6.8143 11.9971 6.68068 11.999C6.54707 12.0008 6.41443 11.9759 6.29061 11.9256C6.1668 11.8754 6.05431 11.8008 5.95979 11.7064L2.9598 8.70635C2.78316 8.51679 2.68699 8.26606 2.69156 8.00699C2.69613 7.74792 2.80108 7.50074 2.9843 7.31752C3.16752 7.13431 3.4147 7.02936 3.67377 7.02479C3.93283 7.02022 4.18356 7.11638 4.37313 7.29302L6.64646 9.56502L11.6065 4.31302C11.7886 4.12035 12.0398 4.0079 12.3048 4.0004C12.5699 3.9929 12.827 4.09096 13.0198 4.27302Z" fill="#6366F1"/>
</svg>
