<svg width="24" height="24" viewBox="0 0 24 24" fill="none" xmlns="http://www.w3.org/2000/svg">
<rect width="24" height="24" rx="12" fill="white"/>
<g clip-path="url(#clip0_1747_23373)">
<path d="M11.9998 16.7027C15.3689 16.7027 18.1011 13.9705 18.1011 10.6013C18.1011 7.23218 15.3689 4.5 11.9998 4.5C8.63062 4.5 5.89844 7.23218 5.89844 10.6013C5.89844 13.9705 8.63062 16.7027 11.9998 16.7027Z" fill="#010110"/>
<path d="M11.9997 20.2499C14.3024 20.2499 16.1694 19.8569 16.1694 19.3749C16.1694 18.8929 14.3036 18.5 11.9997 18.5C9.69587 18.5 7.83008 18.8929 7.83008 19.3749C7.83008 19.8569 9.69587 20.2499 11.9997 20.2499Z" fill="#010110"/>
</g>
<defs>
<clipPath id="clip0_1747_23373">
<rect width="12.2027" height="15.75" fill="white" transform="translate(5.89844 4.5)"/>
</clipPath>
</defs>
</svg>
