<svg width="32" height="32" viewBox="0 0 32 32" fill="none" xmlns="http://www.w3.org/2000/svg">
<path d="M20.9654 4.46484H11.065C7.41986 4.46484 4.46484 7.41986 4.46484 11.065V20.9654C4.46484 24.6105 7.41986 27.5656 11.065 27.5656H20.9654C24.6105 27.5656 27.5656 24.6105 27.5656 20.9654V11.065C27.5656 7.41986 24.6105 4.46484 20.9654 4.46484Z" stroke="#6E788A" stroke-width="1.33333"/>
<path d="M16.0165 21.8236V21.8071M12.7197 12.6774C12.9755 11.0966 14.3665 10.2402 16.0165 10.2402C17.6666 10.2402 18.7985 11.3491 19.1021 12.2318C19.4041 13.1146 19.3397 14.4495 18.5032 15.2168C17.6666 15.9841 17.2277 15.7382 16.4752 16.5368C16.289 16.7513 16.1346 16.9913 16.0165 17.2497" stroke="#6E788A" stroke-width="1.33333" stroke-linecap="round"/>
</svg>
