<svg width="16" height="16" viewBox="0 0 16 16" fill="none" xmlns="http://www.w3.org/2000/svg">
<path d="M7.63383 1.00617C7.97927 0.959373 8.2691 1.18889 8.54313 1.34876C9.33306 1.80956 10.1043 2.29957 10.8869 2.77163L13.4313 4.31181C13.9338 4.61549 13.9882 4.69718 13.9855 5.2962L13.9543 10.8561C13.9533 11.3001 13.9687 11.7505 13.946 12.1939C13.9232 12.6387 13.621 12.7155 13.2615 12.926L10.5533 14.4845C9.64047 15.0246 9.64556 15.2414 8.62438 14.6325C8.22393 14.3937 7.82681 14.1517 7.42235 13.9187C7.25149 13.825 7.0867 13.7219 6.91883 13.6237C6.2005 13.2036 6.12787 13.2214 6.12782 12.453L6.12743 10.9117C6.12709 10.7354 6.1197 10.5561 6.13355 10.3803C6.17432 9.86229 6.756 10.3754 6.98344 10.5147L8.85852 11.6433C9.40026 11.9636 9.52227 11.9617 10.039 11.6479L10.5221 11.3557C11.3813 10.8448 11.3429 10.9558 11.3405 9.88402L11.3404 7.29967C11.3403 6.4953 11.4727 6.46234 10.6753 6.00413L7.53874 4.13762C6.92054 3.77073 6.96831 3.87236 6.96821 3.22273L6.9688 1.83206C6.96924 1.40058 7.08626 1.07832 7.63383 1.00617Z" fill="url(#paint0_linear_1022_15948)"/>
<path d="M2.71274 3.29124C2.99773 3.27978 3.17128 3.40305 3.40101 3.54093L8.63854 6.68721C8.90478 6.84384 9.23382 7.02064 9.48382 7.18529C9.79935 7.39312 9.744 7.74232 9.74395 8.05884L9.74351 9.37661C9.74478 9.66828 9.80978 10.0057 9.44026 10.1222C9.35623 10.0951 9.28257 10.0498 9.20715 10.0068C8.56361 9.62886 7.9347 9.22699 7.29732 8.84012L3.0638 6.29506C2.70647 6.08081 2.09705 5.83286 2.04728 5.43058C2.01588 5.17673 1.99517 4.07807 2.04992 3.842C2.11786 3.54904 2.39594 3.32049 2.71274 3.29124Z" fill="url(#paint1_linear_1022_15948)"/>
<path d="M2.02811 6.46472L3.72535 7.46236C4.36434 7.84401 4.48053 7.89398 4.47201 8.58321L4.47133 12.7817C4.47128 13.5611 4.66362 14.0101 3.91446 14.464C3.56672 14.6698 3.24453 14.9911 2.80645 14.979C2.40019 14.9677 2.07022 14.6438 2.02514 14.2741C1.9998 14.0663 2.02833 13.6901 2.02832 13.465L2.02803 7.02689C2.02793 6.83982 2.02113 6.65165 2.02811 6.46472Z" fill="url(#paint2_linear_1022_15948)"/>
<defs>
<linearGradient id="paint0_linear_1022_15948" x1="2.01465" y1="8" x2="13.9856" y2="8" gradientUnits="userSpaceOnUse">
<stop stop-color="#6366F1"/>
<stop offset="1" stop-color="#FF6A00"/>
</linearGradient>
<linearGradient id="paint1_linear_1022_15948" x1="2.01465" y1="8" x2="13.9856" y2="8" gradientUnits="userSpaceOnUse">
<stop stop-color="#6366F1"/>
<stop offset="1" stop-color="#FF6A00"/>
</linearGradient>
<linearGradient id="paint2_linear_1022_15948" x1="2.01465" y1="8" x2="13.9856" y2="8" gradientUnits="userSpaceOnUse">
<stop stop-color="#6366F1"/>
<stop offset="1" stop-color="#FF6A00"/>
</linearGradient>
</defs>
</svg>
