<svg width="16" height="17" viewBox="0 0 16 17" fill="none" xmlns="http://www.w3.org/2000/svg">
<g clip-path="url(#clip0_2080_30921)">
<path d="M7.33333 4.96667V1.5L12 7.56667L7.33333 13.6333V10.08C4 10.08 1.66667 12.9667 0 16C0 6 2.66667 5.83333 7.33333 4.96667ZM10.3333 3.1V0.5L16 7.56667L10.3333 14.6333V12.0333L14 7.56667L10.3333 3.1Z" fill="#9CA3AF"/>
<path d="M7.33333 4.96667V1.5L12 7.56667L7.33333 13.6333V10.08C4 10.08 1.66667 12.9667 0 16C0 6 2.66667 5.83333 7.33333 4.96667ZM10.3333 3.1V0.5L16 7.56667L10.3333 14.6333V12.0333L14 7.56667L10.3333 3.1Z" fill="#88A4C2"/>
</g>
<defs>
<clipPath id="clip0_2080_30921">
<rect width="16" height="16" fill="white" transform="translate(0 0.5)"/>
</clipPath>
</defs>
</svg>
