<svg width="28" height="28" viewBox="0 0 28 28" fill="none" xmlns="http://www.w3.org/2000/svg">
<rect width="28" height="28" rx="6" fill="white" fill-opacity="0.8"/>
<path d="M14.1668 12.125C13.6253 12.125 13.106 12.3401 12.7231 12.723C12.3402 13.1059 12.1251 13.6252 12.1251 14.1667C12.1251 14.7081 12.3402 15.2275 12.7231 15.6103C13.106 15.9932 13.6253 16.2083 14.1668 16.2083C14.7083 16.2083 15.2276 15.9932 15.6105 15.6103C15.9933 15.2275 16.2084 14.7081 16.2084 14.1667C16.2084 13.6252 15.9933 13.1059 15.6105 12.723C15.2276 12.3401 14.7083 12.125 14.1668 12.125ZM14.1668 17.5694C13.2643 17.5694 12.3988 17.2109 11.7606 16.5728C11.1225 15.9346 10.764 15.0691 10.764 14.1667C10.764 13.2642 11.1225 12.3987 11.7606 11.7605C12.3988 11.1224 13.2643 10.7639 14.1668 10.7639C15.0692 10.7639 15.9348 11.1224 16.5729 11.7605C17.211 12.3987 17.5696 13.2642 17.5696 14.1667C17.5696 15.0691 17.211 15.9346 16.5729 16.5728C15.9348 17.2109 15.0692 17.5694 14.1668 17.5694ZM14.1668 9.0625C10.764 9.0625 7.85803 11.179 6.68066 14.1667C7.85803 17.1543 10.764 19.2708 14.1668 19.2708C17.5696 19.2708 20.4755 17.1543 21.6529 14.1667C20.4755 11.179 17.5696 9.0625 14.1668 9.0625Z" fill="black"/>
</svg>
