<svg width="17" height="16" viewBox="0 0 17 16" fill="none" xmlns="http://www.w3.org/2000/svg">
<path d="M7.13953 11.2319C6.91633 11.1764 6.68359 11.1898 6.46551 11.2707C6.24742 11.3516 6.05198 11.497 5.89949 11.6919L3.19676 15.1464C3.1491 15.2044 3.08615 15.2434 3.01748 15.2575C2.9488 15.2715 2.87814 15.2599 2.81621 15.2242C2.75428 15.1886 2.70447 15.131 2.67434 15.0601C2.6442 14.9892 2.63539 14.9089 2.64923 14.8314L3.55059 10.3407C3.60146 10.0875 3.59163 9.82407 3.52214 9.57776C3.45265 9.33145 3.32603 9.11127 3.15544 8.94012L0.128428 5.9072C0.0772598 5.85376 0.0430703 5.78267 0.0310761 5.70479C0.0190822 5.62691 0.029942 5.54651 0.061999 5.47585C0.0940558 5.4052 0.14555 5.34817 0.208624 5.31347C0.271698 5.27877 0.34289 5.2683 0.411338 5.28366L4.36757 6.26853C4.59077 6.32403 4.82352 6.31063 5.0416 6.22973C5.25968 6.14883 5.45513 6.00339 5.60761 5.80854L8.30978 2.35374C8.35733 2.29495 8.42047 2.25531 8.4895 2.24088C8.55854 2.22646 8.62965 2.23805 8.69194 2.27388C8.75423 2.30971 8.80425 2.3678 8.83433 2.43923C8.8644 2.51067 8.87287 2.59151 8.85844 2.66935L7.95595 7.15938C7.90509 7.41269 7.91497 7.67624 7.98457 7.92262C8.05416 8.16899 8.18092 8.38919 8.35166 8.5603L11.3787 11.5932C11.4298 11.6467 11.464 11.7178 11.476 11.7956C11.488 11.8735 11.4772 11.9539 11.4451 12.0246C11.413 12.0952 11.3616 12.1523 11.2985 12.187C11.2354 12.2217 11.1642 12.2321 11.0958 12.2168L7.13953 11.2319Z" fill="#34C759"/>
<path d="M12.7773 6.39996C12.7461 6.26154 12.683 6.13521 12.5945 6.03413C12.5061 5.93304 12.3955 5.86089 12.2744 5.82518L10.1272 5.1924C10.0906 5.18051 10.0583 5.1553 10.0354 5.12057C10.0124 5.08585 10 5.04352 10 5C10 4.95648 10.0124 4.91415 10.0354 4.87942C10.0583 4.8447 10.0906 4.81949 10.1272 4.8076L12.2744 4.17442C12.3955 4.13874 12.506 4.06665 12.5944 3.96564C12.6829 3.86463 12.746 3.73839 12.7773 3.60003L13.331 1.1461C13.3413 1.10406 13.3634 1.06703 13.3938 1.04066C13.4242 1.01428 13.4614 1 13.4995 1C13.5377 1 13.5749 1.01428 13.6053 1.04066C13.6357 1.06703 13.6578 1.10406 13.6681 1.1461L14.2214 3.60003C14.2527 3.73846 14.3158 3.86479 14.4042 3.96587C14.4927 4.06696 14.6032 4.13911 14.7243 4.17482L16.8715 4.8072C16.9085 4.81884 16.941 4.84401 16.9642 4.87883C16.9874 4.91366 17 4.95623 17 5C17 5.04377 16.9874 5.08634 16.9642 5.12117C16.941 5.15599 16.9085 5.18116 16.8715 5.19279L14.7243 5.82518C14.6032 5.86089 14.4927 5.93304 14.4042 6.03413C14.3158 6.13521 14.2527 6.26154 14.2214 6.39996L13.6677 8.8539C13.6574 8.89594 13.6354 8.93297 13.605 8.95934C13.5745 8.98572 13.5374 9 13.4992 9C13.461 9 13.4239 8.98572 13.3934 8.95934C13.363 8.93297 13.341 8.89594 13.3307 8.8539L12.7773 6.39996Z" fill="#34C759"/>
</svg>
