<svg width="1440" height="755" viewBox="0 0 1440 755" fill="none" xmlns="http://www.w3.org/2000/svg">
<g clip-path="url(#clip0_994_23518)">
<path d="M718.79 -565L720 118.286V416.085L718.852 1099" stroke="white" stroke-opacity="0.03" stroke-width="1.02503" stroke-linecap="round" stroke-linejoin="round"/>
<path d="M168.424 1251L620.773 416.235V52.2185L166.991 -783" stroke="white" stroke-opacity="0.03" stroke-width="1.02503" stroke-linecap="round" stroke-linejoin="round"/>
<path d="M1271.8 -783L819.227 52.2185V416.235L1270.44 1251" stroke="white" stroke-opacity="0.03" stroke-width="1.02503" stroke-linecap="round" stroke-linejoin="round"/>
<path d="M-383.597 744L325.513 416.781V52.2779L-383.391 -274" stroke="white" stroke-opacity="0.03" stroke-width="1.02503" stroke-linecap="round" stroke-linejoin="round"/>
<path d="M-383.597 525L29.042 416.334V52.3881L-383.597 -56" stroke="white" stroke-opacity="0.03" stroke-width="1.02503" stroke-linecap="round" stroke-linejoin="round"/>
<path d="M-383.597 575L128.269 417.365V52.2359L-383.597 -105" stroke="white" stroke-opacity="0.03" stroke-width="1.02503" stroke-linecap="round" stroke-linejoin="round"/>
<path d="M-383.597 641L226.286 416.115V52.305L-383.597 -172" stroke="white" stroke-opacity="0.03" stroke-width="1.02503" stroke-linecap="round" stroke-linejoin="round"/>
<path d="M-383.597 913L423.529 416.813V52.9164L-383.597 -442" stroke="white" stroke-opacity="0.03" stroke-width="1.02503" stroke-linecap="round" stroke-linejoin="round"/>
<path d="M-382.954 1251L522.756 416.228V52.2105L-383.597 -781" stroke="white" stroke-opacity="0.03" stroke-width="1.02503" stroke-linecap="round" stroke-linejoin="round"/>
<path d="M1823.6 525L1410.96 416.305V52.4175L1823.6 -56" stroke="white" stroke-opacity="0.03" stroke-width="1.02503" stroke-linecap="round" stroke-linejoin="round"/>
<path d="M1823.6 -105L1311.74 52.2761L1311.73 417.316L1823.6 575" stroke="white" stroke-opacity="0.03" stroke-width="1.02503" stroke-linecap="round" stroke-linejoin="round"/>
<path d="M1823.41 -172L1213.72 52.3601L1213.71 416.001L1823.6 641" stroke="white" stroke-opacity="0.03" stroke-width="1.02503" stroke-linecap="round" stroke-linejoin="round"/>
<path d="M1823.6 -274L1114.5 52.5005L1114.49 416.738L1823.42 744" stroke="white" stroke-opacity="0.03" stroke-width="1.02503" stroke-linecap="round" stroke-linejoin="round"/>
<path d="M1823.6 -444L1016.47 52.2377V416.605L1823.42 914" stroke="white" stroke-opacity="0.03" stroke-width="1.02503" stroke-linecap="round" stroke-linejoin="round"/>
<path d="M1823.6 -782L917.244 52.4997V416.43L1821.4 1251" stroke="white" stroke-opacity="0.03" stroke-width="1.02503" stroke-linecap="round" stroke-linejoin="round"/>
<path d="M-395.365 325H1811.11" stroke="white" stroke-opacity="0.03" stroke-width="1.02503" stroke-linecap="round" stroke-linejoin="round"/>
<path d="M-395.365 234H1811.11" stroke="white" stroke-opacity="0.03" stroke-width="1.02503" stroke-linecap="round" stroke-linejoin="round"/>
<path d="M-395.365 143H1811.11" stroke="white" stroke-opacity="0.03" stroke-width="1.02503" stroke-linecap="round" stroke-linejoin="round"/>
<path d="M-395.365 52H1811.11" stroke="white" stroke-opacity="0.03" stroke-width="1.02503" stroke-linecap="round" stroke-linejoin="round"/>
<path d="M1810.63 416H-395.363" stroke="white" stroke-opacity="0.03" stroke-width="1.02503" stroke-linecap="round" stroke-linejoin="round"/>
<path d="M1811.11 422.692H-395.365" stroke="white" stroke-opacity="0.03" stroke-width="1.02503" stroke-linecap="round" stroke-linejoin="round"/>
<path d="M1811.11 428.813H-395.365" stroke="white" stroke-opacity="0.03" stroke-width="1.02503" stroke-linecap="round" stroke-linejoin="round"/>
<path d="M1811.11 435.55H-395.365" stroke="white" stroke-opacity="0.03" stroke-width="1.02503" stroke-linecap="round" stroke-linejoin="round"/>
<path d="M1811.11 442.967H-395.365" stroke="white" stroke-opacity="0.03" stroke-width="1.02503" stroke-linecap="round" stroke-linejoin="round"/>
<path d="M1811.11 451.201H-395.365" stroke="white" stroke-opacity="0.03" stroke-width="1.02503" stroke-linecap="round" stroke-linejoin="round"/>
<path d="M1811.11 460.387H-395.365" stroke="white" stroke-opacity="0.03" stroke-width="1.02503" stroke-linecap="round" stroke-linejoin="round"/>
<path d="M1811.11 470.71H-395.365" stroke="white" stroke-opacity="0.03" stroke-width="1.02503" stroke-linecap="round" stroke-linejoin="round"/>
<path d="M1811.11 482.379H-395.365" stroke="white" stroke-opacity="0.03" stroke-width="1.02503" stroke-linecap="round" stroke-linejoin="round"/>
<path d="M1811.11 495.683H-395.365" stroke="white" stroke-opacity="0.03" stroke-width="1.02503" stroke-linecap="round" stroke-linejoin="round"/>
<path d="M1811.11 510.981H-395.365" stroke="white" stroke-opacity="0.03" stroke-width="1.02503" stroke-linecap="round" stroke-linejoin="round"/>
<path d="M1811.11 528.789H-395.365" stroke="white" stroke-opacity="0.03" stroke-width="1.02503" stroke-linecap="round" stroke-linejoin="round"/>
<path d="M1811.11 549.737H-395.365" stroke="white" stroke-opacity="0.03" stroke-width="1.02503" stroke-linecap="round" stroke-linejoin="round"/>
<path d="M1811.11 579.76H-395.365" stroke="white" stroke-opacity="0.03" stroke-width="1.02503" stroke-linecap="round" stroke-linejoin="round"/>
<path d="M1811.5 633H-395.697" stroke="white" stroke-opacity="0.03" stroke-width="1.02503" stroke-linecap="round" stroke-linejoin="round"/>
<path d="M1811.11 721.02H-395.365" stroke="white" stroke-opacity="0.03" stroke-width="1.02503" stroke-linecap="round" stroke-linejoin="round"/>
</g>
<defs>
<clipPath id="clip0_994_23518">
<rect width="1440" height="755" fill="white"/>
</clipPath>
</defs>
</svg>
