<?xml version="1.0" standalone="no"?><!DOCTYPE svg PUBLIC "-//W3C//DTD SVG 1.1//EN" "http://www.w3.org/Graphics/SVG/1.1/DTD/svg11.dtd"><svg t="1742984647154" class="icon" viewBox="0 0 1025 1024" version="1.1" xmlns="http://www.w3.org/2000/svg" p-id="5278" xmlns:xlink="http://www.w3.org/1999/xlink" width="200.1953125" height="200"><path d="M511.488 31.744c-265.216 0-480.256 215.04-480.256 480.256s215.04 480.256 480.256 480.256 480.256-215.04 480.256-480.256-215.04-480.256-480.256-480.256zM634.88 697.856c-25.088 18.432-55.808 32.768-92.16 35.328v59.392H479.744V732.16c-38.912-4.608-66.56-15.872-90.112-34.816-31.232-24.576-40.448-51.2-46.592-84.48l95.232-23.552c0 31.232 32.256 67.072 80.896 67.072 28.672 0 62.976-13.824 62.976-51.712 0-30.72-32.768-52.736-67.584-60.416-36.864-7.68-110.08-32.768-130.56-54.784-20.48-22.016-26.112-53.76-26.112-90.112 0-31.232 13.824-62.976 36.864-82.432 22.016-18.432 48.128-30.72 84.992-35.328v-50.688H542.72V281.6c34.816 3.584 63.488 14.848 85.504 33.28 27.136 23.552 41.472 53.76 41.472 71.68l-95.232 22.528c0-23.552-35.328-52.736-59.392-52.736-31.232 0-55.808 8.704-55.808 47.616 0 28.16 21.504 37.376 58.368 49.152 61.952 19.968 109.056 45.568 130.56 67.584 21.504 22.528 32.256 50.176 32.256 84.48 0 41.984-15.872 70.144-45.568 92.672z" fill="#515151" p-id="5279"></path></svg>