<svg width="26" height="26" viewBox="0 0 26 26" fill="none" xmlns="http://www.w3.org/2000/svg">
<g clip-path="url(#clip0_2217_50988)">
<path d="M13.0009 25.037C19.649 25.037 25.0379 19.648 25.0379 12.9999C25.0379 6.35187 19.649 0.962891 13.0009 0.962891C6.35286 0.962891 0.963875 6.35187 0.963875 12.9999C0.961166 15.3809 1.66677 17.7089 2.99091 19.6877C3.13736 19.9064 2.86292 21.2882 2.16758 23.8333C4.71301 23.1379 6.09486 22.8635 6.31313 23.0099C8.29195 24.3341 10.6199 25.0397 13.0009 25.037Z" stroke="white" stroke-linejoin="round"/>
<path d="M8.54941 10.4846H18.6479M11.7043 8.02783L9.95052 17.9728M15.9173 8.02783L14.1635 17.9728M7.3457 15.4077H17.4442" stroke="white" stroke-linecap="round" stroke-linejoin="round"/>
</g>
<defs>
<clipPath id="clip0_2217_50988">
<rect width="26" height="26" fill="white"/>
</clipPath>
</defs>
</svg>
