<svg width="25" height="24" viewBox="0 0 25 24" fill="none" xmlns="http://www.w3.org/2000/svg">
<path d="M16.3338 6H18.3783L13.9116 11.0831L19.1663 18H15.0519L11.8294 13.8049L8.14207 18H6.0963L10.8739 12.5631L5.83301 6H10.0519L12.9648 9.83446L16.3338 6ZM15.6162 16.7815H16.7491L9.43628 7.15446H8.22056L15.6162 16.7815Z" fill="#9CA3AF"/>
<path d="M16.3338 6H18.3783L13.9116 11.0831L19.1663 18H15.0519L11.8294 13.8049L8.14207 18H6.0963L10.8739 12.5631L5.83301 6H10.0519L12.9648 9.83446L16.3338 6ZM15.6162 16.7815H16.7491L9.43628 7.15446H8.22056L15.6162 16.7815Z" fill="#88A4C2"/>
</svg>
