<svg width="17" height="16" viewBox="0 0 17 16" fill="none" xmlns="http://www.w3.org/2000/svg">
<path d="M3.25 15C2.78587 15 2.34075 14.8156 2.01256 14.4874C1.68437 14.1592 1.5 13.7141 1.5 13.25V10.75C1.5 10.5511 1.57902 10.3603 1.71967 10.2197C1.86032 10.079 2.05109 10 2.25 10C2.44891 10 2.63968 10.079 2.78033 10.2197C2.92098 10.3603 3 10.5511 3 10.75V13.25C3 13.388 3.112 13.5 3.25 13.5H13.75C13.8163 13.5 13.8799 13.4737 13.9268 13.4268C13.9737 13.3799 14 13.3163 14 13.25V10.75C14 10.5511 14.079 10.3603 14.2197 10.2197C14.3603 10.079 14.5511 10 14.75 10C14.9489 10 15.1397 10.079 15.2803 10.2197C15.421 10.3603 15.5 10.5511 15.5 10.75V13.25C15.5 13.7141 15.3156 14.1592 14.9874 14.4874C14.6592 14.8156 14.2141 15 13.75 15H3.25Z" fill="#6366F1"/>
<path d="M12.28 5.72032C12.3496 5.78992 12.4048 5.87255 12.4425 5.96348C12.4802 6.05442 12.4996 6.15189 12.4996 6.25032C12.4996 6.34875 12.4802 6.44621 12.4425 6.53715C12.4048 6.62809 12.3496 6.71072 12.28 6.78032C12.2104 6.84992 12.1278 6.90513 12.0369 6.94279C11.9459 6.98046 11.8485 6.99985 11.75 6.99985C11.6516 6.99985 11.5541 6.98046 11.4632 6.94279C11.3723 6.90513 11.2896 6.84992 11.22 6.78032L9.25002 4.81132V10.5003C9.25002 10.6992 9.171 10.89 9.03035 11.0306C8.8897 11.1713 8.69893 11.2503 8.50002 11.2503C8.30111 11.2503 8.11034 11.1713 7.96969 11.0306C7.82904 10.89 7.75002 10.6992 7.75002 10.5003V4.81132L5.78002 6.78032C5.71042 6.84992 5.62779 6.90513 5.53686 6.94279C5.44592 6.98046 5.34845 6.99985 5.25002 6.99985C5.15159 6.99985 5.05413 6.98046 4.96319 6.94279C4.87225 6.90513 4.78962 6.84992 4.72002 6.78032C4.65042 6.71072 4.59521 6.62809 4.55754 6.53715C4.51988 6.44621 4.50049 6.34875 4.50049 6.25032C4.50049 6.15189 4.51988 6.05442 4.55754 5.96348C4.59521 5.87255 4.65042 5.78992 4.72002 5.72032L7.97002 2.47032C8.11065 2.32987 8.30127 2.25098 8.50002 2.25098C8.69877 2.25098 8.8894 2.32987 9.03002 2.47032L12.28 5.72032Z" fill="#6366F1"/>
</svg>
