<svg width="16" height="17" viewBox="0 0 16 17" fill="none" xmlns="http://www.w3.org/2000/svg">
<path fill-rule="evenodd" clip-rule="evenodd" d="M14.6777 3.08285L14.2843 4.13685C14.1231 4.51456 13.9604 4.89168 13.7963 5.26819C13.3443 6.23819 12.7217 7.37219 11.9783 8.15485C11.2677 8.90152 10.1957 9.59019 9.337 10.0789C9.44999 10.6207 9.42627 11.1822 9.26798 11.7125C9.10969 12.2429 8.82181 12.7256 8.43034 13.1169C6.917 14.6302 5.22634 14.6302 3.969 14.2569C3.01567 13.9729 2.23167 13.4582 1.48234 12.8249C1.45153 12.799 1.42709 12.7663 1.41089 12.7295C1.3947 12.6927 1.38718 12.6526 1.38892 12.6124C1.39066 12.5722 1.40161 12.533 1.42093 12.4977C1.44024 12.4624 1.46741 12.432 1.50034 12.4089L1.83367 12.1675C2.28167 11.8295 2.717 11.4169 2.827 10.8642C2.90345 10.2473 2.94722 9.91107 2.95834 9.85552C3.05034 9.39619 3.245 8.87485 3.717 8.40219C4.10823 8.01082 4.59074 7.723 5.121 7.56472C5.65126 7.40643 6.21259 7.38265 6.75434 7.49552C7.243 6.63752 7.93167 5.56552 8.67834 4.85552C9.461 4.11152 10.595 3.48885 11.565 3.03685L12.6963 2.54819L13.7503 2.15552C13.8795 2.111 14.0186 2.10367 14.1518 2.13436C14.285 2.16506 14.4068 2.23256 14.5035 2.32915C14.6002 2.42575 14.6677 2.54756 14.6985 2.6807C14.7293 2.81384 14.7221 2.95295 14.6777 3.08219V3.08285ZM7.98634 8.02885C8.30465 8.25196 8.58149 8.52902 8.80434 8.84752C9.06567 8.69619 9.33434 8.53219 9.59767 8.35952L9.57767 8.31485C9.46809 8.08422 9.3192 7.87442 9.13767 7.69485C8.97726 7.53434 8.79366 7.39883 8.593 7.29285L8.47367 7.23552C8.301 7.49885 8.13767 7.76752 7.98634 8.02885ZM12.9477 3.88552C12.6923 3.99152 12.4143 4.11219 12.1277 4.24552C11.189 4.68352 10.217 5.23219 9.597 5.82152C9.48794 5.92658 9.3834 6.03623 9.28367 6.15019C9.525 6.28352 9.805 6.47685 10.0803 6.75285C10.3563 7.02819 10.5497 7.30819 10.683 7.54952C10.8021 7.44552 10.9117 7.34107 11.0117 7.23619C11.601 6.61619 12.1497 5.64419 12.5877 4.70485C12.721 4.41819 12.8417 4.14085 12.9477 3.88552Z" fill="#6E788A"/>
</svg>
