<svg width="24" height="25" viewBox="0 0 24 25" fill="none" xmlns="http://www.w3.org/2000/svg">
<rect y="0.5" width="24" height="24" rx="12" fill="#374151"/>
<path d="M6 8.30039C6 7.53039 6.54 6.90039 7.2 6.90039H16.2C16.3591 6.90039 16.5117 6.97414 16.6243 7.10542C16.7368 7.23669 16.8 7.41474 16.8 7.60039V8.30039H7.2V9.00039H17.4C17.5591 9.00039 17.7117 9.07414 17.8243 9.20542C17.9368 9.33669 18 9.51474 18 9.70039V16.7004C18 17.0717 17.8736 17.4278 17.6485 17.6903C17.4235 17.9529 17.1183 18.1004 16.8 18.1004H7.2C6.88174 18.1004 6.57652 17.9529 6.35147 17.6903C6.12643 17.4278 6 17.0717 6 16.7004V8.30039ZM15.9 14.6004C16.1387 14.6004 16.3676 14.4898 16.5364 14.2929C16.7052 14.0959 16.8 13.8289 16.8 13.5504C16.8 13.2719 16.7052 13.0048 16.5364 12.8079C16.3676 12.611 16.1387 12.5004 15.9 12.5004C15.6613 12.5004 15.4324 12.611 15.2636 12.8079C15.0948 13.0048 15 13.2719 15 13.5504C15 13.8289 15.0948 14.0959 15.2636 14.2929C15.4324 14.4898 15.6613 14.6004 15.9 14.6004Z" fill="white"/>
</svg>
