<svg width="17" height="17" viewBox="0 0 17 17" fill="none" xmlns="http://www.w3.org/2000/svg">
<path d="M12.1644 2.5H14.2089L9.74219 7.58308L14.9969 14.5H10.8825L7.65996 10.3049L3.97263 14.5H1.92687L6.70444 9.06308L1.66357 2.5H5.88243L8.79533 6.33446L12.1644 2.5ZM11.4468 13.2815H12.5797L5.26684 3.65446H4.05113L11.4468 13.2815Z" fill="#9CA3AF"/>
<path d="M12.1644 2.5H14.2089L9.74219 7.58308L14.9969 14.5H10.8825L7.65996 10.3049L3.97263 14.5H1.92687L6.70444 9.06308L1.66357 2.5H5.88243L8.79533 6.33446L12.1644 2.5ZM11.4468 13.2815H12.5797L5.26684 3.65446H4.05113L11.4468 13.2815Z" fill="#88A4C2"/>
</svg>
