<svg width="22" height="20" viewBox="0 0 22 20" fill="none" xmlns="http://www.w3.org/2000/svg">
<g filter="url(#filter0_d_440_17804)">
<path d="M15.7366 18.9877C15.4757 18.9877 15.1788 18.9156 14.9088 18.7715L11.0039 16.8173L7.072 18.7715C6.82007 18.9066 6.54115 18.9787 6.24423 18.9787C5.86633 18.9787 5.49743 18.8616 5.20052 18.6364C4.65167 18.2222 4.37274 17.5107 4.49871 16.8533L5.29949 12.6837L2.21334 9.81089C1.73647 9.32459 1.55652 8.63115 1.73647 7.97374L1.74547 7.95573C1.9704 7.2803 2.52825 6.81201 3.20306 6.72195L7.48589 5.93846L9.40236 2.03C9.70828 1.40861 10.3381 1.01236 11.0039 1.01236C11.6967 1.01236 12.3446 1.42662 12.6145 2.03901L14.531 5.93846L18.8138 6.68593C19.4886 6.78499 20.0554 7.2713 20.2444 7.93772C20.4603 8.58612 20.2804 9.29757 19.7945 9.78388L19.7855 9.79288L16.7173 12.6927L17.4911 16.8713C17.6171 17.5378 17.3472 18.2132 16.7983 18.6364C16.4834 18.8616 16.1145 18.9877 15.7366 18.9877Z" fill="#F0B90B"/>
</g>
<defs>
<filter id="filter0_d_440_17804" x="0.917969" y="0.26236" width="20.166" height="19.4753" filterUnits="userSpaceOnUse" color-interpolation-filters="sRGB">
<feFlood flood-opacity="0" result="BackgroundImageFix"/>
<feColorMatrix in="SourceAlpha" type="matrix" values="0 0 0 0 0 0 0 0 0 0 0 0 0 0 0 0 0 0 127 0" result="hardAlpha"/>
<feOffset/>
<feGaussianBlur stdDeviation="0.375"/>
<feComposite in2="hardAlpha" operator="out"/>
<feColorMatrix type="matrix" values="0 0 0 0 0 0 0 0 0 0 0 0 0 0 0 0 0 0 0.25 0"/>
<feBlend mode="normal" in2="BackgroundImageFix" result="effect1_dropShadow_440_17804"/>
<feBlend mode="normal" in="SourceGraphic" in2="effect1_dropShadow_440_17804" result="shape"/>
</filter>
</defs>
</svg>
