<svg width="24" height="24" viewBox="0 0 24 24" fill="none" xmlns="http://www.w3.org/2000/svg">
<path d="M17.6824 22.7852C17.3693 22.7852 17.013 22.6988 16.6891 22.5259L12.0032 20.1808L7.28489 22.5259C6.98257 22.688 6.64786 22.7744 6.29156 22.7744C5.83809 22.7744 5.39541 22.6339 5.03911 22.3637C4.38049 21.8666 4.04578 21.0129 4.19694 20.224L5.15787 15.2205L1.45449 11.7731C0.882248 11.1895 0.666307 10.3574 0.882248 9.5685L0.893045 9.54689C1.16297 8.73638 1.83239 8.17442 2.64216 8.06635L7.78155 7.12616L10.0813 2.43601C10.4484 1.69034 11.2042 1.21484 12.0032 1.21484C12.8346 1.21484 13.6119 1.71196 13.9359 2.44682L16.2356 7.12616L21.375 8.02313C22.1848 8.142 22.865 8.72557 23.0917 9.52527C23.3509 10.3034 23.1349 11.1571 22.5519 11.7407L22.5411 11.7515L18.8593 15.2313L19.7878 20.2456C19.939 21.0453 19.6151 21.8558 18.9565 22.3637C18.5786 22.6339 18.1359 22.7852 17.6824 22.7852Z" fill="#121314"/>
</svg>
