<svg width="22" height="22" viewBox="0 0 22 22" fill="none" xmlns="http://www.w3.org/2000/svg">
<g filter="url(#filter0_d_440_19889)">
<path d="M15.7366 19.9878C15.4757 19.9878 15.1788 19.9157 14.9088 19.7716L11.0039 17.8174L7.072 19.7716C6.82007 19.9067 6.54115 19.9788 6.24423 19.9788C5.86633 19.9788 5.49743 19.8617 5.20052 19.6365C4.65167 19.2223 4.37274 18.5108 4.49871 17.8534L5.29949 13.6838L2.21334 10.811C1.73647 10.3247 1.55652 9.63124 1.73647 8.97383L1.74547 8.95582C1.9704 8.28039 2.52825 7.8121 3.20306 7.72204L7.48589 6.93855L9.40236 3.03009C9.70828 2.4087 10.3381 2.01245 11.0039 2.01245C11.6967 2.01245 12.3446 2.42671 12.6145 3.0391L14.531 6.93855L18.8138 7.68602C19.4886 7.78508 20.0554 8.27139 20.2444 8.93781C20.4603 9.58622 20.2804 10.2977 19.7945 10.784L19.7855 10.793L16.7173 13.6928L17.4911 17.8714C17.6171 18.5378 17.3472 19.2133 16.7983 19.6365C16.4834 19.8617 16.1145 19.9878 15.7366 19.9878Z" stroke="#9CA1AF" stroke-width="1.25" stroke-linecap="round" stroke-linejoin="round" shape-rendering="crispEdges"/>
</g>
<defs>
<filter id="filter0_d_440_19889" x="0.417969" y="0.762451" width="21.166" height="20.4753" filterUnits="userSpaceOnUse" color-interpolation-filters="sRGB">
<feFlood flood-opacity="0" result="BackgroundImageFix"/>
<feColorMatrix in="SourceAlpha" type="matrix" values="0 0 0 0 0 0 0 0 0 0 0 0 0 0 0 0 0 0 127 0" result="hardAlpha"/>
<feOffset/>
<feGaussianBlur stdDeviation="0.3125"/>
<feComposite in2="hardAlpha" operator="out"/>
<feColorMatrix type="matrix" values="0 0 0 0 0 0 0 0 0 0 0 0 0 0 0 0 0 0 0.25 0"/>
<feBlend mode="normal" in2="BackgroundImageFix" result="effect1_dropShadow_440_19889"/>
<feBlend mode="normal" in="SourceGraphic" in2="effect1_dropShadow_440_19889" result="shape"/>
</filter>
</defs>
</svg>
