<svg width="32" height="32" viewBox="0 0 32 32" fill="none" xmlns="http://www.w3.org/2000/svg">
<path d="M5.28656 6.77707C8.00032 7.49074 8.48051 7.94655 9.22865 10.53C9.29845 10.7692 9.52739 10.9353 9.78703 10.9353C10.0481 10.9353 10.2756 10.7692 10.3454 10.53C11.0951 7.94645 11.5739 7.48931 14.2875 6.77707C14.5388 6.71062 14.7133 6.49267 14.7133 6.24548C14.7133 5.99697 14.5388 5.78034 14.2875 5.7139C11.5738 5.00023 11.095 4.54441 10.3454 1.961C10.2756 1.72178 10.0467 1.55566 9.78703 1.55566C9.52599 1.55566 9.29845 1.72178 9.22865 1.961C8.47901 4.54451 8.00021 5.00166 5.28656 5.7139C5.03529 5.78035 4.8608 5.9983 4.8608 6.24548C4.8608 6.494 5.03529 6.71062 5.28656 6.77707Z" fill="white"/>
<path d="M14.9118 24.0402C11.3801 23.1126 10.7017 22.4654 9.72718 19.1044C9.65738 18.8652 9.42844 18.6991 9.16879 18.6991C8.90775 18.6991 8.6802 18.8652 8.61041 19.1044C7.63602 22.4667 6.9576 23.1125 3.42576 24.0402C3.17449 24.1067 3 24.3246 3 24.5718C3 24.8203 3.17449 25.0369 3.42576 25.1034C6.95753 26.031 7.63588 26.6782 8.61041 30.0392C8.68021 30.2784 8.90915 30.4446 9.16879 30.4446C9.42984 30.4446 9.65738 30.2784 9.72718 30.0392C10.7016 26.677 11.3814 26.0312 14.9118 25.1034C15.1631 25.0369 15.3376 24.819 15.3376 24.5718C15.3376 24.3233 15.1631 24.1067 14.9118 24.0402Z" fill="white"/>
<path d="M19.105 5.17418C19.3646 5.17418 19.5937 5.34012 19.6636 5.57913C21.3207 11.295 22.5701 12.4848 28.5738 14.0635C28.8249 14.1299 28.9993 14.3465 28.9996 14.5948C28.9996 14.8419 28.8251 15.0609 28.5738 15.1273L27.5035 15.419C22.4125 16.8705 21.2184 18.2515 19.6636 23.6104L19.6298 23.6963C19.5358 23.8881 19.3332 24.0153 19.105 24.0153L19.01 24.0075C18.8225 23.9776 18.6611 23.8609 18.5803 23.6963L18.5465 23.6104C16.9916 18.2517 15.797 16.8713 10.7066 15.419L9.63499 15.1273C9.38372 15.0609 9.20921 14.8433 9.20921 14.5948C9.2095 14.3478 9.38393 14.1299 9.63499 14.0635C15.6391 12.4846 16.8881 11.295 18.5465 5.57913C18.6163 5.34012 18.8442 5.1743 19.105 5.17418ZM19.1037 9.95413C18.5781 11.0628 17.9458 12.0159 17.0998 12.8213C16.325 13.559 15.4212 14.1224 14.3798 14.5948C15.4212 15.0669 16.325 15.6307 17.0998 16.3682C17.9457 17.1734 18.5794 18.1257 19.105 19.2341C19.6305 18.1256 20.2645 17.1735 21.1103 16.3682C21.8846 15.6309 22.787 15.0668 23.8277 14.5948C22.787 14.1226 21.8846 13.5586 21.1103 12.8213C20.2641 12.0156 19.6293 11.0633 19.1037 9.95413Z" fill="white"/>
</svg>
