<svg width="24" height="24" viewBox="0 0 24 24" fill="none" xmlns="http://www.w3.org/2000/svg">
<path d="M18.2639 5.6427L18.3206 5.67981C18.3868 5.74614 18.3868 5.85369 18.3206 5.92004L12.2405 12.0001L18.3206 18.0802C18.3867 18.1467 18.3869 18.2541 18.3206 18.3204C18.2543 18.3867 18.1467 18.3865 18.0803 18.3204L12.0002 12.2404L5.92017 18.3204C5.87046 18.3699 5.79781 18.3822 5.73657 18.3575L5.67993 18.3204C5.63002 18.2705 5.61778 18.1973 5.64282 18.1359L5.67993 18.0802L11.76 12.0001L5.67993 5.92004C5.61362 5.85365 5.61357 5.74617 5.67993 5.67981C5.74628 5.61346 5.85375 5.61349 5.92017 5.67981L12.0002 11.7599L18.0803 5.67981C18.13 5.63017 18.2026 5.61786 18.2639 5.6427Z" fill="#121314" stroke="#121314" stroke-width="1.5"/>
</svg>
