<svg width="32" height="32" viewBox="0 0 32 32" fill="none" xmlns="http://www.w3.org/2000/svg">
<rect width="32" height="32" rx="16" fill="#EBEBEB"/>
<path d="M22.7568 8.97751C22.8214 8.91313 22.9209 8.90461 22.9941 8.95309L23.0234 8.97751C23.0971 9.05118 23.097 9.17034 23.0234 9.24411V9.24509L16.2686 16L23.0234 22.7549C23.0973 22.8287 23.0972 22.9486 23.0234 23.0224C22.9498 23.096 22.8305 23.0959 22.7568 23.0224L16.5898 16.8564L16.001 16.2675L9.24609 23.0224C9.1815 23.087 9.08116 23.0953 9.00781 23.0468L8.97852 23.0224C8.91404 22.9579 8.90586 22.8585 8.9541 22.7851L8.97852 22.7549L15.7334 16L8.97852 9.24509C8.90475 9.17132 8.90475 9.05127 8.97852 8.97751C9.05227 8.90375 9.1723 8.90372 9.24609 8.97751L16.001 15.7324L22.7559 8.97751H22.7568Z" fill="#121314" stroke="#121314" stroke-width="1.66667"/>
</svg>
