<svg width="24" height="24" viewBox="0 0 24 24" fill="none" xmlns="http://www.w3.org/2000/svg">
<path d="M5.25 8.25H13.75C14.7165 8.25 15.5 9.0335 15.5 10V18.5C15.5 19.4665 14.7165 20.25 13.75 20.25H5.25C4.2835 20.25 3.5 19.4665 3.5 18.5V10C3.5 9.0335 4.2835 8.25 5.25 8.25ZM5.25 8.75C4.55964 8.75 4 9.30964 4 10V18.5C4 19.1904 4.55964 19.75 5.25 19.75H13.75C14.4404 19.75 15 19.1904 15 18.5V10C15 9.30964 14.4404 8.75 13.75 8.75H5.25ZM10.4727 3.5H17.6504C19.2241 3.50021 20.4998 4.77591 20.5 6.34961V13.5273C20.5 14.8927 19.3927 16 18.0273 16H18C17.8619 16 17.75 15.8881 17.75 15.75C17.75 15.6119 17.8619 15.5 18 15.5H18.0273C19.1166 15.5 20 14.6166 20 13.5273V6.34961C19.9998 5.05205 18.9479 4.00021 17.6504 4H10.4727C9.38343 4 8.5 4.88343 8.5 5.97266V6C8.5 6.13807 8.38807 6.25 8.25 6.25C8.11193 6.25 8 6.13807 8 6V5.97266C8 4.60729 9.10729 3.5 10.4727 3.5Z" fill="#121314" stroke="#121314" stroke-width="1.5"/>
</svg>
