<svg width="24" height="24" viewBox="0 0 24 24" fill="none" xmlns="http://www.w3.org/2000/svg">
<path d="M3.96492 5.0828C6.00024 5.61805 6.36038 5.95992 6.92149 7.89748C6.97384 8.07689 7.14554 8.20148 7.34028 8.20148C7.53606 8.20148 7.70672 8.07689 7.75906 7.89748C8.3213 5.95984 8.68039 5.61698 10.7156 5.0828C10.9041 5.03297 11.035 4.8695 11.035 4.68411C11.035 4.49773 10.9041 4.33526 10.7156 4.28542C8.68031 3.75017 8.32122 3.40831 7.75906 1.47075C7.70672 1.29134 7.53501 1.16675 7.34028 1.16675C7.14449 1.16675 6.97383 1.29134 6.92149 1.47075C6.35926 3.40839 6.00016 3.75125 3.96492 4.28542C3.77647 4.33526 3.6456 4.49872 3.6456 4.68411C3.6456 4.8705 3.77647 5.03297 3.96492 5.0828Z" fill="#121314"/>
<path d="M11.1839 18.0302C8.53504 17.3344 8.02628 16.8491 7.29538 14.3283C7.24303 14.1489 7.07133 14.0243 6.87659 14.0243C6.68081 14.0243 6.51015 14.1489 6.45781 14.3283C5.72702 16.85 5.2182 17.3343 2.56932 18.0302C2.38087 18.08 2.25 18.2435 2.25 18.4289C2.25 18.6152 2.38087 18.7777 2.56932 18.8275C5.21815 19.5233 5.72691 20.0087 6.45781 22.5294C6.51016 22.7088 6.68186 22.8334 6.87659 22.8334C7.07238 22.8334 7.24304 22.7088 7.29538 22.5294C8.02618 20.0077 8.53604 19.5234 11.1839 18.8275C11.3723 18.7777 11.5032 18.6142 11.5032 18.4289C11.5032 18.2425 11.3723 18.08 11.1839 18.0302Z" fill="#121314"/>
<path d="M14.3288 3.88064C14.5234 3.88064 14.6953 4.00509 14.7477 4.18435C15.9905 8.47127 16.9276 9.36358 21.4303 10.5476C21.6186 10.5974 21.7495 10.7599 21.7497 10.9461C21.7497 11.1315 21.6188 11.2956 21.4303 11.3455L20.6276 11.5642C16.8094 12.6529 15.9138 13.6886 14.7477 17.7078L14.7223 17.7722C14.6518 17.9161 14.4999 18.0115 14.3288 18.0115L14.2575 18.0056C14.1169 17.9832 13.9958 17.8957 13.9352 17.7722L13.9098 17.7078C12.7437 13.6888 11.8478 12.6535 8.02996 11.5642L7.22624 11.3455C7.03779 11.2956 6.90691 11.1325 6.90691 10.9461C6.90712 10.7609 7.03795 10.5974 7.22624 10.5476C11.7293 9.36344 12.6661 8.47128 13.9098 4.18435C13.9622 4.00509 14.1331 3.88072 14.3288 3.88064ZM14.3278 7.4656C13.9336 8.29711 13.4593 9.01192 12.8249 9.61599C12.2437 10.1692 11.5659 10.5918 10.7848 10.9461C11.5659 11.3002 12.2437 11.723 12.8249 12.2761C13.4593 12.88 13.9346 13.5943 14.3288 14.4256C14.7229 13.5942 15.1984 12.8801 15.8327 12.2761C16.4135 11.7232 17.0903 11.3001 17.8708 10.9461C17.0902 10.592 16.4135 10.1689 15.8327 9.61599C15.198 9.01171 14.722 8.29745 14.3278 7.4656Z" fill="#121314"/>
</svg>
