<svg width="16" height="16" viewBox="0 0 16 16" fill="none" xmlns="http://www.w3.org/2000/svg">
<path d="M3.78662 5.6665H12.2134C12.3008 5.66652 12.3879 5.70256 12.4536 5.76807C12.5163 5.83737 12.5522 5.93044 12.5474 6.02979L12.1343 12.8579C12.0955 13.3969 12.0518 13.8137 11.8276 14.1206C11.6351 14.3841 11.2181 14.6733 10.1401 14.6733H5.85986C4.78278 14.6733 4.3653 14.3832 4.17236 14.1187C4.00385 13.8875 3.93706 13.5948 3.89795 13.2368L3.86572 12.8569L3.45264 6.02295C3.44799 5.93143 3.48284 5.83633 3.54834 5.76514C3.60096 5.70815 3.69075 5.66652 3.78662 5.6665ZM6.88623 10.3335C6.33695 10.3337 5.88623 10.7842 5.88623 11.3335C5.88623 11.8828 6.33695 12.3333 6.88623 12.3335H9.10693C9.65629 12.3333 10.1069 11.8829 10.1069 11.3335C10.1069 10.7841 9.65629 10.3336 9.10693 10.3335H6.88623ZM6.3335 7.6665C5.78413 7.6665 5.33367 8.11718 5.3335 8.6665C5.3335 9.21598 5.78402 9.6665 6.3335 9.6665H9.6665C10.216 9.6665 10.6665 9.21598 10.6665 8.6665C10.6663 8.11718 10.2159 7.6665 9.6665 7.6665H6.3335ZM11.7251 3.79639C12.4845 3.84729 13.2414 3.90972 13.9976 3.98486H14.0024C14.0027 3.98499 14.0027 3.9861 14.0034 3.98682H13.9722C13.2233 3.91219 12.4741 3.84894 11.7251 3.79639ZM10.3198 3.7124C8.68544 3.63341 7.052 3.61864 5.42139 3.69775L5.60205 3.68701L5.6665 3.29443L5.80713 2.44092L5.80615 2.43994C5.86269 2.09738 5.91452 1.85127 6.06201 1.66943C6.18207 1.52151 6.44055 1.33355 7.11963 1.3335H8.8667C9.54232 1.33351 9.80341 1.527 9.92627 1.68115C10.0768 1.87025 10.1271 2.12222 10.1802 2.44775V2.45068L10.3198 3.27588V3.7124Z" fill="#CA3542" stroke="#CA3542"/>
</svg>
