<svg width="16" height="16" viewBox="0 0 16 16" fill="none" xmlns="http://www.w3.org/2000/svg">
<path d="M6.90723 4.9126C6.98986 5.07584 7.07689 5.24074 7.17578 5.40771V5.40869C7.25592 5.54431 7.35434 5.69628 7.44824 5.81982V5.8208C7.56031 5.9926 7.68544 6.14065 7.75195 6.22021V6.22119C7.76635 6.23971 7.79803 6.28122 7.81641 6.3042C7.82757 6.31815 7.84367 6.33779 7.8623 6.35791C7.86823 6.36429 7.87852 6.37474 7.8916 6.38721C8.06451 6.59312 8.24836 6.78353 8.42578 6.94678L8.60938 7.10889C8.63278 7.13147 8.6549 7.15312 8.67578 7.17139C8.69023 7.18403 8.70675 7.19826 8.72363 7.21143C8.72519 7.21264 8.72905 7.21399 8.7334 7.21729C8.85422 7.3188 8.9963 7.4321 9.12891 7.52002V7.521C9.27718 7.6269 9.43002 7.72809 9.5918 7.82373V7.82471C9.75747 7.92288 9.92623 8.00768 10.0908 8.08838L6.43359 11.7476L6.42676 11.7534C6.42015 11.758 6.40907 11.7647 6.39453 11.772C6.38016 11.7792 6.36587 11.7853 6.35352 11.7896C6.34556 11.7923 6.34003 11.7929 6.33789 11.7935L3.79004 12.1519L3.77734 12.1548C3.72435 12.1636 3.67199 12.1675 3.62012 12.1675C3.37747 12.1675 3.17427 12.0831 3.03711 11.9507C2.88508 11.7899 2.79535 11.5292 2.8418 11.2134V11.2104L3.2002 8.67041C3.20091 8.66812 3.20186 8.66518 3.20312 8.66162C3.20758 8.64906 3.21467 8.63365 3.22266 8.61768C3.23063 8.60177 3.2387 8.58811 3.24512 8.57861C3.25195 8.56855 3.25328 8.56849 3.24707 8.57471L6.90723 4.9126ZM10.7461 1.83838C11.2087 1.84143 11.73 2.07821 12.3262 2.67432L12.3281 2.67627C12.9397 3.28177 13.165 3.79963 13.1602 4.27588V4.28076C13.1602 4.73822 12.9349 5.25135 12.3281 5.85205L12.3252 5.85596L11.625 6.56104C10.1216 6.08628 8.91548 4.8833 8.43945 3.38037L9.14648 2.67432C9.75718 2.06362 10.2851 1.8354 10.7461 1.83838Z" fill="#121314" stroke="#121314"/>
</svg>
