<svg width="36" height="16" viewBox="0 0 36 16" fill="none" xmlns="http://www.w3.org/2000/svg">
<path d="M8 0.240234H28C32.2857 0.240234 35.7598 3.71427 35.7598 8C35.7598 12.2857 32.2857 15.7598 28 15.7598H8C3.71427 15.7598 0.240234 12.2857 0.240234 8C0.240234 3.71427 3.71427 0.240234 8 0.240234Z" fill="#484848"/>
<path d="M8 0.240234H28C32.2857 0.240234 35.7598 3.71427 35.7598 8C35.7598 12.2857 32.2857 15.7598 28 15.7598H8C3.71427 15.7598 0.240234 12.2857 0.240234 8C0.240234 3.71427 3.71427 0.240234 8 0.240234Z" stroke="#C5C5C5" stroke-width="0.48"/>
<path d="M6.06641 11.652V4.172H11.4344V5.569H7.82641V7.395H11.0054V8.792H7.82641V11.652H6.06641Z" fill="#C5C5C5"/>
<path d="M12.6379 11.652V5.734H14.3209V6.559C14.6949 5.855 15.2669 5.547 15.8719 5.547C16.1139 5.547 16.3339 5.613 16.4549 5.734V7.153C16.2569 7.109 16.0479 7.087 15.7839 7.087C14.7719 7.087 14.3209 7.659 14.3209 8.594V11.652H12.6379Z" fill="#C5C5C5"/>
<path d="M23.0377 9.705C22.7297 11.069 21.6297 11.828 20.1777 11.828C18.3407 11.828 17.2077 10.64 17.2077 8.693C17.2077 6.68 18.3517 5.547 20.1117 5.547C21.8827 5.547 22.9937 6.724 22.9937 8.66V9.034H18.9237C19.0117 9.98 19.4517 10.486 20.1777 10.486C20.7277 10.486 21.1017 10.244 21.2777 9.705H23.0377ZM20.1117 6.889C19.4847 6.889 19.0887 7.296 18.9567 8.066H21.2557C21.1237 7.296 20.7277 6.889 20.1117 6.889Z" fill="#C5C5C5"/>
<path d="M29.9337 9.705C29.6257 11.069 28.5257 11.828 27.0737 11.828C25.2367 11.828 24.1037 10.64 24.1037 8.693C24.1037 6.68 25.2477 5.547 27.0077 5.547C28.7787 5.547 29.8897 6.724 29.8897 8.66V9.034H25.8197C25.9077 9.98 26.3477 10.486 27.0737 10.486C27.6237 10.486 27.9977 10.244 28.1737 9.705H29.9337ZM27.0077 6.889C26.3807 6.889 25.9847 7.296 25.8527 8.066H28.1517C28.0197 7.296 27.6237 6.889 27.0077 6.889Z" fill="#C5C5C5"/>
</svg>
