<svg width="24" height="24" viewBox="0 0 24 24" fill="none" xmlns="http://www.w3.org/2000/svg">
<mask id="path-1-inside-1_12_1380" fill="white">
<path fill-rule="evenodd" clip-rule="evenodd" d="M11.9999 2.88006C6.9631 2.88006 2.87994 6.96322 2.87994 12.0001C2.87994 17.0368 6.9631 21.12 11.9999 21.12C17.0368 21.12 21.12 17.0368 21.12 12.0001C21.12 6.96322 17.0368 2.88006 11.9999 2.88006ZM1.43994 12.0001C1.43994 6.16793 6.16781 1.44006 11.9999 1.44006C17.832 1.44006 22.56 6.16793 22.56 12.0001C22.56 17.8322 17.832 22.56 11.9999 22.56C6.16781 22.56 1.43994 17.8322 1.43994 12.0001Z"/>
<path fill-rule="evenodd" clip-rule="evenodd" d="M21.5999 12.64H2.39992V11.36H21.5999V12.64Z"/>
<path fill-rule="evenodd" clip-rule="evenodd" d="M11.3598 21.6V2.40004H12.6398V21.6H11.3598ZM16.6 12C16.6 8.52362 15.3498 5.08449 12.8989 2.81053L13.6607 1.98949C16.3833 4.51553 17.72 8.27641 17.72 12C17.72 15.7236 16.3833 19.4845 13.6607 22.0106L12.8989 21.1895C15.3498 18.9156 16.6 15.4764 16.6 12ZM6.39949 12C6.39949 8.28181 7.69256 4.52289 10.3323 1.99554L11.1068 2.80453C8.73311 5.07721 7.51949 8.51826 7.51949 12C7.51951 15.4818 8.73314 18.9229 11.1069 21.1956L10.3323 22.0045C7.69259 19.4772 6.39951 15.7183 6.39949 12Z"/>
<path fill-rule="evenodd" clip-rule="evenodd" d="M11.9999 6.33285C15.4708 6.33285 19.0005 6.97467 21.3929 8.3112C21.663 8.46203 21.7597 8.80318 21.6088 9.0732C21.4581 9.3432 21.1168 9.43982 20.8469 9.28899C18.687 8.08251 15.3728 7.45285 11.9999 7.45285C8.62706 7.45285 5.31282 8.08251 3.15301 9.28899C2.88299 9.43982 2.54184 9.3432 2.39101 9.0732C2.24019 8.80318 2.3368 8.46203 2.60682 8.3112C4.99944 6.97467 8.52899 6.33285 11.9999 6.33285ZM11.9999 17.36C15.4708 17.36 19.0005 16.7181 21.3929 15.3816C21.663 15.2308 21.7597 14.8896 21.6088 14.6196C21.4581 14.3496 21.1168 14.253 20.8469 14.4038C18.687 15.6103 15.3728 16.24 11.9999 16.24C8.62706 16.24 5.31282 15.6103 3.15301 14.4039C2.88299 14.253 2.54184 14.3496 2.39101 14.6196C2.24019 14.8896 2.3368 15.2308 2.60682 15.3816C4.99944 16.7181 8.52899 17.36 11.9999 17.36Z"/>
</mask>
<path fill-rule="evenodd" clip-rule="evenodd" d="M11.9999 2.88006C6.9631 2.88006 2.87994 6.96322 2.87994 12.0001C2.87994 17.0368 6.9631 21.12 11.9999 21.12C17.0368 21.12 21.12 17.0368 21.12 12.0001C21.12 6.96322 17.0368 2.88006 11.9999 2.88006ZM1.43994 12.0001C1.43994 6.16793 6.16781 1.44006 11.9999 1.44006C17.832 1.44006 22.56 6.16793 22.56 12.0001C22.56 17.8322 17.832 22.56 11.9999 22.56C6.16781 22.56 1.43994 17.8322 1.43994 12.0001Z" fill="#121314"/>
<path fill-rule="evenodd" clip-rule="evenodd" d="M21.5999 12.64H2.39992V11.36H21.5999V12.64Z" fill="#121314"/>
<path fill-rule="evenodd" clip-rule="evenodd" d="M11.3598 21.6V2.40004H12.6398V21.6H11.3598ZM16.6 12C16.6 8.52362 15.3498 5.08449 12.8989 2.81053L13.6607 1.98949C16.3833 4.51553 17.72 8.27641 17.72 12C17.72 15.7236 16.3833 19.4845 13.6607 22.0106L12.8989 21.1895C15.3498 18.9156 16.6 15.4764 16.6 12ZM6.39949 12C6.39949 8.28181 7.69256 4.52289 10.3323 1.99554L11.1068 2.80453C8.73311 5.07721 7.51949 8.51826 7.51949 12C7.51951 15.4818 8.73314 18.9229 11.1069 21.1956L10.3323 22.0045C7.69259 19.4772 6.39951 15.7183 6.39949 12Z" fill="#121314"/>
<path fill-rule="evenodd" clip-rule="evenodd" d="M11.9999 6.33285C15.4708 6.33285 19.0005 6.97467 21.3929 8.3112C21.663 8.46203 21.7597 8.80318 21.6088 9.0732C21.4581 9.3432 21.1168 9.43982 20.8469 9.28899C18.687 8.08251 15.3728 7.45285 11.9999 7.45285C8.62706 7.45285 5.31282 8.08251 3.15301 9.28899C2.88299 9.43982 2.54184 9.3432 2.39101 9.0732C2.24019 8.80318 2.3368 8.46203 2.60682 8.3112C4.99944 6.97467 8.52899 6.33285 11.9999 6.33285ZM11.9999 17.36C15.4708 17.36 19.0005 16.7181 21.3929 15.3816C21.663 15.2308 21.7597 14.8896 21.6088 14.6196C21.4581 14.3496 21.1168 14.253 20.8469 14.4038C18.687 15.6103 15.3728 16.24 11.9999 16.24C8.62706 16.24 5.31282 15.6103 3.15301 14.4039C2.88299 14.253 2.54184 14.3496 2.39101 14.6196C2.24019 14.8896 2.3368 15.2308 2.60682 15.3816C4.99944 16.7181 8.52899 17.36 11.9999 17.36Z" fill="#121314"/>
<path d="M21.5999 12.64V14.14H23.0999V12.64H21.5999ZM2.39992 12.64H0.899918V14.14H2.39992V12.64ZM2.39992 11.36V9.86001H0.899918V11.36H2.39992ZM21.5999 11.36H23.0999V9.86001H21.5999V11.36ZM11.3598 21.6H9.85984V23.1H11.3598V21.6ZM11.3598 2.40004V0.900038H9.85984V2.40004H11.3598ZM12.6398 2.40004H14.1398V0.900038H12.6398V2.40004ZM12.6398 21.6V23.1H14.1398V21.6H12.6398ZM12.8989 2.81053L11.7993 1.79031L10.7791 2.88993L11.8787 3.91015L12.8989 2.81053ZM13.6607 1.98949L14.6809 0.889868L13.5813 -0.130327L12.5611 0.969275L13.6607 1.98949ZM13.6607 22.0106L12.561 23.0308L13.5812 24.1305L14.6809 23.1102L13.6607 22.0106ZM12.8989 21.1895L11.8787 20.0899L10.7791 21.11L11.7992 22.2096L12.8989 21.1895ZM6.39949 12H4.89949V12L6.39949 12ZM10.3323 1.99554L11.4158 0.958201L10.3784 -0.125283L9.29493 0.912072L10.3323 1.99554ZM11.1068 2.80453L12.1442 3.888L13.2276 2.85066L12.1903 1.76719L11.1068 2.80453ZM7.51949 12H6.01949V12L7.51949 12ZM11.1069 21.1956L12.1903 22.2329L13.2277 21.1495L12.1442 20.1121L11.1069 21.1956ZM10.3323 22.0045L9.29493 23.088L10.3784 24.1253L11.4157 23.0419L10.3323 22.0045ZM21.3929 8.3112L20.6614 9.62072L20.6616 9.62081L21.3929 8.3112ZM21.6088 9.0732L20.2993 8.34151L20.299 8.34207L21.6088 9.0732ZM20.8469 9.28899L21.5786 7.97956L21.5784 7.97945L20.8469 9.28899ZM3.15301 9.28899L3.88452 10.5985L3.88452 10.5985L3.15301 9.28899ZM2.39101 9.0732L1.08144 9.80465L1.08149 9.80475L2.39101 9.0732ZM2.60682 8.3112L1.8753 7.00166L1.8753 7.00166L2.60682 8.3112ZM21.3929 15.3816L20.6616 14.072L20.6614 14.0721L21.3929 15.3816ZM21.6088 14.6196L20.299 15.3508L20.2994 15.3514L21.6088 14.6196ZM20.8469 14.4038L21.5784 15.7134L21.5785 15.7133L20.8469 14.4038ZM3.15301 14.4039L2.4215 15.7134L2.4215 15.7134L3.15301 14.4039ZM2.39101 14.6196L1.08147 13.8881L1.08146 13.8882L2.39101 14.6196ZM2.60682 15.3816L3.33831 14.0721L3.33827 14.0721L2.60682 15.3816ZM11.9999 2.88006V1.38006C6.13468 1.38006 1.37994 6.1348 1.37994 12.0001H2.87994H4.37994C4.37994 7.79165 7.79153 4.38006 11.9999 4.38006V2.88006ZM2.87994 12.0001H1.37994C1.37994 17.8653 6.13468 22.62 11.9999 22.62V21.12V19.62C7.79153 19.62 4.37994 16.2084 4.37994 12.0001H2.87994ZM11.9999 21.12V22.62C17.8652 22.62 22.62 17.8653 22.62 12.0001H21.12H19.62C19.62 16.2084 16.2084 19.62 11.9999 19.62V21.12ZM21.12 12.0001H22.62C22.62 6.13479 17.8652 1.38006 11.9999 1.38006V2.88006V4.38006C16.2084 4.38006 19.62 7.79166 19.62 12.0001H21.12ZM1.43994 12.0001H2.93994C2.93994 6.99636 6.99623 2.94006 11.9999 2.94006V1.44006V-0.0599365C5.33938 -0.0599365 -0.0600586 5.3395 -0.0600586 12.0001H1.43994ZM11.9999 1.44006V2.94006C17.0036 2.94006 21.06 6.99638 21.06 12.0001H22.56H24.06C24.06 5.33948 18.6604 -0.0599365 11.9999 -0.0599365V1.44006ZM22.56 12.0001H21.06C21.06 17.0037 17.0036 21.06 11.9999 21.06V22.56V24.06C18.6604 24.06 24.06 18.6606 24.06 12.0001H22.56ZM11.9999 22.56V21.06C6.99623 21.06 2.93994 17.0038 2.93994 12.0001H1.43994H-0.0600586C-0.0600586 18.6606 5.33939 24.06 11.9999 24.06V22.56ZM21.5999 12.64V11.14H2.39992V12.64V14.14H21.5999V12.64ZM2.39992 12.64H3.89992V11.36H2.39992H0.899918V12.64H2.39992ZM2.39992 11.36V12.86H21.5999V11.36V9.86001H2.39992V11.36ZM21.5999 11.36H20.0999V12.64H21.5999H23.0999V11.36H21.5999ZM11.3598 21.6H12.8598V2.40004H11.3598H9.85984V21.6H11.3598ZM11.3598 2.40004V3.90004H12.6398V2.40004V0.900038H11.3598V2.40004ZM12.6398 2.40004H11.1398V21.6H12.6398H14.1398V2.40004H12.6398ZM12.6398 21.6V20.1H11.3598V21.6V23.1H12.6398V21.6ZM16.6 12H18.1C18.1 8.19226 16.7337 4.32233 13.9191 1.71092L12.8989 2.81053L11.8787 3.91015C13.9659 5.84665 15.1 8.85498 15.1 12H16.6ZM12.8989 2.81053L13.9985 3.83075L14.7603 3.00971L13.6607 1.98949L12.5611 0.969275L11.7993 1.79031L12.8989 2.81053ZM13.6607 1.98949L12.6405 3.08912C14.9991 5.27741 16.22 8.60726 16.22 12H17.72H19.22C19.22 7.94555 17.7676 3.75365 14.6809 0.889868L13.6607 1.98949ZM17.72 12H16.22C16.22 15.3928 14.9991 18.7226 12.6405 20.911L13.6607 22.0106L14.6809 23.1102C17.7676 20.2464 19.22 16.0545 19.22 12H17.72ZM13.6607 22.0106L14.7603 20.9904L13.9986 20.1693L12.8989 21.1895L11.7992 22.2096L12.561 23.0308L13.6607 22.0106ZM12.8989 21.1895L13.9191 22.2891C16.7337 19.6777 18.1 15.8078 18.1 12H16.6H15.1C15.1 15.1451 13.9659 18.1534 11.8787 20.0899L12.8989 21.1895ZM6.39949 12H7.89949C7.89949 8.59826 9.0863 5.26514 11.3696 3.07901L10.3323 1.99554L9.29493 0.912072C6.29883 3.78063 4.89949 7.96536 4.89949 12H6.39949ZM10.3323 1.99554L9.2488 3.03288L10.0233 3.84188L11.1068 2.80453L12.1903 1.76719L11.4158 0.958201L10.3323 1.99554ZM11.1068 2.80453L10.0695 1.72107C7.33966 4.33467 6.01949 8.20132 6.01949 12H7.51949H9.01949C9.01949 8.8352 10.1266 5.81974 12.1442 3.888L11.1068 2.80453ZM7.51949 12L6.01949 12C6.01951 15.7987 7.33969 19.6655 10.0695 22.279L11.1069 21.1956L12.1442 20.1121C10.1266 18.1804 9.0195 15.1649 9.01949 12L7.51949 12ZM11.1069 21.1956L10.0234 20.1582L9.24884 20.9671L10.3323 22.0045L11.4157 23.0419L12.1903 22.2329L11.1069 21.1956ZM10.3323 22.0045L11.3696 20.9211C9.08632 18.7349 7.89951 15.4018 7.89949 12L6.39949 12L4.89949 12C4.89951 16.0347 6.29886 20.2194 9.29493 23.088L10.3323 22.0045ZM11.9999 6.33285V7.83285C15.3395 7.83285 18.5808 8.45839 20.6614 9.62072L21.3929 8.3112L22.1245 7.00168C19.4202 5.49095 15.6021 4.83285 11.9999 4.83285V6.33285ZM21.3929 8.3112L20.6616 9.62081C20.2084 9.36775 20.046 8.79498 20.2993 8.34151L21.6088 9.0732L22.9182 9.80489C23.4734 8.81139 23.1176 7.55632 22.1243 7.00159L21.3929 8.3112ZM21.6088 9.0732L20.299 8.34207C20.5523 7.88829 21.1253 7.72627 21.5786 7.97956L20.8469 9.28899L20.1152 10.5984C21.1083 11.1534 22.3638 10.7981 22.9185 9.80433L21.6088 9.0732ZM20.8469 9.28899L21.5784 7.97945C19.1067 6.5988 15.5041 5.95285 11.9999 5.95285V7.45285V8.95285C15.2414 8.95285 18.2673 9.56623 20.1154 10.5985L20.8469 9.28899ZM11.9999 7.45285V5.95285C8.49573 5.95285 4.89311 6.5988 2.42149 7.97945L3.15301 9.28899L3.88452 10.5985C5.73252 9.56623 8.75838 8.95285 11.9999 8.95285V7.45285ZM3.15301 9.28899L2.4215 7.97945C2.87474 7.72627 3.44737 7.88848 3.70053 8.34165L2.39101 9.0732L1.08149 9.80475C1.63632 10.7979 2.89124 11.1534 3.88452 10.5985L3.15301 9.28899ZM2.39101 9.0732L3.70058 8.34175C3.95369 8.79491 3.79158 9.36755 3.33833 9.62074L2.60682 8.3112L1.8753 7.00166C0.882025 7.55651 0.526692 8.81145 1.08144 9.80465L2.39101 9.0732ZM2.60682 8.3112L3.33833 9.62074C5.41914 8.45839 8.66031 7.83285 11.9999 7.83285V6.33285V4.83285C8.39767 4.83285 4.57974 5.49095 1.8753 7.00166L2.60682 8.3112ZM11.9999 17.36V18.86C15.6022 18.86 19.4202 18.2018 22.1245 16.6912L21.3929 15.3816L20.6614 14.0721C18.5807 15.2344 15.3395 15.86 11.9999 15.86V17.36ZM21.3929 15.3816L22.1243 16.6913C23.1176 16.1366 23.4734 14.8814 22.9182 13.8879L21.6088 14.6196L20.2994 15.3514C20.0459 14.8979 20.2084 14.3251 20.6616 14.072L21.3929 15.3816ZM21.6088 14.6196L22.9186 13.8885C22.3638 12.8947 21.1083 12.5395 20.1152 13.0944L20.8469 14.4038L21.5785 15.7133C21.1253 15.9665 20.5523 15.8046 20.299 15.3508L21.6088 14.6196ZM20.8469 14.4038L20.1154 13.0943C18.2673 14.1266 15.2414 14.74 11.9999 14.74V16.24V17.74C15.5041 17.74 19.1067 17.094 21.5784 15.7134L20.8469 14.4038ZM11.9999 16.24V14.74C8.7584 14.74 5.73253 14.1266 3.88452 13.0943L3.15301 14.4039L2.4215 15.7134C4.8931 17.094 8.49571 17.74 11.9999 17.74V16.24ZM3.15301 14.4039L3.88452 13.0943C2.89129 12.5395 1.63632 12.8949 1.08147 13.8881L2.39101 14.6196L3.70055 15.3512C3.44736 15.8044 2.8747 15.9666 2.4215 15.7134L3.15301 14.4039ZM2.39101 14.6196L1.08146 13.8882C0.526684 14.8813 0.882007 16.1364 1.87536 16.6912L2.60682 15.3816L3.33827 14.0721C3.79159 14.3253 3.9537 14.8979 3.70056 15.3511L2.39101 14.6196ZM2.60682 15.3816L1.87532 16.6912C4.57973 18.2018 8.39763 18.86 11.9999 18.86V17.36V15.86C8.66035 15.86 5.41915 15.2344 3.33831 14.0721L2.60682 15.3816Z" fill="#121314" mask="url(#path-1-inside-1_12_1380)"/>
</svg>
