<svg width="16" height="16" viewBox="0 0 16 16" fill="none" xmlns="http://www.w3.org/2000/svg">
<path d="M1.60225 11.4234C1.60225 13.065 2.93195 14.3973 4.57623 14.3973C6.22051 14.3973 7.54756 13.0676 7.54756 11.4234V8.45202H4.57359C2.92931 8.45202 1.60225 9.78172 1.60225 11.4234ZM6.46636 11.4234C6.46636 12.4676 5.61778 13.3188 4.57094 13.3188C3.52675 13.3188 2.67553 12.4702 2.67553 11.4234C2.67553 10.3792 3.5241 9.52794 4.57094 9.52794H6.46636V11.4234ZM14.3943 4.57395C14.3943 2.92967 13.062 1.59998 11.423 1.59998C9.784 1.59998 8.45165 2.92967 8.45165 4.57395V7.54793H11.4256C13.0646 7.54529 14.3943 6.21295 14.3943 4.57395ZM9.52757 4.57395C9.52757 3.52976 10.3761 2.67854 11.423 2.67854C12.4672 2.67854 13.3184 3.52711 13.3184 4.57395C13.3184 5.62079 12.4698 6.46937 11.423 6.46937H9.52757V4.57395ZM4.57359 7.54529H7.54756V4.57395C7.54492 2.93232 6.21522 1.59998 4.57359 1.59998C2.93195 1.59998 1.59961 2.92967 1.59961 4.57395C1.60225 6.21295 2.92931 7.54529 4.57359 7.54529ZM4.57359 2.67854C5.61778 2.67854 6.469 3.52711 6.469 4.57395V6.46937H4.57359C3.52939 6.46937 2.67817 5.62079 2.67817 4.57395C2.67817 3.52711 3.52675 2.67854 4.57359 2.67854ZM11.423 8.45202H8.45165V11.426C8.45165 13.0676 9.78135 14.4 11.4256 14.4C13.0673 14.4 14.3996 13.0703 14.3996 11.426C14.3996 9.78172 13.0646 8.45202 11.423 8.45202ZM11.423 13.3161C10.3788 13.3161 9.52757 12.4676 9.52757 11.4207V9.53058H11.423C12.4672 9.53058 13.3184 10.3792 13.3184 11.426C13.3158 12.4676 12.4672 13.3161 11.423 13.3161Z" fill="#4458FF"/>
</svg>
