<svg width="20" height="20" viewBox="0 0 20 20" fill="none" xmlns="http://www.w3.org/2000/svg">
<rect width="20" height="20" rx="10" fill="#121314"/>
<path fill-rule="evenodd" clip-rule="evenodd" d="M10.0006 11.1217L12.8038 13.9249C12.9526 14.0737 13.1543 14.1572 13.3647 14.1572C13.575 14.1572 13.7768 14.0737 13.9255 13.9249C14.0743 13.7762 14.1578 13.5744 14.1578 13.3641C14.1578 13.1537 14.0743 12.952 13.9255 12.8032L11.1213 10L13.925 7.19687C13.9986 7.12322 14.057 7.03579 14.0968 6.93957C14.1366 6.84335 14.1571 6.74023 14.1571 6.6361C14.1571 6.53196 14.1365 6.42885 14.0967 6.33266C14.0568 6.23646 13.9984 6.14906 13.9247 6.07544C13.8511 6.00182 13.7636 5.94343 13.6674 5.90361C13.5712 5.86378 13.4681 5.84329 13.3639 5.84332C13.2598 5.84334 13.1567 5.86388 13.0605 5.90375C12.9643 5.94362 12.8769 6.00205 12.8033 6.0757L10.0006 8.87888L7.19747 6.0757C7.12436 5.99994 7.0369 5.93949 6.94018 5.89789C6.84346 5.85629 6.73943 5.83437 6.63415 5.83341C6.52887 5.83244 6.42445 5.85246 6.32699 5.89228C6.22952 5.9321 6.14097 5.99093 6.06648 6.06535C5.992 6.13976 5.93308 6.22826 5.89317 6.32568C5.85326 6.42311 5.83315 6.52751 5.83401 6.63279C5.83488 6.73807 5.8567 6.84213 5.89821 6.93888C5.93972 7.03564 6.00008 7.12316 6.07578 7.19634L8.88001 10L6.0763 12.8037C6.00061 12.8769 5.94025 12.9644 5.89874 13.0612C5.85723 13.158 5.8354 13.262 5.83454 13.3673C5.83367 13.4726 5.85379 13.577 5.8937 13.6744C5.93361 13.7718 5.99253 13.8603 6.06701 13.9347C6.1415 14.0091 6.23005 14.068 6.32751 14.1078C6.42498 14.1476 6.5294 14.1676 6.63468 14.1667C6.73996 14.1657 6.84399 14.1438 6.94071 14.1022C7.03743 14.0606 7.12489 14.0001 7.198 13.9244L10.0006 11.1217Z" fill="white"/>
</svg>
