<svg width="16" height="16" viewBox="0 0 16 16" fill="none" xmlns="http://www.w3.org/2000/svg">
<path fill-rule="evenodd" clip-rule="evenodd" d="M12.7958 2.93031L12.8413 2.97539L12.8426 2.97411C13.7184 3.85337 13.4672 5.62004 12.1973 7.62285L14.6951 10.1215L14.5878 10.3306C14.1678 11.1495 13.5993 11.8832 12.9113 12.4944C12.0049 13.3037 10.9108 13.874 9.72823 14.1533L9.6853 14.1636L9.6239 14.1782L9.57968 14.1881L9.48223 14.2096L9.40151 14.2255L9.34098 14.2371C9.27658 14.2499 9.20917 14.262 9.14349 14.2731L9.08853 14.2813L9.04689 14.2864C8.98764 14.2944 8.92868 14.3019 8.87001 14.3088C7.88547 14.4195 6.88863 14.3088 5.95233 13.9849C5.01604 13.661 4.16395 13.1319 3.45835 12.4365L3.41713 12.3965C2.53959 11.5173 2.78817 9.7493 4.05983 7.74521L1.56201 5.24653L1.66934 5.03745C2.08815 4.21796 2.65731 3.48452 3.34715 2.87536C4.05206 2.24863 4.87051 1.76274 5.75825 1.44399C5.96432 1.36971 6.17985 1.30488 6.3915 1.24993C6.56594 1.20318 6.74226 1.16379 6.92001 1.13187C6.98011 1.11984 7.04794 1.10739 7.11363 1.09623C8.1382 0.93653 9.18593 1.01926 10.1727 1.33778C11.1595 1.6563 12.0579 2.20174 12.7958 2.93031ZM11.9513 3.03765H11.9487L11.9513 3.03893C11.1025 2.77619 9.75571 3.20079 8.33206 4.13887C9.41525 3.83705 10.4628 3.99333 11.1399 4.6708C11.7813 5.3135 11.9569 6.28893 11.7139 7.31374C11.7024 7.3684 11.6881 7.42379 11.6709 7.47989C12.8331 5.72179 13.2049 4.07704 12.469 3.34247C12.457 3.32922 12.4441 3.31675 12.4304 3.30512L12.4248 3.29996L12.4167 3.29267L12.3922 3.27377C12.3816 3.26519 12.3706 3.25689 12.3591 3.24887L12.3411 3.23599C12.2234 3.14814 12.0916 3.08105 11.9513 3.03765ZM11.3687 6.98959C11.2189 7.88345 10.7247 8.78676 9.97552 9.53507C9.22849 10.2838 8.32347 10.7784 7.42833 10.9295C6.59071 11.0712 5.86816 10.8866 5.39461 10.4143C4.92235 9.94164 4.73774 9.22166 4.87942 8.37975C5.02925 7.48675 5.52212 6.58302 6.26786 5.83557C6.26786 5.83557 6.26915 5.83557 6.27215 5.83127L6.27473 5.82698C7.02304 5.08339 7.92463 4.59009 8.81763 4.44068C9.65524 4.29901 10.3761 4.48276 10.8513 4.95588C11.3236 5.42813 11.5082 6.1494 11.3665 6.99002L11.3687 6.98959ZM3.77819 3.35749C3.20789 3.86184 2.72775 4.45973 2.35841 5.12546L2.35412 5.12675L4.52136 7.28884C4.69796 7.04011 4.88686 6.79425 5.08807 6.55125C5.15848 6.4671 5.23089 6.38153 5.30531 6.29452L5.33364 6.26232L5.43668 6.14726C5.43969 6.14468 5.44269 6.1391 5.44269 6.1391L5.46158 6.11763L5.47146 6.10604L5.48648 6.08973L5.52512 6.04679C5.55203 6.01588 5.57993 5.9854 5.60884 5.95535C5.60884 5.95234 5.61314 5.94805 5.61314 5.94805L5.6595 5.89739L5.69256 5.86304C5.69399 5.86075 5.69514 5.86047 5.69514 5.86047C5.69771 5.85818 5.69814 5.85617 5.69814 5.85617L5.70415 5.84845L5.71016 5.84115C5.7154 5.83713 5.72015 5.83252 5.72433 5.82741L5.73249 5.81882C5.75009 5.80122 5.77113 5.78061 5.79002 5.76C5.80004 5.7477 5.81148 5.73539 5.82436 5.72308L5.84197 5.70505C5.84497 5.70076 5.85313 5.6926 5.85313 5.6926L5.88619 5.65997L5.95059 5.59643L5.97205 5.57368L5.9961 5.54835C6.46017 5.08267 6.9561 4.64987 7.48028 4.25307L7.54897 4.20284H7.5494V4.20241L7.55026 4.20198L7.61895 4.15132C7.69565 4.09379 7.77293 4.03755 7.85078 3.98259C7.93379 3.92592 8.01679 3.87011 8.09979 3.81516C9.22549 3.06469 10.328 2.61433 11.2279 2.52503C10.024 1.79868 8.60298 1.51904 7.21366 1.73507C7.15356 1.74451 7.09603 1.75439 7.03421 1.76684C6.99514 1.77371 6.96122 1.78058 6.92687 1.78745L6.90627 1.79174C6.59071 1.8567 6.28011 1.94378 5.97678 2.05234C5.16706 2.34222 4.42032 2.78534 3.77819 3.35749ZM3.89798 12.1192C4.01819 12.2108 4.15514 12.2803 4.30884 12.3278H4.30541C5.15977 12.5889 6.50141 12.163 7.91991 11.2275C6.838 11.528 5.79259 11.3717 5.11555 10.6943C4.47714 10.0546 4.30154 9.07612 4.54325 8.05132C4.55528 7.99665 4.56944 7.94127 4.58576 7.88517C3.424 9.64369 3.05306 11.288 3.78807 12.023C3.80467 12.0393 3.82242 12.0558 3.84131 12.0724C3.85905 12.0884 3.87823 12.104 3.89798 12.1192ZM13.8974 10.243V10.2439C13.5275 10.9086 13.0478 11.506 12.4785 12.0106C11.6265 12.7671 10.5967 13.2953 9.48523 13.5458L9.47149 13.5493L9.43457 13.5579C9.39284 13.5691 9.35057 13.5783 9.30792 13.5853C9.28016 13.5913 9.25182 13.5966 9.22291 13.6012C9.16308 13.6128 9.10296 13.6229 9.04259 13.6313L8.99236 13.6399L8.93526 13.6472C8.88947 13.6535 8.84253 13.6592 8.79444 13.6643C7.48363 13.8119 6.16072 13.5233 5.03054 12.843C5.89692 12.7576 6.95178 12.3347 8.03368 11.6353L8.0955 11.595L8.15732 11.5542L8.24147 11.4975H8.2419L8.40462 11.3868C8.48333 11.3318 8.56061 11.2756 8.63645 11.218C8.68396 11.184 8.73062 11.1501 8.77641 11.1163C9.2999 10.7183 9.7959 10.2854 10.261 9.82057C10.2722 9.80912 10.2826 9.79796 10.2924 9.78709L10.3052 9.77249C10.3281 9.75102 10.3496 9.72999 10.3696 9.70938L10.4023 9.67675C10.4023 9.67675 10.4109 9.66816 10.4121 9.66387C10.4164 9.66015 10.4206 9.65614 10.4246 9.65185L10.4297 9.64627L10.4671 9.60934L10.4959 9.57929C10.5056 9.57013 10.5152 9.5604 10.5246 9.5501L10.5324 9.54151C10.5366 9.53655 10.5413 9.53209 10.5465 9.5282L10.553 9.52047L10.559 9.51318C10.559 9.51318 10.5633 9.50888 10.5658 9.50759L10.5774 9.49514L10.589 9.48269L10.6002 9.47196C10.5882 9.48455 10.5767 9.49772 10.5658 9.51146L10.5925 9.48355L10.5929 9.48269C10.6115 9.46266 10.63 9.44348 10.6483 9.42516C10.6483 9.42516 10.6483 9.42087 10.6526 9.42087C10.6778 9.39397 10.7022 9.36678 10.726 9.3393L10.7745 9.2852C10.7809 9.28106 10.7861 9.27528 10.7895 9.26846L10.817 9.2354L10.8239 9.22724C10.8574 9.19147 10.8901 9.15526 10.9222 9.11862L10.9557 9.07999C11.0095 9.0173 11.063 8.95419 11.1162 8.89065L11.1806 8.8138L11.2008 8.7889C11.2266 8.75656 11.2521 8.72508 11.2772 8.69445C11.2987 8.66869 11.3197 8.64236 11.3404 8.61545C11.3532 8.59828 11.3665 8.58154 11.3803 8.56522C11.5048 8.40465 11.6246 8.24666 11.7401 8.08438L13.8974 10.243ZM13.8974 10.243C13.8974 10.2416 13.8983 10.2405 13.9 10.2396V10.2465L13.8974 10.2439H13.8983L13.8974 10.243Z" fill="#121314"/>
</svg>
