<svg width="80" height="80" viewBox="0 0 80 80" fill="none" xmlns="http://www.w3.org/2000/svg">
<path d="M38.114 9.66406C39.1673 8.61081 40.8732 8.6113 41.9236 9.66406L53.9929 21.7334C55.6913 23.4321 54.4874 26.334 52.0876 26.334H27.949C25.5493 26.3338 24.3461 23.432 26.0447 21.7334L38.114 9.66406Z" fill="#4458FF" stroke="white" stroke-width="0.533333"/>
<path d="M19.528 32.1047V46.598C19.528 47.9874 18.4026 49.1127 17.0133 49.1127H2.51997C0.27997 49.1127 -0.842697 46.4034 0.741302 44.8194L15.2346 30.326C16.8186 28.742 19.528 29.8647 19.528 32.1047Z" fill="#FB923C"/>
<path d="M60.7385 32.1042C60.7389 30.1021 63.1605 29.0989 64.5764 30.5144L79.0696 45.0076C80.4855 46.4235 79.4822 48.8464 77.4797 48.8464H62.9866C61.7446 48.8464 60.7387 47.8403 60.7385 46.5984V32.1042Z" fill="#4458FF" stroke="white" stroke-width="0.533333"/>
<path d="M56.3278 52.11C55.4372 50.0007 54.1598 48.11 52.5358 46.486C50.9118 44.862 49.0185 43.5873 46.9118 42.694C44.7252 41.7687 42.4078 41.302 40.0212 41.302C37.6345 41.302 35.3145 41.7713 33.1305 42.694C31.0212 43.5847 29.1305 44.862 27.5065 46.486C25.8825 48.11 24.6078 50.0033 23.7145 52.11C22.7892 54.2967 22.3225 56.614 22.3225 59.0007V67.8967C22.3225 69.8247 23.8852 71.39 25.8158 71.39H29.0292C30.9572 71.39 32.5225 69.8273 32.5225 67.8967V59.1607C32.5225 55.078 35.7172 51.6193 39.7998 51.4993C43.8825 51.3793 47.5332 54.7873 47.5332 59.0007V67.8967C47.5332 69.8247 49.0958 71.39 51.0265 71.39H54.2398C56.1678 71.39 57.7332 69.8273 57.7332 67.8967V59.0007C57.7332 56.614 57.2638 54.294 56.3412 52.11H56.3278Z" fill="#4458FF"/>
<path d="M55.576 29.3525H24.3867C23.2232 29.3525 22.28 30.2957 22.28 31.4592V36.4432C22.28 37.6067 23.2232 38.5499 24.3867 38.5499H55.576C56.7395 38.5499 57.6827 37.6067 57.6827 36.4432V31.4592C57.6827 30.2957 56.7395 29.3525 55.576 29.3525Z" fill="#FB923C"/>
<path d="M52.4454 33.0032H27.5174C26.9931 33.0032 26.5681 33.4276 26.5681 33.9512C26.5681 34.4747 26.9931 34.8992 27.5174 34.8992H52.4454C52.9697 34.8992 53.3948 34.4747 53.3948 33.9512C53.3948 33.4276 52.9697 33.0032 52.4454 33.0032Z" fill="#A4E43A"/>
<path d="M4.57031 52.1313H14.957C17.3339 52.1313 19.2615 54.0582 19.2617 56.4351V66.8218C19.2617 69.1988 17.3341 71.1265 14.957 71.1265H4.57031C2.19344 71.1263 0.266602 69.1987 0.266602 66.8218V56.4351C0.266792 54.0583 2.19356 52.1315 4.57031 52.1313Z" fill="#A4E43A" stroke="white" stroke-width="0.533333"/>
<path d="M9.76274 66.9661C12.7112 66.9661 15.1014 64.5759 15.1014 61.6275C15.1014 58.679 12.7112 56.2888 9.76274 56.2888C6.81428 56.2888 4.42407 58.679 4.42407 61.6275C4.42407 64.5759 6.81428 66.9661 9.76274 66.9661Z" stroke="#121314" stroke-width="0.533333" stroke-linecap="round" stroke-linejoin="round"/>
<path d="M75.4293 51.8647H65.0426C62.5183 51.8647 60.4719 53.9111 60.4719 56.4354V66.8221C60.4719 69.3464 62.5183 71.3927 65.0426 71.3927H75.4293C77.9536 71.3927 79.9999 69.3464 79.9999 66.8221V56.4354C79.9999 53.9111 77.9536 51.8647 75.4293 51.8647Z" fill="#FB923C"/>
<path d="M70.2373 56.2915V66.9662" stroke="#121314" stroke-width="0.533333" stroke-linecap="round" stroke-linejoin="round"/>
<path d="M75.5733 61.6274H64.8987" stroke="#121314" stroke-width="0.533333" stroke-linecap="round" stroke-linejoin="round"/>
<path d="M74.0105 57.8542L66.4612 65.4036" stroke="#121314" stroke-width="0.533333" stroke-linecap="round" stroke-linejoin="round"/>
<path d="M74.0105 65.4036L66.4612 57.8542" stroke="#121314" stroke-width="0.533333" stroke-linecap="round" stroke-linejoin="round"/>
</svg>
