<svg width="132" height="50" viewBox="0 0 132 50" fill="none" xmlns="http://www.w3.org/2000/svg">
<path d="M104.795 15.1413C104.26 15.4441 103.759 15.8991 103.294 16.5048C102.829 17.0869 102.457 17.7271 102.177 18.4256C101.898 19.1011 101.758 19.7544 101.758 20.3833V39.2515C101.759 40.1829 102.061 40.823 102.666 41.1723L105.703 42.9196C106.308 43.269 107.018 43.2106 107.833 42.7448L118.411 36.6298V33.1365L115.374 31.3892L107.833 35.7483V31.564L118.411 25.4491V21.9544L115.374 20.2084L107.833 24.5661V20.3833L118.411 14.2683V10.7736L115.374 9.0263L104.795 15.1413ZM55.4525 9.20118C54.8475 8.85184 54.1375 8.91046 53.3232 9.37605L45.7817 13.7437C45.2464 14.0465 44.7456 14.5016 44.2802 15.1072C43.815 15.6893 43.4428 16.3295 43.1637 17.028C42.8845 17.7033 42.7447 18.3556 42.7446 18.9843V41.3472L45.7817 43.0945L48.8187 41.3472V34.3592L53.3232 31.7503V35.2322L56.3602 36.9795L59.3973 35.2322V12.8707C59.3973 11.939 59.0825 11.2979 58.4541 10.9485C58.2271 10.8175 57.9871 10.743 57.7339 10.7267C57.9975 10.7413 58.2497 10.8151 58.4896 10.9485L55.4525 9.20118ZM94.7951 9.20118C94.1901 8.85184 93.48 8.91046 92.6657 9.37605L85.1242 13.7437C84.5889 14.0465 84.0882 14.5016 83.6227 15.1072C83.1575 15.6893 82.7854 16.3295 82.5062 17.028C82.227 17.7033 82.0872 18.3556 82.0871 18.9843V41.3472L85.1242 43.0945L88.1613 41.3472V34.3592L92.6657 31.7503V35.2322L95.7028 36.9795L98.7398 35.2322V12.8707C98.7398 11.939 98.425 11.2979 97.7966 10.9485C97.5696 10.8175 97.3296 10.743 97.0764 10.7267C97.3401 10.7413 97.5922 10.8151 97.8321 10.9485L94.7951 9.20118ZM72.9944 10.7736V34.5341L68.49 37.1416V16.8886L65.4529 15.1413L62.4159 16.8886V37.1544C62.4159 38.0862 62.7185 38.7272 63.3236 39.0766L69.3977 42.5699C70.0028 42.9193 70.7017 42.8609 71.493 42.395L72.9944 41.5221C73.5295 41.2193 74.0292 40.7762 74.4945 40.1941C74.96 39.5885 75.3332 38.9366 75.6124 38.2378C75.8916 37.5392 76.0314 36.8869 76.0315 36.2814C76.5667 35.9786 77.0553 35.5357 77.4975 34.9535C77.9629 34.3479 78.3347 33.6946 78.614 32.9958C78.9164 32.2971 79.0686 31.6449 79.0686 31.0394V10.7736L76.0315 9.0263L72.9944 10.7736ZM53.3232 24.751L48.8187 27.3585V18.9843L53.3232 16.3754V24.751ZM92.6657 24.751L88.1613 27.3585V18.9843L92.6657 16.3754V24.751ZM18.5391 41.3472L21.5761 43.0945L24.6132 41.3472V18.9843L26.1147 18.1099V36.9795L29.1176 38.7269L32.1547 36.9795V14.6167L33.6548 13.7494V32.6119L36.6932 34.3592L39.7303 32.6119V10.249C39.7301 9.31763 39.4153 8.67755 38.7871 8.32822L35.7855 6.58087C35.1804 6.23146 34.4693 6.28987 33.6548 6.75575L21.5761 13.7437C21.0409 14.0465 20.5401 14.5016 20.0746 15.1072C19.6095 15.6893 19.2373 16.3295 18.9581 17.028C18.6789 17.7033 18.5392 18.3556 18.5391 18.9843V41.3472ZM122.775 14.2683C122.775 15.8283 121.943 17.27 120.593 18.0502L120.485 18.1113L120.584 18.1682C121.939 18.9472 122.775 20.3911 122.775 21.9544V25.4491C122.775 27.0092 121.943 28.4506 120.593 29.2309L120.485 29.2921L120.584 29.3489C121.939 30.128 122.775 31.573 122.775 33.1365V36.6298C122.775 38.1899 121.943 39.6328 120.593 40.4131L110.016 46.5266L109.997 46.5366C108.359 47.4735 105.923 48.0888 103.523 46.7029L100.491 44.9599L100.486 44.9556C98.7523 43.9547 97.9117 42.4151 97.5778 40.9207C96.2906 41.5346 94.7765 41.4852 93.528 40.7671L92.5251 40.1899V41.3472C92.5251 42.9107 91.6904 44.3557 90.3361 45.1347L87.299 46.8807C85.9526 47.6551 84.2958 47.6551 82.9494 46.8807L79.9123 45.1347C78.9997 44.6098 78.3234 43.7821 77.979 42.8201C77.97 42.832 77.9626 42.8452 77.9534 42.8571C77.9366 42.879 77.9196 42.9009 77.9023 42.9225C77.1712 43.8372 76.276 44.6698 75.1863 45.2954L75.1877 45.2982L73.6862 46.1712L73.6848 46.1698C72.0295 47.1379 69.6066 47.7295 67.2229 46.356L61.1488 42.8628L61.1431 42.8599C60.0881 42.2508 59.3626 41.4418 58.8816 40.5652L58.5336 40.7671C57.1875 41.5411 55.5315 41.5412 54.1854 40.7671L53.1825 40.1899V41.3472C53.1825 42.9107 52.3479 44.3557 50.9935 45.1347L47.9565 46.8807C46.6101 47.6551 44.9532 47.6551 43.6069 46.8807L40.5698 45.1347C39.2154 44.3557 38.3808 42.9107 38.3808 41.3472V38.3842C37.6757 38.6806 36.9125 38.7835 36.1662 38.6927C35.8001 39.5514 35.1636 40.2865 34.3281 40.7671L31.291 42.513C30.4702 42.9852 29.5351 43.1667 28.6247 43.0632C28.2584 43.9208 27.6226 44.6547 26.788 45.1347L23.7509 46.8807C22.4046 47.6551 20.7477 47.6551 19.4013 46.8807L16.3643 45.1347C15.0099 44.3557 14.1753 42.9107 14.1753 41.3472V18.9843C14.1754 17.6975 14.4624 16.4785 14.9253 15.3588C15.35 14.3089 15.9157 13.3327 16.6171 12.4428C17.3477 11.4924 18.2589 10.6124 19.3928 9.96324L31.4714 2.97387L31.4899 2.96391C33.0257 2.08552 35.2642 1.48905 37.5157 2.56013L37.966 2.79757L37.9788 2.80468L40.9803 4.55202L40.9789 4.55486C43.1271 5.78581 43.9363 7.85481 44.07 9.68742L51.137 5.59559L51.1569 5.58422C52.7951 4.64727 55.2327 4.03189 57.633 5.41787L57.6316 5.41929L60.6644 7.16237C60.8844 7.28899 61.089 7.43209 61.278 7.5889C62.5853 8.56174 63.2755 9.88599 63.5736 11.2002C64.8616 10.5846 66.3781 10.6363 67.6277 11.3551L68.6306 11.931V10.7736C68.6307 9.2102 69.4653 7.76654 70.8196 6.9875L73.8567 5.24015L74.1124 5.10366C75.4085 4.46841 76.9427 4.51426 78.2049 5.24015L81.2419 6.9875C82.2932 7.59217 83.0295 8.5977 83.3074 9.74856L90.4795 5.59559L90.4994 5.58422C92.1376 4.64727 94.5753 4.03189 96.9755 5.41787L96.9741 5.41929L100.007 7.16237C100.227 7.28899 100.432 7.43209 100.621 7.5889C101.923 8.55817 102.612 9.8765 102.912 11.186L113.191 5.24442L113.448 5.10793C114.745 4.46895 116.283 4.51278 117.547 5.24015L120.584 6.9875C121.939 7.76654 122.775 9.2102 122.775 10.7736V14.2683Z" fill="#121314"/>
</svg>
