<svg width="76" height="34" viewBox="0 0 76 34" fill="none" xmlns="http://www.w3.org/2000/svg">
<path d="M62.9692 10.4092C62.6013 10.6174 62.257 10.9302 61.937 11.3465C61.6172 11.7467 61.3614 12.1869 61.1694 12.667C60.9774 13.1314 60.8813 13.5806 60.8813 14.0129V26.9843C60.8814 27.6246 61.0895 28.0646 61.5054 28.3048L63.5933 29.506C64.0092 29.7462 64.4972 29.706 65.0571 29.3858L72.3296 25.1819V22.7804L70.2417 21.5792L65.0571 24.5759V21.6994L72.3296 17.4955V15.093L70.2417 13.8927L65.0571 16.8885V14.0129L72.3296 9.80907V7.40657L70.2417 6.20532L62.9692 10.4092ZM29.0474 6.32554C28.6315 6.08538 28.1433 6.12568 27.5835 6.44576L22.3989 9.4484C22.0309 9.65658 21.6867 9.9694 21.3667 10.3857C21.0469 10.7859 20.791 11.2261 20.5991 11.7062C20.4072 12.1705 20.3111 12.6189 20.311 13.0512V28.425L22.3989 29.6263L24.4868 28.425V23.621L27.5835 21.8274V24.2211L29.6714 25.4224L31.7593 24.2211V8.84826C31.7593 8.2077 31.5428 7.767 31.1108 7.52679C30.9548 7.4367 30.7898 7.38553 30.6157 7.37431C30.797 7.38432 30.9703 7.43508 31.1353 7.52679L29.0474 6.32554ZM56.0942 6.32554C55.6783 6.08538 55.1902 6.12568 54.6304 6.44576L49.4458 9.4484C49.0778 9.65658 48.7336 9.9694 48.4136 10.3857C48.0938 10.7859 47.8379 11.2261 47.646 11.7062C47.4541 12.1705 47.358 12.6189 47.3579 13.0512V28.425L49.4458 29.6263L51.5337 28.425V23.621L54.6304 21.8274V24.2211L56.7183 25.4224L58.8062 24.2211V8.84826C58.8062 8.2077 58.5897 7.767 58.1577 7.52679C58.0017 7.4367 57.8367 7.38553 57.6626 7.37431C57.8439 7.38432 58.0172 7.43508 58.1821 7.52679L56.0942 6.32554ZM41.1069 7.40657V23.7412L38.0103 25.5338V11.6105L35.9224 10.4092L33.8345 11.6105V25.5426C33.8345 26.1831 34.0425 26.6239 34.4585 26.8641L38.6343 29.2656C39.0503 29.5058 39.5307 29.4656 40.0747 29.1454L41.1069 28.5452C41.4748 28.3371 41.8183 28.0325 42.1382 27.6323C42.4582 27.216 42.7147 26.7678 42.9067 26.2874C43.0987 25.8071 43.1948 25.3587 43.1948 24.9425C43.5628 24.7343 43.8987 24.4298 44.2026 24.0295C44.5226 23.6132 44.7782 23.1641 44.9702 22.6836C45.1781 22.2033 45.2827 21.755 45.2827 21.3387V7.40657L43.1948 6.20532L41.1069 7.40657ZM27.5835 17.0156L24.4868 18.8082V13.0512L27.5835 11.2576V17.0156ZM54.6304 17.0156L51.5337 18.8082V13.0512L54.6304 11.2576V17.0156ZM3.67041 28.425L5.7583 29.6263L7.84619 28.425V13.0512L8.87842 12.4501V25.4224L10.9429 26.6236L13.0308 25.4224V10.0485L14.062 9.45231V22.4197L16.1509 23.621L18.2388 22.4197V7.0459C18.2387 6.4056 18.0222 5.96556 17.5903 5.72541L15.5269 4.52416C15.1109 4.28395 14.622 4.3241 14.062 4.64438L5.7583 9.4484C5.39032 9.65658 5.04606 9.9694 4.72607 10.3857C4.40629 10.7859 4.15042 11.2261 3.9585 11.7062C3.76656 12.1705 3.67048 12.6189 3.67041 13.0512V28.425ZM75.3296 9.80907C75.3295 10.8815 74.7575 11.8726 73.8296 12.409L73.7554 12.451L73.8237 12.4901C74.7547 13.0256 75.3294 14.0183 75.3296 15.093V17.4955C75.3296 18.5681 74.7576 19.559 73.8296 20.0954L73.7554 20.1375L73.8237 20.1766C74.7548 20.7121 75.3296 21.7055 75.3296 22.7804V25.1819C75.3296 26.2545 74.7576 27.2464 73.8296 27.7828L66.5581 31.9857L66.5454 31.9926C65.4192 32.6367 63.7443 33.0597 62.0942 32.1069L60.0103 30.9086L60.0063 30.9057C58.8147 30.2176 58.2369 29.1591 58.0073 28.1318C57.1224 28.5538 56.0815 28.5199 55.2231 28.0262L54.5337 27.6294V28.425C54.5337 29.4999 53.9599 30.4933 53.0288 31.0289L50.9409 32.2291C50.0153 32.7615 48.8763 32.7615 47.9507 32.2291L45.8628 31.0289C45.2354 30.668 44.7705 30.099 44.5337 29.4376C44.5275 29.4458 44.5224 29.4549 44.5161 29.463C44.5045 29.4781 44.4928 29.4931 44.481 29.508C43.9783 30.1368 43.3629 30.7092 42.6138 31.1393L42.6147 31.1413L41.5825 31.7414L41.5815 31.7404C40.4435 32.406 38.7779 32.8127 37.1392 31.8685L32.9634 29.4669L32.9595 29.465C32.2342 29.0462 31.7354 28.4901 31.4048 27.8874L31.1655 28.0262C30.2401 28.5583 29.1017 28.5584 28.1763 28.0262L27.4868 27.6294V28.425C27.4868 29.4999 26.913 30.4933 25.9819 31.0289L23.894 32.2291C22.9685 32.7615 21.8294 32.7615 20.9038 32.2291L18.8159 31.0289C17.8848 30.4933 17.311 29.4999 17.311 28.425V26.3881C16.8263 26.5918 16.3016 26.6625 15.7886 26.6002C15.5369 27.1905 15.0993 27.6958 14.5249 28.0262L12.437 29.2265C11.8727 29.5511 11.2299 29.6758 10.604 29.6048C10.3522 30.1943 9.91508 30.6988 9.34131 31.0289L7.25342 32.2291C6.32783 32.7615 5.18877 32.7615 4.26318 32.2291L2.17529 31.0289C1.2442 30.4933 0.67041 29.4999 0.67041 28.425V13.0512C0.670478 12.1665 0.867841 11.3285 1.18604 10.5587C1.47805 9.83693 1.86693 9.16586 2.34912 8.55406C2.85135 7.90071 3.47779 7.29575 4.25732 6.84944L12.561 2.04444L12.5737 2.0376C13.6296 1.43373 15.1685 1.02367 16.7163 1.76001L17.0259 1.92324L17.0347 1.92813L19.0981 3.12938L19.0972 3.13133C20.574 3.97757 21.1303 5.39995 21.2222 6.65982L26.0806 3.8468L26.0942 3.83899C27.2205 3.19486 28.8963 2.7718 30.5464 3.72463L30.5454 3.72561L32.6304 4.92392C32.7816 5.01096 32.9223 5.10934 33.0522 5.21715C33.9509 5.88595 34.4254 6.79633 34.6304 7.69979C35.5158 7.27662 36.5584 7.31217 37.4175 7.80633L38.1069 8.20219V7.40657C38.107 6.33175 38.6807 5.33927 39.6118 4.8037L41.6997 3.60245L41.8755 3.50862C42.7666 3.0719 43.8213 3.10342 44.689 3.60245L46.7769 4.8037C47.4995 5.2194 48.0057 5.91067 48.1968 6.70185L53.1274 3.8468L53.1411 3.83899C54.2673 3.19486 55.9431 2.7718 57.5933 3.72463L57.5923 3.72561L59.6772 4.92392C59.8285 5.01096 59.9692 5.10934 60.0991 5.21715C60.9945 5.88349 61.4682 6.78981 61.6743 7.69002L68.7407 3.60538L68.9175 3.51155C69.8095 3.07227 70.8664 3.1024 71.7358 3.60245L73.8237 4.8037C74.7548 5.33927 75.3296 6.33175 75.3296 7.40657V9.80907Z" fill="#121314"/>
</svg>
