<svg width="16" height="16" viewBox="0 0 16 16" fill="none" xmlns="http://www.w3.org/2000/svg">
<g clip-path="url(#clip0_348_20422)">
<path fill-rule="evenodd" clip-rule="evenodd" d="M14.9129 11.784C13.9883 12.6233 12.7996 13.3693 11.3583 14.062C11.3876 14.082 11.4156 14.1 11.4449 14.1173L11.4569 14.124L11.4696 14.132C11.6136 14.214 11.7496 14.2547 11.8969 14.2547C12.0449 14.2547 12.1809 14.214 12.3249 14.132L12.3369 14.1247L12.3496 14.1173C12.4429 14.0613 12.5269 13.9987 12.6776 13.8733L12.7963 13.7747C12.9823 13.62 13.0803 13.5467 13.2129 13.4707C13.4156 13.3547 13.6209 13.2933 13.8456 13.2933C14.0703 13.2933 14.2756 13.3547 14.4783 13.4707L14.4936 13.48C14.6189 13.5527 14.7163 13.626 14.8949 13.7747L15.0136 13.8733C15.1609 13.996 15.2443 14.0587 15.3356 14.1133L15.3543 14.1247L15.3663 14.1313C15.5063 14.2113 15.6376 14.252 15.7796 14.2547H15.7943C15.8227 14.2524 15.8513 14.256 15.8783 14.2653C15.9053 14.2746 15.93 14.2894 15.951 14.3088C15.972 14.3281 15.9887 14.3516 16.0002 14.3778C16.0116 14.4039 16.0175 14.4321 16.0175 14.4607C16.0175 14.4892 16.0116 14.5174 16.0002 14.5436C15.9887 14.5697 15.972 14.5932 15.951 14.6125C15.93 14.6319 15.9053 14.6467 15.8783 14.656C15.8513 14.6653 15.8227 14.669 15.7943 14.6667C15.5696 14.6667 15.3643 14.6053 15.1609 14.4893C15.1407 14.4777 15.1207 14.4657 15.1009 14.4533L15.0863 14.444L15.0716 14.4353L15.0583 14.426C14.9446 14.3486 14.8356 14.2647 14.7316 14.1747L14.6256 14.0867C14.5247 13.9983 14.4171 13.9181 14.3036 13.8467L14.2856 13.8353L14.2729 13.8287C14.1442 13.7498 13.9966 13.7072 13.8456 13.7053C13.6976 13.7053 13.5616 13.746 13.4183 13.828L13.4049 13.8353L13.3929 13.8427C13.2996 13.8987 13.2156 13.9613 13.0649 14.0867L12.9596 14.1747C12.8518 14.2683 12.7383 14.3552 12.6196 14.4347L12.6049 14.444L12.5903 14.4533L12.5303 14.4893C12.3389 14.6041 12.1201 14.6654 11.8969 14.6667C11.6723 14.6667 11.4676 14.6053 11.2643 14.4893C11.2441 14.4777 11.2241 14.4657 11.2043 14.4533L11.1896 14.444L11.1749 14.4353L11.1576 14.424C11.0593 14.357 10.9647 14.2847 10.8743 14.2073C10.8423 14.1924 10.8148 14.1694 10.7943 14.1407L10.7289 14.0867C10.6281 13.9983 10.5204 13.9181 10.4069 13.8467L10.3889 13.8353L10.3763 13.8287C10.2476 13.7498 10.0999 13.7072 9.94894 13.7053C9.80094 13.7053 9.66494 13.746 9.52094 13.828L9.50894 13.8353L9.49627 13.8427C9.40294 13.8987 9.31894 13.9613 9.16827 14.0867L9.06294 14.1747C8.95515 14.2683 8.84159 14.3552 8.72294 14.4347L8.70761 14.444L8.69294 14.4533L8.63294 14.4893C8.44173 14.604 8.22323 14.6653 8.00027 14.6667C7.77561 14.6667 7.57027 14.6053 7.3676 14.4893C7.34741 14.4777 7.3274 14.4657 7.30761 14.4533L7.29294 14.444L7.27827 14.4353L7.26427 14.426C7.15063 14.3486 7.04156 14.2647 6.9376 14.1747L6.83227 14.0867C6.7314 13.9983 6.62373 13.9181 6.51027 13.8467L6.49161 13.8353L6.4796 13.8287C6.35069 13.7497 6.20279 13.707 6.0516 13.7053C5.90427 13.7053 5.76827 13.746 5.62427 13.828L5.6116 13.8353L5.59961 13.8427C5.5056 13.8987 5.42227 13.9613 5.27161 14.0867L5.16627 14.1747C5.05827 14.2684 4.94449 14.3552 4.8256 14.4347L4.81094 14.444L4.79627 14.4533L4.73627 14.4893C4.53775 14.6079 4.31014 14.6688 4.07894 14.6653C3.5816 14.6053 3.1996 14.412 2.81894 14.088L2.7956 14.068C2.76427 14.0407 2.71694 13.9973 2.6676 13.952L2.53694 13.8313L2.4656 13.7647L2.45827 13.758C2.39172 13.6917 2.31634 13.635 2.23427 13.5893C2.21436 13.5793 2.19298 13.5726 2.17094 13.5693H2.1676C2.08827 13.584 2.00894 13.6087 1.92694 13.6427C1.91211 13.6589 1.89478 13.6726 1.8756 13.6833L1.87027 13.6867C1.8442 13.7001 1.81557 13.7078 1.78627 13.7093C1.60508 13.8101 1.43249 13.9256 1.27027 14.0547L0.992938 14.2707L0.956271 14.2993C0.885895 14.354 0.813861 14.4064 0.740271 14.4567C0.536938 14.5947 0.372271 14.6667 0.206938 14.6667C0.155041 14.6634 0.106275 14.6407 0.0703684 14.6031C0.0344614 14.5655 0.014052 14.5157 0.0132107 14.4637C0.0123694 14.4118 0.0311581 14.3614 0.0658294 14.3226C0.100501 14.2838 0.148506 14.2596 0.200271 14.2547H0.206938C0.266938 14.2547 0.363604 14.2133 0.498938 14.1227L0.525604 14.1047C0.576938 14.0687 0.634271 14.0267 0.705604 13.972L0.962271 13.7713L1.00227 13.74C1.18094 13.6027 1.3396 13.4913 1.48894 13.4033L1.06694 12.5967C1.05112 12.5663 1.04313 12.5324 1.0437 12.4982C1.04427 12.4639 1.05337 12.4303 1.07018 12.4005C1.08699 12.3706 1.11099 12.3454 1.13999 12.3272C1.16899 12.3089 1.20208 12.2982 1.23627 12.296L14.7609 11.426C14.8036 11.4232 14.846 11.4337 14.8824 11.4562C14.9188 11.4786 14.9473 11.5117 14.964 11.5511C14.9807 11.5904 14.9848 11.6339 14.9756 11.6757C14.9665 11.7174 14.9446 11.7553 14.9129 11.784ZM14.1676 11.8773L1.5796 12.6867L1.8616 13.226C1.94694 13.196 2.03227 13.174 2.12027 13.1593C2.13171 13.1572 2.14331 13.1561 2.15494 13.156C2.24294 13.156 2.32827 13.1773 2.41227 13.218C2.51427 13.2667 2.60827 13.3373 2.73427 13.4513L2.74494 13.4613L2.80627 13.5187L2.90227 13.608L2.96694 13.6673C3.01027 13.7073 3.05027 13.7433 3.07361 13.7633C3.39694 14.042 3.70561 14.202 4.1096 14.254H4.11694C4.25782 14.2502 4.39545 14.2108 4.51694 14.1393L4.53094 14.132L4.5436 14.1247L4.5556 14.1173C4.64961 14.0613 4.73294 13.9987 4.88361 13.8733L5.00227 13.7747C5.18827 13.62 5.28627 13.5467 5.41894 13.4707C5.62227 13.3547 5.82694 13.2933 6.05227 13.2933C6.27627 13.2933 6.48161 13.3547 6.68427 13.4707L6.6996 13.48C6.82494 13.5527 6.92294 13.626 7.10161 13.7747L7.21961 13.8733C7.36761 13.996 7.45027 14.0587 7.54227 14.1133L7.56027 14.1247L7.57294 14.1313C7.71627 14.214 7.85294 14.2547 8.00027 14.2547C8.14827 14.2547 8.28427 14.214 8.4276 14.132L8.44027 14.1247L8.45227 14.1173C8.54627 14.0613 8.63027 13.9987 8.78094 13.8733L8.89894 13.7747C9.0856 13.62 9.18361 13.5467 9.31627 13.4707C9.51894 13.3547 9.72427 13.2933 9.94894 13.2933C10.1736 13.2933 10.3783 13.3547 10.5816 13.4707L10.5983 13.4807C10.7229 13.5533 10.8209 13.6273 11.0003 13.776C12.2449 13.1907 13.2989 12.5687 14.1536 11.888L14.1676 11.8773ZM2.4356 1.35066C4.04894 2.04 5.7936 3.294 7.20027 4.83866C8.84027 6.63866 9.93961 8.724 10.2916 10.938C10.2971 10.974 10.293 11.0108 10.2798 11.0447C10.2665 11.0786 10.2445 11.1083 10.216 11.131C10.1875 11.1537 10.1536 11.1684 10.1175 11.1737C10.0815 11.1791 10.0448 11.1748 10.0109 11.1613C8.44561 10.5313 6.98427 10.3227 5.6176 10.4813C4.45827 10.6147 3.39294 11.0093 2.40694 11.6167C2.21094 11.738 1.9936 11.4953 2.13694 11.314C3.37427 9.744 3.8576 7.98733 3.69894 6.118C3.56894 4.59 3.0116 3.04466 2.17627 1.64533C2.15441 1.60788 2.14488 1.56449 2.14904 1.52133C2.1532 1.47816 2.17083 1.43739 2.19944 1.4048C2.22805 1.37221 2.26619 1.34944 2.30845 1.33973C2.35072 1.33001 2.39497 1.33384 2.43494 1.35066H2.4356ZM6.6936 2.96666C7.87894 3.32866 9.28827 4.368 10.5483 5.79533C11.8709 7.294 12.9163 9.08466 13.4463 10.85C13.4571 10.8865 13.4576 10.9254 13.4477 10.9622C13.4378 10.999 13.4179 11.0324 13.3902 11.0586C13.3626 11.0848 13.3282 11.1029 13.2909 11.1108C13.2536 11.1187 13.2149 11.1161 13.1789 11.1033L13.1643 11.0967L12.9069 10.994C12.8426 10.9682 12.778 10.9433 12.7129 10.9193L12.7023 10.9153C12.2489 10.7507 11.9029 10.7213 11.4063 10.848C11.3539 10.8613 11.2984 10.8535 11.2516 10.8263C11.2049 10.7992 11.1707 10.7548 11.1563 10.7027C10.2523 7.41533 8.7156 4.85066 6.51694 3.33333C6.32294 3.19933 6.46894 2.898 6.69427 2.96666H6.6936ZM2.84894 1.99733L2.85427 2.00733C3.5396 3.30066 3.99294 4.69466 4.11094 6.08266C4.25294 7.758 3.90427 9.35333 2.9956 10.8107L2.98227 10.8313L2.98427 10.8307C3.78294 10.4433 4.63094 10.1847 5.53427 10.076L5.57094 10.072C6.8916 9.91866 8.29294 10.0913 9.77694 10.63L9.82094 10.6467L9.81627 10.6207C9.42094 8.654 8.41094 6.796 6.94294 5.168L6.89627 5.116C5.70627 3.80933 4.26694 2.716 2.88694 2.016L2.84894 1.99733ZM8.12894 4.156L8.16094 4.188C9.65227 5.718 10.7509 7.80866 11.4769 10.3153L11.5023 10.4033L11.5169 10.4007C11.9903 10.312 12.3729 10.3587 12.8256 10.5207L12.8436 10.5273L12.8876 10.5433L12.9183 10.5553L12.9016 10.5067C12.3609 8.96866 11.4296 7.42666 10.2776 6.11066L10.2389 6.06733C9.55894 5.29733 8.83694 4.646 8.13894 4.16333L8.12894 4.156Z" fill="#121314"/>
</g>
<defs>
<clipPath id="clip0_348_20422">
<rect width="16" height="16" fill="white"/>
</clipPath>
</defs>
</svg>
