<svg width="80" height="80" viewBox="0 0 80 80" fill="none" xmlns="http://www.w3.org/2000/svg">
<path d="M13.8962 14.0806H50.1168C53.3729 14.0806 56.0125 16.7232 56.0125 19.983C56.0125 23.2428 53.3729 25.8855 50.1168 25.8855H13.8962C10.6401 25.8855 8.00049 23.2428 8.00049 19.983C8.00049 16.7232 10.6401 14.0806 13.8962 14.0806Z" fill="#4458FF"/>
<path d="M14.8087 19.0698H49.2046C49.7085 19.0698 50.1169 19.4788 50.1169 19.9832C50.1169 20.4877 49.7085 20.8967 49.2046 20.8967H14.8087C14.3048 20.8967 13.8963 20.4877 13.8963 19.9832C13.8963 19.4788 14.3048 19.0698 14.8087 19.0698Z" fill="#121314"/>
<path d="M71.3945 15.4668C71.3943 14.4197 70.1314 13.898 69.3936 14.6367L60.4502 23.5898C59.7121 24.3299 60.2364 25.5946 61.2793 25.5947H70.2227C70.8698 25.5947 71.3944 25.0696 71.3945 24.4209V15.4668Z" fill="#FB923C" stroke="#121314" stroke-width="0.579647"/>
<path d="M8.00041 39.9024C8.00041 36.6426 10.64 34 13.8961 34C17.1522 34 19.7917 36.6426 19.7917 39.9024C19.7917 43.1623 17.1522 45.8049 13.8961 45.8049C10.64 45.8049 8.00041 43.1623 8.00041 39.9024Z" stroke="#121314" stroke-width="0.579647" stroke-linecap="round" stroke-linejoin="round"/>
<path d="M65.7888 34.29H49.7556C46.66 34.2902 44.1502 36.8024 44.1501 39.9023C44.1501 43.0023 46.66 45.5145 49.7556 45.5146H65.7888C68.8845 45.5146 71.3943 43.0024 71.3943 39.9023C71.3942 36.8024 68.8844 34.2901 65.7888 34.29Z" fill="#A4E43A" stroke="#121314" stroke-width="0.579647"/>
<path d="M51.9721 39.9027C51.9721 39.3982 52.3806 38.9893 52.8845 38.9893C53.3884 38.9893 53.7969 39.3982 53.7969 39.9027C53.7969 40.4071 53.3884 40.8161 52.8845 40.8161C52.3806 40.8161 51.9721 40.4071 51.9721 39.9027Z" stroke="#121314" stroke-width="0.434735" stroke-linecap="round" stroke-linejoin="round"/>
<path d="M61.7485 39.9027C61.7485 39.3982 62.157 38.9893 62.6609 38.9893C63.1648 38.9893 63.5732 39.3982 63.5732 39.9027C63.5732 40.4071 63.1648 40.8161 62.6609 40.8161C62.157 40.8161 61.7485 40.4071 61.7485 39.9027Z" stroke="#121314" stroke-width="0.434735" stroke-linecap="round" stroke-linejoin="round"/>
<path d="M56.8606 39.9027C56.8606 39.3982 57.269 38.9893 57.7729 38.9893C58.2768 38.9893 58.6853 39.3982 58.6853 39.9027C58.6853 40.4071 58.2768 40.8161 57.7729 40.8161C57.269 40.8161 56.8606 40.4071 56.8606 39.9027Z" stroke="#121314" stroke-width="0.434735" stroke-linecap="round" stroke-linejoin="round"/>
<path d="M24.3716 38.9437C24.7785 37.979 25.362 37.1144 26.1038 36.3717C26.8456 35.629 27.7105 35.0461 28.6728 34.6376C29.6717 34.2144 30.7302 34.001 31.8204 34.001C32.9106 34.001 33.9704 34.2156 34.968 34.6376C35.9315 35.0449 36.7952 35.629 37.537 36.3717C38.2788 37.1144 38.8611 37.9802 39.2692 38.9437C39.6919 39.9437 39.905 41.0034 39.905 42.0949V44.2071C39.905 45.0888 39.1912 45.8046 38.3093 45.8046H36.8415C35.9608 45.8046 35.2457 45.09 35.2457 44.2071V42.1681C35.2457 40.301 33.7864 38.7193 31.9215 38.6644C30.0566 38.6095 28.389 40.1681 28.389 42.0949V44.2071C28.389 45.0888 27.6752 45.8046 26.7932 45.8046H25.3254C24.4447 45.8046 23.7297 45.09 23.7297 44.2071V42.0949C23.7297 41.0034 23.9441 39.9424 24.3655 38.9437H24.3716Z" fill="#FB923C"/>
<path d="M29.6404 54H65.7891C69.0452 54 71.6848 56.6426 71.6848 59.9024C71.6848 63.1623 69.0452 65.8049 65.7891 65.8049H29.6404C26.3843 65.8049 23.7447 63.1623 23.7447 59.9024C23.7447 56.6426 26.3843 54 29.6404 54Z" fill="#4458FF"/>
<path d="M30.5529 58.9888H64.8769C65.3808 58.9888 65.7893 59.3977 65.7893 59.9022C65.7893 60.4066 65.3808 60.8156 64.8769 60.8156H30.5529C30.049 60.8156 29.6406 60.4066 29.6406 59.9022C29.6406 59.3977 30.049 58.9888 30.5529 58.9888Z" fill="#FB923C"/>
<path d="M10.7607 54H17.0315C18.5559 54 19.7917 55.2372 19.7917 56.7634V63.0415C19.7917 64.5677 18.5559 65.8049 17.0315 65.8049H10.7607C9.23622 65.8049 8.00041 64.5677 8.00041 63.0415V56.7634C8.00041 55.2372 9.23622 54 10.7607 54Z" fill="#FB923C"/>
<path d="M13.8962 56.6758V63.1294" stroke="#121314" stroke-width="0.579647" stroke-linecap="round" stroke-linejoin="round"/>
<path d="M10.6731 59.9028H17.1194" stroke="#121314" stroke-width="0.579647" stroke-linecap="round" stroke-linejoin="round"/>
<path d="M11.6169 57.6211L16.175 62.1845" stroke="#121314" stroke-width="0.579647" stroke-linecap="round" stroke-linejoin="round"/>
<path d="M11.6169 62.1845L16.175 57.6211" stroke="#121314" stroke-width="0.579647" stroke-linecap="round" stroke-linejoin="round"/>
</svg>
