<svg width="16" height="16" viewBox="0 0 16 16" fill="none" xmlns="http://www.w3.org/2000/svg">
<path d="M4.23762 4.23762C4.38981 4.08547 4.5962 4 4.8114 4C5.0266 4 5.23299 4.08547 5.38518 4.23762L8.2549 7.10734L11.1246 4.23762C11.2777 4.08978 11.4827 4.00798 11.6955 4.00983C11.9083 4.01168 12.1118 4.09703 12.2623 4.2475C12.4128 4.39798 12.4981 4.60153 12.5 4.81432C12.5018 5.02711 12.42 5.23212 12.2722 5.38518L9.40246 8.2549L12.2722 11.1246C12.42 11.2777 12.5018 11.4827 12.5 11.6955C12.4981 11.9083 12.4128 12.1118 12.2623 12.2623C12.1118 12.4128 11.9083 12.4981 11.6955 12.5C11.4827 12.5018 11.2777 12.42 11.1246 12.2722L8.2549 9.40246L5.38518 12.2722C5.23212 12.42 5.02711 12.5018 4.81432 12.5C4.60153 12.4981 4.39798 12.4128 4.2475 12.2623C4.09703 12.1118 4.01168 11.9083 4.00983 11.6955C4.00798 11.4827 4.08978 11.2777 4.23762 11.1246L7.10734 8.2549L4.23762 5.38518C4.08547 5.23299 4 5.0266 4 4.8114C4 4.5962 4.08547 4.38981 4.23762 4.23762Z" fill="#CA3542"/>
</svg>
