<svg width="16" height="16" viewBox="0 0 16 16" fill="none" xmlns="http://www.w3.org/2000/svg">
<path fill-rule="evenodd" clip-rule="evenodd" d="M3.33331 2.66669C2.22874 2.66669 1.33331 3.56212 1.33331 4.66669V11.3334C1.33331 12.4379 2.22874 13.3334 3.33331 13.3334H12.6666C13.7712 13.3334 14.6666 12.4379 14.6666 11.3334V4.66669C14.6666 3.56212 13.7712 2.66669 12.6666 2.66669H3.33331ZM13.0033 5.77441C13.0033 6.68072 12.2519 7.41543 11.325 7.41543C10.3981 7.41543 9.64668 6.68072 9.64668 5.77441C9.64668 4.86809 10.3981 4.13338 11.325 4.13338C12.2519 4.13338 13.0033 4.86809 13.0033 5.77441ZM2.79998 10.7602V9.62902C2.79998 9.27944 2.96547 8.95049 3.24616 8.74211L4.98439 7.45175C5.42616 7.12381 6.04193 7.17098 6.42859 7.56239L9.74976 10.9244C10.0944 11.2733 9.84727 11.8648 9.35686 11.8648H3.90455C3.29451 11.8648 2.79998 11.3703 2.79998 10.7602Z" fill="white"/>
</svg>
