<svg width="36" height="16" viewBox="0 0 36 16" fill="none" xmlns="http://www.w3.org/2000/svg">
<path d="M8 0.25H28C32.2802 0.25 35.75 3.71979 35.75 8C35.75 12.2802 32.2802 15.75 28 15.75H8C3.71979 15.75 0.25 12.2802 0.25 8C0.25 3.71979 3.71979 0.25 8 0.25Z" fill="#42434A"/>
<path d="M8 0.25H28C32.2802 0.25 35.75 3.71979 35.75 8C35.75 12.2802 32.2802 15.75 28 15.75H8C3.71979 15.75 0.25 12.2802 0.25 8C0.25 3.71979 3.71979 0.25 8 0.25Z" stroke="#C8CDE3" stroke-width="0.5"/>
<path d="M6.73755 11.872V4.39203H9.65255C11.5005 4.39203 12.6445 5.32703 12.6445 6.90003C12.6445 8.50603 11.4895 9.43003 9.67455 9.43003H8.49755V11.872H6.73755ZM9.61955 5.78903H8.49755V8.03303H9.57555C10.4335 8.03303 10.8295 7.58203 10.8295 6.91103C10.8295 6.22903 10.4115 5.78903 9.61955 5.78903Z" fill="#C8CDE3"/>
<path d="M13.9858 11.872V3.95203H15.6688V11.872H13.9858Z" fill="#C8CDE3"/>
<path d="M20.8702 9.35303V5.95403H22.5532V11.872H20.8702V11.08C20.4852 11.74 19.9022 12.048 19.1872 12.048C18.0652 12.048 17.2402 11.366 17.2402 9.89203V5.95403H18.9232V9.55103C18.9232 10.31 19.2092 10.684 19.8032 10.684C20.4522 10.684 20.8702 10.112 20.8702 9.35303Z" fill="#C8CDE3"/>
<path d="M25.5993 7.59303C25.5993 8.75903 29.2623 7.73603 29.2623 10.079C29.2623 11.245 28.1843 12.048 26.6443 12.048C25.1483 12.048 24.0703 11.388 23.8503 9.92503H25.5333C25.6103 10.475 26.0613 10.772 26.6883 10.772C27.2823 10.772 27.5793 10.541 27.5793 10.178C27.5793 9.03403 23.9933 10.057 23.9933 7.68103C23.9933 6.69103 24.7963 5.76703 26.3803 5.76703C27.7993 5.76703 28.8773 6.41603 29.0423 7.91203H27.3703C27.2713 7.30703 26.9193 7.05403 26.3253 7.05403C25.8853 7.05403 25.5993 7.27403 25.5993 7.59303Z" fill="#C8CDE3"/>
</svg>
