<svg width="36" height="16" viewBox="0 0 36 16" fill="none" xmlns="http://www.w3.org/2000/svg">
<path d="M8 0.25H28C32.2802 0.25 35.75 3.71979 35.75 8C35.75 12.2802 32.2802 15.75 28 15.75H8C3.71979 15.75 0.25 12.2802 0.25 8C0.25 3.71979 3.71979 0.25 8 0.25Z" fill="#423F21"/>
<path d="M8 0.25H28C32.2802 0.25 35.75 3.71979 35.75 8C35.75 12.2802 32.2802 15.75 28 15.75H8C3.71979 15.75 0.25 12.2802 0.25 8C0.25 3.71979 3.71979 0.25 8 0.25Z" stroke="#FFEDB6" stroke-width="0.5"/>
<path d="M9.1814 11.652V4.172H12.0964C13.9444 4.172 15.0884 5.107 15.0884 6.68C15.0884 8.286 13.9334 9.21 12.1184 9.21H10.9414V11.652H9.1814ZM12.0634 5.569H10.9414V7.813H12.0194C12.8774 7.813 13.2734 7.362 13.2734 6.691C13.2734 6.009 12.8554 5.569 12.0634 5.569Z" fill="#FFEDB6"/>
<path d="M16.4296 11.652V5.734H18.1126V6.559C18.4866 5.855 19.0586 5.547 19.6636 5.547C19.9056 5.547 20.1256 5.613 20.2466 5.734V7.153C20.0486 7.109 19.8396 7.087 19.5756 7.087C18.5636 7.087 18.1126 7.659 18.1126 8.594V11.652H16.4296Z" fill="#FFEDB6"/>
<path d="M23.9034 11.828C22.1104 11.828 20.9994 10.64 20.9994 8.693C20.9994 6.68 22.1434 5.547 23.9034 5.547C25.6964 5.547 26.8184 6.757 26.8184 8.693C26.8184 10.695 25.6634 11.828 23.9034 11.828ZM23.9034 10.464C24.6844 10.464 25.0914 9.848 25.0914 8.693C25.0914 7.549 24.6734 6.911 23.9034 6.911C23.1334 6.911 22.7264 7.538 22.7264 8.693C22.7264 9.837 23.1444 10.464 23.9034 10.464Z" fill="#FFEDB6"/>
</svg>
