<svg width="20" height="20" viewBox="0 0 20 20" fill="none" xmlns="http://www.w3.org/2000/svg">
<rect width="20" height="20" rx="10" fill="#121314"/>
<path fill-rule="evenodd" clip-rule="evenodd" d="M10.0026 11.1217L12.8058 13.9249C12.9545 14.0736 13.1563 14.1572 13.3666 14.1572C13.577 14.1572 13.7787 14.0736 13.9275 13.9249C14.0762 13.7761 14.1598 13.5744 14.1598 13.364C14.1598 13.1537 14.0762 12.9519 13.9275 12.8032L11.1232 10L13.9269 7.19684C14.0005 7.12318 14.0589 7.03575 14.0988 6.93954C14.1386 6.84332 14.1591 6.7402 14.1591 6.63607C14.159 6.53193 14.1385 6.42882 14.0986 6.33263C14.0587 6.23643 14.0003 6.14902 13.9267 6.07541C13.853 6.00179 13.7656 5.9434 13.6694 5.90357C13.5732 5.86375 13.47 5.84326 13.3659 5.84329C13.2618 5.84331 13.1587 5.86384 13.0625 5.90372C12.9663 5.94359 12.8789 6.00202 12.8052 6.07567L10.0026 8.87885L7.19942 6.07567C7.12631 5.99991 7.03885 5.93946 6.94213 5.89786C6.84541 5.85626 6.74138 5.83434 6.6361 5.83338C6.53082 5.83241 6.4264 5.85243 6.32894 5.89225C6.23148 5.93207 6.14292 5.9909 6.06844 6.06531C5.99396 6.13973 5.93504 6.22823 5.89512 6.32565C5.85521 6.42308 5.8351 6.52748 5.83596 6.63276C5.83683 6.73804 5.85865 6.84209 5.90016 6.93885C5.94167 7.03561 6.00203 7.12313 6.07773 7.19631L8.88196 10L6.07826 12.8037C6.00256 12.8769 5.9422 12.9644 5.90069 13.0612C5.85918 13.1579 5.83736 13.262 5.83649 13.3673C5.83563 13.4725 5.85574 13.5769 5.89565 13.6744C5.93557 13.7718 5.99448 13.8603 6.06897 13.9347C6.14345 14.0091 6.232 14.068 6.32947 14.1078C6.42693 14.1476 6.53135 14.1676 6.63663 14.1666C6.74191 14.1657 6.84594 14.1438 6.94266 14.1022C7.03938 14.0606 7.12684 14.0001 7.19995 13.9243L10.0026 11.1217Z" fill="white"/>
</svg>
