<svg width="24" height="24" viewBox="0 0 24 24" fill="none" xmlns="http://www.w3.org/2000/svg">
<path d="M15.1648 8.7644C15.1843 8.74511 15.2156 8.74512 15.2351 8.7644C15.2546 8.78394 15.2546 8.81616 15.2351 8.83569L4.03491 20.0349C4.0154 20.0544 3.98411 20.0544 3.9646 20.0349L3.95386 20.0183C3.94671 20.0004 3.94999 19.9793 3.9646 19.9646L15.1648 8.7644ZM18.364 5.56323C18.3836 5.54416 18.4158 5.54503 18.4353 5.56421C18.45 5.57891 18.4535 5.60075 18.446 5.6189L18.4353 5.6355L16.8357 7.23511C16.816 7.25478 16.7837 7.25445 16.7644 7.23511C16.7451 7.21567 16.7451 7.18429 16.7644 7.16479L18.365 5.56421L18.364 5.56323Z" fill="#121314" stroke="#121314" stroke-width="1.5"/>
</svg>
