<svg width="16" height="16" viewBox="0 0 16 16" fill="none" xmlns="http://www.w3.org/2000/svg">
<path d="M2.64328 3.38853C4.00016 3.74537 4.24026 3.97328 4.61433 5.26499C4.64922 5.38459 4.76369 5.46765 4.89352 5.46765C5.02404 5.46765 5.13781 5.38459 5.17271 5.26499C5.54753 3.97323 5.78693 3.74465 7.14375 3.38853C7.26939 3.35531 7.35664 3.24634 7.35664 3.12274C7.35664 2.99848 7.26939 2.89017 7.14375 2.85695C5.78688 2.50012 5.54748 2.27221 5.17271 0.980498C5.13781 0.860892 5.02334 0.777832 4.89352 0.777832C4.763 0.777832 4.64922 0.860892 4.61433 0.980498C4.2395 2.27226 4.00011 2.50083 2.64328 2.85695C2.51764 2.89017 2.4304 2.99915 2.4304 3.12274C2.4304 3.247 2.51765 3.35531 2.64328 3.38853Z" fill="#0DA3A3"/>
<path d="M7.45591 12.0201C5.69003 11.5563 5.35086 11.2327 4.86359 9.5522C4.82869 9.43259 4.71422 9.34953 4.5844 9.34953C4.45387 9.34953 4.3401 9.43259 4.30521 9.5522C3.81801 11.2333 3.4788 11.5562 1.71288 12.0201C1.58725 12.0533 1.5 12.1623 1.5 12.2859C1.5 12.4102 1.58725 12.5185 1.71288 12.5517C3.47876 13.0155 3.81794 13.3391 4.30521 15.0196C4.3401 15.1392 4.45457 15.2223 4.5844 15.2223C4.71492 15.2223 4.82869 15.1392 4.86359 15.0196C5.35078 13.3385 5.69069 13.0156 7.45591 12.5517C7.58155 12.5185 7.66879 12.4095 7.66879 12.2859C7.66879 12.1616 7.58155 12.0533 7.45591 12.0201Z" fill="#0DA3A3"/>
<path d="M9.55252 2.58709C9.68228 2.58709 9.79686 2.67006 9.83182 2.78957C10.6603 5.64751 11.2851 6.24238 14.2869 7.03175C14.4124 7.06495 14.4996 7.17325 14.4998 7.29738C14.4998 7.42097 14.4125 7.53043 14.2869 7.56365L13.7517 7.70949C11.2063 8.43526 10.6092 9.12574 9.83182 11.8052L9.81489 11.8482C9.7679 11.944 9.66662 12.0077 9.55252 12.0077L9.505 12.0038C9.41124 11.9888 9.33054 11.9304 9.29015 11.8482L9.27323 11.8052C8.4958 9.12584 7.89852 8.43566 5.3533 7.70949L4.8175 7.56365C4.69186 7.53043 4.60461 7.42164 4.60461 7.29738C4.60475 7.17391 4.69196 7.06495 4.8175 7.03175C7.81956 6.24229 8.44404 5.64752 9.27323 2.78957C9.30815 2.67006 9.4221 2.58715 9.55252 2.58709ZM9.55187 4.97707C9.28906 5.5314 8.9729 6.00795 8.54992 6.41066C8.16249 6.77949 7.71062 7.06122 7.18989 7.29738C7.71062 7.53346 8.16248 7.81535 8.54992 8.1841C8.97287 8.58668 9.28972 9.06284 9.55252 9.61704C9.81525 9.06278 10.1322 8.58674 10.5551 8.1841C10.9423 7.81545 11.3935 7.53339 11.9139 7.29738C11.3935 7.0613 10.9423 6.7793 10.5551 6.41066C10.132 6.00781 9.81464 5.53163 9.55187 4.97707Z" fill="#0DA3A3"/>
</svg>
