<svg width="16" height="16" viewBox="0 0 16 16" fill="none" xmlns="http://www.w3.org/2000/svg">
<path d="M13.3346 5.8H2.66797C2.53536 5.8 2.40818 5.74733 2.31442 5.65356C2.22065 5.55979 2.16797 5.43261 2.16797 5.3C2.16797 5.16739 2.22065 5.04022 2.31442 4.94645C2.40818 4.85268 2.53536 4.8 2.66797 4.8H13.3346C13.4672 4.8 13.5944 4.85268 13.6882 4.94645C13.782 5.04022 13.8346 5.16739 13.8346 5.3C13.8346 5.43261 13.782 5.55979 13.6882 5.65356C13.5944 5.74733 13.4672 5.8 13.3346 5.8Z" fill="#121314"/>
<path d="M10.9587 13.8333H5.0387C4.82743 13.8478 4.61539 13.8201 4.41488 13.752C4.21436 13.6839 4.02937 13.5767 3.87062 13.4365C3.71186 13.2964 3.58251 13.1261 3.49006 12.9356C3.3976 12.7451 3.34389 12.5381 3.33203 12.3267V5.33333C3.33203 5.20073 3.38471 5.07355 3.47848 4.97978C3.57225 4.88601 3.69942 4.83333 3.83203 4.83333C3.96464 4.83333 4.09182 4.88601 4.18558 4.97978C4.27935 5.07355 4.33203 5.20073 4.33203 5.33333V12.3267C4.33203 12.6 4.64536 12.8333 4.9987 12.8333H10.9187C11.292 12.8333 11.5854 12.6 11.5854 12.3267V5.33333C11.5854 5.19012 11.6423 5.05277 11.7435 4.9515C11.8448 4.85023 11.9821 4.79333 12.1254 4.79333C12.2686 4.79333 12.4059 4.85023 12.5072 4.9515C12.6085 5.05277 12.6654 5.19012 12.6654 5.33333V12.3267C12.6535 12.5381 12.5998 12.7451 12.5073 12.9356C12.4149 13.1261 12.2855 13.2964 12.1268 13.4365C11.968 13.5767 11.783 13.6839 11.5825 13.752C11.382 13.8201 11.17 13.8478 10.9587 13.8333ZM11.0387 5.16667C10.9728 5.16756 10.9074 5.15524 10.8463 5.13043C10.7852 5.10562 10.7298 5.06883 10.6831 5.02222C10.6365 4.97561 10.5997 4.92013 10.5749 4.85906C10.5501 4.798 10.5378 4.73258 10.5387 4.66667V3.67333C10.5387 3.4 10.2187 3.16667 9.87203 3.16667H6.14536C5.7787 3.16667 5.4787 3.4 5.4787 3.67333V4.66667C5.4787 4.79927 5.42602 4.92645 5.33225 5.02022C5.23848 5.11399 5.11131 5.16667 4.9787 5.16667C4.84609 5.16667 4.71891 5.11399 4.62514 5.02022C4.53138 4.92645 4.4787 4.79927 4.4787 4.66667V3.67333C4.50451 3.25421 4.69339 2.86184 5.00489 2.58024C5.3164 2.29864 5.72577 2.15019 6.14536 2.16667H9.85203C10.275 2.14479 10.6895 2.29081 11.0054 2.57297C11.3212 2.85512 11.5129 3.25059 11.5387 3.67333V4.66667C11.5396 4.73289 11.5273 4.79862 11.5026 4.86006C11.4778 4.92149 11.4411 4.9774 11.3946 5.02454C11.3481 5.07168 11.2927 5.1091 11.2316 5.13465C11.1705 5.16019 11.1049 5.17334 11.0387 5.17333V5.16667Z" fill="#121314"/>
<path d="M6.8125 11.3333C6.68043 11.3316 6.55425 11.2784 6.46086 11.185C6.36746 11.0916 6.31423 10.9654 6.3125 10.8333V7.81334C6.3125 7.68073 6.36518 7.55355 6.45895 7.45979C6.55271 7.36602 6.67989 7.31334 6.8125 7.31334C6.94511 7.31334 7.07228 7.36602 7.16605 7.45979C7.25982 7.55355 7.3125 7.68073 7.3125 7.81334V10.8267C7.31338 10.8929 7.3011 10.9586 7.27637 11.0201C7.25164 11.0815 7.21495 11.1374 7.16843 11.1845C7.12191 11.2317 7.0665 11.2691 7.00539 11.2947C6.94429 11.3202 6.87873 11.3333 6.8125 11.3333ZM9.18583 11.3333C9.05322 11.3333 8.92605 11.2807 8.83228 11.1869C8.73851 11.0931 8.68583 10.9659 8.68583 10.8333V7.81334C8.68583 7.68073 8.73851 7.55355 8.83228 7.45979C8.92605 7.36602 9.05322 7.31334 9.18583 7.31334C9.31844 7.31334 9.44562 7.36602 9.53939 7.45979C9.63316 7.55355 9.68583 7.68073 9.68583 7.81334V10.8267C9.68584 10.9599 9.63338 11.0878 9.5398 11.1826C9.44622 11.2774 9.31905 11.3316 9.18583 11.3333Z" fill="#121314"/>
</svg>
