<svg width="17" height="16" viewBox="0 0 17 16" fill="none" xmlns="http://www.w3.org/2000/svg">
<rect x="1" y="0.5" width="15" height="15" rx="7.5" stroke="#4458FF"/>
<path d="M4.54736 7.58692C4.65775 7.47656 4.80746 7.41456 4.96356 7.41456C5.11966 7.41456 5.26937 7.47656 5.37976 7.58692L7.46135 9.66851L11.6234 5.50592C11.678 5.45122 11.7429 5.40783 11.8143 5.37821C11.8858 5.3486 11.9623 5.33334 12.0396 5.33331C12.117 5.33329 12.1935 5.34849 12.265 5.37805C12.3364 5.40762 12.4014 5.45097 12.4561 5.50562C12.5107 5.56028 12.5541 5.62517 12.5838 5.6966C12.6134 5.76803 12.6286 5.84459 12.6287 5.92191C12.6287 5.99923 12.6135 6.0758 12.5839 6.14725C12.5544 6.2187 12.511 6.28362 12.4563 6.33832L7.46135 11.3333L4.54736 8.41932C4.437 8.30893 4.375 8.15922 4.375 8.00312C4.375 7.84702 4.437 7.69731 4.54736 7.58692Z" fill="#4458FF"/>
</svg>
