<svg width="20" height="20" viewBox="0 0 20 20" fill="none" xmlns="http://www.w3.org/2000/svg">
<path d="M5.73047 12.3473C6.00539 13.248 6.28515 13.8996 6.78906 14.3795C7.27391 14.8412 7.92414 15.1043 8.82031 15.3571C7.92445 15.6098 7.27401 15.873 6.78906 16.3346C6.28511 16.8144 6.00535 17.466 5.73047 18.3668C5.45558 17.4663 5.17579 16.8144 4.67188 16.3346C4.18684 15.8728 3.53631 15.6099 2.63965 15.3571C3.53616 15.1042 4.18686 14.8421 4.67188 14.3805C5.17597 13.9006 5.45555 13.2484 5.73047 12.3473ZM11.9404 3.89319C12.4285 5.52612 12.9019 6.63325 13.7441 7.43518C14.5687 8.22032 15.6993 8.66613 17.3623 9.1217C15.6992 9.57695 14.5687 10.0231 13.7441 10.8082C12.9022 11.6099 12.4288 12.7169 11.9404 14.3492C11.452 12.7168 10.9789 11.6098 10.1367 10.8082C9.31187 10.0232 8.18107 9.57732 6.51758 9.1217C8.1811 8.66602 9.31189 8.22041 10.1367 7.43518C10.979 6.6333 11.452 5.52604 11.9404 3.89319ZM6.11621 1.6217C6.32157 2.28689 6.53387 2.79052 6.92578 3.1637C7.29826 3.5183 7.79334 3.71571 8.44531 3.90295C7.79325 4.08995 7.29833 4.28841 6.92578 4.64319C6.53418 5.01627 6.32148 5.51951 6.11621 6.1842C5.91123 5.51955 5.69951 5.01615 5.30762 4.64319C4.93461 4.28827 4.43923 4.09036 3.78613 3.90295C4.43915 3.7158 4.9347 3.51882 5.30762 3.1637C5.69945 2.7905 5.91086 2.28677 6.11621 1.6217Z" fill="white" stroke="white" stroke-width="0.902778"/>
</svg>
