<svg width="80" height="80" viewBox="0 0 80 80" fill="none" xmlns="http://www.w3.org/2000/svg">
<path d="M65.0017 73.3331C69.6033 73.3331 73.3336 69.6028 73.3336 65.0013C73.3336 60.3997 69.6033 56.6694 65.0017 56.6694C60.4002 56.6694 56.6699 60.3997 56.6699 65.0013C56.6699 69.6028 60.4002 73.3331 65.0017 73.3331Z" fill="#4458FF"/>
<path d="M48.3318 73.3331C52.9334 73.3331 56.6636 69.6028 56.6636 65.0013C56.6636 60.3997 52.9334 56.6694 48.3318 56.6694C43.7303 56.6694 40 60.3997 40 65.0013C40 69.6028 43.7303 73.3331 48.3318 73.3331Z" fill="#FB923C"/>
<path d="M14.9988 73.3331C19.6004 73.3331 23.3306 69.6028 23.3306 65.0013C23.3306 60.3997 19.6004 56.6694 14.9988 56.6694C10.3973 56.6694 6.66699 60.3997 6.66699 65.0013C6.66699 69.6028 10.3973 73.3331 14.9988 73.3331Z" fill="#4458FF"/>
<path d="M65.0017 56.6636C69.6033 56.6636 73.3336 52.9334 73.3336 48.3318C73.3336 43.7303 69.6033 40 65.0017 40C60.4002 40 56.6699 43.7303 56.6699 48.3318C56.6699 52.9334 60.4002 56.6636 65.0017 56.6636Z" fill="#4458FF"/>
<path d="M31.6687 56.6636C36.2703 56.6636 40.0006 52.9334 40.0006 48.3318C40.0006 43.7303 36.2703 40 31.6687 40C27.0672 40 23.3369 43.7303 23.3369 48.3318C23.3369 52.9334 27.0672 56.6636 31.6687 56.6636Z" fill="#FB923C"/>
<path d="M14.9988 56.6636C19.6004 56.6636 23.3306 52.9334 23.3306 48.3318C23.3306 43.7303 19.6004 40 14.9988 40C10.3973 40 6.66699 43.7303 6.66699 48.3318C6.66699 52.9334 10.3973 56.6636 14.9988 56.6636Z" fill="#4458FF"/>
<path d="M65.0017 40.0001C69.6033 40.0001 73.3336 36.2698 73.3336 31.6682C73.3336 27.0667 69.6033 23.3364 65.0017 23.3364C60.4002 23.3364 56.6699 27.0667 56.6699 31.6682C56.6699 36.2698 60.4002 40.0001 65.0017 40.0001Z" fill="#FB923C"/>
<path d="M48.3318 40.0001C52.9334 40.0001 56.6636 36.2698 56.6636 31.6682C56.6636 27.0667 52.9334 23.3364 48.3318 23.3364C43.7303 23.3364 40 27.0667 40 31.6682C40 36.2698 43.7303 40.0001 48.3318 40.0001Z" stroke="#121314" stroke-width="0.478465" stroke-linecap="round" stroke-linejoin="round"/>
<path d="M14.9988 40.0001C19.6004 40.0001 23.3306 36.2698 23.3306 31.6682C23.3306 27.0667 19.6004 23.3364 14.9988 23.3364C10.3973 23.3364 6.66699 27.0667 6.66699 31.6682C6.66699 36.2698 10.3973 40.0001 14.9988 40.0001Z" fill="#FB923C"/>
<path d="M65.0017 23.3306C69.6033 23.3306 73.3336 19.6004 73.3336 14.9988C73.3336 10.3973 69.6033 6.66699 65.0017 6.66699C60.4002 6.66699 56.6699 10.3973 56.6699 14.9988C56.6699 19.6004 60.4002 23.3306 65.0017 23.3306Z" fill="#4458FF"/>
<path d="M31.6689 6.90625C36.1383 6.90636 39.7617 10.5297 39.7617 14.999C39.7616 19.4683 36.1382 23.0917 31.6689 23.0918C27.1996 23.0918 23.5763 19.4683 23.5762 14.999C23.5762 10.5296 27.1995 6.90625 31.6689 6.90625Z" fill="#A4E43A" stroke="#121314" stroke-width="0.478465"/>
<path d="M14.9988 23.3306C19.6004 23.3306 23.3306 19.6004 23.3306 14.9988C23.3306 10.3973 19.6004 6.66699 14.9988 6.66699C10.3973 6.66699 6.66699 10.3973 6.66699 14.9988C6.66699 19.6004 10.3973 23.3306 14.9988 23.3306Z" fill="#4458FF"/>
<path d="M40 14.9988H56.6694" stroke="#121314" stroke-width="0.478465" stroke-linecap="round" stroke-linejoin="round"/>
<path d="M23.3306 31.6682H40" stroke="#121314" stroke-width="0.478465" stroke-linecap="round" stroke-linejoin="round"/>
<path d="M40 48.3318H56.6694" stroke="#121314" stroke-width="0.478465" stroke-linecap="round" stroke-linejoin="round"/>
<path d="M23.3306 65.0012H40" stroke="#121314" stroke-width="0.478465" stroke-linecap="round" stroke-linejoin="round"/>
</svg>
