<svg width="21" height="20" viewBox="0 0 21 20" fill="none" xmlns="http://www.w3.org/2000/svg">
<path d="M9.10156 6.35107C9.18259 6.50694 9.26777 6.66512 9.3623 6.82471C9.4667 7.00137 9.59594 7.20672 9.72266 7.37061C9.79401 7.47794 9.86833 7.57732 9.93457 7.66162L10.1074 7.87354C10.1271 7.89907 10.1552 7.93639 10.1729 7.9585C10.1876 7.97696 10.2097 8.00502 10.2363 8.03369C10.2434 8.04136 10.2553 8.05303 10.2705 8.06787C10.5644 8.41747 10.8848 8.72898 11.1729 8.97412C11.2042 9.00445 11.2343 9.0342 11.2627 9.05908C11.2817 9.07574 11.3038 9.09459 11.3271 9.11279C11.33 9.11502 11.3404 9.12237 11.3555 9.1333C11.5022 9.25607 11.6749 9.39341 11.8389 9.50244V9.50342C12.0265 9.63747 12.2204 9.76624 12.4268 9.88818C12.5851 9.98199 12.745 10.0665 12.9023 10.146L8.4541 14.5942C8.44956 14.5969 8.44391 14.6008 8.4375 14.604C8.42415 14.6107 8.41057 14.6151 8.40039 14.6187L5.2207 15.0669L5.21094 15.0688L5.20215 15.0698C5.14247 15.0798 5.08339 15.0845 5.02539 15.0845C4.75383 15.0845 4.53354 14.9914 4.3877 14.853C4.22721 14.6835 4.12248 14.3981 4.17578 14.0356V14.0308L4.62207 10.8696C4.62583 10.859 4.63183 10.8442 4.63965 10.8286C4.64659 10.8147 4.65258 10.8035 4.65723 10.7964L9.10156 6.35107ZM13.9316 2.42334C14.4646 2.4268 15.0865 2.69932 15.8193 3.43213L15.8223 3.43408C16.573 4.17733 16.8307 4.79487 16.8252 5.34424V5.35107C16.8252 5.87727 16.5675 6.48932 15.8223 7.22705L15.8174 7.23193L14.9961 8.05908C13.2136 7.47029 11.7836 6.04209 11.1934 4.26025L12.0225 3.43213C12.7726 2.68199 13.4013 2.41991 13.9316 2.42334Z" fill="#121314" stroke="#121314" stroke-width="1.5"/>
</svg>
