<svg width="20" height="20" viewBox="0 0 20 20" fill="none" xmlns="http://www.w3.org/2000/svg">
<path d="M4.7334 7.2085H15.2666C15.3423 7.2085 15.4198 7.23908 15.4785 7.29736C15.5328 7.35946 15.5636 7.44191 15.5596 7.52979L15.043 16.0708C14.9942 16.7475 14.9388 17.2283 14.6846 17.5767C14.4765 17.8613 14.0011 18.2163 12.6748 18.2163H7.3252C6.00034 18.2163 5.52501 17.8607 5.31641 17.5747C5.06128 17.2249 5.00586 16.7433 4.95703 16.0708L4.44043 7.521C4.4367 7.44187 4.4674 7.35569 4.52734 7.29053C4.56798 7.24663 4.64625 7.20851 4.7334 7.2085ZM8.6084 12.7915C7.85254 12.7915 7.2334 13.4106 7.2334 14.1665C7.2334 14.9224 7.85254 15.5415 8.6084 15.5415H11.3838C12.1395 15.5413 12.7588 14.9223 12.7588 14.1665C12.7588 13.4107 12.1395 12.7917 11.3838 12.7915H8.6084ZM7.91699 9.4585C7.20845 9.4585 6.61975 10.0022 6.54883 10.6929L6.54199 10.8335L6.54883 10.9731C6.61959 11.664 7.20834 12.2085 7.91699 12.2085H12.083C12.8388 12.2085 13.4578 11.5892 13.458 10.8335C13.458 10.0776 12.8389 9.4585 12.083 9.4585H7.91699ZM8.90039 1.7915H11.083C11.9021 1.7915 12.1874 2.02457 12.3105 2.1792C12.4753 2.38614 12.5345 2.66711 12.6016 3.07861L12.6025 3.0835L12.7754 4.10791V4.50732C10.8993 4.41989 9.02366 4.40308 7.15039 4.48096L7.20703 4.13818L7.38184 3.07178C7.45342 2.63779 7.51436 2.36344 7.6748 2.16553C7.79388 2.01881 8.07559 1.7915 8.90039 1.7915Z" fill="#121314" stroke="#121314" stroke-width="1.5"/>
</svg>
