<svg width="72" height="32" viewBox="0 0 72 32" fill="none" xmlns="http://www.w3.org/2000/svg">
<path d="M16 0.5H56C64.5604 0.5 71.5 7.43959 71.5 16C71.5 24.5604 64.5604 31.5 56 31.5H16C7.43959 31.5 0.5 24.5604 0.5 16C0.5 7.43959 7.43959 0.5 16 0.5Z" fill="#42434A"/>
<path d="M16 0.5H56C64.5604 0.5 71.5 7.43959 71.5 16C71.5 24.5604 64.5604 31.5 56 31.5H16C7.43959 31.5 0.5 24.5604 0.5 16C0.5 7.43959 7.43959 0.5 16 0.5Z" stroke="#C8CDE3"/>
<path d="M13.4766 23.7441V8.78405H19.3066C23.0026 8.78405 25.2906 10.6541 25.2906 13.8001C25.2906 17.0121 22.9806 18.8601 19.3506 18.8601H16.9966V23.7441H13.4766ZM19.2406 11.5781H16.9966V16.0661H19.1526C20.8686 16.0661 21.6606 15.1641 21.6606 13.8221C21.6606 12.4581 20.8246 11.5781 19.2406 11.5781Z" fill="#C8CDE3"/>
<path d="M27.973 23.7441V7.90405H31.339V23.7441H27.973Z" fill="#C8CDE3"/>
<path d="M41.7419 18.7061V11.9081H45.1079V23.7441H41.7419V22.1601C40.9719 23.4801 39.8059 24.0961 38.3759 24.0961C36.1319 24.0961 34.4819 22.7321 34.4819 19.7841V11.9081H37.8479V19.1021C37.8479 20.6201 38.4199 21.3681 39.6079 21.3681C40.9059 21.3681 41.7419 20.2241 41.7419 18.7061Z" fill="#C8CDE3"/>
<path d="M51.2 15.1861C51.2 17.5181 58.526 15.4721 58.526 20.1581C58.526 22.4901 56.37 24.0961 53.29 24.0961C50.298 24.0961 48.142 22.7761 47.702 19.8501H51.068C51.222 20.9501 52.124 21.5441 53.378 21.5441C54.566 21.5441 55.16 21.0821 55.16 20.3561C55.16 18.0681 47.988 20.1141 47.988 15.3621C47.988 13.3821 49.594 11.5341 52.762 11.5341C55.6 11.5341 57.756 12.8321 58.086 15.8241H54.742C54.544 14.6141 53.84 14.1081 52.652 14.1081C51.772 14.1081 51.2 14.5481 51.2 15.1861Z" fill="#C8CDE3"/>
</svg>
