<svg width="72" height="32" viewBox="0 0 72 32" fill="none" xmlns="http://www.w3.org/2000/svg">
<path d="M16 0.5H56C64.5604 0.5 71.5 7.43959 71.5 16C71.5 24.5604 64.5604 31.5 56 31.5H16C7.43959 31.5 0.5 24.5604 0.5 16C0.5 7.43959 7.43959 0.5 16 0.5Z" fill="#423F21"/>
<path d="M16 0.5H56C64.5604 0.5 71.5 7.43959 71.5 16C71.5 24.5604 64.5604 31.5 56 31.5H16C7.43959 31.5 0.5 24.5604 0.5 16C0.5 7.43959 7.43959 0.5 16 0.5Z" stroke="#FFEDB6"/>
<path d="M18.3594 23.304V8.34399H24.1894C27.8854 8.34399 30.1734 10.214 30.1734 13.36C30.1734 16.572 27.8634 18.42 24.2334 18.42H21.8794V23.304H18.3594ZM24.1234 11.138H21.8794V15.626H24.0354C25.7514 15.626 26.5434 14.724 26.5434 13.382C26.5434 12.018 25.7074 11.138 24.1234 11.138Z" fill="#FFEDB6"/>
<path d="M32.8558 23.304V11.468H36.2218V13.118C36.9698 11.71 38.1138 11.094 39.3238 11.094C39.8078 11.094 40.2478 11.226 40.4898 11.468V14.306C40.0938 14.218 39.6758 14.174 39.1478 14.174C37.1238 14.174 36.2218 15.318 36.2218 17.188V23.304H32.8558Z" fill="#FFEDB6"/>
<path d="M47.8035 23.656C44.2175 23.656 41.9955 21.28 41.9955 17.386C41.9955 13.36 44.2835 11.094 47.8035 11.094C51.3895 11.094 53.6335 13.514 53.6335 17.386C53.6335 21.39 51.3235 23.656 47.8035 23.656ZM47.8035 20.928C49.3655 20.928 50.1795 19.696 50.1795 17.386C50.1795 15.098 49.3435 13.822 47.8035 13.822C46.2635 13.822 45.4495 15.076 45.4495 17.386C45.4495 19.674 46.2855 20.928 47.8035 20.928Z" fill="#FFEDB6"/>
</svg>
